%TF.GenerationSoftware,KiCad,Pcbnew,8.0.5*%
%TF.CreationDate,2024-12-11T15:25:16-08:00*%
%TF.ProjectId,ESP32-Proto,45535033-322d-4507-926f-746f2e6b6963,rev?*%
%TF.SameCoordinates,Original*%
%TF.FileFunction,Copper,L2,Bot*%
%TF.FilePolarity,Positive*%
%FSLAX46Y46*%
G04 Gerber Fmt 4.6, Leading zero omitted, Abs format (unit mm)*
G04 Created by KiCad (PCBNEW 8.0.5) date 2024-12-11 15:25:16*
%MOMM*%
%LPD*%
G01*
G04 APERTURE LIST*
%TA.AperFunction,ComponentPad*%
%ADD10C,1.600000*%
%TD*%
%TA.AperFunction,ComponentPad*%
%ADD11R,1.600000X1.600000*%
%TD*%
%TA.AperFunction,ComponentPad*%
%ADD12C,2.400000*%
%TD*%
%TA.AperFunction,ComponentPad*%
%ADD13R,2.400000X2.400000*%
%TD*%
%TA.AperFunction,ComponentPad*%
%ADD14O,1.350000X1.700000*%
%TD*%
%TA.AperFunction,ComponentPad*%
%ADD15O,1.100000X1.500000*%
%TD*%
%TA.AperFunction,ComponentPad*%
%ADD16C,2.600000*%
%TD*%
%TA.AperFunction,ComponentPad*%
%ADD17R,2.600000X2.600000*%
%TD*%
%TA.AperFunction,ViaPad*%
%ADD18C,0.600000*%
%TD*%
%TA.AperFunction,Conductor*%
%ADD19C,0.500000*%
%TD*%
%TA.AperFunction,Conductor*%
%ADD20C,0.400000*%
%TD*%
G04 APERTURE END LIST*
D10*
%TO.P,C2,2*%
%TO.N,GND*%
X124700000Y-104800000D03*
D11*
%TO.P,C2,1*%
%TO.N,Net-(U3-EN)*%
X124700000Y-102300000D03*
%TD*%
D12*
%TO.P,J5,8,Pin_8*%
%TO.N,CANH*%
X153900000Y-113150000D03*
%TO.P,J5,7,Pin_7*%
%TO.N,CANL*%
X150400000Y-113150000D03*
%TO.P,J5,6,Pin_6*%
%TO.N,GPIO6{slash}ADC5*%
X146900000Y-113150000D03*
%TO.P,J5,5,Pin_5*%
%TO.N,GPIO5{slash}ADC4*%
X143400000Y-113150000D03*
%TO.P,J5,4,Pin_4*%
%TO.N,GPIO4{slash}ADC3*%
X139900000Y-113150000D03*
%TO.P,J5,3,Pin_3*%
%TO.N,GPIO3{slash}ADC2*%
X136400000Y-113150000D03*
%TO.P,J5,2,Pin_2*%
%TO.N,GPIO2{slash}ADC1*%
X132900000Y-113150000D03*
D13*
%TO.P,J5,1,Pin_1*%
%TO.N,GPIO1{slash}ADC0*%
X129400000Y-113150000D03*
%TD*%
D14*
%TO.P,J3,6,Shield*%
%TO.N,GND*%
X162790000Y-119130000D03*
D15*
X163100000Y-116130000D03*
X167940000Y-116130000D03*
D14*
X168250000Y-119130000D03*
%TD*%
D16*
%TO.P,J1,4,Pin_4*%
%TO.N,+12V*%
X130900000Y-75300000D03*
%TO.P,J1,3,Pin_3*%
%TO.N,+5V*%
X135900000Y-75300000D03*
%TO.P,J1,2,Pin_2*%
%TO.N,+3.3V*%
X140900000Y-75300000D03*
D17*
%TO.P,J1,1,Pin_1*%
%TO.N,GND*%
X145900000Y-75300000D03*
%TD*%
D18*
%TO.N,GND*%
X168100000Y-114330000D03*
X164600000Y-96300000D03*
X173500000Y-80900000D03*
X173400000Y-96300000D03*
X131800000Y-95500000D03*
X140500000Y-83100000D03*
X161800000Y-80000000D03*
X155400000Y-102300000D03*
X161400000Y-93000000D03*
X155100000Y-85500000D03*
X142300000Y-96200000D03*
X142800000Y-82000000D03*
X163000000Y-96300000D03*
X133000000Y-95500000D03*
X138500000Y-98400000D03*
X158800000Y-88000000D03*
X168100000Y-93100000D03*
X148900000Y-91500000D03*
X180600000Y-80300000D03*
X166300000Y-96300000D03*
X132200000Y-102900000D03*
X163000000Y-90100000D03*
X122600000Y-98500000D03*
X155300000Y-105500000D03*
X157700000Y-101500000D03*
X164700000Y-87500000D03*
X151800000Y-81100000D03*
X135000000Y-88300000D03*
X177000000Y-102800000D03*
X159000000Y-103900000D03*
X138900000Y-82600000D03*
X173300000Y-110350000D03*
X163600000Y-80000000D03*
X177200000Y-95400000D03*
X171700000Y-101700000D03*
X173200000Y-89100000D03*
X133100000Y-99700000D03*
X162600000Y-114430000D03*
X165200000Y-111800000D03*
X164700000Y-90200000D03*
X170600000Y-87400000D03*
X166350000Y-90050000D03*
X131800000Y-99700000D03*
%TO.N,+3.3V*%
X152019000Y-89281000D03*
X152600000Y-96000000D03*
%TO.N,Net-(U1-GPIO0{slash}BOOT)*%
X159975000Y-84675000D03*
X160000000Y-87300000D03*
%TD*%
D19*
%TO.N,+3.3V*%
X152600000Y-96000000D02*
X152600000Y-89862000D01*
X152600000Y-89862000D02*
X152019000Y-89281000D01*
D20*
%TO.N,Net-(U1-GPIO0{slash}BOOT)*%
X159975000Y-87275000D02*
X160000000Y-87300000D01*
X159975000Y-84675000D02*
X159975000Y-87275000D01*
%TD*%
%TA.AperFunction,Conductor*%
%TO.N,GND*%
G36*
X176938716Y-69736957D02*
G01*
X176940474Y-69737075D01*
X176947531Y-69737075D01*
X177010874Y-69737075D01*
X177015998Y-69737180D01*
X177450074Y-69755136D01*
X177460243Y-69755979D01*
X177888850Y-69809406D01*
X177898927Y-69811088D01*
X178321641Y-69899723D01*
X178331549Y-69902232D01*
X178745501Y-70025472D01*
X178755168Y-70028791D01*
X179062775Y-70148821D01*
X179157510Y-70185787D01*
X179166895Y-70189904D01*
X179554885Y-70379581D01*
X179563894Y-70384455D01*
X179934921Y-70605540D01*
X179943489Y-70611138D01*
X180294985Y-70862102D01*
X180303067Y-70868393D01*
X180632622Y-71147512D01*
X180640162Y-71154453D01*
X180945546Y-71459837D01*
X180952487Y-71467377D01*
X181231606Y-71796932D01*
X181237901Y-71805019D01*
X181488857Y-72156504D01*
X181494463Y-72165084D01*
X181715541Y-72536100D01*
X181720418Y-72545114D01*
X181910095Y-72933104D01*
X181914212Y-72942489D01*
X182071203Y-73344818D01*
X182074531Y-73354511D01*
X182197763Y-73768437D01*
X182200279Y-73778372D01*
X182288908Y-74201058D01*
X182290595Y-74211166D01*
X182344018Y-74639732D01*
X182344864Y-74649946D01*
X182362817Y-75083987D01*
X182362923Y-75089154D01*
X182349524Y-114926006D01*
X182349500Y-114926390D01*
X182349500Y-114997438D01*
X182349394Y-115002562D01*
X182331441Y-115436629D01*
X182330595Y-115446843D01*
X182277174Y-115875410D01*
X182275487Y-115885519D01*
X182186859Y-116308206D01*
X182184343Y-116318141D01*
X182061111Y-116732068D01*
X182057783Y-116741761D01*
X181900795Y-117144085D01*
X181896679Y-117153470D01*
X181706998Y-117541471D01*
X181702120Y-117550485D01*
X181481045Y-117921496D01*
X181475439Y-117930075D01*
X181224483Y-118281561D01*
X181218188Y-118289649D01*
X180939069Y-118619204D01*
X180932128Y-118626744D01*
X180626744Y-118932128D01*
X180619204Y-118939069D01*
X180289649Y-119218188D01*
X180281561Y-119224483D01*
X179930075Y-119475439D01*
X179921496Y-119481045D01*
X179550485Y-119702120D01*
X179541471Y-119706998D01*
X179153470Y-119896679D01*
X179144085Y-119900795D01*
X178741761Y-120057783D01*
X178732068Y-120061111D01*
X178318141Y-120184343D01*
X178308206Y-120186859D01*
X177885519Y-120275487D01*
X177875410Y-120277174D01*
X177446843Y-120330595D01*
X177436629Y-120331441D01*
X177002563Y-120349394D01*
X176997439Y-120349500D01*
X169166563Y-120349500D01*
X169099524Y-120329815D01*
X169053769Y-120277011D01*
X169043825Y-120207853D01*
X169072850Y-120144297D01*
X169078882Y-120137819D01*
X169146241Y-120070459D01*
X169146245Y-120070454D01*
X169254947Y-119920837D01*
X169338913Y-119756045D01*
X169379869Y-119630000D01*
X168494975Y-119630000D01*
X168530070Y-119594905D01*
X168576148Y-119515095D01*
X168600000Y-119426078D01*
X168600000Y-118833922D01*
X168576148Y-118744905D01*
X168530070Y-118665095D01*
X168464905Y-118599930D01*
X168385095Y-118553852D01*
X168296078Y-118530000D01*
X168203922Y-118530000D01*
X168114905Y-118553852D01*
X168035095Y-118599930D01*
X167969930Y-118665095D01*
X167923852Y-118744905D01*
X167900000Y-118833922D01*
X167900000Y-119426078D01*
X167923852Y-119515095D01*
X167969930Y-119594905D01*
X168005025Y-119630000D01*
X167120131Y-119630000D01*
X167161086Y-119756045D01*
X167245052Y-119920837D01*
X167353754Y-120070454D01*
X167353758Y-120070459D01*
X167421118Y-120137819D01*
X167454603Y-120199142D01*
X167449619Y-120268834D01*
X167407747Y-120324767D01*
X167342283Y-120349184D01*
X167333437Y-120349500D01*
X163706563Y-120349500D01*
X163639524Y-120329815D01*
X163593769Y-120277011D01*
X163583825Y-120207853D01*
X163612850Y-120144297D01*
X163618882Y-120137819D01*
X163686241Y-120070459D01*
X163686245Y-120070454D01*
X163794947Y-119920837D01*
X163878913Y-119756045D01*
X163919869Y-119630000D01*
X163034975Y-119630000D01*
X163070070Y-119594905D01*
X163116148Y-119515095D01*
X163140000Y-119426078D01*
X163140000Y-118833922D01*
X163116148Y-118744905D01*
X163070070Y-118665095D01*
X163004905Y-118599930D01*
X162925095Y-118553852D01*
X162836078Y-118530000D01*
X162743922Y-118530000D01*
X162654905Y-118553852D01*
X162575095Y-118599930D01*
X162509930Y-118665095D01*
X162463852Y-118744905D01*
X162440000Y-118833922D01*
X162440000Y-119426078D01*
X162463852Y-119515095D01*
X162509930Y-119594905D01*
X162545025Y-119630000D01*
X161660131Y-119630000D01*
X161701086Y-119756045D01*
X161785052Y-119920837D01*
X161893754Y-120070454D01*
X161893758Y-120070459D01*
X161961118Y-120137819D01*
X161994603Y-120199142D01*
X161989619Y-120268834D01*
X161947747Y-120324767D01*
X161882283Y-120349184D01*
X161873437Y-120349500D01*
X122002561Y-120349500D01*
X121997437Y-120349394D01*
X121563370Y-120331441D01*
X121553156Y-120330595D01*
X121124589Y-120277174D01*
X121114480Y-120275487D01*
X120691793Y-120186859D01*
X120681858Y-120184343D01*
X120267931Y-120061111D01*
X120258238Y-120057783D01*
X119855914Y-119900795D01*
X119846529Y-119896679D01*
X119458528Y-119706998D01*
X119449514Y-119702120D01*
X119078503Y-119481045D01*
X119069924Y-119475439D01*
X118718438Y-119224483D01*
X118710350Y-119218188D01*
X118380795Y-118939069D01*
X118373255Y-118932128D01*
X118071126Y-118629999D01*
X161660131Y-118629999D01*
X161660131Y-118630000D01*
X162290000Y-118630000D01*
X162290000Y-117891029D01*
X163290000Y-117891029D01*
X163290000Y-118630000D01*
X163919869Y-118630000D01*
X163919868Y-118629999D01*
X167120131Y-118629999D01*
X167120131Y-118630000D01*
X167750000Y-118630000D01*
X167750000Y-117891029D01*
X168750000Y-117891029D01*
X168750000Y-118630000D01*
X169379869Y-118630000D01*
X169379868Y-118629999D01*
X169338913Y-118503954D01*
X169254947Y-118339162D01*
X169146245Y-118189545D01*
X169146241Y-118189540D01*
X169015459Y-118058758D01*
X169015454Y-118058754D01*
X168865833Y-117950049D01*
X168865832Y-117950048D01*
X168750001Y-117891028D01*
X168750000Y-117891029D01*
X167750000Y-117891029D01*
X167749998Y-117891028D01*
X167634167Y-117950048D01*
X167634166Y-117950049D01*
X167484545Y-118058754D01*
X167484540Y-118058758D01*
X167353758Y-118189540D01*
X167353754Y-118189545D01*
X167245052Y-118339162D01*
X167161086Y-118503954D01*
X167120131Y-118629999D01*
X163919868Y-118629999D01*
X163878913Y-118503954D01*
X163794947Y-118339162D01*
X163686245Y-118189545D01*
X163686241Y-118189540D01*
X163555459Y-118058758D01*
X163555454Y-118058754D01*
X163405833Y-117950049D01*
X163405832Y-117950048D01*
X163290001Y-117891028D01*
X163290000Y-117891029D01*
X162290000Y-117891029D01*
X162289998Y-117891028D01*
X162174167Y-117950048D01*
X162174166Y-117950049D01*
X162024545Y-118058754D01*
X162024540Y-118058758D01*
X161893758Y-118189540D01*
X161893754Y-118189545D01*
X161785052Y-118339162D01*
X161701086Y-118503954D01*
X161660131Y-118629999D01*
X118071126Y-118629999D01*
X118067871Y-118626744D01*
X118060930Y-118619204D01*
X117859210Y-118381034D01*
X117781806Y-118289643D01*
X117775516Y-118281561D01*
X117524560Y-117930075D01*
X117518954Y-117921496D01*
X117297879Y-117550485D01*
X117293001Y-117541471D01*
X117103320Y-117153470D01*
X117099204Y-117144085D01*
X117029820Y-116966269D01*
X116942211Y-116741749D01*
X116938892Y-116732081D01*
X116815652Y-116318128D01*
X116813143Y-116308220D01*
X116724509Y-115885505D01*
X116722827Y-115875425D01*
X116669402Y-115446822D01*
X116668559Y-115436649D01*
X116650606Y-115002562D01*
X116650500Y-114997438D01*
X116650500Y-114868872D01*
X119999500Y-114868872D01*
X119999500Y-115131127D01*
X120016555Y-115260664D01*
X120033730Y-115391116D01*
X120101602Y-115644418D01*
X120101605Y-115644428D01*
X120201953Y-115886690D01*
X120201958Y-115886700D01*
X120333075Y-116113803D01*
X120492718Y-116321851D01*
X120492726Y-116321860D01*
X120678140Y-116507274D01*
X120678148Y-116507281D01*
X120886196Y-116666924D01*
X121113299Y-116798041D01*
X121113309Y-116798046D01*
X121355571Y-116898394D01*
X121355581Y-116898398D01*
X121608884Y-116966270D01*
X121857188Y-116998960D01*
X121860061Y-116999339D01*
X121868880Y-117000500D01*
X121868887Y-117000500D01*
X122131113Y-117000500D01*
X122131120Y-117000500D01*
X122391116Y-116966270D01*
X122644419Y-116898398D01*
X122886697Y-116798043D01*
X123113803Y-116666924D01*
X123161923Y-116630000D01*
X162089102Y-116630000D01*
X162090348Y-116636266D01*
X162090350Y-116636274D01*
X162169500Y-116827358D01*
X162169505Y-116827368D01*
X162284410Y-116999335D01*
X162284413Y-116999339D01*
X162430660Y-117145586D01*
X162430668Y-117145592D01*
X162599999Y-117258735D01*
X162600000Y-117258735D01*
X163600000Y-117258735D01*
X163769331Y-117145592D01*
X163769339Y-117145586D01*
X163915586Y-116999339D01*
X163915589Y-116999335D01*
X164030494Y-116827368D01*
X164030499Y-116827358D01*
X164109649Y-116636274D01*
X164109651Y-116636266D01*
X164110898Y-116630000D01*
X166929102Y-116630000D01*
X166930348Y-116636266D01*
X166930350Y-116636274D01*
X167009500Y-116827358D01*
X167009505Y-116827368D01*
X167124410Y-116999335D01*
X167124413Y-116999339D01*
X167270660Y-117145586D01*
X167270668Y-117145592D01*
X167439999Y-117258735D01*
X167440000Y-117258735D01*
X168440000Y-117258735D01*
X168609331Y-117145592D01*
X168609339Y-117145586D01*
X168755586Y-116999339D01*
X168755589Y-116999335D01*
X168870494Y-116827368D01*
X168870499Y-116827358D01*
X168949649Y-116636274D01*
X168949651Y-116636266D01*
X168950898Y-116630000D01*
X168440000Y-116630000D01*
X168440000Y-117258735D01*
X167440000Y-117258735D01*
X167440000Y-116630000D01*
X166929102Y-116630000D01*
X164110898Y-116630000D01*
X163600000Y-116630000D01*
X163600000Y-117258735D01*
X162600000Y-117258735D01*
X162600000Y-116630000D01*
X162089102Y-116630000D01*
X123161923Y-116630000D01*
X123321851Y-116507282D01*
X123321855Y-116507277D01*
X123321860Y-116507274D01*
X123507274Y-116321860D01*
X123507277Y-116321855D01*
X123507282Y-116321851D01*
X123666924Y-116113803D01*
X123797745Y-115887213D01*
X162775000Y-115887213D01*
X162775000Y-116372787D01*
X162797149Y-116455445D01*
X162839936Y-116529554D01*
X162900446Y-116590064D01*
X162974555Y-116632851D01*
X163057213Y-116655000D01*
X163142787Y-116655000D01*
X163225445Y-116632851D01*
X163299554Y-116590064D01*
X163360064Y-116529554D01*
X163402851Y-116455445D01*
X163425000Y-116372787D01*
X163425000Y-115887213D01*
X167615000Y-115887213D01*
X167615000Y-116372787D01*
X167637149Y-116455445D01*
X167679936Y-116529554D01*
X167740446Y-116590064D01*
X167814555Y-116632851D01*
X167897213Y-116655000D01*
X167982787Y-116655000D01*
X168065445Y-116632851D01*
X168139554Y-116590064D01*
X168200064Y-116529554D01*
X168242851Y-116455445D01*
X168265000Y-116372787D01*
X168265000Y-115887213D01*
X168242851Y-115804555D01*
X168200064Y-115730446D01*
X168139554Y-115669936D01*
X168070383Y-115630000D01*
X168440000Y-115630000D01*
X168950898Y-115630000D01*
X168950898Y-115629999D01*
X168949651Y-115623733D01*
X168949649Y-115623725D01*
X168870499Y-115432641D01*
X168870494Y-115432631D01*
X168755589Y-115260664D01*
X168755586Y-115260660D01*
X168609339Y-115114413D01*
X168609335Y-115114410D01*
X168440000Y-115001263D01*
X168440000Y-115630000D01*
X168070383Y-115630000D01*
X168065445Y-115627149D01*
X167982787Y-115605000D01*
X167897213Y-115605000D01*
X167814555Y-115627149D01*
X167740446Y-115669936D01*
X167679936Y-115730446D01*
X167637149Y-115804555D01*
X167615000Y-115887213D01*
X163425000Y-115887213D01*
X163402851Y-115804555D01*
X163360064Y-115730446D01*
X163299554Y-115669936D01*
X163230383Y-115630000D01*
X163600000Y-115630000D01*
X164110898Y-115630000D01*
X164110898Y-115629999D01*
X166929101Y-115629999D01*
X166929102Y-115630000D01*
X167440000Y-115630000D01*
X167440000Y-115001263D01*
X167270664Y-115114410D01*
X167270660Y-115114413D01*
X167124413Y-115260660D01*
X167124410Y-115260664D01*
X167009505Y-115432631D01*
X167009500Y-115432641D01*
X166930350Y-115623725D01*
X166930348Y-115623733D01*
X166929101Y-115629999D01*
X164110898Y-115629999D01*
X164109651Y-115623733D01*
X164109649Y-115623725D01*
X164030499Y-115432641D01*
X164030494Y-115432631D01*
X163915589Y-115260664D01*
X163915586Y-115260660D01*
X163769339Y-115114413D01*
X163769335Y-115114410D01*
X163600000Y-115001263D01*
X163600000Y-115630000D01*
X163230383Y-115630000D01*
X163225445Y-115627149D01*
X163142787Y-115605000D01*
X163057213Y-115605000D01*
X162974555Y-115627149D01*
X162900446Y-115669936D01*
X162839936Y-115730446D01*
X162797149Y-115804555D01*
X162775000Y-115887213D01*
X123797745Y-115887213D01*
X123798043Y-115886697D01*
X123898398Y-115644419D01*
X123902262Y-115629999D01*
X162089101Y-115629999D01*
X162089102Y-115630000D01*
X162600000Y-115630000D01*
X162600000Y-115001263D01*
X162430664Y-115114410D01*
X162430660Y-115114413D01*
X162284413Y-115260660D01*
X162284410Y-115260664D01*
X162169505Y-115432631D01*
X162169500Y-115432641D01*
X162090350Y-115623725D01*
X162090348Y-115623733D01*
X162089101Y-115629999D01*
X123902262Y-115629999D01*
X123966270Y-115391116D01*
X124000500Y-115131120D01*
X124000500Y-114868880D01*
X124000499Y-114868872D01*
X174999500Y-114868872D01*
X174999500Y-115131127D01*
X175016555Y-115260664D01*
X175033730Y-115391116D01*
X175101602Y-115644418D01*
X175101605Y-115644428D01*
X175201953Y-115886690D01*
X175201958Y-115886700D01*
X175333075Y-116113803D01*
X175492718Y-116321851D01*
X175492726Y-116321860D01*
X175678140Y-116507274D01*
X175678148Y-116507281D01*
X175886196Y-116666924D01*
X176113299Y-116798041D01*
X176113309Y-116798046D01*
X176355571Y-116898394D01*
X176355581Y-116898398D01*
X176608884Y-116966270D01*
X176857188Y-116998960D01*
X176860061Y-116999339D01*
X176868880Y-117000500D01*
X176868887Y-117000500D01*
X177131113Y-117000500D01*
X177131120Y-117000500D01*
X177391116Y-116966270D01*
X177644419Y-116898398D01*
X177886697Y-116798043D01*
X178113803Y-116666924D01*
X178321851Y-116507282D01*
X178321855Y-116507277D01*
X178321860Y-116507274D01*
X178507274Y-116321860D01*
X178507277Y-116321855D01*
X178507282Y-116321851D01*
X178666924Y-116113803D01*
X178798043Y-115886697D01*
X178898398Y-115644419D01*
X178966270Y-115391116D01*
X179000500Y-115131120D01*
X179000500Y-114868880D01*
X178966270Y-114608884D01*
X178898398Y-114355581D01*
X178879467Y-114309877D01*
X178798046Y-114113309D01*
X178798041Y-114113299D01*
X178666924Y-113886196D01*
X178507281Y-113678148D01*
X178507274Y-113678140D01*
X178321860Y-113492726D01*
X178321851Y-113492718D01*
X178113803Y-113333075D01*
X177886700Y-113201958D01*
X177886690Y-113201953D01*
X177644428Y-113101605D01*
X177644421Y-113101603D01*
X177644419Y-113101602D01*
X177391116Y-113033730D01*
X177333339Y-113026123D01*
X177131127Y-112999500D01*
X177131120Y-112999500D01*
X176868880Y-112999500D01*
X176868872Y-112999500D01*
X176637772Y-113029926D01*
X176608884Y-113033730D01*
X176355581Y-113101602D01*
X176355571Y-113101605D01*
X176113309Y-113201953D01*
X176113299Y-113201958D01*
X175886196Y-113333075D01*
X175678148Y-113492718D01*
X175492718Y-113678148D01*
X175333075Y-113886196D01*
X175201958Y-114113299D01*
X175201953Y-114113309D01*
X175101605Y-114355571D01*
X175101602Y-114355581D01*
X175038165Y-114592335D01*
X175033730Y-114608885D01*
X174999500Y-114868872D01*
X124000499Y-114868872D01*
X123966270Y-114608884D01*
X123898398Y-114355581D01*
X123879467Y-114309877D01*
X123798046Y-114113309D01*
X123798041Y-114113299D01*
X123666924Y-113886196D01*
X123507281Y-113678148D01*
X123507274Y-113678140D01*
X123321860Y-113492726D01*
X123321851Y-113492718D01*
X123113803Y-113333075D01*
X122886700Y-113201958D01*
X122886690Y-113201953D01*
X122644428Y-113101605D01*
X122644421Y-113101603D01*
X122644419Y-113101602D01*
X122391116Y-113033730D01*
X122333339Y-113026123D01*
X122131127Y-112999500D01*
X122131120Y-112999500D01*
X121868880Y-112999500D01*
X121868872Y-112999500D01*
X121637772Y-113029926D01*
X121608884Y-113033730D01*
X121355581Y-113101602D01*
X121355571Y-113101605D01*
X121113309Y-113201953D01*
X121113299Y-113201958D01*
X120886196Y-113333075D01*
X120678148Y-113492718D01*
X120492718Y-113678148D01*
X120333075Y-113886196D01*
X120201958Y-114113299D01*
X120201953Y-114113309D01*
X120101605Y-114355571D01*
X120101602Y-114355581D01*
X120038165Y-114592335D01*
X120033730Y-114608885D01*
X119999500Y-114868872D01*
X116650500Y-114868872D01*
X116650500Y-111902135D01*
X127699500Y-111902135D01*
X127699500Y-114397870D01*
X127699501Y-114397876D01*
X127705908Y-114457483D01*
X127756202Y-114592328D01*
X127756206Y-114592335D01*
X127842452Y-114707544D01*
X127842455Y-114707547D01*
X127957664Y-114793793D01*
X127957671Y-114793797D01*
X128092517Y-114844091D01*
X128092516Y-114844091D01*
X128099444Y-114844835D01*
X128152127Y-114850500D01*
X130647872Y-114850499D01*
X130707483Y-114844091D01*
X130842331Y-114793796D01*
X130957546Y-114707546D01*
X131043796Y-114592331D01*
X131094091Y-114457483D01*
X131100500Y-114397873D01*
X131100499Y-113874854D01*
X131120183Y-113807818D01*
X131172987Y-113762063D01*
X131242146Y-113752119D01*
X131305702Y-113781144D01*
X131339927Y-113829553D01*
X131363607Y-113889888D01*
X131491041Y-114110612D01*
X131649950Y-114309877D01*
X131836783Y-114483232D01*
X132047366Y-114626805D01*
X132047371Y-114626807D01*
X132047372Y-114626808D01*
X132047373Y-114626809D01*
X132169328Y-114685538D01*
X132276992Y-114737387D01*
X132276993Y-114737387D01*
X132276996Y-114737389D01*
X132520542Y-114812513D01*
X132772565Y-114850500D01*
X133027435Y-114850500D01*
X133279458Y-114812513D01*
X133523004Y-114737389D01*
X133752634Y-114626805D01*
X133963217Y-114483232D01*
X134150050Y-114309877D01*
X134308959Y-114110612D01*
X134436393Y-113889888D01*
X134529508Y-113652637D01*
X134529510Y-113652624D01*
X134530878Y-113648196D01*
X134532324Y-113648642D01*
X134563213Y-113593412D01*
X134624873Y-113560552D01*
X134694510Y-113566243D01*
X134750016Y-113608680D01*
X134768192Y-113648482D01*
X134769122Y-113648196D01*
X134770490Y-113652630D01*
X134770492Y-113652637D01*
X134863607Y-113889888D01*
X134991041Y-114110612D01*
X135149950Y-114309877D01*
X135336783Y-114483232D01*
X135547366Y-114626805D01*
X135547371Y-114626807D01*
X135547372Y-114626808D01*
X135547373Y-114626809D01*
X135669328Y-114685538D01*
X135776992Y-114737387D01*
X135776993Y-114737387D01*
X135776996Y-114737389D01*
X136020542Y-114812513D01*
X136272565Y-114850500D01*
X136527435Y-114850500D01*
X136779458Y-114812513D01*
X137023004Y-114737389D01*
X137252634Y-114626805D01*
X137463217Y-114483232D01*
X137650050Y-114309877D01*
X137808959Y-114110612D01*
X137936393Y-113889888D01*
X138029508Y-113652637D01*
X138029510Y-113652624D01*
X138030878Y-113648196D01*
X138032324Y-113648642D01*
X138063213Y-113593412D01*
X138124873Y-113560552D01*
X138194510Y-113566243D01*
X138250016Y-113608680D01*
X138268192Y-113648482D01*
X138269122Y-113648196D01*
X138270490Y-113652630D01*
X138270492Y-113652637D01*
X138363607Y-113889888D01*
X138491041Y-114110612D01*
X138649950Y-114309877D01*
X138836783Y-114483232D01*
X139047366Y-114626805D01*
X139047371Y-114626807D01*
X139047372Y-114626808D01*
X139047373Y-114626809D01*
X139169328Y-114685538D01*
X139276992Y-114737387D01*
X139276993Y-114737387D01*
X139276996Y-114737389D01*
X139520542Y-114812513D01*
X139772565Y-114850500D01*
X140027435Y-114850500D01*
X140279458Y-114812513D01*
X140523004Y-114737389D01*
X140752634Y-114626805D01*
X140963217Y-114483232D01*
X141150050Y-114309877D01*
X141308959Y-114110612D01*
X141436393Y-113889888D01*
X141529508Y-113652637D01*
X141529510Y-113652624D01*
X141530878Y-113648196D01*
X141532324Y-113648642D01*
X141563213Y-113593412D01*
X141624873Y-113560552D01*
X141694510Y-113566243D01*
X141750016Y-113608680D01*
X141768192Y-113648482D01*
X141769122Y-113648196D01*
X141770490Y-113652630D01*
X141770492Y-113652637D01*
X141863607Y-113889888D01*
X141991041Y-114110612D01*
X142149950Y-114309877D01*
X142336783Y-114483232D01*
X142547366Y-114626805D01*
X142547371Y-114626807D01*
X142547372Y-114626808D01*
X142547373Y-114626809D01*
X142669328Y-114685538D01*
X142776992Y-114737387D01*
X142776993Y-114737387D01*
X142776996Y-114737389D01*
X143020542Y-114812513D01*
X143272565Y-114850500D01*
X143527435Y-114850500D01*
X143779458Y-114812513D01*
X144023004Y-114737389D01*
X144252634Y-114626805D01*
X144463217Y-114483232D01*
X144650050Y-114309877D01*
X144808959Y-114110612D01*
X144936393Y-113889888D01*
X145029508Y-113652637D01*
X145029510Y-113652624D01*
X145030878Y-113648196D01*
X145032324Y-113648642D01*
X145063213Y-113593412D01*
X145124873Y-113560552D01*
X145194510Y-113566243D01*
X145250016Y-113608680D01*
X145268192Y-113648482D01*
X145269122Y-113648196D01*
X145270490Y-113652630D01*
X145270492Y-113652637D01*
X145363607Y-113889888D01*
X145491041Y-114110612D01*
X145649950Y-114309877D01*
X145836783Y-114483232D01*
X146047366Y-114626805D01*
X146047371Y-114626807D01*
X146047372Y-114626808D01*
X146047373Y-114626809D01*
X146169328Y-114685538D01*
X146276992Y-114737387D01*
X146276993Y-114737387D01*
X146276996Y-114737389D01*
X146520542Y-114812513D01*
X146772565Y-114850500D01*
X147027435Y-114850500D01*
X147279458Y-114812513D01*
X147523004Y-114737389D01*
X147752634Y-114626805D01*
X147963217Y-114483232D01*
X148150050Y-114309877D01*
X148308959Y-114110612D01*
X148436393Y-113889888D01*
X148529508Y-113652637D01*
X148529510Y-113652624D01*
X148530878Y-113648196D01*
X148532324Y-113648642D01*
X148563213Y-113593412D01*
X148624873Y-113560552D01*
X148694510Y-113566243D01*
X148750016Y-113608680D01*
X148768192Y-113648482D01*
X148769122Y-113648196D01*
X148770490Y-113652630D01*
X148770492Y-113652637D01*
X148863607Y-113889888D01*
X148991041Y-114110612D01*
X149149950Y-114309877D01*
X149336783Y-114483232D01*
X149547366Y-114626805D01*
X149547371Y-114626807D01*
X149547372Y-114626808D01*
X149547373Y-114626809D01*
X149669328Y-114685538D01*
X149776992Y-114737387D01*
X149776993Y-114737387D01*
X149776996Y-114737389D01*
X150020542Y-114812513D01*
X150272565Y-114850500D01*
X150527435Y-114850500D01*
X150779458Y-114812513D01*
X151023004Y-114737389D01*
X151252634Y-114626805D01*
X151463217Y-114483232D01*
X151650050Y-114309877D01*
X151808959Y-114110612D01*
X151936393Y-113889888D01*
X152029508Y-113652637D01*
X152029510Y-113652624D01*
X152030878Y-113648196D01*
X152032324Y-113648642D01*
X152063213Y-113593412D01*
X152124873Y-113560552D01*
X152194510Y-113566243D01*
X152250016Y-113608680D01*
X152268192Y-113648482D01*
X152269122Y-113648196D01*
X152270490Y-113652630D01*
X152270492Y-113652637D01*
X152363607Y-113889888D01*
X152491041Y-114110612D01*
X152649950Y-114309877D01*
X152836783Y-114483232D01*
X153047366Y-114626805D01*
X153047371Y-114626807D01*
X153047372Y-114626808D01*
X153047373Y-114626809D01*
X153169328Y-114685538D01*
X153276992Y-114737387D01*
X153276993Y-114737387D01*
X153276996Y-114737389D01*
X153520542Y-114812513D01*
X153772565Y-114850500D01*
X154027435Y-114850500D01*
X154279458Y-114812513D01*
X154523004Y-114737389D01*
X154752634Y-114626805D01*
X154963217Y-114483232D01*
X155150050Y-114309877D01*
X155308959Y-114110612D01*
X155436393Y-113889888D01*
X155529508Y-113652637D01*
X155586222Y-113404157D01*
X155594384Y-113295232D01*
X155605268Y-113150004D01*
X155605268Y-113149995D01*
X155586222Y-112895845D01*
X155549225Y-112733752D01*
X155529508Y-112647363D01*
X155436393Y-112410112D01*
X155308959Y-112189388D01*
X155150050Y-111990123D01*
X154963217Y-111816768D01*
X154752634Y-111673195D01*
X154752630Y-111673193D01*
X154752627Y-111673191D01*
X154752626Y-111673190D01*
X154523006Y-111562612D01*
X154523008Y-111562612D01*
X154279466Y-111487489D01*
X154279462Y-111487488D01*
X154279458Y-111487487D01*
X154158231Y-111469214D01*
X154027440Y-111449500D01*
X154027435Y-111449500D01*
X153772565Y-111449500D01*
X153772559Y-111449500D01*
X153615609Y-111473157D01*
X153520542Y-111487487D01*
X153520539Y-111487488D01*
X153520533Y-111487489D01*
X153276992Y-111562612D01*
X153047373Y-111673190D01*
X153047372Y-111673191D01*
X152836782Y-111816768D01*
X152649952Y-111990121D01*
X152649950Y-111990123D01*
X152491041Y-112189388D01*
X152363608Y-112410109D01*
X152270492Y-112647362D01*
X152269122Y-112651804D01*
X152267677Y-112651358D01*
X152236780Y-112706593D01*
X152175117Y-112739449D01*
X152105480Y-112733752D01*
X152049978Y-112691311D01*
X152031805Y-112651517D01*
X152030878Y-112651804D01*
X152029509Y-112647369D01*
X152029508Y-112647363D01*
X151936393Y-112410112D01*
X151808959Y-112189388D01*
X151650050Y-111990123D01*
X151463217Y-111816768D01*
X151252634Y-111673195D01*
X151252630Y-111673193D01*
X151252627Y-111673191D01*
X151252626Y-111673190D01*
X151023006Y-111562612D01*
X151023008Y-111562612D01*
X150779466Y-111487489D01*
X150779462Y-111487488D01*
X150779458Y-111487487D01*
X150658231Y-111469214D01*
X150527440Y-111449500D01*
X150527435Y-111449500D01*
X150272565Y-111449500D01*
X150272559Y-111449500D01*
X150115609Y-111473157D01*
X150020542Y-111487487D01*
X150020539Y-111487488D01*
X150020533Y-111487489D01*
X149776992Y-111562612D01*
X149547373Y-111673190D01*
X149547372Y-111673191D01*
X149336782Y-111816768D01*
X149149952Y-111990121D01*
X149149950Y-111990123D01*
X148991041Y-112189388D01*
X148863608Y-112410109D01*
X148770492Y-112647362D01*
X148769122Y-112651804D01*
X148767677Y-112651358D01*
X148736780Y-112706593D01*
X148675117Y-112739449D01*
X148605480Y-112733752D01*
X148549978Y-112691311D01*
X148531805Y-112651517D01*
X148530878Y-112651804D01*
X148529509Y-112647369D01*
X148529508Y-112647363D01*
X148436393Y-112410112D01*
X148308959Y-112189388D01*
X148150050Y-111990123D01*
X147963217Y-111816768D01*
X147752634Y-111673195D01*
X147752630Y-111673193D01*
X147752627Y-111673191D01*
X147752626Y-111673190D01*
X147523006Y-111562612D01*
X147523008Y-111562612D01*
X147279466Y-111487489D01*
X147279462Y-111487488D01*
X147279458Y-111487487D01*
X147158231Y-111469214D01*
X147027440Y-111449500D01*
X147027435Y-111449500D01*
X146772565Y-111449500D01*
X146772559Y-111449500D01*
X146615609Y-111473157D01*
X146520542Y-111487487D01*
X146520539Y-111487488D01*
X146520533Y-111487489D01*
X146276992Y-111562612D01*
X146047373Y-111673190D01*
X146047372Y-111673191D01*
X145836782Y-111816768D01*
X145649952Y-111990121D01*
X145649950Y-111990123D01*
X145491041Y-112189388D01*
X145363608Y-112410109D01*
X145270492Y-112647362D01*
X145269122Y-112651804D01*
X145267677Y-112651358D01*
X145236780Y-112706593D01*
X145175117Y-112739449D01*
X145105480Y-112733752D01*
X145049978Y-112691311D01*
X145031805Y-112651517D01*
X145030878Y-112651804D01*
X145029509Y-112647369D01*
X145029508Y-112647363D01*
X144936393Y-112410112D01*
X144808959Y-112189388D01*
X144650050Y-111990123D01*
X144463217Y-111816768D01*
X144252634Y-111673195D01*
X144252630Y-111673193D01*
X144252627Y-111673191D01*
X144252626Y-111673190D01*
X144023006Y-111562612D01*
X144023008Y-111562612D01*
X143779466Y-111487489D01*
X143779462Y-111487488D01*
X143779458Y-111487487D01*
X143658231Y-111469214D01*
X143527440Y-111449500D01*
X143527435Y-111449500D01*
X143272565Y-111449500D01*
X143272559Y-111449500D01*
X143115609Y-111473157D01*
X143020542Y-111487487D01*
X143020539Y-111487488D01*
X143020533Y-111487489D01*
X142776992Y-111562612D01*
X142547373Y-111673190D01*
X142547372Y-111673191D01*
X142336782Y-111816768D01*
X142149952Y-111990121D01*
X142149950Y-111990123D01*
X141991041Y-112189388D01*
X141863608Y-112410109D01*
X141770492Y-112647362D01*
X141769122Y-112651804D01*
X141767677Y-112651358D01*
X141736780Y-112706593D01*
X141675117Y-112739449D01*
X141605480Y-112733752D01*
X141549978Y-112691311D01*
X141531805Y-112651517D01*
X141530878Y-112651804D01*
X141529509Y-112647369D01*
X141529508Y-112647363D01*
X141436393Y-112410112D01*
X141308959Y-112189388D01*
X141150050Y-111990123D01*
X140963217Y-111816768D01*
X140752634Y-111673195D01*
X140752630Y-111673193D01*
X140752627Y-111673191D01*
X140752626Y-111673190D01*
X140523006Y-111562612D01*
X140523008Y-111562612D01*
X140279466Y-111487489D01*
X140279462Y-111487488D01*
X140279458Y-111487487D01*
X140158231Y-111469214D01*
X140027440Y-111449500D01*
X140027435Y-111449500D01*
X139772565Y-111449500D01*
X139772559Y-111449500D01*
X139615609Y-111473157D01*
X139520542Y-111487487D01*
X139520539Y-111487488D01*
X139520533Y-111487489D01*
X139276992Y-111562612D01*
X139047373Y-111673190D01*
X139047372Y-111673191D01*
X138836782Y-111816768D01*
X138649952Y-111990121D01*
X138649950Y-111990123D01*
X138491041Y-112189388D01*
X138363608Y-112410109D01*
X138270492Y-112647362D01*
X138269122Y-112651804D01*
X138267677Y-112651358D01*
X138236780Y-112706593D01*
X138175117Y-112739449D01*
X138105480Y-112733752D01*
X138049978Y-112691311D01*
X138031805Y-112651517D01*
X138030878Y-112651804D01*
X138029509Y-112647369D01*
X138029508Y-112647363D01*
X137936393Y-112410112D01*
X137808959Y-112189388D01*
X137650050Y-111990123D01*
X137463217Y-111816768D01*
X137252634Y-111673195D01*
X137252630Y-111673193D01*
X137252627Y-111673191D01*
X137252626Y-111673190D01*
X137023006Y-111562612D01*
X137023008Y-111562612D01*
X136779466Y-111487489D01*
X136779462Y-111487488D01*
X136779458Y-111487487D01*
X136658231Y-111469214D01*
X136527440Y-111449500D01*
X136527435Y-111449500D01*
X136272565Y-111449500D01*
X136272559Y-111449500D01*
X136115609Y-111473157D01*
X136020542Y-111487487D01*
X136020539Y-111487488D01*
X136020533Y-111487489D01*
X135776992Y-111562612D01*
X135547373Y-111673190D01*
X135547372Y-111673191D01*
X135336782Y-111816768D01*
X135149952Y-111990121D01*
X135149950Y-111990123D01*
X134991041Y-112189388D01*
X134863608Y-112410109D01*
X134770492Y-112647362D01*
X134769122Y-112651804D01*
X134767677Y-112651358D01*
X134736780Y-112706593D01*
X134675117Y-112739449D01*
X134605480Y-112733752D01*
X134549978Y-112691311D01*
X134531805Y-112651517D01*
X134530878Y-112651804D01*
X134529509Y-112647369D01*
X134529508Y-112647363D01*
X134436393Y-112410112D01*
X134308959Y-112189388D01*
X134150050Y-111990123D01*
X133963217Y-111816768D01*
X133752634Y-111673195D01*
X133752630Y-111673193D01*
X133752627Y-111673191D01*
X133752626Y-111673190D01*
X133523006Y-111562612D01*
X133523008Y-111562612D01*
X133279466Y-111487489D01*
X133279462Y-111487488D01*
X133279458Y-111487487D01*
X133158231Y-111469214D01*
X133027440Y-111449500D01*
X133027435Y-111449500D01*
X132772565Y-111449500D01*
X132772559Y-111449500D01*
X132615609Y-111473157D01*
X132520542Y-111487487D01*
X132520539Y-111487488D01*
X132520533Y-111487489D01*
X132276992Y-111562612D01*
X132047373Y-111673190D01*
X132047372Y-111673191D01*
X131836782Y-111816768D01*
X131649952Y-111990121D01*
X131649950Y-111990123D01*
X131491041Y-112189388D01*
X131363608Y-112410109D01*
X131339927Y-112470447D01*
X131297110Y-112525661D01*
X131231240Y-112548961D01*
X131163230Y-112532950D01*
X131114672Y-112482711D01*
X131100499Y-112425144D01*
X131100499Y-111902129D01*
X131100498Y-111902123D01*
X131100497Y-111902116D01*
X131094091Y-111842517D01*
X131084487Y-111816768D01*
X131043797Y-111707671D01*
X131043793Y-111707664D01*
X130957547Y-111592455D01*
X130957544Y-111592452D01*
X130842335Y-111506206D01*
X130842328Y-111506202D01*
X130707482Y-111455908D01*
X130707483Y-111455908D01*
X130647883Y-111449501D01*
X130647881Y-111449500D01*
X130647873Y-111449500D01*
X130647864Y-111449500D01*
X128152129Y-111449500D01*
X128152123Y-111449501D01*
X128092516Y-111455908D01*
X127957671Y-111506202D01*
X127957664Y-111506206D01*
X127842455Y-111592452D01*
X127842452Y-111592455D01*
X127756206Y-111707664D01*
X127756202Y-111707671D01*
X127705908Y-111842517D01*
X127699501Y-111902116D01*
X127699501Y-111902123D01*
X127699500Y-111902135D01*
X116650500Y-111902135D01*
X116650500Y-106003103D01*
X124204002Y-106003103D01*
X124253673Y-106026265D01*
X124253682Y-106026269D01*
X124473389Y-106085139D01*
X124473400Y-106085141D01*
X124699998Y-106104966D01*
X124700002Y-106104966D01*
X124926599Y-106085141D01*
X124926606Y-106085140D01*
X125146328Y-106026265D01*
X125195997Y-106003103D01*
X124700001Y-105507107D01*
X124700000Y-105507107D01*
X124204002Y-106003103D01*
X116650500Y-106003103D01*
X116650500Y-104799997D01*
X123395034Y-104799997D01*
X123395034Y-104800002D01*
X123414858Y-105026599D01*
X123414860Y-105026610D01*
X123473731Y-105246320D01*
X123496895Y-105295996D01*
X123992893Y-104800000D01*
X123992893Y-104799999D01*
X123940233Y-104747339D01*
X124300000Y-104747339D01*
X124300000Y-104852661D01*
X124327259Y-104954394D01*
X124379920Y-105045606D01*
X124454394Y-105120080D01*
X124545606Y-105172741D01*
X124647339Y-105200000D01*
X124752661Y-105200000D01*
X124854394Y-105172741D01*
X124945606Y-105120080D01*
X125020080Y-105045606D01*
X125072741Y-104954394D01*
X125100000Y-104852661D01*
X125100000Y-104799999D01*
X125407107Y-104799999D01*
X125407107Y-104800001D01*
X125903103Y-105295997D01*
X125926265Y-105246328D01*
X125985140Y-105026606D01*
X125985141Y-105026599D01*
X126004966Y-104800002D01*
X126004966Y-104799997D01*
X125985141Y-104573400D01*
X125985139Y-104573389D01*
X125926269Y-104353682D01*
X125926265Y-104353673D01*
X125903103Y-104304002D01*
X125407107Y-104799999D01*
X125100000Y-104799999D01*
X125100000Y-104747339D01*
X125072741Y-104645606D01*
X125020080Y-104554394D01*
X124945606Y-104479920D01*
X124854394Y-104427259D01*
X124752661Y-104400000D01*
X124647339Y-104400000D01*
X124545606Y-104427259D01*
X124454394Y-104479920D01*
X124379920Y-104554394D01*
X124327259Y-104645606D01*
X124300000Y-104747339D01*
X123940233Y-104747339D01*
X123496895Y-104304002D01*
X123473731Y-104353677D01*
X123414860Y-104573389D01*
X123414858Y-104573400D01*
X123395034Y-104799997D01*
X116650500Y-104799997D01*
X116650500Y-101452135D01*
X123399500Y-101452135D01*
X123399500Y-103147870D01*
X123399501Y-103147876D01*
X123405908Y-103207483D01*
X123456202Y-103342328D01*
X123456206Y-103342335D01*
X123542452Y-103457544D01*
X123542455Y-103457547D01*
X123657664Y-103543793D01*
X123657671Y-103543797D01*
X123702618Y-103560561D01*
X123792517Y-103594091D01*
X123852127Y-103600500D01*
X124156246Y-103600499D01*
X124223283Y-103620183D01*
X124243925Y-103636818D01*
X124700000Y-104092893D01*
X124700001Y-104092893D01*
X125156074Y-103636818D01*
X125217397Y-103603333D01*
X125243753Y-103600499D01*
X125547872Y-103600499D01*
X125607483Y-103594091D01*
X125742331Y-103543796D01*
X125857546Y-103457546D01*
X125943796Y-103342331D01*
X125994091Y-103207483D01*
X126000500Y-103147873D01*
X126000499Y-101452128D01*
X125994091Y-101392517D01*
X125943796Y-101257669D01*
X125943795Y-101257668D01*
X125943793Y-101257664D01*
X125857547Y-101142455D01*
X125857544Y-101142452D01*
X125742335Y-101056206D01*
X125742328Y-101056202D01*
X125607482Y-101005908D01*
X125607483Y-101005908D01*
X125547883Y-100999501D01*
X125547881Y-100999500D01*
X125547873Y-100999500D01*
X125547864Y-100999500D01*
X123852129Y-100999500D01*
X123852123Y-100999501D01*
X123792516Y-101005908D01*
X123657671Y-101056202D01*
X123657664Y-101056206D01*
X123542455Y-101142452D01*
X123542452Y-101142455D01*
X123456206Y-101257664D01*
X123456202Y-101257671D01*
X123405908Y-101392517D01*
X123399501Y-101452116D01*
X123399501Y-101452123D01*
X123399500Y-101452135D01*
X116650500Y-101452135D01*
X116650500Y-89280996D01*
X151213435Y-89280996D01*
X151213435Y-89281003D01*
X151233630Y-89460249D01*
X151233631Y-89460254D01*
X151293211Y-89630523D01*
X151301106Y-89643087D01*
X151389184Y-89783262D01*
X151516738Y-89910816D01*
X151669478Y-90006789D01*
X151669480Y-90006789D01*
X151669484Y-90006792D01*
X151675756Y-90009813D01*
X151674869Y-90011653D01*
X151710939Y-90034307D01*
X151813181Y-90136549D01*
X151846666Y-90197872D01*
X151849500Y-90224230D01*
X151849500Y-95700028D01*
X151842542Y-95740982D01*
X151814631Y-95820747D01*
X151794435Y-95999996D01*
X151794435Y-96000003D01*
X151814630Y-96179249D01*
X151814631Y-96179254D01*
X151874211Y-96349523D01*
X151970184Y-96502262D01*
X152097738Y-96629816D01*
X152250478Y-96725789D01*
X152420745Y-96785368D01*
X152420750Y-96785369D01*
X152599996Y-96805565D01*
X152600000Y-96805565D01*
X152600004Y-96805565D01*
X152779249Y-96785369D01*
X152779252Y-96785368D01*
X152779255Y-96785368D01*
X152949522Y-96725789D01*
X153102262Y-96629816D01*
X153229816Y-96502262D01*
X153325789Y-96349522D01*
X153385368Y-96179255D01*
X153405565Y-96000000D01*
X153385368Y-95820745D01*
X153357458Y-95740982D01*
X153350500Y-95700028D01*
X153350500Y-89788079D01*
X153321659Y-89643092D01*
X153321658Y-89643091D01*
X153321658Y-89643087D01*
X153265084Y-89506505D01*
X153219189Y-89437818D01*
X153182952Y-89383584D01*
X152772307Y-88972939D01*
X152749653Y-88936869D01*
X152747813Y-88937756D01*
X152744792Y-88931484D01*
X152744789Y-88931480D01*
X152744789Y-88931478D01*
X152648816Y-88778738D01*
X152521262Y-88651184D01*
X152368523Y-88555211D01*
X152198254Y-88495631D01*
X152198249Y-88495630D01*
X152019004Y-88475435D01*
X152018996Y-88475435D01*
X151839750Y-88495630D01*
X151839745Y-88495631D01*
X151669476Y-88555211D01*
X151516737Y-88651184D01*
X151389184Y-88778737D01*
X151293211Y-88931476D01*
X151233631Y-89101745D01*
X151233630Y-89101750D01*
X151213435Y-89280996D01*
X116650500Y-89280996D01*
X116650500Y-84674996D01*
X159169435Y-84674996D01*
X159169435Y-84675003D01*
X159189630Y-84854249D01*
X159189631Y-84854254D01*
X159249212Y-85024525D01*
X159255492Y-85034519D01*
X159274500Y-85100493D01*
X159274500Y-86928583D01*
X159267541Y-86969538D01*
X159214633Y-87120737D01*
X159214630Y-87120750D01*
X159194435Y-87299996D01*
X159194435Y-87300003D01*
X159214630Y-87479249D01*
X159214631Y-87479254D01*
X159274211Y-87649523D01*
X159370184Y-87802262D01*
X159497738Y-87929816D01*
X159650478Y-88025789D01*
X159820745Y-88085368D01*
X159820750Y-88085369D01*
X159999996Y-88105565D01*
X160000000Y-88105565D01*
X160000004Y-88105565D01*
X160179249Y-88085369D01*
X160179252Y-88085368D01*
X160179255Y-88085368D01*
X160349522Y-88025789D01*
X160502262Y-87929816D01*
X160629816Y-87802262D01*
X160725789Y-87649522D01*
X160785368Y-87479255D01*
X160805565Y-87300000D01*
X160785368Y-87120745D01*
X160785367Y-87120743D01*
X160785366Y-87120737D01*
X160725790Y-86950479D01*
X160694506Y-86900690D01*
X160675500Y-86834719D01*
X160675500Y-85100493D01*
X160694508Y-85034519D01*
X160700787Y-85024525D01*
X160700786Y-85024525D01*
X160700789Y-85024522D01*
X160760368Y-84854255D01*
X160780565Y-84675000D01*
X160760368Y-84495745D01*
X160700789Y-84325478D01*
X160604816Y-84172738D01*
X160477262Y-84045184D01*
X160324523Y-83949211D01*
X160154254Y-83889631D01*
X160154249Y-83889630D01*
X159975004Y-83869435D01*
X159974996Y-83869435D01*
X159795750Y-83889630D01*
X159795745Y-83889631D01*
X159625476Y-83949211D01*
X159472737Y-84045184D01*
X159345184Y-84172737D01*
X159249211Y-84325476D01*
X159189631Y-84495745D01*
X159189630Y-84495750D01*
X159169435Y-84674996D01*
X116650500Y-84674996D01*
X116650500Y-75002561D01*
X116650606Y-74997437D01*
X116653225Y-74934108D01*
X116655923Y-74868872D01*
X119999500Y-74868872D01*
X119999500Y-75131127D01*
X120026123Y-75333339D01*
X120033730Y-75391116D01*
X120091814Y-75607890D01*
X120101602Y-75644418D01*
X120101605Y-75644428D01*
X120201953Y-75886690D01*
X120201958Y-75886700D01*
X120333075Y-76113803D01*
X120492718Y-76321851D01*
X120492726Y-76321860D01*
X120678140Y-76507274D01*
X120678148Y-76507281D01*
X120886196Y-76666924D01*
X121113299Y-76798041D01*
X121113309Y-76798046D01*
X121355571Y-76898394D01*
X121355581Y-76898398D01*
X121608884Y-76966270D01*
X121868880Y-77000500D01*
X121868887Y-77000500D01*
X122131113Y-77000500D01*
X122131120Y-77000500D01*
X122391116Y-76966270D01*
X122644419Y-76898398D01*
X122886697Y-76798043D01*
X123113803Y-76666924D01*
X123321851Y-76507282D01*
X123321855Y-76507277D01*
X123321860Y-76507274D01*
X123507274Y-76321860D01*
X123507277Y-76321855D01*
X123507282Y-76321851D01*
X123666924Y-76113803D01*
X123798043Y-75886697D01*
X123898398Y-75644419D01*
X123966270Y-75391116D01*
X123978267Y-75299995D01*
X129094451Y-75299995D01*
X129094451Y-75300004D01*
X129114616Y-75569101D01*
X129174664Y-75832188D01*
X129174666Y-75832195D01*
X129220901Y-75950000D01*
X129273257Y-76083398D01*
X129408185Y-76317102D01*
X129544080Y-76487509D01*
X129576442Y-76528089D01*
X129726072Y-76666924D01*
X129774259Y-76711635D01*
X129997226Y-76863651D01*
X130240359Y-76980738D01*
X130498228Y-77060280D01*
X130498229Y-77060280D01*
X130498232Y-77060281D01*
X130765063Y-77100499D01*
X130765068Y-77100499D01*
X130765071Y-77100500D01*
X130765072Y-77100500D01*
X131034928Y-77100500D01*
X131034929Y-77100500D01*
X131034936Y-77100499D01*
X131301767Y-77060281D01*
X131301768Y-77060280D01*
X131301772Y-77060280D01*
X131559641Y-76980738D01*
X131802775Y-76863651D01*
X132025741Y-76711635D01*
X132223561Y-76528085D01*
X132391815Y-76317102D01*
X132526743Y-76083398D01*
X132625334Y-75832195D01*
X132685383Y-75569103D01*
X132705549Y-75300000D01*
X132705549Y-75299995D01*
X134094451Y-75299995D01*
X134094451Y-75300004D01*
X134114616Y-75569101D01*
X134174664Y-75832188D01*
X134174666Y-75832195D01*
X134220901Y-75950000D01*
X134273257Y-76083398D01*
X134408185Y-76317102D01*
X134544080Y-76487509D01*
X134576442Y-76528089D01*
X134726072Y-76666924D01*
X134774259Y-76711635D01*
X134997226Y-76863651D01*
X135240359Y-76980738D01*
X135498228Y-77060280D01*
X135498229Y-77060280D01*
X135498232Y-77060281D01*
X135765063Y-77100499D01*
X135765068Y-77100499D01*
X135765071Y-77100500D01*
X135765072Y-77100500D01*
X136034928Y-77100500D01*
X136034929Y-77100500D01*
X136034936Y-77100499D01*
X136301767Y-77060281D01*
X136301768Y-77060280D01*
X136301772Y-77060280D01*
X136559641Y-76980738D01*
X136802775Y-76863651D01*
X137025741Y-76711635D01*
X137223561Y-76528085D01*
X137391815Y-76317102D01*
X137526743Y-76083398D01*
X137625334Y-75832195D01*
X137685383Y-75569103D01*
X137705549Y-75300000D01*
X137705549Y-75299995D01*
X139094451Y-75299995D01*
X139094451Y-75300004D01*
X139114616Y-75569101D01*
X139174664Y-75832188D01*
X139174666Y-75832195D01*
X139220901Y-75950000D01*
X139273257Y-76083398D01*
X139408185Y-76317102D01*
X139544080Y-76487509D01*
X139576442Y-76528089D01*
X139726072Y-76666924D01*
X139774259Y-76711635D01*
X139997226Y-76863651D01*
X140240359Y-76980738D01*
X140498228Y-77060280D01*
X140498229Y-77060280D01*
X140498232Y-77060281D01*
X140765063Y-77100499D01*
X140765068Y-77100499D01*
X140765071Y-77100500D01*
X140765072Y-77100500D01*
X141034928Y-77100500D01*
X141034929Y-77100500D01*
X141034936Y-77100499D01*
X141301767Y-77060281D01*
X141301768Y-77060280D01*
X141301772Y-77060280D01*
X141559641Y-76980738D01*
X141802775Y-76863651D01*
X142025741Y-76711635D01*
X142094491Y-76647844D01*
X144100000Y-76647844D01*
X144106401Y-76707372D01*
X144106403Y-76707379D01*
X144156645Y-76842086D01*
X144156649Y-76842093D01*
X144242809Y-76957187D01*
X144242812Y-76957190D01*
X144357906Y-77043350D01*
X144357913Y-77043354D01*
X144492620Y-77093596D01*
X144492627Y-77093598D01*
X144552155Y-77099999D01*
X144552172Y-77100000D01*
X145400000Y-77100000D01*
X146400000Y-77100000D01*
X147247828Y-77100000D01*
X147247844Y-77099999D01*
X147307372Y-77093598D01*
X147307379Y-77093596D01*
X147442086Y-77043354D01*
X147442093Y-77043350D01*
X147557187Y-76957190D01*
X147557190Y-76957187D01*
X147643350Y-76842093D01*
X147643354Y-76842086D01*
X147693596Y-76707379D01*
X147693598Y-76707372D01*
X147699999Y-76647844D01*
X147700000Y-76647827D01*
X147700000Y-75800000D01*
X146400000Y-75800000D01*
X146400000Y-77100000D01*
X145400000Y-77100000D01*
X145400000Y-75800000D01*
X144100000Y-75800000D01*
X144100000Y-76647844D01*
X142094491Y-76647844D01*
X142223561Y-76528085D01*
X142391815Y-76317102D01*
X142526743Y-76083398D01*
X142625334Y-75832195D01*
X142685383Y-75569103D01*
X142705549Y-75300000D01*
X142700751Y-75235981D01*
X145250000Y-75235981D01*
X145250000Y-75364019D01*
X145274979Y-75489598D01*
X145323978Y-75607890D01*
X145395112Y-75714351D01*
X145485649Y-75804888D01*
X145592110Y-75876022D01*
X145710402Y-75925021D01*
X145835981Y-75950000D01*
X145964019Y-75950000D01*
X146089598Y-75925021D01*
X146207890Y-75876022D01*
X146314351Y-75804888D01*
X146404888Y-75714351D01*
X146476022Y-75607890D01*
X146525021Y-75489598D01*
X146550000Y-75364019D01*
X146550000Y-75235981D01*
X146525021Y-75110402D01*
X146476022Y-74992110D01*
X146404888Y-74885649D01*
X146388111Y-74868872D01*
X174999500Y-74868872D01*
X174999500Y-75131127D01*
X175026123Y-75333339D01*
X175033730Y-75391116D01*
X175091814Y-75607890D01*
X175101602Y-75644418D01*
X175101605Y-75644428D01*
X175201953Y-75886690D01*
X175201958Y-75886700D01*
X175333075Y-76113803D01*
X175492718Y-76321851D01*
X175492726Y-76321860D01*
X175678140Y-76507274D01*
X175678148Y-76507281D01*
X175886196Y-76666924D01*
X176113299Y-76798041D01*
X176113309Y-76798046D01*
X176355571Y-76898394D01*
X176355581Y-76898398D01*
X176608884Y-76966270D01*
X176868880Y-77000500D01*
X176868887Y-77000500D01*
X177131113Y-77000500D01*
X177131120Y-77000500D01*
X177391116Y-76966270D01*
X177644419Y-76898398D01*
X177886697Y-76798043D01*
X178113803Y-76666924D01*
X178321851Y-76507282D01*
X178321855Y-76507277D01*
X178321860Y-76507274D01*
X178507274Y-76321860D01*
X178507277Y-76321855D01*
X178507282Y-76321851D01*
X178666924Y-76113803D01*
X178798043Y-75886697D01*
X178898398Y-75644419D01*
X178966270Y-75391116D01*
X179000500Y-75131120D01*
X179000500Y-74868880D01*
X178966270Y-74608884D01*
X178898398Y-74355581D01*
X178898394Y-74355571D01*
X178798046Y-74113309D01*
X178798041Y-74113299D01*
X178666924Y-73886196D01*
X178507281Y-73678148D01*
X178507274Y-73678140D01*
X178321860Y-73492726D01*
X178321851Y-73492718D01*
X178113803Y-73333075D01*
X177886700Y-73201958D01*
X177886690Y-73201953D01*
X177644428Y-73101605D01*
X177644421Y-73101603D01*
X177644419Y-73101602D01*
X177391116Y-73033730D01*
X177333339Y-73026123D01*
X177131127Y-72999500D01*
X177131120Y-72999500D01*
X176868880Y-72999500D01*
X176868872Y-72999500D01*
X176637772Y-73029926D01*
X176608884Y-73033730D01*
X176355581Y-73101602D01*
X176355571Y-73101605D01*
X176113309Y-73201953D01*
X176113299Y-73201958D01*
X175886196Y-73333075D01*
X175678148Y-73492718D01*
X175492718Y-73678148D01*
X175333075Y-73886196D01*
X175201958Y-74113299D01*
X175201953Y-74113309D01*
X175101605Y-74355571D01*
X175101602Y-74355581D01*
X175045926Y-74563370D01*
X175033730Y-74608885D01*
X174999500Y-74868872D01*
X146388111Y-74868872D01*
X146319239Y-74800000D01*
X146400000Y-74800000D01*
X147700000Y-74800000D01*
X147700000Y-73952172D01*
X147699999Y-73952155D01*
X147693598Y-73892627D01*
X147693596Y-73892620D01*
X147643354Y-73757913D01*
X147643350Y-73757906D01*
X147557190Y-73642812D01*
X147557187Y-73642809D01*
X147442093Y-73556649D01*
X147442086Y-73556645D01*
X147307379Y-73506403D01*
X147307372Y-73506401D01*
X147247844Y-73500000D01*
X146400000Y-73500000D01*
X146400000Y-74800000D01*
X146319239Y-74800000D01*
X146314351Y-74795112D01*
X146207890Y-74723978D01*
X146089598Y-74674979D01*
X145964019Y-74650000D01*
X145835981Y-74650000D01*
X145710402Y-74674979D01*
X145592110Y-74723978D01*
X145485649Y-74795112D01*
X145395112Y-74885649D01*
X145323978Y-74992110D01*
X145274979Y-75110402D01*
X145250000Y-75235981D01*
X142700751Y-75235981D01*
X142692893Y-75131120D01*
X142685383Y-75030898D01*
X142676530Y-74992110D01*
X142625334Y-74767805D01*
X142526743Y-74516602D01*
X142391815Y-74282898D01*
X142223561Y-74071915D01*
X142223560Y-74071914D01*
X142223557Y-74071910D01*
X142094491Y-73952155D01*
X144100000Y-73952155D01*
X144100000Y-74800000D01*
X145400000Y-74800000D01*
X145400000Y-73500000D01*
X144552155Y-73500000D01*
X144492627Y-73506401D01*
X144492620Y-73506403D01*
X144357913Y-73556645D01*
X144357906Y-73556649D01*
X144242812Y-73642809D01*
X144242809Y-73642812D01*
X144156649Y-73757906D01*
X144156645Y-73757913D01*
X144106403Y-73892620D01*
X144106401Y-73892627D01*
X144100000Y-73952155D01*
X142094491Y-73952155D01*
X142025741Y-73888365D01*
X142022560Y-73886196D01*
X141802775Y-73736349D01*
X141802769Y-73736346D01*
X141802768Y-73736345D01*
X141802767Y-73736344D01*
X141559643Y-73619263D01*
X141559645Y-73619263D01*
X141301773Y-73539720D01*
X141301767Y-73539718D01*
X141034936Y-73499500D01*
X141034929Y-73499500D01*
X140765071Y-73499500D01*
X140765063Y-73499500D01*
X140498232Y-73539718D01*
X140498226Y-73539720D01*
X140240358Y-73619262D01*
X139997230Y-73736346D01*
X139774258Y-73888365D01*
X139576442Y-74071910D01*
X139408185Y-74282898D01*
X139273258Y-74516599D01*
X139273256Y-74516603D01*
X139174666Y-74767804D01*
X139174664Y-74767811D01*
X139114616Y-75030898D01*
X139094451Y-75299995D01*
X137705549Y-75299995D01*
X137692893Y-75131120D01*
X137685383Y-75030898D01*
X137676530Y-74992110D01*
X137625334Y-74767805D01*
X137526743Y-74516602D01*
X137391815Y-74282898D01*
X137223561Y-74071915D01*
X137223560Y-74071914D01*
X137223557Y-74071910D01*
X137025741Y-73888365D01*
X137022560Y-73886196D01*
X136802775Y-73736349D01*
X136802769Y-73736346D01*
X136802768Y-73736345D01*
X136802767Y-73736344D01*
X136559643Y-73619263D01*
X136559645Y-73619263D01*
X136301773Y-73539720D01*
X136301767Y-73539718D01*
X136034936Y-73499500D01*
X136034929Y-73499500D01*
X135765071Y-73499500D01*
X135765063Y-73499500D01*
X135498232Y-73539718D01*
X135498226Y-73539720D01*
X135240358Y-73619262D01*
X134997230Y-73736346D01*
X134774258Y-73888365D01*
X134576442Y-74071910D01*
X134408185Y-74282898D01*
X134273258Y-74516599D01*
X134273256Y-74516603D01*
X134174666Y-74767804D01*
X134174664Y-74767811D01*
X134114616Y-75030898D01*
X134094451Y-75299995D01*
X132705549Y-75299995D01*
X132692893Y-75131120D01*
X132685383Y-75030898D01*
X132676530Y-74992110D01*
X132625334Y-74767805D01*
X132526743Y-74516602D01*
X132391815Y-74282898D01*
X132223561Y-74071915D01*
X132223560Y-74071914D01*
X132223557Y-74071910D01*
X132025741Y-73888365D01*
X132022560Y-73886196D01*
X131802775Y-73736349D01*
X131802769Y-73736346D01*
X131802768Y-73736345D01*
X131802767Y-73736344D01*
X131559643Y-73619263D01*
X131559645Y-73619263D01*
X131301773Y-73539720D01*
X131301767Y-73539718D01*
X131034936Y-73499500D01*
X131034929Y-73499500D01*
X130765071Y-73499500D01*
X130765063Y-73499500D01*
X130498232Y-73539718D01*
X130498226Y-73539720D01*
X130240358Y-73619262D01*
X129997230Y-73736346D01*
X129774258Y-73888365D01*
X129576442Y-74071910D01*
X129408185Y-74282898D01*
X129273258Y-74516599D01*
X129273256Y-74516603D01*
X129174666Y-74767804D01*
X129174664Y-74767811D01*
X129114616Y-75030898D01*
X129094451Y-75299995D01*
X123978267Y-75299995D01*
X124000500Y-75131120D01*
X124000500Y-74868880D01*
X123966270Y-74608884D01*
X123898398Y-74355581D01*
X123898394Y-74355571D01*
X123798046Y-74113309D01*
X123798041Y-74113299D01*
X123666924Y-73886196D01*
X123507281Y-73678148D01*
X123507274Y-73678140D01*
X123321860Y-73492726D01*
X123321851Y-73492718D01*
X123113803Y-73333075D01*
X122886700Y-73201958D01*
X122886690Y-73201953D01*
X122644428Y-73101605D01*
X122644421Y-73101603D01*
X122644419Y-73101602D01*
X122391116Y-73033730D01*
X122333339Y-73026123D01*
X122131127Y-72999500D01*
X122131120Y-72999500D01*
X121868880Y-72999500D01*
X121868872Y-72999500D01*
X121637772Y-73029926D01*
X121608884Y-73033730D01*
X121355581Y-73101602D01*
X121355571Y-73101605D01*
X121113309Y-73201953D01*
X121113299Y-73201958D01*
X120886196Y-73333075D01*
X120678148Y-73492718D01*
X120492718Y-73678148D01*
X120333075Y-73886196D01*
X120201958Y-74113299D01*
X120201953Y-74113309D01*
X120101605Y-74355571D01*
X120101602Y-74355581D01*
X120045926Y-74563370D01*
X120033730Y-74608885D01*
X119999500Y-74868872D01*
X116655923Y-74868872D01*
X116668559Y-74563348D01*
X116669402Y-74553179D01*
X116722828Y-74124570D01*
X116724508Y-74114498D01*
X116813144Y-73691773D01*
X116815651Y-73681877D01*
X116938894Y-73267910D01*
X116942209Y-73258258D01*
X117099206Y-72855908D01*
X117103320Y-72846529D01*
X117293009Y-72458512D01*
X117297870Y-72449528D01*
X117518965Y-72078486D01*
X117524560Y-72069924D01*
X117552684Y-72030534D01*
X117775520Y-71718431D01*
X117781797Y-71710367D01*
X118060940Y-71380783D01*
X118067859Y-71373267D01*
X118373267Y-71067859D01*
X118380783Y-71060940D01*
X118710367Y-70781797D01*
X118718431Y-70775520D01*
X119069929Y-70524556D01*
X119078486Y-70518965D01*
X119449528Y-70297870D01*
X119458512Y-70293009D01*
X119846534Y-70103317D01*
X119855908Y-70099206D01*
X120258258Y-69942209D01*
X120267910Y-69938894D01*
X120681877Y-69815651D01*
X120691773Y-69813144D01*
X121114498Y-69724508D01*
X121124570Y-69722828D01*
X121553179Y-69669402D01*
X121563348Y-69668559D01*
X121997322Y-69650609D01*
X122002624Y-69650504D01*
X176938716Y-69736957D01*
G37*
%TD.AperFunction*%
%TD*%
M02*
