%TF.GenerationSoftware,KiCad,Pcbnew,8.0.5*%
%TF.CreationDate,2024-12-11T15:25:16-08:00*%
%TF.ProjectId,ESP32-Proto,45535033-322d-4507-926f-746f2e6b6963,rev?*%
%TF.SameCoordinates,Original*%
%TF.FileFunction,Legend,Top*%
%TF.FilePolarity,Positive*%
%FSLAX46Y46*%
G04 Gerber Fmt 4.6, Leading zero omitted, Abs format (unit mm)*
G04 Created by KiCad (PCBNEW 8.0.5) date 2024-12-11 15:25:16*
%MOMM*%
%LPD*%
G01*
G04 APERTURE LIST*
G04 Aperture macros list*
%AMRoundRect*
0 Rectangle with rounded corners*
0 $1 Rounding radius*
0 $2 $3 $4 $5 $6 $7 $8 $9 X,Y pos of 4 corners*
0 Add a 4 corners polygon primitive as box body*
4,1,4,$2,$3,$4,$5,$6,$7,$8,$9,$2,$3,0*
0 Add four circle primitives for the rounded corners*
1,1,$1+$1,$2,$3*
1,1,$1+$1,$4,$5*
1,1,$1+$1,$6,$7*
1,1,$1+$1,$8,$9*
0 Add four rect primitives between the rounded corners*
20,1,$1+$1,$2,$3,$4,$5,0*
20,1,$1+$1,$4,$5,$6,$7,0*
20,1,$1+$1,$6,$7,$8,$9,0*
20,1,$1+$1,$8,$9,$2,$3,0*%
%AMFreePoly0*
4,1,6,0.600000,-0.600000,-0.600000,-0.600000,-0.600000,0.000000,0.000000,0.600000,0.600000,0.600000,0.600000,-0.600000,0.600000,-0.600000,$1*%
G04 Aperture macros list end*
%ADD10C,0.187500*%
%ADD11C,0.150000*%
%ADD12C,0.120000*%
%ADD13C,0.000000*%
%ADD14C,1.600000*%
%ADD15R,1.600000X1.600000*%
%ADD16RoundRect,0.250000X0.325000X0.650000X-0.325000X0.650000X-0.325000X-0.650000X0.325000X-0.650000X0*%
%ADD17RoundRect,0.200000X-0.200000X-0.275000X0.200000X-0.275000X0.200000X0.275000X-0.200000X0.275000X0*%
%ADD18C,2.400000*%
%ADD19R,2.400000X2.400000*%
%ADD20RoundRect,0.243750X-0.243750X-0.456250X0.243750X-0.456250X0.243750X0.456250X-0.243750X0.456250X0*%
%ADD21C,3.500000*%
%ADD22RoundRect,0.200000X-0.275000X0.200000X-0.275000X-0.200000X0.275000X-0.200000X0.275000X0.200000X0*%
%ADD23RoundRect,0.243750X-0.456250X0.243750X-0.456250X-0.243750X0.456250X-0.243750X0.456250X0.243750X0*%
%ADD24RoundRect,0.375000X-0.625000X-0.375000X0.625000X-0.375000X0.625000X0.375000X-0.625000X0.375000X0*%
%ADD25RoundRect,0.500000X-0.500000X-1.400000X0.500000X-1.400000X0.500000X1.400000X-0.500000X1.400000X0*%
%ADD26R,1.700000X1.000000*%
%ADD27RoundRect,0.250000X-0.650000X1.000000X-0.650000X-1.000000X0.650000X-1.000000X0.650000X1.000000X0*%
%ADD28R,1.900000X2.500000*%
%ADD29RoundRect,0.225000X0.250000X-0.225000X0.250000X0.225000X-0.250000X0.225000X-0.250000X-0.225000X0*%
%ADD30RoundRect,0.200000X0.275000X-0.200000X0.275000X0.200000X-0.275000X0.200000X-0.275000X-0.200000X0*%
%ADD31R,1.500000X0.900000*%
%ADD32RoundRect,0.225000X-0.250000X0.225000X-0.250000X-0.225000X0.250000X-0.225000X0.250000X0.225000X0*%
%ADD33RoundRect,0.200000X0.200000X0.275000X-0.200000X0.275000X-0.200000X-0.275000X0.200000X-0.275000X0*%
%ADD34R,0.400000X1.650000*%
%ADD35R,1.825000X0.700000*%
%ADD36R,2.000000X1.500000*%
%ADD37R,1.350000X2.000000*%
%ADD38O,1.350000X1.700000*%
%ADD39O,1.100000X1.500000*%
%ADD40R,1.430000X2.500000*%
%ADD41RoundRect,0.250000X0.650000X-1.000000X0.650000X1.000000X-0.650000X1.000000X-0.650000X-1.000000X0*%
%ADD42R,2.290000X3.000000*%
%ADD43RoundRect,0.150000X-0.825000X-0.150000X0.825000X-0.150000X0.825000X0.150000X-0.825000X0.150000X0*%
%ADD44RoundRect,0.250000X-1.075000X0.375000X-1.075000X-0.375000X1.075000X-0.375000X1.075000X0.375000X0*%
%ADD45RoundRect,0.225000X-0.225000X-0.250000X0.225000X-0.250000X0.225000X0.250000X-0.225000X0.250000X0*%
%ADD46C,2.600000*%
%ADD47R,2.600000X2.600000*%
%ADD48RoundRect,0.150000X0.150000X-0.512500X0.150000X0.512500X-0.150000X0.512500X-0.150000X-0.512500X0*%
%ADD49RoundRect,0.250000X1.000000X-1.400000X1.000000X1.400000X-1.000000X1.400000X-1.000000X-1.400000X0*%
%ADD50RoundRect,0.150000X-0.150000X0.825000X-0.150000X-0.825000X0.150000X-0.825000X0.150000X0.825000X0*%
%ADD51R,0.800000X0.800000*%
%ADD52R,1.200000X1.200000*%
%ADD53FreePoly0,0.000000*%
%ADD54R,0.400000X0.800000*%
%ADD55R,0.800000X0.400000*%
%ADD56RoundRect,0.225000X0.225000X0.250000X-0.225000X0.250000X-0.225000X-0.250000X0.225000X-0.250000X0*%
%ADD57RoundRect,0.250000X-0.650000X0.325000X-0.650000X-0.325000X0.650000X-0.325000X0.650000X0.325000X0*%
G04 APERTURE END LIST*
D10*
X180567869Y-84233787D02*
X180567869Y-83614740D01*
X180567869Y-83614740D02*
X180948821Y-83948073D01*
X180948821Y-83948073D02*
X180948821Y-83805216D01*
X180948821Y-83805216D02*
X180996440Y-83709978D01*
X180996440Y-83709978D02*
X181044059Y-83662359D01*
X181044059Y-83662359D02*
X181139297Y-83614740D01*
X181139297Y-83614740D02*
X181377392Y-83614740D01*
X181377392Y-83614740D02*
X181472630Y-83662359D01*
X181472630Y-83662359D02*
X181520250Y-83709978D01*
X181520250Y-83709978D02*
X181567869Y-83805216D01*
X181567869Y-83805216D02*
X181567869Y-84090930D01*
X181567869Y-84090930D02*
X181520250Y-84186168D01*
X181520250Y-84186168D02*
X181472630Y-84233787D01*
X181472630Y-83186168D02*
X181520250Y-83138549D01*
X181520250Y-83138549D02*
X181567869Y-83186168D01*
X181567869Y-83186168D02*
X181520250Y-83233787D01*
X181520250Y-83233787D02*
X181472630Y-83186168D01*
X181472630Y-83186168D02*
X181567869Y-83186168D01*
X180567869Y-82805216D02*
X180567869Y-82186169D01*
X180567869Y-82186169D02*
X180948821Y-82519502D01*
X180948821Y-82519502D02*
X180948821Y-82376645D01*
X180948821Y-82376645D02*
X180996440Y-82281407D01*
X180996440Y-82281407D02*
X181044059Y-82233788D01*
X181044059Y-82233788D02*
X181139297Y-82186169D01*
X181139297Y-82186169D02*
X181377392Y-82186169D01*
X181377392Y-82186169D02*
X181472630Y-82233788D01*
X181472630Y-82233788D02*
X181520250Y-82281407D01*
X181520250Y-82281407D02*
X181567869Y-82376645D01*
X181567869Y-82376645D02*
X181567869Y-82662359D01*
X181567869Y-82662359D02*
X181520250Y-82757597D01*
X181520250Y-82757597D02*
X181472630Y-82805216D01*
X180567869Y-81900454D02*
X181567869Y-81567121D01*
X181567869Y-81567121D02*
X180567869Y-81233788D01*
X157920783Y-78084059D02*
X158063640Y-78131678D01*
X158063640Y-78131678D02*
X158111259Y-78179297D01*
X158111259Y-78179297D02*
X158158878Y-78274535D01*
X158158878Y-78274535D02*
X158158878Y-78417392D01*
X158158878Y-78417392D02*
X158111259Y-78512630D01*
X158111259Y-78512630D02*
X158063640Y-78560250D01*
X158063640Y-78560250D02*
X157968402Y-78607869D01*
X157968402Y-78607869D02*
X157587450Y-78607869D01*
X157587450Y-78607869D02*
X157587450Y-77607869D01*
X157587450Y-77607869D02*
X157920783Y-77607869D01*
X157920783Y-77607869D02*
X158016021Y-77655488D01*
X158016021Y-77655488D02*
X158063640Y-77703107D01*
X158063640Y-77703107D02*
X158111259Y-77798345D01*
X158111259Y-77798345D02*
X158111259Y-77893583D01*
X158111259Y-77893583D02*
X158063640Y-77988821D01*
X158063640Y-77988821D02*
X158016021Y-78036440D01*
X158016021Y-78036440D02*
X157920783Y-78084059D01*
X157920783Y-78084059D02*
X157587450Y-78084059D01*
X158777926Y-77607869D02*
X158968402Y-77607869D01*
X158968402Y-77607869D02*
X159063640Y-77655488D01*
X159063640Y-77655488D02*
X159158878Y-77750726D01*
X159158878Y-77750726D02*
X159206497Y-77941202D01*
X159206497Y-77941202D02*
X159206497Y-78274535D01*
X159206497Y-78274535D02*
X159158878Y-78465011D01*
X159158878Y-78465011D02*
X159063640Y-78560250D01*
X159063640Y-78560250D02*
X158968402Y-78607869D01*
X158968402Y-78607869D02*
X158777926Y-78607869D01*
X158777926Y-78607869D02*
X158682688Y-78560250D01*
X158682688Y-78560250D02*
X158587450Y-78465011D01*
X158587450Y-78465011D02*
X158539831Y-78274535D01*
X158539831Y-78274535D02*
X158539831Y-77941202D01*
X158539831Y-77941202D02*
X158587450Y-77750726D01*
X158587450Y-77750726D02*
X158682688Y-77655488D01*
X158682688Y-77655488D02*
X158777926Y-77607869D01*
X159825545Y-77607869D02*
X160016021Y-77607869D01*
X160016021Y-77607869D02*
X160111259Y-77655488D01*
X160111259Y-77655488D02*
X160206497Y-77750726D01*
X160206497Y-77750726D02*
X160254116Y-77941202D01*
X160254116Y-77941202D02*
X160254116Y-78274535D01*
X160254116Y-78274535D02*
X160206497Y-78465011D01*
X160206497Y-78465011D02*
X160111259Y-78560250D01*
X160111259Y-78560250D02*
X160016021Y-78607869D01*
X160016021Y-78607869D02*
X159825545Y-78607869D01*
X159825545Y-78607869D02*
X159730307Y-78560250D01*
X159730307Y-78560250D02*
X159635069Y-78465011D01*
X159635069Y-78465011D02*
X159587450Y-78274535D01*
X159587450Y-78274535D02*
X159587450Y-77941202D01*
X159587450Y-77941202D02*
X159635069Y-77750726D01*
X159635069Y-77750726D02*
X159730307Y-77655488D01*
X159730307Y-77655488D02*
X159825545Y-77607869D01*
X160539831Y-77607869D02*
X161111259Y-77607869D01*
X160825545Y-78607869D02*
X160825545Y-77607869D01*
X171049450Y-78084059D02*
X171382783Y-78084059D01*
X171525640Y-78607869D02*
X171049450Y-78607869D01*
X171049450Y-78607869D02*
X171049450Y-77607869D01*
X171049450Y-77607869D02*
X171525640Y-77607869D01*
X171954212Y-78607869D02*
X171954212Y-77607869D01*
X171954212Y-77607869D02*
X172525640Y-78607869D01*
X172525640Y-78607869D02*
X172525640Y-77607869D01*
X159119503Y-72979931D02*
X159067122Y-73032312D01*
X159067122Y-73032312D02*
X158909979Y-73084692D01*
X158909979Y-73084692D02*
X158805217Y-73084692D01*
X158805217Y-73084692D02*
X158648074Y-73032312D01*
X158648074Y-73032312D02*
X158543312Y-72927550D01*
X158543312Y-72927550D02*
X158490931Y-72822788D01*
X158490931Y-72822788D02*
X158438550Y-72613264D01*
X158438550Y-72613264D02*
X158438550Y-72456121D01*
X158438550Y-72456121D02*
X158490931Y-72246597D01*
X158490931Y-72246597D02*
X158543312Y-72141835D01*
X158543312Y-72141835D02*
X158648074Y-72037073D01*
X158648074Y-72037073D02*
X158805217Y-71984692D01*
X158805217Y-71984692D02*
X158909979Y-71984692D01*
X158909979Y-71984692D02*
X159067122Y-72037073D01*
X159067122Y-72037073D02*
X159119503Y-72089454D01*
X159538550Y-73032312D02*
X159695693Y-73084692D01*
X159695693Y-73084692D02*
X159957598Y-73084692D01*
X159957598Y-73084692D02*
X160062360Y-73032312D01*
X160062360Y-73032312D02*
X160114741Y-72979931D01*
X160114741Y-72979931D02*
X160167122Y-72875169D01*
X160167122Y-72875169D02*
X160167122Y-72770407D01*
X160167122Y-72770407D02*
X160114741Y-72665645D01*
X160114741Y-72665645D02*
X160062360Y-72613264D01*
X160062360Y-72613264D02*
X159957598Y-72560883D01*
X159957598Y-72560883D02*
X159748074Y-72508502D01*
X159748074Y-72508502D02*
X159643312Y-72456121D01*
X159643312Y-72456121D02*
X159590931Y-72403740D01*
X159590931Y-72403740D02*
X159538550Y-72298978D01*
X159538550Y-72298978D02*
X159538550Y-72194216D01*
X159538550Y-72194216D02*
X159590931Y-72089454D01*
X159590931Y-72089454D02*
X159643312Y-72037073D01*
X159643312Y-72037073D02*
X159748074Y-71984692D01*
X159748074Y-71984692D02*
X160009979Y-71984692D01*
X160009979Y-71984692D02*
X160167122Y-72037073D01*
X160638550Y-71984692D02*
X160638550Y-72875169D01*
X160638550Y-72875169D02*
X160690931Y-72979931D01*
X160690931Y-72979931D02*
X160743312Y-73032312D01*
X160743312Y-73032312D02*
X160848074Y-73084692D01*
X160848074Y-73084692D02*
X161057598Y-73084692D01*
X161057598Y-73084692D02*
X161162360Y-73032312D01*
X161162360Y-73032312D02*
X161214741Y-72979931D01*
X161214741Y-72979931D02*
X161267122Y-72875169D01*
X161267122Y-72875169D02*
X161267122Y-71984692D01*
X161790931Y-73084692D02*
X161790931Y-71984692D01*
X161790931Y-71984692D02*
X162419503Y-73084692D01*
X162419503Y-73084692D02*
X162419503Y-71984692D01*
X164148074Y-72508502D02*
X163781407Y-72508502D01*
X163781407Y-73084692D02*
X163781407Y-71984692D01*
X163781407Y-71984692D02*
X164305217Y-71984692D01*
X164671883Y-73032312D02*
X164829026Y-73084692D01*
X164829026Y-73084692D02*
X165090931Y-73084692D01*
X165090931Y-73084692D02*
X165195693Y-73032312D01*
X165195693Y-73032312D02*
X165248074Y-72979931D01*
X165248074Y-72979931D02*
X165300455Y-72875169D01*
X165300455Y-72875169D02*
X165300455Y-72770407D01*
X165300455Y-72770407D02*
X165248074Y-72665645D01*
X165248074Y-72665645D02*
X165195693Y-72613264D01*
X165195693Y-72613264D02*
X165090931Y-72560883D01*
X165090931Y-72560883D02*
X164881407Y-72508502D01*
X164881407Y-72508502D02*
X164776645Y-72456121D01*
X164776645Y-72456121D02*
X164724264Y-72403740D01*
X164724264Y-72403740D02*
X164671883Y-72298978D01*
X164671883Y-72298978D02*
X164671883Y-72194216D01*
X164671883Y-72194216D02*
X164724264Y-72089454D01*
X164724264Y-72089454D02*
X164776645Y-72037073D01*
X164776645Y-72037073D02*
X164881407Y-71984692D01*
X164881407Y-71984692D02*
X165143312Y-71984692D01*
X165143312Y-71984692D02*
X165300455Y-72037073D01*
X165719502Y-72770407D02*
X166243312Y-72770407D01*
X165614740Y-73084692D02*
X165981407Y-71984692D01*
X165981407Y-71984692D02*
X166348074Y-73084692D01*
X166714740Y-72508502D02*
X167081407Y-72508502D01*
X167238550Y-73084692D02*
X166714740Y-73084692D01*
X166714740Y-73084692D02*
X166714740Y-71984692D01*
X166714740Y-71984692D02*
X167238550Y-71984692D01*
X168495692Y-72089454D02*
X168548073Y-72037073D01*
X168548073Y-72037073D02*
X168652835Y-71984692D01*
X168652835Y-71984692D02*
X168914740Y-71984692D01*
X168914740Y-71984692D02*
X169019502Y-72037073D01*
X169019502Y-72037073D02*
X169071883Y-72089454D01*
X169071883Y-72089454D02*
X169124264Y-72194216D01*
X169124264Y-72194216D02*
X169124264Y-72298978D01*
X169124264Y-72298978D02*
X169071883Y-72456121D01*
X169071883Y-72456121D02*
X168443311Y-73084692D01*
X168443311Y-73084692D02*
X169124264Y-73084692D01*
X169805216Y-71984692D02*
X169909978Y-71984692D01*
X169909978Y-71984692D02*
X170014740Y-72037073D01*
X170014740Y-72037073D02*
X170067121Y-72089454D01*
X170067121Y-72089454D02*
X170119502Y-72194216D01*
X170119502Y-72194216D02*
X170171883Y-72403740D01*
X170171883Y-72403740D02*
X170171883Y-72665645D01*
X170171883Y-72665645D02*
X170119502Y-72875169D01*
X170119502Y-72875169D02*
X170067121Y-72979931D01*
X170067121Y-72979931D02*
X170014740Y-73032312D01*
X170014740Y-73032312D02*
X169909978Y-73084692D01*
X169909978Y-73084692D02*
X169805216Y-73084692D01*
X169805216Y-73084692D02*
X169700454Y-73032312D01*
X169700454Y-73032312D02*
X169648073Y-72979931D01*
X169648073Y-72979931D02*
X169595692Y-72875169D01*
X169595692Y-72875169D02*
X169543311Y-72665645D01*
X169543311Y-72665645D02*
X169543311Y-72403740D01*
X169543311Y-72403740D02*
X169595692Y-72194216D01*
X169595692Y-72194216D02*
X169648073Y-72089454D01*
X169648073Y-72089454D02*
X169700454Y-72037073D01*
X169700454Y-72037073D02*
X169805216Y-71984692D01*
X170590930Y-72089454D02*
X170643311Y-72037073D01*
X170643311Y-72037073D02*
X170748073Y-71984692D01*
X170748073Y-71984692D02*
X171009978Y-71984692D01*
X171009978Y-71984692D02*
X171114740Y-72037073D01*
X171114740Y-72037073D02*
X171167121Y-72089454D01*
X171167121Y-72089454D02*
X171219502Y-72194216D01*
X171219502Y-72194216D02*
X171219502Y-72298978D01*
X171219502Y-72298978D02*
X171167121Y-72456121D01*
X171167121Y-72456121D02*
X170538549Y-73084692D01*
X170538549Y-73084692D02*
X171219502Y-73084692D01*
X172214740Y-71984692D02*
X171690930Y-71984692D01*
X171690930Y-71984692D02*
X171638549Y-72508502D01*
X171638549Y-72508502D02*
X171690930Y-72456121D01*
X171690930Y-72456121D02*
X171795692Y-72403740D01*
X171795692Y-72403740D02*
X172057597Y-72403740D01*
X172057597Y-72403740D02*
X172162359Y-72456121D01*
X172162359Y-72456121D02*
X172214740Y-72508502D01*
X172214740Y-72508502D02*
X172267121Y-72613264D01*
X172267121Y-72613264D02*
X172267121Y-72875169D01*
X172267121Y-72875169D02*
X172214740Y-72979931D01*
X172214740Y-72979931D02*
X172162359Y-73032312D01*
X172162359Y-73032312D02*
X172057597Y-73084692D01*
X172057597Y-73084692D02*
X171795692Y-73084692D01*
X171795692Y-73084692D02*
X171690930Y-73032312D01*
X171690930Y-73032312D02*
X171638549Y-72979931D01*
X150214739Y-74279440D02*
X150581406Y-74279440D01*
X150738549Y-74855630D02*
X150214739Y-74855630D01*
X150214739Y-74855630D02*
X150214739Y-73755630D01*
X150214739Y-73755630D02*
X150738549Y-73755630D01*
X151157596Y-74803250D02*
X151314739Y-74855630D01*
X151314739Y-74855630D02*
X151576644Y-74855630D01*
X151576644Y-74855630D02*
X151681406Y-74803250D01*
X151681406Y-74803250D02*
X151733787Y-74750869D01*
X151733787Y-74750869D02*
X151786168Y-74646107D01*
X151786168Y-74646107D02*
X151786168Y-74541345D01*
X151786168Y-74541345D02*
X151733787Y-74436583D01*
X151733787Y-74436583D02*
X151681406Y-74384202D01*
X151681406Y-74384202D02*
X151576644Y-74331821D01*
X151576644Y-74331821D02*
X151367120Y-74279440D01*
X151367120Y-74279440D02*
X151262358Y-74227059D01*
X151262358Y-74227059D02*
X151209977Y-74174678D01*
X151209977Y-74174678D02*
X151157596Y-74069916D01*
X151157596Y-74069916D02*
X151157596Y-73965154D01*
X151157596Y-73965154D02*
X151209977Y-73860392D01*
X151209977Y-73860392D02*
X151262358Y-73808011D01*
X151262358Y-73808011D02*
X151367120Y-73755630D01*
X151367120Y-73755630D02*
X151629025Y-73755630D01*
X151629025Y-73755630D02*
X151786168Y-73808011D01*
X152257596Y-74855630D02*
X152257596Y-73755630D01*
X152257596Y-73755630D02*
X152676644Y-73755630D01*
X152676644Y-73755630D02*
X152781406Y-73808011D01*
X152781406Y-73808011D02*
X152833787Y-73860392D01*
X152833787Y-73860392D02*
X152886168Y-73965154D01*
X152886168Y-73965154D02*
X152886168Y-74122297D01*
X152886168Y-74122297D02*
X152833787Y-74227059D01*
X152833787Y-74227059D02*
X152781406Y-74279440D01*
X152781406Y-74279440D02*
X152676644Y-74331821D01*
X152676644Y-74331821D02*
X152257596Y-74331821D01*
X153252834Y-73755630D02*
X153933787Y-73755630D01*
X153933787Y-73755630D02*
X153567120Y-74174678D01*
X153567120Y-74174678D02*
X153724263Y-74174678D01*
X153724263Y-74174678D02*
X153829025Y-74227059D01*
X153829025Y-74227059D02*
X153881406Y-74279440D01*
X153881406Y-74279440D02*
X153933787Y-74384202D01*
X153933787Y-74384202D02*
X153933787Y-74646107D01*
X153933787Y-74646107D02*
X153881406Y-74750869D01*
X153881406Y-74750869D02*
X153829025Y-74803250D01*
X153829025Y-74803250D02*
X153724263Y-74855630D01*
X153724263Y-74855630D02*
X153409977Y-74855630D01*
X153409977Y-74855630D02*
X153305215Y-74803250D01*
X153305215Y-74803250D02*
X153252834Y-74750869D01*
X154352834Y-73860392D02*
X154405215Y-73808011D01*
X154405215Y-73808011D02*
X154509977Y-73755630D01*
X154509977Y-73755630D02*
X154771882Y-73755630D01*
X154771882Y-73755630D02*
X154876644Y-73808011D01*
X154876644Y-73808011D02*
X154929025Y-73860392D01*
X154929025Y-73860392D02*
X154981406Y-73965154D01*
X154981406Y-73965154D02*
X154981406Y-74069916D01*
X154981406Y-74069916D02*
X154929025Y-74227059D01*
X154929025Y-74227059D02*
X154300453Y-74855630D01*
X154300453Y-74855630D02*
X154981406Y-74855630D01*
X155452834Y-74436583D02*
X156290930Y-74436583D01*
X156762358Y-74803250D02*
X156919501Y-74855630D01*
X156919501Y-74855630D02*
X157181406Y-74855630D01*
X157181406Y-74855630D02*
X157286168Y-74803250D01*
X157286168Y-74803250D02*
X157338549Y-74750869D01*
X157338549Y-74750869D02*
X157390930Y-74646107D01*
X157390930Y-74646107D02*
X157390930Y-74541345D01*
X157390930Y-74541345D02*
X157338549Y-74436583D01*
X157338549Y-74436583D02*
X157286168Y-74384202D01*
X157286168Y-74384202D02*
X157181406Y-74331821D01*
X157181406Y-74331821D02*
X156971882Y-74279440D01*
X156971882Y-74279440D02*
X156867120Y-74227059D01*
X156867120Y-74227059D02*
X156814739Y-74174678D01*
X156814739Y-74174678D02*
X156762358Y-74069916D01*
X156762358Y-74069916D02*
X156762358Y-73965154D01*
X156762358Y-73965154D02*
X156814739Y-73860392D01*
X156814739Y-73860392D02*
X156867120Y-73808011D01*
X156867120Y-73808011D02*
X156971882Y-73755630D01*
X156971882Y-73755630D02*
X157233787Y-73755630D01*
X157233787Y-73755630D02*
X157390930Y-73808011D01*
X157757596Y-73755630D02*
X158438549Y-73755630D01*
X158438549Y-73755630D02*
X158071882Y-74174678D01*
X158071882Y-74174678D02*
X158229025Y-74174678D01*
X158229025Y-74174678D02*
X158333787Y-74227059D01*
X158333787Y-74227059D02*
X158386168Y-74279440D01*
X158386168Y-74279440D02*
X158438549Y-74384202D01*
X158438549Y-74384202D02*
X158438549Y-74646107D01*
X158438549Y-74646107D02*
X158386168Y-74750869D01*
X158386168Y-74750869D02*
X158333787Y-74803250D01*
X158333787Y-74803250D02*
X158229025Y-74855630D01*
X158229025Y-74855630D02*
X157914739Y-74855630D01*
X157914739Y-74855630D02*
X157809977Y-74803250D01*
X157809977Y-74803250D02*
X157757596Y-74750869D01*
X158909977Y-74436583D02*
X159748073Y-74436583D01*
X160271882Y-74855630D02*
X160271882Y-73755630D01*
X160271882Y-73755630D02*
X160638549Y-74541345D01*
X160638549Y-74541345D02*
X161005216Y-73755630D01*
X161005216Y-73755630D02*
X161005216Y-74855630D01*
X161529025Y-74855630D02*
X161529025Y-73755630D01*
X162052835Y-74855630D02*
X162052835Y-73755630D01*
X162052835Y-73755630D02*
X162681407Y-74855630D01*
X162681407Y-74855630D02*
X162681407Y-73755630D01*
X163205216Y-74855630D02*
X163205216Y-73755630D01*
X164567121Y-74855630D02*
X164567121Y-73755630D01*
X164567121Y-73755630D02*
X164986169Y-73755630D01*
X164986169Y-73755630D02*
X165090931Y-73808011D01*
X165090931Y-73808011D02*
X165143312Y-73860392D01*
X165143312Y-73860392D02*
X165195693Y-73965154D01*
X165195693Y-73965154D02*
X165195693Y-74122297D01*
X165195693Y-74122297D02*
X165143312Y-74227059D01*
X165143312Y-74227059D02*
X165090931Y-74279440D01*
X165090931Y-74279440D02*
X164986169Y-74331821D01*
X164986169Y-74331821D02*
X164567121Y-74331821D01*
X166295693Y-74855630D02*
X165929026Y-74331821D01*
X165667121Y-74855630D02*
X165667121Y-73755630D01*
X165667121Y-73755630D02*
X166086169Y-73755630D01*
X166086169Y-73755630D02*
X166190931Y-73808011D01*
X166190931Y-73808011D02*
X166243312Y-73860392D01*
X166243312Y-73860392D02*
X166295693Y-73965154D01*
X166295693Y-73965154D02*
X166295693Y-74122297D01*
X166295693Y-74122297D02*
X166243312Y-74227059D01*
X166243312Y-74227059D02*
X166190931Y-74279440D01*
X166190931Y-74279440D02*
X166086169Y-74331821D01*
X166086169Y-74331821D02*
X165667121Y-74331821D01*
X166976645Y-73755630D02*
X167186169Y-73755630D01*
X167186169Y-73755630D02*
X167290931Y-73808011D01*
X167290931Y-73808011D02*
X167395693Y-73912773D01*
X167395693Y-73912773D02*
X167448074Y-74122297D01*
X167448074Y-74122297D02*
X167448074Y-74488964D01*
X167448074Y-74488964D02*
X167395693Y-74698488D01*
X167395693Y-74698488D02*
X167290931Y-74803250D01*
X167290931Y-74803250D02*
X167186169Y-74855630D01*
X167186169Y-74855630D02*
X166976645Y-74855630D01*
X166976645Y-74855630D02*
X166871883Y-74803250D01*
X166871883Y-74803250D02*
X166767121Y-74698488D01*
X166767121Y-74698488D02*
X166714740Y-74488964D01*
X166714740Y-74488964D02*
X166714740Y-74122297D01*
X166714740Y-74122297D02*
X166767121Y-73912773D01*
X166767121Y-73912773D02*
X166871883Y-73808011D01*
X166871883Y-73808011D02*
X166976645Y-73755630D01*
X167762359Y-73755630D02*
X168390931Y-73755630D01*
X168076645Y-74855630D02*
X168076645Y-73755630D01*
X168967121Y-73755630D02*
X169176645Y-73755630D01*
X169176645Y-73755630D02*
X169281407Y-73808011D01*
X169281407Y-73808011D02*
X169386169Y-73912773D01*
X169386169Y-73912773D02*
X169438550Y-74122297D01*
X169438550Y-74122297D02*
X169438550Y-74488964D01*
X169438550Y-74488964D02*
X169386169Y-74698488D01*
X169386169Y-74698488D02*
X169281407Y-74803250D01*
X169281407Y-74803250D02*
X169176645Y-74855630D01*
X169176645Y-74855630D02*
X168967121Y-74855630D01*
X168967121Y-74855630D02*
X168862359Y-74803250D01*
X168862359Y-74803250D02*
X168757597Y-74698488D01*
X168757597Y-74698488D02*
X168705216Y-74488964D01*
X168705216Y-74488964D02*
X168705216Y-74122297D01*
X168705216Y-74122297D02*
X168757597Y-73912773D01*
X168757597Y-73912773D02*
X168862359Y-73808011D01*
X168862359Y-73808011D02*
X168967121Y-73755630D01*
X170590930Y-73755630D02*
X170957597Y-74855630D01*
X170957597Y-74855630D02*
X171324264Y-73755630D01*
X172267121Y-74855630D02*
X171638549Y-74855630D01*
X171952835Y-74855630D02*
X171952835Y-73755630D01*
X171952835Y-73755630D02*
X171848073Y-73912773D01*
X171848073Y-73912773D02*
X171743311Y-74017535D01*
X171743311Y-74017535D02*
X171638549Y-74069916D01*
X147567869Y-93162359D02*
X147567869Y-93638549D01*
X147567869Y-93638549D02*
X148044059Y-93686168D01*
X148044059Y-93686168D02*
X147996440Y-93638549D01*
X147996440Y-93638549D02*
X147948821Y-93543311D01*
X147948821Y-93543311D02*
X147948821Y-93305216D01*
X147948821Y-93305216D02*
X147996440Y-93209978D01*
X147996440Y-93209978D02*
X148044059Y-93162359D01*
X148044059Y-93162359D02*
X148139297Y-93114740D01*
X148139297Y-93114740D02*
X148377392Y-93114740D01*
X148377392Y-93114740D02*
X148472630Y-93162359D01*
X148472630Y-93162359D02*
X148520250Y-93209978D01*
X148520250Y-93209978D02*
X148567869Y-93305216D01*
X148567869Y-93305216D02*
X148567869Y-93543311D01*
X148567869Y-93543311D02*
X148520250Y-93638549D01*
X148520250Y-93638549D02*
X148472630Y-93686168D01*
X147567869Y-92829025D02*
X148567869Y-92495692D01*
X148567869Y-92495692D02*
X147567869Y-92162359D01*
D11*
X124583333Y-109237231D02*
X124535714Y-109284851D01*
X124535714Y-109284851D02*
X124392857Y-109332470D01*
X124392857Y-109332470D02*
X124297619Y-109332470D01*
X124297619Y-109332470D02*
X124154762Y-109284851D01*
X124154762Y-109284851D02*
X124059524Y-109189612D01*
X124059524Y-109189612D02*
X124011905Y-109094374D01*
X124011905Y-109094374D02*
X123964286Y-108903898D01*
X123964286Y-108903898D02*
X123964286Y-108761041D01*
X123964286Y-108761041D02*
X124011905Y-108570565D01*
X124011905Y-108570565D02*
X124059524Y-108475327D01*
X124059524Y-108475327D02*
X124154762Y-108380089D01*
X124154762Y-108380089D02*
X124297619Y-108332470D01*
X124297619Y-108332470D02*
X124392857Y-108332470D01*
X124392857Y-108332470D02*
X124535714Y-108380089D01*
X124535714Y-108380089D02*
X124583333Y-108427708D01*
X124964286Y-108427708D02*
X125011905Y-108380089D01*
X125011905Y-108380089D02*
X125107143Y-108332470D01*
X125107143Y-108332470D02*
X125345238Y-108332470D01*
X125345238Y-108332470D02*
X125440476Y-108380089D01*
X125440476Y-108380089D02*
X125488095Y-108427708D01*
X125488095Y-108427708D02*
X125535714Y-108522946D01*
X125535714Y-108522946D02*
X125535714Y-108618184D01*
X125535714Y-108618184D02*
X125488095Y-108761041D01*
X125488095Y-108761041D02*
X124916667Y-109332470D01*
X124916667Y-109332470D02*
X125535714Y-109332470D01*
X141757142Y-96584580D02*
X141709523Y-96632200D01*
X141709523Y-96632200D02*
X141566666Y-96679819D01*
X141566666Y-96679819D02*
X141471428Y-96679819D01*
X141471428Y-96679819D02*
X141328571Y-96632200D01*
X141328571Y-96632200D02*
X141233333Y-96536961D01*
X141233333Y-96536961D02*
X141185714Y-96441723D01*
X141185714Y-96441723D02*
X141138095Y-96251247D01*
X141138095Y-96251247D02*
X141138095Y-96108390D01*
X141138095Y-96108390D02*
X141185714Y-95917914D01*
X141185714Y-95917914D02*
X141233333Y-95822676D01*
X141233333Y-95822676D02*
X141328571Y-95727438D01*
X141328571Y-95727438D02*
X141471428Y-95679819D01*
X141471428Y-95679819D02*
X141566666Y-95679819D01*
X141566666Y-95679819D02*
X141709523Y-95727438D01*
X141709523Y-95727438D02*
X141757142Y-95775057D01*
X142709523Y-96679819D02*
X142138095Y-96679819D01*
X142423809Y-96679819D02*
X142423809Y-95679819D01*
X142423809Y-95679819D02*
X142328571Y-95822676D01*
X142328571Y-95822676D02*
X142233333Y-95917914D01*
X142233333Y-95917914D02*
X142138095Y-95965533D01*
X143661904Y-96679819D02*
X143090476Y-96679819D01*
X143376190Y-96679819D02*
X143376190Y-95679819D01*
X143376190Y-95679819D02*
X143280952Y-95822676D01*
X143280952Y-95822676D02*
X143185714Y-95917914D01*
X143185714Y-95917914D02*
X143090476Y-95965533D01*
X130483333Y-103079819D02*
X130150000Y-102603628D01*
X129911905Y-103079819D02*
X129911905Y-102079819D01*
X129911905Y-102079819D02*
X130292857Y-102079819D01*
X130292857Y-102079819D02*
X130388095Y-102127438D01*
X130388095Y-102127438D02*
X130435714Y-102175057D01*
X130435714Y-102175057D02*
X130483333Y-102270295D01*
X130483333Y-102270295D02*
X130483333Y-102413152D01*
X130483333Y-102413152D02*
X130435714Y-102508390D01*
X130435714Y-102508390D02*
X130388095Y-102556009D01*
X130388095Y-102556009D02*
X130292857Y-102603628D01*
X130292857Y-102603628D02*
X129911905Y-102603628D01*
X130816667Y-102079819D02*
X131435714Y-102079819D01*
X131435714Y-102079819D02*
X131102381Y-102460771D01*
X131102381Y-102460771D02*
X131245238Y-102460771D01*
X131245238Y-102460771D02*
X131340476Y-102508390D01*
X131340476Y-102508390D02*
X131388095Y-102556009D01*
X131388095Y-102556009D02*
X131435714Y-102651247D01*
X131435714Y-102651247D02*
X131435714Y-102889342D01*
X131435714Y-102889342D02*
X131388095Y-102984580D01*
X131388095Y-102984580D02*
X131340476Y-103032200D01*
X131340476Y-103032200D02*
X131245238Y-103079819D01*
X131245238Y-103079819D02*
X130959524Y-103079819D01*
X130959524Y-103079819D02*
X130864286Y-103032200D01*
X130864286Y-103032200D02*
X130816667Y-102984580D01*
X141316666Y-108444819D02*
X141316666Y-109159104D01*
X141316666Y-109159104D02*
X141269047Y-109301961D01*
X141269047Y-109301961D02*
X141173809Y-109397200D01*
X141173809Y-109397200D02*
X141030952Y-109444819D01*
X141030952Y-109444819D02*
X140935714Y-109444819D01*
X142269047Y-108444819D02*
X141792857Y-108444819D01*
X141792857Y-108444819D02*
X141745238Y-108921009D01*
X141745238Y-108921009D02*
X141792857Y-108873390D01*
X141792857Y-108873390D02*
X141888095Y-108825771D01*
X141888095Y-108825771D02*
X142126190Y-108825771D01*
X142126190Y-108825771D02*
X142221428Y-108873390D01*
X142221428Y-108873390D02*
X142269047Y-108921009D01*
X142269047Y-108921009D02*
X142316666Y-109016247D01*
X142316666Y-109016247D02*
X142316666Y-109254342D01*
X142316666Y-109254342D02*
X142269047Y-109349580D01*
X142269047Y-109349580D02*
X142221428Y-109397200D01*
X142221428Y-109397200D02*
X142126190Y-109444819D01*
X142126190Y-109444819D02*
X141888095Y-109444819D01*
X141888095Y-109444819D02*
X141792857Y-109397200D01*
X141792857Y-109397200D02*
X141745238Y-109349580D01*
X163374405Y-104454819D02*
X163374405Y-103454819D01*
X163374405Y-103454819D02*
X163612500Y-103454819D01*
X163612500Y-103454819D02*
X163755357Y-103502438D01*
X163755357Y-103502438D02*
X163850595Y-103597676D01*
X163850595Y-103597676D02*
X163898214Y-103692914D01*
X163898214Y-103692914D02*
X163945833Y-103883390D01*
X163945833Y-103883390D02*
X163945833Y-104026247D01*
X163945833Y-104026247D02*
X163898214Y-104216723D01*
X163898214Y-104216723D02*
X163850595Y-104311961D01*
X163850595Y-104311961D02*
X163755357Y-104407200D01*
X163755357Y-104407200D02*
X163612500Y-104454819D01*
X163612500Y-104454819D02*
X163374405Y-104454819D01*
X164422024Y-104454819D02*
X164612500Y-104454819D01*
X164612500Y-104454819D02*
X164707738Y-104407200D01*
X164707738Y-104407200D02*
X164755357Y-104359580D01*
X164755357Y-104359580D02*
X164850595Y-104216723D01*
X164850595Y-104216723D02*
X164898214Y-104026247D01*
X164898214Y-104026247D02*
X164898214Y-103645295D01*
X164898214Y-103645295D02*
X164850595Y-103550057D01*
X164850595Y-103550057D02*
X164802976Y-103502438D01*
X164802976Y-103502438D02*
X164707738Y-103454819D01*
X164707738Y-103454819D02*
X164517262Y-103454819D01*
X164517262Y-103454819D02*
X164422024Y-103502438D01*
X164422024Y-103502438D02*
X164374405Y-103550057D01*
X164374405Y-103550057D02*
X164326786Y-103645295D01*
X164326786Y-103645295D02*
X164326786Y-103883390D01*
X164326786Y-103883390D02*
X164374405Y-103978628D01*
X164374405Y-103978628D02*
X164422024Y-104026247D01*
X164422024Y-104026247D02*
X164517262Y-104073866D01*
X164517262Y-104073866D02*
X164707738Y-104073866D01*
X164707738Y-104073866D02*
X164802976Y-104026247D01*
X164802976Y-104026247D02*
X164850595Y-103978628D01*
X164850595Y-103978628D02*
X164898214Y-103883390D01*
X145054819Y-95116666D02*
X144578628Y-95449999D01*
X145054819Y-95688094D02*
X144054819Y-95688094D01*
X144054819Y-95688094D02*
X144054819Y-95307142D01*
X144054819Y-95307142D02*
X144102438Y-95211904D01*
X144102438Y-95211904D02*
X144150057Y-95164285D01*
X144150057Y-95164285D02*
X144245295Y-95116666D01*
X144245295Y-95116666D02*
X144388152Y-95116666D01*
X144388152Y-95116666D02*
X144483390Y-95164285D01*
X144483390Y-95164285D02*
X144531009Y-95211904D01*
X144531009Y-95211904D02*
X144578628Y-95307142D01*
X144578628Y-95307142D02*
X144578628Y-95688094D01*
X144054819Y-94783332D02*
X144054819Y-94116666D01*
X144054819Y-94116666D02*
X145054819Y-94545237D01*
X146854819Y-95738094D02*
X145854819Y-95738094D01*
X145854819Y-95738094D02*
X145854819Y-95499999D01*
X145854819Y-95499999D02*
X145902438Y-95357142D01*
X145902438Y-95357142D02*
X145997676Y-95261904D01*
X145997676Y-95261904D02*
X146092914Y-95214285D01*
X146092914Y-95214285D02*
X146283390Y-95166666D01*
X146283390Y-95166666D02*
X146426247Y-95166666D01*
X146426247Y-95166666D02*
X146616723Y-95214285D01*
X146616723Y-95214285D02*
X146711961Y-95261904D01*
X146711961Y-95261904D02*
X146807200Y-95357142D01*
X146807200Y-95357142D02*
X146854819Y-95499999D01*
X146854819Y-95499999D02*
X146854819Y-95738094D01*
X145854819Y-94833332D02*
X145854819Y-94166666D01*
X145854819Y-94166666D02*
X146854819Y-94595237D01*
X145186095Y-81314819D02*
X145186095Y-82124342D01*
X145186095Y-82124342D02*
X145233714Y-82219580D01*
X145233714Y-82219580D02*
X145281333Y-82267200D01*
X145281333Y-82267200D02*
X145376571Y-82314819D01*
X145376571Y-82314819D02*
X145567047Y-82314819D01*
X145567047Y-82314819D02*
X145662285Y-82267200D01*
X145662285Y-82267200D02*
X145709904Y-82219580D01*
X145709904Y-82219580D02*
X145757523Y-82124342D01*
X145757523Y-82124342D02*
X145757523Y-81314819D01*
X146662285Y-81648152D02*
X146662285Y-82314819D01*
X146424190Y-81267200D02*
X146186095Y-81981485D01*
X146186095Y-81981485D02*
X146805142Y-81981485D01*
X171707200Y-108233332D02*
X171754819Y-108090475D01*
X171754819Y-108090475D02*
X171754819Y-107852380D01*
X171754819Y-107852380D02*
X171707200Y-107757142D01*
X171707200Y-107757142D02*
X171659580Y-107709523D01*
X171659580Y-107709523D02*
X171564342Y-107661904D01*
X171564342Y-107661904D02*
X171469104Y-107661904D01*
X171469104Y-107661904D02*
X171373866Y-107709523D01*
X171373866Y-107709523D02*
X171326247Y-107757142D01*
X171326247Y-107757142D02*
X171278628Y-107852380D01*
X171278628Y-107852380D02*
X171231009Y-108042856D01*
X171231009Y-108042856D02*
X171183390Y-108138094D01*
X171183390Y-108138094D02*
X171135771Y-108185713D01*
X171135771Y-108185713D02*
X171040533Y-108233332D01*
X171040533Y-108233332D02*
X170945295Y-108233332D01*
X170945295Y-108233332D02*
X170850057Y-108185713D01*
X170850057Y-108185713D02*
X170802438Y-108138094D01*
X170802438Y-108138094D02*
X170754819Y-108042856D01*
X170754819Y-108042856D02*
X170754819Y-107804761D01*
X170754819Y-107804761D02*
X170802438Y-107661904D01*
X170754819Y-107328570D02*
X171754819Y-107090475D01*
X171754819Y-107090475D02*
X171040533Y-106899999D01*
X171040533Y-106899999D02*
X171754819Y-106709523D01*
X171754819Y-106709523D02*
X170754819Y-106471428D01*
X170754819Y-106185713D02*
X170754819Y-105566666D01*
X170754819Y-105566666D02*
X171135771Y-105899999D01*
X171135771Y-105899999D02*
X171135771Y-105757142D01*
X171135771Y-105757142D02*
X171183390Y-105661904D01*
X171183390Y-105661904D02*
X171231009Y-105614285D01*
X171231009Y-105614285D02*
X171326247Y-105566666D01*
X171326247Y-105566666D02*
X171564342Y-105566666D01*
X171564342Y-105566666D02*
X171659580Y-105614285D01*
X171659580Y-105614285D02*
X171707200Y-105661904D01*
X171707200Y-105661904D02*
X171754819Y-105757142D01*
X171754819Y-105757142D02*
X171754819Y-106042856D01*
X171754819Y-106042856D02*
X171707200Y-106138094D01*
X171707200Y-106138094D02*
X171659580Y-106185713D01*
X158954819Y-110238094D02*
X157954819Y-110238094D01*
X157954819Y-110238094D02*
X157954819Y-109999999D01*
X157954819Y-109999999D02*
X158002438Y-109857142D01*
X158002438Y-109857142D02*
X158097676Y-109761904D01*
X158097676Y-109761904D02*
X158192914Y-109714285D01*
X158192914Y-109714285D02*
X158383390Y-109666666D01*
X158383390Y-109666666D02*
X158526247Y-109666666D01*
X158526247Y-109666666D02*
X158716723Y-109714285D01*
X158716723Y-109714285D02*
X158811961Y-109761904D01*
X158811961Y-109761904D02*
X158907200Y-109857142D01*
X158907200Y-109857142D02*
X158954819Y-109999999D01*
X158954819Y-109999999D02*
X158954819Y-110238094D01*
X157954819Y-108809523D02*
X157954819Y-108999999D01*
X157954819Y-108999999D02*
X158002438Y-109095237D01*
X158002438Y-109095237D02*
X158050057Y-109142856D01*
X158050057Y-109142856D02*
X158192914Y-109238094D01*
X158192914Y-109238094D02*
X158383390Y-109285713D01*
X158383390Y-109285713D02*
X158764342Y-109285713D01*
X158764342Y-109285713D02*
X158859580Y-109238094D01*
X158859580Y-109238094D02*
X158907200Y-109190475D01*
X158907200Y-109190475D02*
X158954819Y-109095237D01*
X158954819Y-109095237D02*
X158954819Y-108904761D01*
X158954819Y-108904761D02*
X158907200Y-108809523D01*
X158907200Y-108809523D02*
X158859580Y-108761904D01*
X158859580Y-108761904D02*
X158764342Y-108714285D01*
X158764342Y-108714285D02*
X158526247Y-108714285D01*
X158526247Y-108714285D02*
X158431009Y-108761904D01*
X158431009Y-108761904D02*
X158383390Y-108809523D01*
X158383390Y-108809523D02*
X158335771Y-108904761D01*
X158335771Y-108904761D02*
X158335771Y-109095237D01*
X158335771Y-109095237D02*
X158383390Y-109190475D01*
X158383390Y-109190475D02*
X158431009Y-109238094D01*
X158431009Y-109238094D02*
X158526247Y-109285713D01*
X139433333Y-88454819D02*
X138957143Y-88454819D01*
X138957143Y-88454819D02*
X138957143Y-87454819D01*
X139719048Y-87550057D02*
X139766667Y-87502438D01*
X139766667Y-87502438D02*
X139861905Y-87454819D01*
X139861905Y-87454819D02*
X140100000Y-87454819D01*
X140100000Y-87454819D02*
X140195238Y-87502438D01*
X140195238Y-87502438D02*
X140242857Y-87550057D01*
X140242857Y-87550057D02*
X140290476Y-87645295D01*
X140290476Y-87645295D02*
X140290476Y-87740533D01*
X140290476Y-87740533D02*
X140242857Y-87883390D01*
X140242857Y-87883390D02*
X139671429Y-88454819D01*
X139671429Y-88454819D02*
X140290476Y-88454819D01*
X161883333Y-84459580D02*
X161835714Y-84507200D01*
X161835714Y-84507200D02*
X161692857Y-84554819D01*
X161692857Y-84554819D02*
X161597619Y-84554819D01*
X161597619Y-84554819D02*
X161454762Y-84507200D01*
X161454762Y-84507200D02*
X161359524Y-84411961D01*
X161359524Y-84411961D02*
X161311905Y-84316723D01*
X161311905Y-84316723D02*
X161264286Y-84126247D01*
X161264286Y-84126247D02*
X161264286Y-83983390D01*
X161264286Y-83983390D02*
X161311905Y-83792914D01*
X161311905Y-83792914D02*
X161359524Y-83697676D01*
X161359524Y-83697676D02*
X161454762Y-83602438D01*
X161454762Y-83602438D02*
X161597619Y-83554819D01*
X161597619Y-83554819D02*
X161692857Y-83554819D01*
X161692857Y-83554819D02*
X161835714Y-83602438D01*
X161835714Y-83602438D02*
X161883333Y-83650057D01*
X162740476Y-83554819D02*
X162550000Y-83554819D01*
X162550000Y-83554819D02*
X162454762Y-83602438D01*
X162454762Y-83602438D02*
X162407143Y-83650057D01*
X162407143Y-83650057D02*
X162311905Y-83792914D01*
X162311905Y-83792914D02*
X162264286Y-83983390D01*
X162264286Y-83983390D02*
X162264286Y-84364342D01*
X162264286Y-84364342D02*
X162311905Y-84459580D01*
X162311905Y-84459580D02*
X162359524Y-84507200D01*
X162359524Y-84507200D02*
X162454762Y-84554819D01*
X162454762Y-84554819D02*
X162645238Y-84554819D01*
X162645238Y-84554819D02*
X162740476Y-84507200D01*
X162740476Y-84507200D02*
X162788095Y-84459580D01*
X162788095Y-84459580D02*
X162835714Y-84364342D01*
X162835714Y-84364342D02*
X162835714Y-84126247D01*
X162835714Y-84126247D02*
X162788095Y-84031009D01*
X162788095Y-84031009D02*
X162740476Y-83983390D01*
X162740476Y-83983390D02*
X162645238Y-83935771D01*
X162645238Y-83935771D02*
X162454762Y-83935771D01*
X162454762Y-83935771D02*
X162359524Y-83983390D01*
X162359524Y-83983390D02*
X162311905Y-84031009D01*
X162311905Y-84031009D02*
X162264286Y-84126247D01*
X177554819Y-80666666D02*
X177078628Y-80999999D01*
X177554819Y-81238094D02*
X176554819Y-81238094D01*
X176554819Y-81238094D02*
X176554819Y-80857142D01*
X176554819Y-80857142D02*
X176602438Y-80761904D01*
X176602438Y-80761904D02*
X176650057Y-80714285D01*
X176650057Y-80714285D02*
X176745295Y-80666666D01*
X176745295Y-80666666D02*
X176888152Y-80666666D01*
X176888152Y-80666666D02*
X176983390Y-80714285D01*
X176983390Y-80714285D02*
X177031009Y-80761904D01*
X177031009Y-80761904D02*
X177078628Y-80857142D01*
X177078628Y-80857142D02*
X177078628Y-81238094D01*
X176983390Y-80095237D02*
X176935771Y-80190475D01*
X176935771Y-80190475D02*
X176888152Y-80238094D01*
X176888152Y-80238094D02*
X176792914Y-80285713D01*
X176792914Y-80285713D02*
X176745295Y-80285713D01*
X176745295Y-80285713D02*
X176650057Y-80238094D01*
X176650057Y-80238094D02*
X176602438Y-80190475D01*
X176602438Y-80190475D02*
X176554819Y-80095237D01*
X176554819Y-80095237D02*
X176554819Y-79904761D01*
X176554819Y-79904761D02*
X176602438Y-79809523D01*
X176602438Y-79809523D02*
X176650057Y-79761904D01*
X176650057Y-79761904D02*
X176745295Y-79714285D01*
X176745295Y-79714285D02*
X176792914Y-79714285D01*
X176792914Y-79714285D02*
X176888152Y-79761904D01*
X176888152Y-79761904D02*
X176935771Y-79809523D01*
X176935771Y-79809523D02*
X176983390Y-79904761D01*
X176983390Y-79904761D02*
X176983390Y-80095237D01*
X176983390Y-80095237D02*
X177031009Y-80190475D01*
X177031009Y-80190475D02*
X177078628Y-80238094D01*
X177078628Y-80238094D02*
X177173866Y-80285713D01*
X177173866Y-80285713D02*
X177364342Y-80285713D01*
X177364342Y-80285713D02*
X177459580Y-80238094D01*
X177459580Y-80238094D02*
X177507200Y-80190475D01*
X177507200Y-80190475D02*
X177554819Y-80095237D01*
X177554819Y-80095237D02*
X177554819Y-79904761D01*
X177554819Y-79904761D02*
X177507200Y-79809523D01*
X177507200Y-79809523D02*
X177459580Y-79761904D01*
X177459580Y-79761904D02*
X177364342Y-79714285D01*
X177364342Y-79714285D02*
X177173866Y-79714285D01*
X177173866Y-79714285D02*
X177078628Y-79761904D01*
X177078628Y-79761904D02*
X177031009Y-79809523D01*
X177031009Y-79809523D02*
X176983390Y-79904761D01*
X182054819Y-99488094D02*
X181054819Y-99488094D01*
X181054819Y-99488094D02*
X181054819Y-99249999D01*
X181054819Y-99249999D02*
X181102438Y-99107142D01*
X181102438Y-99107142D02*
X181197676Y-99011904D01*
X181197676Y-99011904D02*
X181292914Y-98964285D01*
X181292914Y-98964285D02*
X181483390Y-98916666D01*
X181483390Y-98916666D02*
X181626247Y-98916666D01*
X181626247Y-98916666D02*
X181816723Y-98964285D01*
X181816723Y-98964285D02*
X181911961Y-99011904D01*
X181911961Y-99011904D02*
X182007200Y-99107142D01*
X182007200Y-99107142D02*
X182054819Y-99249999D01*
X182054819Y-99249999D02*
X182054819Y-99488094D01*
X181150057Y-98535713D02*
X181102438Y-98488094D01*
X181102438Y-98488094D02*
X181054819Y-98392856D01*
X181054819Y-98392856D02*
X181054819Y-98154761D01*
X181054819Y-98154761D02*
X181102438Y-98059523D01*
X181102438Y-98059523D02*
X181150057Y-98011904D01*
X181150057Y-98011904D02*
X181245295Y-97964285D01*
X181245295Y-97964285D02*
X181340533Y-97964285D01*
X181340533Y-97964285D02*
X181483390Y-98011904D01*
X181483390Y-98011904D02*
X182054819Y-98583332D01*
X182054819Y-98583332D02*
X182054819Y-97964285D01*
X181735714Y-101204819D02*
X181164286Y-101204819D01*
X181450000Y-101204819D02*
X181450000Y-100204819D01*
X181450000Y-100204819D02*
X181354762Y-100347676D01*
X181354762Y-100347676D02*
X181259524Y-100442914D01*
X181259524Y-100442914D02*
X181164286Y-100490533D01*
X138583333Y-98634580D02*
X138535714Y-98682200D01*
X138535714Y-98682200D02*
X138392857Y-98729819D01*
X138392857Y-98729819D02*
X138297619Y-98729819D01*
X138297619Y-98729819D02*
X138154762Y-98682200D01*
X138154762Y-98682200D02*
X138059524Y-98586961D01*
X138059524Y-98586961D02*
X138011905Y-98491723D01*
X138011905Y-98491723D02*
X137964286Y-98301247D01*
X137964286Y-98301247D02*
X137964286Y-98158390D01*
X137964286Y-98158390D02*
X138011905Y-97967914D01*
X138011905Y-97967914D02*
X138059524Y-97872676D01*
X138059524Y-97872676D02*
X138154762Y-97777438D01*
X138154762Y-97777438D02*
X138297619Y-97729819D01*
X138297619Y-97729819D02*
X138392857Y-97729819D01*
X138392857Y-97729819D02*
X138535714Y-97777438D01*
X138535714Y-97777438D02*
X138583333Y-97825057D01*
X139154762Y-98158390D02*
X139059524Y-98110771D01*
X139059524Y-98110771D02*
X139011905Y-98063152D01*
X139011905Y-98063152D02*
X138964286Y-97967914D01*
X138964286Y-97967914D02*
X138964286Y-97920295D01*
X138964286Y-97920295D02*
X139011905Y-97825057D01*
X139011905Y-97825057D02*
X139059524Y-97777438D01*
X139059524Y-97777438D02*
X139154762Y-97729819D01*
X139154762Y-97729819D02*
X139345238Y-97729819D01*
X139345238Y-97729819D02*
X139440476Y-97777438D01*
X139440476Y-97777438D02*
X139488095Y-97825057D01*
X139488095Y-97825057D02*
X139535714Y-97920295D01*
X139535714Y-97920295D02*
X139535714Y-97967914D01*
X139535714Y-97967914D02*
X139488095Y-98063152D01*
X139488095Y-98063152D02*
X139440476Y-98110771D01*
X139440476Y-98110771D02*
X139345238Y-98158390D01*
X139345238Y-98158390D02*
X139154762Y-98158390D01*
X139154762Y-98158390D02*
X139059524Y-98206009D01*
X139059524Y-98206009D02*
X139011905Y-98253628D01*
X139011905Y-98253628D02*
X138964286Y-98348866D01*
X138964286Y-98348866D02*
X138964286Y-98539342D01*
X138964286Y-98539342D02*
X139011905Y-98634580D01*
X139011905Y-98634580D02*
X139059524Y-98682200D01*
X139059524Y-98682200D02*
X139154762Y-98729819D01*
X139154762Y-98729819D02*
X139345238Y-98729819D01*
X139345238Y-98729819D02*
X139440476Y-98682200D01*
X139440476Y-98682200D02*
X139488095Y-98634580D01*
X139488095Y-98634580D02*
X139535714Y-98539342D01*
X139535714Y-98539342D02*
X139535714Y-98348866D01*
X139535714Y-98348866D02*
X139488095Y-98253628D01*
X139488095Y-98253628D02*
X139440476Y-98206009D01*
X139440476Y-98206009D02*
X139345238Y-98158390D01*
X154709580Y-90166666D02*
X154757200Y-90214285D01*
X154757200Y-90214285D02*
X154804819Y-90357142D01*
X154804819Y-90357142D02*
X154804819Y-90452380D01*
X154804819Y-90452380D02*
X154757200Y-90595237D01*
X154757200Y-90595237D02*
X154661961Y-90690475D01*
X154661961Y-90690475D02*
X154566723Y-90738094D01*
X154566723Y-90738094D02*
X154376247Y-90785713D01*
X154376247Y-90785713D02*
X154233390Y-90785713D01*
X154233390Y-90785713D02*
X154042914Y-90738094D01*
X154042914Y-90738094D02*
X153947676Y-90690475D01*
X153947676Y-90690475D02*
X153852438Y-90595237D01*
X153852438Y-90595237D02*
X153804819Y-90452380D01*
X153804819Y-90452380D02*
X153804819Y-90357142D01*
X153804819Y-90357142D02*
X153852438Y-90214285D01*
X153852438Y-90214285D02*
X153900057Y-90166666D01*
X153804819Y-89261904D02*
X153804819Y-89738094D01*
X153804819Y-89738094D02*
X154281009Y-89785713D01*
X154281009Y-89785713D02*
X154233390Y-89738094D01*
X154233390Y-89738094D02*
X154185771Y-89642856D01*
X154185771Y-89642856D02*
X154185771Y-89404761D01*
X154185771Y-89404761D02*
X154233390Y-89309523D01*
X154233390Y-89309523D02*
X154281009Y-89261904D01*
X154281009Y-89261904D02*
X154376247Y-89214285D01*
X154376247Y-89214285D02*
X154614342Y-89214285D01*
X154614342Y-89214285D02*
X154709580Y-89261904D01*
X154709580Y-89261904D02*
X154757200Y-89309523D01*
X154757200Y-89309523D02*
X154804819Y-89404761D01*
X154804819Y-89404761D02*
X154804819Y-89642856D01*
X154804819Y-89642856D02*
X154757200Y-89738094D01*
X154757200Y-89738094D02*
X154709580Y-89785713D01*
X132983333Y-102929819D02*
X132650000Y-102453628D01*
X132411905Y-102929819D02*
X132411905Y-101929819D01*
X132411905Y-101929819D02*
X132792857Y-101929819D01*
X132792857Y-101929819D02*
X132888095Y-101977438D01*
X132888095Y-101977438D02*
X132935714Y-102025057D01*
X132935714Y-102025057D02*
X132983333Y-102120295D01*
X132983333Y-102120295D02*
X132983333Y-102263152D01*
X132983333Y-102263152D02*
X132935714Y-102358390D01*
X132935714Y-102358390D02*
X132888095Y-102406009D01*
X132888095Y-102406009D02*
X132792857Y-102453628D01*
X132792857Y-102453628D02*
X132411905Y-102453628D01*
X133840476Y-102263152D02*
X133840476Y-102929819D01*
X133602381Y-101882200D02*
X133364286Y-102596485D01*
X133364286Y-102596485D02*
X133983333Y-102596485D01*
X170466666Y-116709819D02*
X170466666Y-117424104D01*
X170466666Y-117424104D02*
X170419047Y-117566961D01*
X170419047Y-117566961D02*
X170323809Y-117662200D01*
X170323809Y-117662200D02*
X170180952Y-117709819D01*
X170180952Y-117709819D02*
X170085714Y-117709819D01*
X170847619Y-116709819D02*
X171466666Y-116709819D01*
X171466666Y-116709819D02*
X171133333Y-117090771D01*
X171133333Y-117090771D02*
X171276190Y-117090771D01*
X171276190Y-117090771D02*
X171371428Y-117138390D01*
X171371428Y-117138390D02*
X171419047Y-117186009D01*
X171419047Y-117186009D02*
X171466666Y-117281247D01*
X171466666Y-117281247D02*
X171466666Y-117519342D01*
X171466666Y-117519342D02*
X171419047Y-117614580D01*
X171419047Y-117614580D02*
X171371428Y-117662200D01*
X171371428Y-117662200D02*
X171276190Y-117709819D01*
X171276190Y-117709819D02*
X170990476Y-117709819D01*
X170990476Y-117709819D02*
X170895238Y-117662200D01*
X170895238Y-117662200D02*
X170847619Y-117614580D01*
X123154819Y-94166666D02*
X122678628Y-94499999D01*
X123154819Y-94738094D02*
X122154819Y-94738094D01*
X122154819Y-94738094D02*
X122154819Y-94357142D01*
X122154819Y-94357142D02*
X122202438Y-94261904D01*
X122202438Y-94261904D02*
X122250057Y-94214285D01*
X122250057Y-94214285D02*
X122345295Y-94166666D01*
X122345295Y-94166666D02*
X122488152Y-94166666D01*
X122488152Y-94166666D02*
X122583390Y-94214285D01*
X122583390Y-94214285D02*
X122631009Y-94261904D01*
X122631009Y-94261904D02*
X122678628Y-94357142D01*
X122678628Y-94357142D02*
X122678628Y-94738094D01*
X122250057Y-93785713D02*
X122202438Y-93738094D01*
X122202438Y-93738094D02*
X122154819Y-93642856D01*
X122154819Y-93642856D02*
X122154819Y-93404761D01*
X122154819Y-93404761D02*
X122202438Y-93309523D01*
X122202438Y-93309523D02*
X122250057Y-93261904D01*
X122250057Y-93261904D02*
X122345295Y-93214285D01*
X122345295Y-93214285D02*
X122440533Y-93214285D01*
X122440533Y-93214285D02*
X122583390Y-93261904D01*
X122583390Y-93261904D02*
X123154819Y-93833332D01*
X123154819Y-93833332D02*
X123154819Y-93214285D01*
X125611905Y-85304819D02*
X125611905Y-84304819D01*
X125611905Y-84304819D02*
X125850000Y-84304819D01*
X125850000Y-84304819D02*
X125992857Y-84352438D01*
X125992857Y-84352438D02*
X126088095Y-84447676D01*
X126088095Y-84447676D02*
X126135714Y-84542914D01*
X126135714Y-84542914D02*
X126183333Y-84733390D01*
X126183333Y-84733390D02*
X126183333Y-84876247D01*
X126183333Y-84876247D02*
X126135714Y-85066723D01*
X126135714Y-85066723D02*
X126088095Y-85161961D01*
X126088095Y-85161961D02*
X125992857Y-85257200D01*
X125992857Y-85257200D02*
X125850000Y-85304819D01*
X125850000Y-85304819D02*
X125611905Y-85304819D01*
X127040476Y-84638152D02*
X127040476Y-85304819D01*
X126802381Y-84257200D02*
X126564286Y-84971485D01*
X126564286Y-84971485D02*
X127183333Y-84971485D01*
X129738095Y-103454819D02*
X129738095Y-104264342D01*
X129738095Y-104264342D02*
X129785714Y-104359580D01*
X129785714Y-104359580D02*
X129833333Y-104407200D01*
X129833333Y-104407200D02*
X129928571Y-104454819D01*
X129928571Y-104454819D02*
X130119047Y-104454819D01*
X130119047Y-104454819D02*
X130214285Y-104407200D01*
X130214285Y-104407200D02*
X130261904Y-104359580D01*
X130261904Y-104359580D02*
X130309523Y-104264342D01*
X130309523Y-104264342D02*
X130309523Y-103454819D01*
X130690476Y-103454819D02*
X131309523Y-103454819D01*
X131309523Y-103454819D02*
X130976190Y-103835771D01*
X130976190Y-103835771D02*
X131119047Y-103835771D01*
X131119047Y-103835771D02*
X131214285Y-103883390D01*
X131214285Y-103883390D02*
X131261904Y-103931009D01*
X131261904Y-103931009D02*
X131309523Y-104026247D01*
X131309523Y-104026247D02*
X131309523Y-104264342D01*
X131309523Y-104264342D02*
X131261904Y-104359580D01*
X131261904Y-104359580D02*
X131214285Y-104407200D01*
X131214285Y-104407200D02*
X131119047Y-104454819D01*
X131119047Y-104454819D02*
X130833333Y-104454819D01*
X130833333Y-104454819D02*
X130738095Y-104407200D01*
X130738095Y-104407200D02*
X130690476Y-104359580D01*
X123633333Y-92354819D02*
X123157143Y-92354819D01*
X123157143Y-92354819D02*
X123157143Y-91354819D01*
X124490476Y-92354819D02*
X123919048Y-92354819D01*
X124204762Y-92354819D02*
X124204762Y-91354819D01*
X124204762Y-91354819D02*
X124109524Y-91497676D01*
X124109524Y-91497676D02*
X124014286Y-91592914D01*
X124014286Y-91592914D02*
X123919048Y-91640533D01*
X156209580Y-90266666D02*
X156257200Y-90314285D01*
X156257200Y-90314285D02*
X156304819Y-90457142D01*
X156304819Y-90457142D02*
X156304819Y-90552380D01*
X156304819Y-90552380D02*
X156257200Y-90695237D01*
X156257200Y-90695237D02*
X156161961Y-90790475D01*
X156161961Y-90790475D02*
X156066723Y-90838094D01*
X156066723Y-90838094D02*
X155876247Y-90885713D01*
X155876247Y-90885713D02*
X155733390Y-90885713D01*
X155733390Y-90885713D02*
X155542914Y-90838094D01*
X155542914Y-90838094D02*
X155447676Y-90790475D01*
X155447676Y-90790475D02*
X155352438Y-90695237D01*
X155352438Y-90695237D02*
X155304819Y-90552380D01*
X155304819Y-90552380D02*
X155304819Y-90457142D01*
X155304819Y-90457142D02*
X155352438Y-90314285D01*
X155352438Y-90314285D02*
X155400057Y-90266666D01*
X155638152Y-89409523D02*
X156304819Y-89409523D01*
X155257200Y-89647618D02*
X155971485Y-89885713D01*
X155971485Y-89885713D02*
X155971485Y-89266666D01*
X173934580Y-80766666D02*
X173982200Y-80814285D01*
X173982200Y-80814285D02*
X174029819Y-80957142D01*
X174029819Y-80957142D02*
X174029819Y-81052380D01*
X174029819Y-81052380D02*
X173982200Y-81195237D01*
X173982200Y-81195237D02*
X173886961Y-81290475D01*
X173886961Y-81290475D02*
X173791723Y-81338094D01*
X173791723Y-81338094D02*
X173601247Y-81385713D01*
X173601247Y-81385713D02*
X173458390Y-81385713D01*
X173458390Y-81385713D02*
X173267914Y-81338094D01*
X173267914Y-81338094D02*
X173172676Y-81290475D01*
X173172676Y-81290475D02*
X173077438Y-81195237D01*
X173077438Y-81195237D02*
X173029819Y-81052380D01*
X173029819Y-81052380D02*
X173029819Y-80957142D01*
X173029819Y-80957142D02*
X173077438Y-80814285D01*
X173077438Y-80814285D02*
X173125057Y-80766666D01*
X173029819Y-80433332D02*
X173029819Y-79814285D01*
X173029819Y-79814285D02*
X173410771Y-80147618D01*
X173410771Y-80147618D02*
X173410771Y-80004761D01*
X173410771Y-80004761D02*
X173458390Y-79909523D01*
X173458390Y-79909523D02*
X173506009Y-79861904D01*
X173506009Y-79861904D02*
X173601247Y-79814285D01*
X173601247Y-79814285D02*
X173839342Y-79814285D01*
X173839342Y-79814285D02*
X173934580Y-79861904D01*
X173934580Y-79861904D02*
X173982200Y-79909523D01*
X173982200Y-79909523D02*
X174029819Y-80004761D01*
X174029819Y-80004761D02*
X174029819Y-80290475D01*
X174029819Y-80290475D02*
X173982200Y-80385713D01*
X173982200Y-80385713D02*
X173934580Y-80433332D01*
X174557142Y-103159580D02*
X174509523Y-103207200D01*
X174509523Y-103207200D02*
X174366666Y-103254819D01*
X174366666Y-103254819D02*
X174271428Y-103254819D01*
X174271428Y-103254819D02*
X174128571Y-103207200D01*
X174128571Y-103207200D02*
X174033333Y-103111961D01*
X174033333Y-103111961D02*
X173985714Y-103016723D01*
X173985714Y-103016723D02*
X173938095Y-102826247D01*
X173938095Y-102826247D02*
X173938095Y-102683390D01*
X173938095Y-102683390D02*
X173985714Y-102492914D01*
X173985714Y-102492914D02*
X174033333Y-102397676D01*
X174033333Y-102397676D02*
X174128571Y-102302438D01*
X174128571Y-102302438D02*
X174271428Y-102254819D01*
X174271428Y-102254819D02*
X174366666Y-102254819D01*
X174366666Y-102254819D02*
X174509523Y-102302438D01*
X174509523Y-102302438D02*
X174557142Y-102350057D01*
X175509523Y-103254819D02*
X174938095Y-103254819D01*
X175223809Y-103254819D02*
X175223809Y-102254819D01*
X175223809Y-102254819D02*
X175128571Y-102397676D01*
X175128571Y-102397676D02*
X175033333Y-102492914D01*
X175033333Y-102492914D02*
X174938095Y-102540533D01*
X176366666Y-102588152D02*
X176366666Y-103254819D01*
X176128571Y-102207200D02*
X175890476Y-102921485D01*
X175890476Y-102921485D02*
X176509523Y-102921485D01*
X138066666Y-81014819D02*
X138066666Y-81729104D01*
X138066666Y-81729104D02*
X138019047Y-81871961D01*
X138019047Y-81871961D02*
X137923809Y-81967200D01*
X137923809Y-81967200D02*
X137780952Y-82014819D01*
X137780952Y-82014819D02*
X137685714Y-82014819D01*
X139066666Y-82014819D02*
X138495238Y-82014819D01*
X138780952Y-82014819D02*
X138780952Y-81014819D01*
X138780952Y-81014819D02*
X138685714Y-81157676D01*
X138685714Y-81157676D02*
X138590476Y-81252914D01*
X138590476Y-81252914D02*
X138495238Y-81300533D01*
X175604819Y-80816666D02*
X175128628Y-81149999D01*
X175604819Y-81388094D02*
X174604819Y-81388094D01*
X174604819Y-81388094D02*
X174604819Y-81007142D01*
X174604819Y-81007142D02*
X174652438Y-80911904D01*
X174652438Y-80911904D02*
X174700057Y-80864285D01*
X174700057Y-80864285D02*
X174795295Y-80816666D01*
X174795295Y-80816666D02*
X174938152Y-80816666D01*
X174938152Y-80816666D02*
X175033390Y-80864285D01*
X175033390Y-80864285D02*
X175081009Y-80911904D01*
X175081009Y-80911904D02*
X175128628Y-81007142D01*
X175128628Y-81007142D02*
X175128628Y-81388094D01*
X175604819Y-79864285D02*
X175604819Y-80435713D01*
X175604819Y-80149999D02*
X174604819Y-80149999D01*
X174604819Y-80149999D02*
X174747676Y-80245237D01*
X174747676Y-80245237D02*
X174842914Y-80340475D01*
X174842914Y-80340475D02*
X174890533Y-80435713D01*
X129483333Y-91534580D02*
X129435714Y-91582200D01*
X129435714Y-91582200D02*
X129292857Y-91629819D01*
X129292857Y-91629819D02*
X129197619Y-91629819D01*
X129197619Y-91629819D02*
X129054762Y-91582200D01*
X129054762Y-91582200D02*
X128959524Y-91486961D01*
X128959524Y-91486961D02*
X128911905Y-91391723D01*
X128911905Y-91391723D02*
X128864286Y-91201247D01*
X128864286Y-91201247D02*
X128864286Y-91058390D01*
X128864286Y-91058390D02*
X128911905Y-90867914D01*
X128911905Y-90867914D02*
X128959524Y-90772676D01*
X128959524Y-90772676D02*
X129054762Y-90677438D01*
X129054762Y-90677438D02*
X129197619Y-90629819D01*
X129197619Y-90629819D02*
X129292857Y-90629819D01*
X129292857Y-90629819D02*
X129435714Y-90677438D01*
X129435714Y-90677438D02*
X129483333Y-90725057D01*
X129959524Y-91629819D02*
X130150000Y-91629819D01*
X130150000Y-91629819D02*
X130245238Y-91582200D01*
X130245238Y-91582200D02*
X130292857Y-91534580D01*
X130292857Y-91534580D02*
X130388095Y-91391723D01*
X130388095Y-91391723D02*
X130435714Y-91201247D01*
X130435714Y-91201247D02*
X130435714Y-90820295D01*
X130435714Y-90820295D02*
X130388095Y-90725057D01*
X130388095Y-90725057D02*
X130340476Y-90677438D01*
X130340476Y-90677438D02*
X130245238Y-90629819D01*
X130245238Y-90629819D02*
X130054762Y-90629819D01*
X130054762Y-90629819D02*
X129959524Y-90677438D01*
X129959524Y-90677438D02*
X129911905Y-90725057D01*
X129911905Y-90725057D02*
X129864286Y-90820295D01*
X129864286Y-90820295D02*
X129864286Y-91058390D01*
X129864286Y-91058390D02*
X129911905Y-91153628D01*
X129911905Y-91153628D02*
X129959524Y-91201247D01*
X129959524Y-91201247D02*
X130054762Y-91248866D01*
X130054762Y-91248866D02*
X130245238Y-91248866D01*
X130245238Y-91248866D02*
X130340476Y-91201247D01*
X130340476Y-91201247D02*
X130388095Y-91153628D01*
X130388095Y-91153628D02*
X130435714Y-91058390D01*
X167088095Y-108529819D02*
X167088095Y-109339342D01*
X167088095Y-109339342D02*
X167135714Y-109434580D01*
X167135714Y-109434580D02*
X167183333Y-109482200D01*
X167183333Y-109482200D02*
X167278571Y-109529819D01*
X167278571Y-109529819D02*
X167469047Y-109529819D01*
X167469047Y-109529819D02*
X167564285Y-109482200D01*
X167564285Y-109482200D02*
X167611904Y-109434580D01*
X167611904Y-109434580D02*
X167659523Y-109339342D01*
X167659523Y-109339342D02*
X167659523Y-108529819D01*
X168088095Y-108625057D02*
X168135714Y-108577438D01*
X168135714Y-108577438D02*
X168230952Y-108529819D01*
X168230952Y-108529819D02*
X168469047Y-108529819D01*
X168469047Y-108529819D02*
X168564285Y-108577438D01*
X168564285Y-108577438D02*
X168611904Y-108625057D01*
X168611904Y-108625057D02*
X168659523Y-108720295D01*
X168659523Y-108720295D02*
X168659523Y-108815533D01*
X168659523Y-108815533D02*
X168611904Y-108958390D01*
X168611904Y-108958390D02*
X168040476Y-109529819D01*
X168040476Y-109529819D02*
X168659523Y-109529819D01*
X129011905Y-89279819D02*
X129011905Y-88279819D01*
X129011905Y-88279819D02*
X129250000Y-88279819D01*
X129250000Y-88279819D02*
X129392857Y-88327438D01*
X129392857Y-88327438D02*
X129488095Y-88422676D01*
X129488095Y-88422676D02*
X129535714Y-88517914D01*
X129535714Y-88517914D02*
X129583333Y-88708390D01*
X129583333Y-88708390D02*
X129583333Y-88851247D01*
X129583333Y-88851247D02*
X129535714Y-89041723D01*
X129535714Y-89041723D02*
X129488095Y-89136961D01*
X129488095Y-89136961D02*
X129392857Y-89232200D01*
X129392857Y-89232200D02*
X129250000Y-89279819D01*
X129250000Y-89279819D02*
X129011905Y-89279819D01*
X130488095Y-88279819D02*
X130011905Y-88279819D01*
X130011905Y-88279819D02*
X129964286Y-88756009D01*
X129964286Y-88756009D02*
X130011905Y-88708390D01*
X130011905Y-88708390D02*
X130107143Y-88660771D01*
X130107143Y-88660771D02*
X130345238Y-88660771D01*
X130345238Y-88660771D02*
X130440476Y-88708390D01*
X130440476Y-88708390D02*
X130488095Y-88756009D01*
X130488095Y-88756009D02*
X130535714Y-88851247D01*
X130535714Y-88851247D02*
X130535714Y-89089342D01*
X130535714Y-89089342D02*
X130488095Y-89184580D01*
X130488095Y-89184580D02*
X130440476Y-89232200D01*
X130440476Y-89232200D02*
X130345238Y-89279819D01*
X130345238Y-89279819D02*
X130107143Y-89279819D01*
X130107143Y-89279819D02*
X130011905Y-89232200D01*
X130011905Y-89232200D02*
X129964286Y-89184580D01*
X139409580Y-85942857D02*
X139457200Y-85990476D01*
X139457200Y-85990476D02*
X139504819Y-86133333D01*
X139504819Y-86133333D02*
X139504819Y-86228571D01*
X139504819Y-86228571D02*
X139457200Y-86371428D01*
X139457200Y-86371428D02*
X139361961Y-86466666D01*
X139361961Y-86466666D02*
X139266723Y-86514285D01*
X139266723Y-86514285D02*
X139076247Y-86561904D01*
X139076247Y-86561904D02*
X138933390Y-86561904D01*
X138933390Y-86561904D02*
X138742914Y-86514285D01*
X138742914Y-86514285D02*
X138647676Y-86466666D01*
X138647676Y-86466666D02*
X138552438Y-86371428D01*
X138552438Y-86371428D02*
X138504819Y-86228571D01*
X138504819Y-86228571D02*
X138504819Y-86133333D01*
X138504819Y-86133333D02*
X138552438Y-85990476D01*
X138552438Y-85990476D02*
X138600057Y-85942857D01*
X139504819Y-84990476D02*
X139504819Y-85561904D01*
X139504819Y-85276190D02*
X138504819Y-85276190D01*
X138504819Y-85276190D02*
X138647676Y-85371428D01*
X138647676Y-85371428D02*
X138742914Y-85466666D01*
X138742914Y-85466666D02*
X138790533Y-85561904D01*
X138504819Y-84657142D02*
X138504819Y-84038095D01*
X138504819Y-84038095D02*
X138885771Y-84371428D01*
X138885771Y-84371428D02*
X138885771Y-84228571D01*
X138885771Y-84228571D02*
X138933390Y-84133333D01*
X138933390Y-84133333D02*
X138981009Y-84085714D01*
X138981009Y-84085714D02*
X139076247Y-84038095D01*
X139076247Y-84038095D02*
X139314342Y-84038095D01*
X139314342Y-84038095D02*
X139409580Y-84085714D01*
X139409580Y-84085714D02*
X139457200Y-84133333D01*
X139457200Y-84133333D02*
X139504819Y-84228571D01*
X139504819Y-84228571D02*
X139504819Y-84514285D01*
X139504819Y-84514285D02*
X139457200Y-84609523D01*
X139457200Y-84609523D02*
X139409580Y-84657142D01*
X126111905Y-82804819D02*
X126111905Y-81804819D01*
X126111905Y-81804819D02*
X126350000Y-81804819D01*
X126350000Y-81804819D02*
X126492857Y-81852438D01*
X126492857Y-81852438D02*
X126588095Y-81947676D01*
X126588095Y-81947676D02*
X126635714Y-82042914D01*
X126635714Y-82042914D02*
X126683333Y-82233390D01*
X126683333Y-82233390D02*
X126683333Y-82376247D01*
X126683333Y-82376247D02*
X126635714Y-82566723D01*
X126635714Y-82566723D02*
X126588095Y-82661961D01*
X126588095Y-82661961D02*
X126492857Y-82757200D01*
X126492857Y-82757200D02*
X126350000Y-82804819D01*
X126350000Y-82804819D02*
X126111905Y-82804819D01*
X127016667Y-81804819D02*
X127635714Y-81804819D01*
X127635714Y-81804819D02*
X127302381Y-82185771D01*
X127302381Y-82185771D02*
X127445238Y-82185771D01*
X127445238Y-82185771D02*
X127540476Y-82233390D01*
X127540476Y-82233390D02*
X127588095Y-82281009D01*
X127588095Y-82281009D02*
X127635714Y-82376247D01*
X127635714Y-82376247D02*
X127635714Y-82614342D01*
X127635714Y-82614342D02*
X127588095Y-82709580D01*
X127588095Y-82709580D02*
X127540476Y-82757200D01*
X127540476Y-82757200D02*
X127445238Y-82804819D01*
X127445238Y-82804819D02*
X127159524Y-82804819D01*
X127159524Y-82804819D02*
X127064286Y-82757200D01*
X127064286Y-82757200D02*
X127016667Y-82709580D01*
X179654819Y-81038094D02*
X178654819Y-81038094D01*
X178654819Y-81038094D02*
X178654819Y-80799999D01*
X178654819Y-80799999D02*
X178702438Y-80657142D01*
X178702438Y-80657142D02*
X178797676Y-80561904D01*
X178797676Y-80561904D02*
X178892914Y-80514285D01*
X178892914Y-80514285D02*
X179083390Y-80466666D01*
X179083390Y-80466666D02*
X179226247Y-80466666D01*
X179226247Y-80466666D02*
X179416723Y-80514285D01*
X179416723Y-80514285D02*
X179511961Y-80561904D01*
X179511961Y-80561904D02*
X179607200Y-80657142D01*
X179607200Y-80657142D02*
X179654819Y-80799999D01*
X179654819Y-80799999D02*
X179654819Y-81038094D01*
X179083390Y-79895237D02*
X179035771Y-79990475D01*
X179035771Y-79990475D02*
X178988152Y-80038094D01*
X178988152Y-80038094D02*
X178892914Y-80085713D01*
X178892914Y-80085713D02*
X178845295Y-80085713D01*
X178845295Y-80085713D02*
X178750057Y-80038094D01*
X178750057Y-80038094D02*
X178702438Y-79990475D01*
X178702438Y-79990475D02*
X178654819Y-79895237D01*
X178654819Y-79895237D02*
X178654819Y-79704761D01*
X178654819Y-79704761D02*
X178702438Y-79609523D01*
X178702438Y-79609523D02*
X178750057Y-79561904D01*
X178750057Y-79561904D02*
X178845295Y-79514285D01*
X178845295Y-79514285D02*
X178892914Y-79514285D01*
X178892914Y-79514285D02*
X178988152Y-79561904D01*
X178988152Y-79561904D02*
X179035771Y-79609523D01*
X179035771Y-79609523D02*
X179083390Y-79704761D01*
X179083390Y-79704761D02*
X179083390Y-79895237D01*
X179083390Y-79895237D02*
X179131009Y-79990475D01*
X179131009Y-79990475D02*
X179178628Y-80038094D01*
X179178628Y-80038094D02*
X179273866Y-80085713D01*
X179273866Y-80085713D02*
X179464342Y-80085713D01*
X179464342Y-80085713D02*
X179559580Y-80038094D01*
X179559580Y-80038094D02*
X179607200Y-79990475D01*
X179607200Y-79990475D02*
X179654819Y-79895237D01*
X179654819Y-79895237D02*
X179654819Y-79704761D01*
X179654819Y-79704761D02*
X179607200Y-79609523D01*
X179607200Y-79609523D02*
X179559580Y-79561904D01*
X179559580Y-79561904D02*
X179464342Y-79514285D01*
X179464342Y-79514285D02*
X179273866Y-79514285D01*
X179273866Y-79514285D02*
X179178628Y-79561904D01*
X179178628Y-79561904D02*
X179131009Y-79609523D01*
X179131009Y-79609523D02*
X179083390Y-79704761D01*
X154999819Y-104561904D02*
X155809342Y-104561904D01*
X155809342Y-104561904D02*
X155904580Y-104514285D01*
X155904580Y-104514285D02*
X155952200Y-104466666D01*
X155952200Y-104466666D02*
X155999819Y-104371428D01*
X155999819Y-104371428D02*
X155999819Y-104180952D01*
X155999819Y-104180952D02*
X155952200Y-104085714D01*
X155952200Y-104085714D02*
X155904580Y-104038095D01*
X155904580Y-104038095D02*
X155809342Y-103990476D01*
X155809342Y-103990476D02*
X154999819Y-103990476D01*
X154999819Y-103038095D02*
X154999819Y-103514285D01*
X154999819Y-103514285D02*
X155476009Y-103561904D01*
X155476009Y-103561904D02*
X155428390Y-103514285D01*
X155428390Y-103514285D02*
X155380771Y-103419047D01*
X155380771Y-103419047D02*
X155380771Y-103180952D01*
X155380771Y-103180952D02*
X155428390Y-103085714D01*
X155428390Y-103085714D02*
X155476009Y-103038095D01*
X155476009Y-103038095D02*
X155571247Y-102990476D01*
X155571247Y-102990476D02*
X155809342Y-102990476D01*
X155809342Y-102990476D02*
X155904580Y-103038095D01*
X155904580Y-103038095D02*
X155952200Y-103085714D01*
X155952200Y-103085714D02*
X155999819Y-103180952D01*
X155999819Y-103180952D02*
X155999819Y-103419047D01*
X155999819Y-103419047D02*
X155952200Y-103514285D01*
X155952200Y-103514285D02*
X155904580Y-103561904D01*
X167738095Y-101504819D02*
X167738095Y-102314342D01*
X167738095Y-102314342D02*
X167785714Y-102409580D01*
X167785714Y-102409580D02*
X167833333Y-102457200D01*
X167833333Y-102457200D02*
X167928571Y-102504819D01*
X167928571Y-102504819D02*
X168119047Y-102504819D01*
X168119047Y-102504819D02*
X168214285Y-102457200D01*
X168214285Y-102457200D02*
X168261904Y-102409580D01*
X168261904Y-102409580D02*
X168309523Y-102314342D01*
X168309523Y-102314342D02*
X168309523Y-101504819D01*
X169309523Y-102504819D02*
X168738095Y-102504819D01*
X169023809Y-102504819D02*
X169023809Y-101504819D01*
X169023809Y-101504819D02*
X168928571Y-101647676D01*
X168928571Y-101647676D02*
X168833333Y-101742914D01*
X168833333Y-101742914D02*
X168738095Y-101790533D01*
X164274667Y-78607200D02*
X164417524Y-78654819D01*
X164417524Y-78654819D02*
X164655619Y-78654819D01*
X164655619Y-78654819D02*
X164750857Y-78607200D01*
X164750857Y-78607200D02*
X164798476Y-78559580D01*
X164798476Y-78559580D02*
X164846095Y-78464342D01*
X164846095Y-78464342D02*
X164846095Y-78369104D01*
X164846095Y-78369104D02*
X164798476Y-78273866D01*
X164798476Y-78273866D02*
X164750857Y-78226247D01*
X164750857Y-78226247D02*
X164655619Y-78178628D01*
X164655619Y-78178628D02*
X164465143Y-78131009D01*
X164465143Y-78131009D02*
X164369905Y-78083390D01*
X164369905Y-78083390D02*
X164322286Y-78035771D01*
X164322286Y-78035771D02*
X164274667Y-77940533D01*
X164274667Y-77940533D02*
X164274667Y-77845295D01*
X164274667Y-77845295D02*
X164322286Y-77750057D01*
X164322286Y-77750057D02*
X164369905Y-77702438D01*
X164369905Y-77702438D02*
X164465143Y-77654819D01*
X164465143Y-77654819D02*
X164703238Y-77654819D01*
X164703238Y-77654819D02*
X164846095Y-77702438D01*
X165179429Y-77654819D02*
X165417524Y-78654819D01*
X165417524Y-78654819D02*
X165608000Y-77940533D01*
X165608000Y-77940533D02*
X165798476Y-78654819D01*
X165798476Y-78654819D02*
X166036572Y-77654819D01*
X166941333Y-78654819D02*
X166369905Y-78654819D01*
X166655619Y-78654819D02*
X166655619Y-77654819D01*
X166655619Y-77654819D02*
X166560381Y-77797676D01*
X166560381Y-77797676D02*
X166465143Y-77892914D01*
X166465143Y-77892914D02*
X166369905Y-77940533D01*
X174657142Y-95959580D02*
X174609523Y-96007200D01*
X174609523Y-96007200D02*
X174466666Y-96054819D01*
X174466666Y-96054819D02*
X174371428Y-96054819D01*
X174371428Y-96054819D02*
X174228571Y-96007200D01*
X174228571Y-96007200D02*
X174133333Y-95911961D01*
X174133333Y-95911961D02*
X174085714Y-95816723D01*
X174085714Y-95816723D02*
X174038095Y-95626247D01*
X174038095Y-95626247D02*
X174038095Y-95483390D01*
X174038095Y-95483390D02*
X174085714Y-95292914D01*
X174085714Y-95292914D02*
X174133333Y-95197676D01*
X174133333Y-95197676D02*
X174228571Y-95102438D01*
X174228571Y-95102438D02*
X174371428Y-95054819D01*
X174371428Y-95054819D02*
X174466666Y-95054819D01*
X174466666Y-95054819D02*
X174609523Y-95102438D01*
X174609523Y-95102438D02*
X174657142Y-95150057D01*
X175609523Y-96054819D02*
X175038095Y-96054819D01*
X175323809Y-96054819D02*
X175323809Y-95054819D01*
X175323809Y-95054819D02*
X175228571Y-95197676D01*
X175228571Y-95197676D02*
X175133333Y-95292914D01*
X175133333Y-95292914D02*
X175038095Y-95340533D01*
X176514285Y-95054819D02*
X176038095Y-95054819D01*
X176038095Y-95054819D02*
X175990476Y-95531009D01*
X175990476Y-95531009D02*
X176038095Y-95483390D01*
X176038095Y-95483390D02*
X176133333Y-95435771D01*
X176133333Y-95435771D02*
X176371428Y-95435771D01*
X176371428Y-95435771D02*
X176466666Y-95483390D01*
X176466666Y-95483390D02*
X176514285Y-95531009D01*
X176514285Y-95531009D02*
X176561904Y-95626247D01*
X176561904Y-95626247D02*
X176561904Y-95864342D01*
X176561904Y-95864342D02*
X176514285Y-95959580D01*
X176514285Y-95959580D02*
X176466666Y-96007200D01*
X176466666Y-96007200D02*
X176371428Y-96054819D01*
X176371428Y-96054819D02*
X176133333Y-96054819D01*
X176133333Y-96054819D02*
X176038095Y-96007200D01*
X176038095Y-96007200D02*
X175990476Y-95959580D01*
X122233333Y-98559580D02*
X122185714Y-98607200D01*
X122185714Y-98607200D02*
X122042857Y-98654819D01*
X122042857Y-98654819D02*
X121947619Y-98654819D01*
X121947619Y-98654819D02*
X121804762Y-98607200D01*
X121804762Y-98607200D02*
X121709524Y-98511961D01*
X121709524Y-98511961D02*
X121661905Y-98416723D01*
X121661905Y-98416723D02*
X121614286Y-98226247D01*
X121614286Y-98226247D02*
X121614286Y-98083390D01*
X121614286Y-98083390D02*
X121661905Y-97892914D01*
X121661905Y-97892914D02*
X121709524Y-97797676D01*
X121709524Y-97797676D02*
X121804762Y-97702438D01*
X121804762Y-97702438D02*
X121947619Y-97654819D01*
X121947619Y-97654819D02*
X122042857Y-97654819D01*
X122042857Y-97654819D02*
X122185714Y-97702438D01*
X122185714Y-97702438D02*
X122233333Y-97750057D01*
X122566667Y-97654819D02*
X123233333Y-97654819D01*
X123233333Y-97654819D02*
X122804762Y-98654819D01*
X139407142Y-101484580D02*
X139359523Y-101532200D01*
X139359523Y-101532200D02*
X139216666Y-101579819D01*
X139216666Y-101579819D02*
X139121428Y-101579819D01*
X139121428Y-101579819D02*
X138978571Y-101532200D01*
X138978571Y-101532200D02*
X138883333Y-101436961D01*
X138883333Y-101436961D02*
X138835714Y-101341723D01*
X138835714Y-101341723D02*
X138788095Y-101151247D01*
X138788095Y-101151247D02*
X138788095Y-101008390D01*
X138788095Y-101008390D02*
X138835714Y-100817914D01*
X138835714Y-100817914D02*
X138883333Y-100722676D01*
X138883333Y-100722676D02*
X138978571Y-100627438D01*
X138978571Y-100627438D02*
X139121428Y-100579819D01*
X139121428Y-100579819D02*
X139216666Y-100579819D01*
X139216666Y-100579819D02*
X139359523Y-100627438D01*
X139359523Y-100627438D02*
X139407142Y-100675057D01*
X140359523Y-101579819D02*
X139788095Y-101579819D01*
X140073809Y-101579819D02*
X140073809Y-100579819D01*
X140073809Y-100579819D02*
X139978571Y-100722676D01*
X139978571Y-100722676D02*
X139883333Y-100817914D01*
X139883333Y-100817914D02*
X139788095Y-100865533D01*
X140978571Y-100579819D02*
X141073809Y-100579819D01*
X141073809Y-100579819D02*
X141169047Y-100627438D01*
X141169047Y-100627438D02*
X141216666Y-100675057D01*
X141216666Y-100675057D02*
X141264285Y-100770295D01*
X141264285Y-100770295D02*
X141311904Y-100960771D01*
X141311904Y-100960771D02*
X141311904Y-101198866D01*
X141311904Y-101198866D02*
X141264285Y-101389342D01*
X141264285Y-101389342D02*
X141216666Y-101484580D01*
X141216666Y-101484580D02*
X141169047Y-101532200D01*
X141169047Y-101532200D02*
X141073809Y-101579819D01*
X141073809Y-101579819D02*
X140978571Y-101579819D01*
X140978571Y-101579819D02*
X140883333Y-101532200D01*
X140883333Y-101532200D02*
X140835714Y-101484580D01*
X140835714Y-101484580D02*
X140788095Y-101389342D01*
X140788095Y-101389342D02*
X140740476Y-101198866D01*
X140740476Y-101198866D02*
X140740476Y-100960771D01*
X140740476Y-100960771D02*
X140788095Y-100770295D01*
X140788095Y-100770295D02*
X140835714Y-100675057D01*
X140835714Y-100675057D02*
X140883333Y-100627438D01*
X140883333Y-100627438D02*
X140978571Y-100579819D01*
X182154819Y-92338094D02*
X181154819Y-92338094D01*
X181154819Y-92338094D02*
X181154819Y-92099999D01*
X181154819Y-92099999D02*
X181202438Y-91957142D01*
X181202438Y-91957142D02*
X181297676Y-91861904D01*
X181297676Y-91861904D02*
X181392914Y-91814285D01*
X181392914Y-91814285D02*
X181583390Y-91766666D01*
X181583390Y-91766666D02*
X181726247Y-91766666D01*
X181726247Y-91766666D02*
X181916723Y-91814285D01*
X181916723Y-91814285D02*
X182011961Y-91861904D01*
X182011961Y-91861904D02*
X182107200Y-91957142D01*
X182107200Y-91957142D02*
X182154819Y-92099999D01*
X182154819Y-92099999D02*
X182154819Y-92338094D01*
X182154819Y-90814285D02*
X182154819Y-91385713D01*
X182154819Y-91099999D02*
X181154819Y-91099999D01*
X181154819Y-91099999D02*
X181297676Y-91195237D01*
X181297676Y-91195237D02*
X181392914Y-91290475D01*
X181392914Y-91290475D02*
X181440533Y-91385713D01*
X181785714Y-93904819D02*
X181214286Y-93904819D01*
X181500000Y-93904819D02*
X181500000Y-92904819D01*
X181500000Y-92904819D02*
X181404762Y-93047676D01*
X181404762Y-93047676D02*
X181309524Y-93142914D01*
X181309524Y-93142914D02*
X181214286Y-93190533D01*
X121159580Y-98366666D02*
X121207200Y-98414285D01*
X121207200Y-98414285D02*
X121254819Y-98557142D01*
X121254819Y-98557142D02*
X121254819Y-98652380D01*
X121254819Y-98652380D02*
X121207200Y-98795237D01*
X121207200Y-98795237D02*
X121111961Y-98890475D01*
X121111961Y-98890475D02*
X121016723Y-98938094D01*
X121016723Y-98938094D02*
X120826247Y-98985713D01*
X120826247Y-98985713D02*
X120683390Y-98985713D01*
X120683390Y-98985713D02*
X120492914Y-98938094D01*
X120492914Y-98938094D02*
X120397676Y-98890475D01*
X120397676Y-98890475D02*
X120302438Y-98795237D01*
X120302438Y-98795237D02*
X120254819Y-98652380D01*
X120254819Y-98652380D02*
X120254819Y-98557142D01*
X120254819Y-98557142D02*
X120302438Y-98414285D01*
X120302438Y-98414285D02*
X120350057Y-98366666D01*
X121254819Y-97414285D02*
X121254819Y-97985713D01*
X121254819Y-97699999D02*
X120254819Y-97699999D01*
X120254819Y-97699999D02*
X120397676Y-97795237D01*
X120397676Y-97795237D02*
X120492914Y-97890475D01*
X120492914Y-97890475D02*
X120540533Y-97985713D01*
X152590667Y-78657200D02*
X152733524Y-78704819D01*
X152733524Y-78704819D02*
X152971619Y-78704819D01*
X152971619Y-78704819D02*
X153066857Y-78657200D01*
X153066857Y-78657200D02*
X153114476Y-78609580D01*
X153114476Y-78609580D02*
X153162095Y-78514342D01*
X153162095Y-78514342D02*
X153162095Y-78419104D01*
X153162095Y-78419104D02*
X153114476Y-78323866D01*
X153114476Y-78323866D02*
X153066857Y-78276247D01*
X153066857Y-78276247D02*
X152971619Y-78228628D01*
X152971619Y-78228628D02*
X152781143Y-78181009D01*
X152781143Y-78181009D02*
X152685905Y-78133390D01*
X152685905Y-78133390D02*
X152638286Y-78085771D01*
X152638286Y-78085771D02*
X152590667Y-77990533D01*
X152590667Y-77990533D02*
X152590667Y-77895295D01*
X152590667Y-77895295D02*
X152638286Y-77800057D01*
X152638286Y-77800057D02*
X152685905Y-77752438D01*
X152685905Y-77752438D02*
X152781143Y-77704819D01*
X152781143Y-77704819D02*
X153019238Y-77704819D01*
X153019238Y-77704819D02*
X153162095Y-77752438D01*
X153495429Y-77704819D02*
X153733524Y-78704819D01*
X153733524Y-78704819D02*
X153924000Y-77990533D01*
X153924000Y-77990533D02*
X154114476Y-78704819D01*
X154114476Y-78704819D02*
X154352572Y-77704819D01*
X154685905Y-77800057D02*
X154733524Y-77752438D01*
X154733524Y-77752438D02*
X154828762Y-77704819D01*
X154828762Y-77704819D02*
X155066857Y-77704819D01*
X155066857Y-77704819D02*
X155162095Y-77752438D01*
X155162095Y-77752438D02*
X155209714Y-77800057D01*
X155209714Y-77800057D02*
X155257333Y-77895295D01*
X155257333Y-77895295D02*
X155257333Y-77990533D01*
X155257333Y-77990533D02*
X155209714Y-78133390D01*
X155209714Y-78133390D02*
X154638286Y-78704819D01*
X154638286Y-78704819D02*
X155257333Y-78704819D01*
X158533333Y-102754819D02*
X158200000Y-102278628D01*
X157961905Y-102754819D02*
X157961905Y-101754819D01*
X157961905Y-101754819D02*
X158342857Y-101754819D01*
X158342857Y-101754819D02*
X158438095Y-101802438D01*
X158438095Y-101802438D02*
X158485714Y-101850057D01*
X158485714Y-101850057D02*
X158533333Y-101945295D01*
X158533333Y-101945295D02*
X158533333Y-102088152D01*
X158533333Y-102088152D02*
X158485714Y-102183390D01*
X158485714Y-102183390D02*
X158438095Y-102231009D01*
X158438095Y-102231009D02*
X158342857Y-102278628D01*
X158342857Y-102278628D02*
X157961905Y-102278628D01*
X159009524Y-102754819D02*
X159200000Y-102754819D01*
X159200000Y-102754819D02*
X159295238Y-102707200D01*
X159295238Y-102707200D02*
X159342857Y-102659580D01*
X159342857Y-102659580D02*
X159438095Y-102516723D01*
X159438095Y-102516723D02*
X159485714Y-102326247D01*
X159485714Y-102326247D02*
X159485714Y-101945295D01*
X159485714Y-101945295D02*
X159438095Y-101850057D01*
X159438095Y-101850057D02*
X159390476Y-101802438D01*
X159390476Y-101802438D02*
X159295238Y-101754819D01*
X159295238Y-101754819D02*
X159104762Y-101754819D01*
X159104762Y-101754819D02*
X159009524Y-101802438D01*
X159009524Y-101802438D02*
X158961905Y-101850057D01*
X158961905Y-101850057D02*
X158914286Y-101945295D01*
X158914286Y-101945295D02*
X158914286Y-102183390D01*
X158914286Y-102183390D02*
X158961905Y-102278628D01*
X158961905Y-102278628D02*
X159009524Y-102326247D01*
X159009524Y-102326247D02*
X159104762Y-102373866D01*
X159104762Y-102373866D02*
X159295238Y-102373866D01*
X159295238Y-102373866D02*
X159390476Y-102326247D01*
X159390476Y-102326247D02*
X159438095Y-102278628D01*
X159438095Y-102278628D02*
X159485714Y-102183390D01*
X141457142Y-99259580D02*
X141409523Y-99307200D01*
X141409523Y-99307200D02*
X141266666Y-99354819D01*
X141266666Y-99354819D02*
X141171428Y-99354819D01*
X141171428Y-99354819D02*
X141028571Y-99307200D01*
X141028571Y-99307200D02*
X140933333Y-99211961D01*
X140933333Y-99211961D02*
X140885714Y-99116723D01*
X140885714Y-99116723D02*
X140838095Y-98926247D01*
X140838095Y-98926247D02*
X140838095Y-98783390D01*
X140838095Y-98783390D02*
X140885714Y-98592914D01*
X140885714Y-98592914D02*
X140933333Y-98497676D01*
X140933333Y-98497676D02*
X141028571Y-98402438D01*
X141028571Y-98402438D02*
X141171428Y-98354819D01*
X141171428Y-98354819D02*
X141266666Y-98354819D01*
X141266666Y-98354819D02*
X141409523Y-98402438D01*
X141409523Y-98402438D02*
X141457142Y-98450057D01*
X142409523Y-99354819D02*
X141838095Y-99354819D01*
X142123809Y-99354819D02*
X142123809Y-98354819D01*
X142123809Y-98354819D02*
X142028571Y-98497676D01*
X142028571Y-98497676D02*
X141933333Y-98592914D01*
X141933333Y-98592914D02*
X141838095Y-98640533D01*
X142790476Y-98450057D02*
X142838095Y-98402438D01*
X142838095Y-98402438D02*
X142933333Y-98354819D01*
X142933333Y-98354819D02*
X143171428Y-98354819D01*
X143171428Y-98354819D02*
X143266666Y-98402438D01*
X143266666Y-98402438D02*
X143314285Y-98450057D01*
X143314285Y-98450057D02*
X143361904Y-98545295D01*
X143361904Y-98545295D02*
X143361904Y-98640533D01*
X143361904Y-98640533D02*
X143314285Y-98783390D01*
X143314285Y-98783390D02*
X142742857Y-99354819D01*
X142742857Y-99354819D02*
X143361904Y-99354819D01*
X154723333Y-108454819D02*
X154390000Y-107978628D01*
X154151905Y-108454819D02*
X154151905Y-107454819D01*
X154151905Y-107454819D02*
X154532857Y-107454819D01*
X154532857Y-107454819D02*
X154628095Y-107502438D01*
X154628095Y-107502438D02*
X154675714Y-107550057D01*
X154675714Y-107550057D02*
X154723333Y-107645295D01*
X154723333Y-107645295D02*
X154723333Y-107788152D01*
X154723333Y-107788152D02*
X154675714Y-107883390D01*
X154675714Y-107883390D02*
X154628095Y-107931009D01*
X154628095Y-107931009D02*
X154532857Y-107978628D01*
X154532857Y-107978628D02*
X154151905Y-107978628D01*
X155580476Y-107454819D02*
X155390000Y-107454819D01*
X155390000Y-107454819D02*
X155294762Y-107502438D01*
X155294762Y-107502438D02*
X155247143Y-107550057D01*
X155247143Y-107550057D02*
X155151905Y-107692914D01*
X155151905Y-107692914D02*
X155104286Y-107883390D01*
X155104286Y-107883390D02*
X155104286Y-108264342D01*
X155104286Y-108264342D02*
X155151905Y-108359580D01*
X155151905Y-108359580D02*
X155199524Y-108407200D01*
X155199524Y-108407200D02*
X155294762Y-108454819D01*
X155294762Y-108454819D02*
X155485238Y-108454819D01*
X155485238Y-108454819D02*
X155580476Y-108407200D01*
X155580476Y-108407200D02*
X155628095Y-108359580D01*
X155628095Y-108359580D02*
X155675714Y-108264342D01*
X155675714Y-108264342D02*
X155675714Y-108026247D01*
X155675714Y-108026247D02*
X155628095Y-107931009D01*
X155628095Y-107931009D02*
X155580476Y-107883390D01*
X155580476Y-107883390D02*
X155485238Y-107835771D01*
X155485238Y-107835771D02*
X155294762Y-107835771D01*
X155294762Y-107835771D02*
X155199524Y-107883390D01*
X155199524Y-107883390D02*
X155151905Y-107931009D01*
X155151905Y-107931009D02*
X155104286Y-108026247D01*
X135633333Y-104579819D02*
X135300000Y-104103628D01*
X135061905Y-104579819D02*
X135061905Y-103579819D01*
X135061905Y-103579819D02*
X135442857Y-103579819D01*
X135442857Y-103579819D02*
X135538095Y-103627438D01*
X135538095Y-103627438D02*
X135585714Y-103675057D01*
X135585714Y-103675057D02*
X135633333Y-103770295D01*
X135633333Y-103770295D02*
X135633333Y-103913152D01*
X135633333Y-103913152D02*
X135585714Y-104008390D01*
X135585714Y-104008390D02*
X135538095Y-104056009D01*
X135538095Y-104056009D02*
X135442857Y-104103628D01*
X135442857Y-104103628D02*
X135061905Y-104103628D01*
X136538095Y-103579819D02*
X136061905Y-103579819D01*
X136061905Y-103579819D02*
X136014286Y-104056009D01*
X136014286Y-104056009D02*
X136061905Y-104008390D01*
X136061905Y-104008390D02*
X136157143Y-103960771D01*
X136157143Y-103960771D02*
X136395238Y-103960771D01*
X136395238Y-103960771D02*
X136490476Y-104008390D01*
X136490476Y-104008390D02*
X136538095Y-104056009D01*
X136538095Y-104056009D02*
X136585714Y-104151247D01*
X136585714Y-104151247D02*
X136585714Y-104389342D01*
X136585714Y-104389342D02*
X136538095Y-104484580D01*
X136538095Y-104484580D02*
X136490476Y-104532200D01*
X136490476Y-104532200D02*
X136395238Y-104579819D01*
X136395238Y-104579819D02*
X136157143Y-104579819D01*
X136157143Y-104579819D02*
X136061905Y-104532200D01*
X136061905Y-104532200D02*
X136014286Y-104484580D01*
D12*
%TO.C,C2*%
X128820000Y-103550000D02*
G75*
G02*
X120580000Y-103550000I-4120000J0D01*
G01*
X120580000Y-103550000D02*
G75*
G02*
X128820000Y-103550000I4120000J0D01*
G01*
X125233000Y-107631000D02*
X124167000Y-107631000D01*
X125468000Y-107591000D02*
X123932000Y-107591000D01*
X125648000Y-107551000D02*
X123752000Y-107551000D01*
X125798000Y-107511000D02*
X123602000Y-107511000D01*
X125929000Y-107471000D02*
X123471000Y-107471000D01*
X126046000Y-107431000D02*
X123354000Y-107431000D01*
X126153000Y-107391000D02*
X123247000Y-107391000D01*
X126252000Y-107351000D02*
X123148000Y-107351000D01*
X126345000Y-107311000D02*
X123055000Y-107311000D01*
X126431000Y-107271000D02*
X122969000Y-107271000D01*
X126513000Y-107231000D02*
X122887000Y-107231000D01*
X126590000Y-107191000D02*
X122810000Y-107191000D01*
X126664000Y-107151000D02*
X122736000Y-107151000D01*
X126734000Y-107111000D02*
X122666000Y-107111000D01*
X126802000Y-107071000D02*
X122598000Y-107071000D01*
X126866000Y-107031000D02*
X122534000Y-107031000D01*
X126928000Y-106991000D02*
X122472000Y-106991000D01*
X126987000Y-106951000D02*
X122413000Y-106951000D01*
X127045000Y-106911000D02*
X122355000Y-106911000D01*
X127100000Y-106871000D02*
X122300000Y-106871000D01*
X127154000Y-106831000D02*
X122246000Y-106831000D01*
X127205000Y-106791000D02*
X122195000Y-106791000D01*
X127256000Y-106751000D02*
X122144000Y-106751000D01*
X127304000Y-106711000D02*
X122096000Y-106711000D01*
X127351000Y-106671000D02*
X122049000Y-106671000D01*
X127397000Y-106631000D02*
X122003000Y-106631000D01*
X127441000Y-106591000D02*
X121959000Y-106591000D01*
X127484000Y-106551000D02*
X121916000Y-106551000D01*
X127526000Y-106511000D02*
X121874000Y-106511000D01*
X127567000Y-106471000D02*
X121833000Y-106471000D01*
X127607000Y-106431000D02*
X121793000Y-106431000D01*
X127645000Y-106391000D02*
X121755000Y-106391000D01*
X127683000Y-106351000D02*
X121717000Y-106351000D01*
X127719000Y-106311000D02*
X121681000Y-106311000D01*
X127755000Y-106271000D02*
X121645000Y-106271000D01*
X127790000Y-106231000D02*
X121610000Y-106231000D01*
X127824000Y-106191000D02*
X121576000Y-106191000D01*
X127856000Y-106151000D02*
X121544000Y-106151000D01*
X127889000Y-106111000D02*
X121511000Y-106111000D01*
X127920000Y-106071000D02*
X121480000Y-106071000D01*
X127950000Y-106031000D02*
X121450000Y-106031000D01*
X127980000Y-105991000D02*
X121420000Y-105991000D01*
X128009000Y-105951000D02*
X121391000Y-105951000D01*
X128038000Y-105911000D02*
X121362000Y-105911000D01*
X128065000Y-105871000D02*
X121335000Y-105871000D01*
X123660000Y-105831000D02*
X121308000Y-105831000D01*
X128092000Y-105831000D02*
X125740000Y-105831000D01*
X123660000Y-105791000D02*
X121282000Y-105791000D01*
X128118000Y-105791000D02*
X125740000Y-105791000D01*
X123660000Y-105751000D02*
X121256000Y-105751000D01*
X128144000Y-105751000D02*
X125740000Y-105751000D01*
X123660000Y-105711000D02*
X121231000Y-105711000D01*
X128169000Y-105711000D02*
X125740000Y-105711000D01*
X123660000Y-105671000D02*
X121207000Y-105671000D01*
X128193000Y-105671000D02*
X125740000Y-105671000D01*
X123660000Y-105631000D02*
X121183000Y-105631000D01*
X128217000Y-105631000D02*
X125740000Y-105631000D01*
X123660000Y-105591000D02*
X121160000Y-105591000D01*
X128240000Y-105591000D02*
X125740000Y-105591000D01*
X123660000Y-105551000D02*
X121138000Y-105551000D01*
X128262000Y-105551000D02*
X125740000Y-105551000D01*
X123660000Y-105511000D02*
X121116000Y-105511000D01*
X128284000Y-105511000D02*
X125740000Y-105511000D01*
X123660000Y-105471000D02*
X121094000Y-105471000D01*
X128306000Y-105471000D02*
X125740000Y-105471000D01*
X123660000Y-105431000D02*
X121073000Y-105431000D01*
X128327000Y-105431000D02*
X125740000Y-105431000D01*
X123660000Y-105391000D02*
X121053000Y-105391000D01*
X128347000Y-105391000D02*
X125740000Y-105391000D01*
X123660000Y-105351000D02*
X121034000Y-105351000D01*
X128366000Y-105351000D02*
X125740000Y-105351000D01*
X123660000Y-105311000D02*
X121014000Y-105311000D01*
X128386000Y-105311000D02*
X125740000Y-105311000D01*
X123660000Y-105271000D02*
X120996000Y-105271000D01*
X128404000Y-105271000D02*
X125740000Y-105271000D01*
X123660000Y-105231000D02*
X120978000Y-105231000D01*
X128422000Y-105231000D02*
X125740000Y-105231000D01*
X123660000Y-105191000D02*
X120960000Y-105191000D01*
X128440000Y-105191000D02*
X125740000Y-105191000D01*
X123660000Y-105151000D02*
X120943000Y-105151000D01*
X128457000Y-105151000D02*
X125740000Y-105151000D01*
X123660000Y-105111000D02*
X120926000Y-105111000D01*
X128474000Y-105111000D02*
X125740000Y-105111000D01*
X123660000Y-105071000D02*
X120910000Y-105071000D01*
X128490000Y-105071000D02*
X125740000Y-105071000D01*
X123660000Y-105031000D02*
X120895000Y-105031000D01*
X128505000Y-105031000D02*
X125740000Y-105031000D01*
X123660000Y-104991000D02*
X120879000Y-104991000D01*
X128521000Y-104991000D02*
X125740000Y-104991000D01*
X123660000Y-104951000D02*
X120865000Y-104951000D01*
X128535000Y-104951000D02*
X125740000Y-104951000D01*
X123660000Y-104911000D02*
X120850000Y-104911000D01*
X128550000Y-104911000D02*
X125740000Y-104911000D01*
X123660000Y-104871000D02*
X120837000Y-104871000D01*
X128563000Y-104871000D02*
X125740000Y-104871000D01*
X123660000Y-104831000D02*
X120823000Y-104831000D01*
X128577000Y-104831000D02*
X125740000Y-104831000D01*
X123660000Y-104791000D02*
X120811000Y-104791000D01*
X128589000Y-104791000D02*
X125740000Y-104791000D01*
X123660000Y-104751000D02*
X120798000Y-104751000D01*
X128602000Y-104751000D02*
X125740000Y-104751000D01*
X123660000Y-104711000D02*
X120786000Y-104711000D01*
X128614000Y-104711000D02*
X125740000Y-104711000D01*
X123660000Y-104671000D02*
X120775000Y-104671000D01*
X128625000Y-104671000D02*
X125740000Y-104671000D01*
X123660000Y-104631000D02*
X120764000Y-104631000D01*
X128636000Y-104631000D02*
X125740000Y-104631000D01*
X123660000Y-104591000D02*
X120753000Y-104591000D01*
X128647000Y-104591000D02*
X125740000Y-104591000D01*
X123660000Y-104551000D02*
X120743000Y-104551000D01*
X128657000Y-104551000D02*
X125740000Y-104551000D01*
X123660000Y-104511000D02*
X120733000Y-104511000D01*
X128667000Y-104511000D02*
X125740000Y-104511000D01*
X123660000Y-104471000D02*
X120724000Y-104471000D01*
X128676000Y-104471000D02*
X125740000Y-104471000D01*
X123660000Y-104431000D02*
X120715000Y-104431000D01*
X128685000Y-104431000D02*
X125740000Y-104431000D01*
X123660000Y-104391000D02*
X120706000Y-104391000D01*
X128694000Y-104391000D02*
X125740000Y-104391000D01*
X123660000Y-104351000D02*
X120698000Y-104351000D01*
X128702000Y-104351000D02*
X125740000Y-104351000D01*
X123660000Y-104311000D02*
X120690000Y-104311000D01*
X128710000Y-104311000D02*
X125740000Y-104311000D01*
X123660000Y-104271000D02*
X120683000Y-104271000D01*
X128717000Y-104271000D02*
X125740000Y-104271000D01*
X123660000Y-104230000D02*
X120676000Y-104230000D01*
X128724000Y-104230000D02*
X125740000Y-104230000D01*
X123660000Y-104190000D02*
X120670000Y-104190000D01*
X128730000Y-104190000D02*
X125740000Y-104190000D01*
X123660000Y-104150000D02*
X120663000Y-104150000D01*
X128737000Y-104150000D02*
X125740000Y-104150000D01*
X123660000Y-104110000D02*
X120658000Y-104110000D01*
X128742000Y-104110000D02*
X125740000Y-104110000D01*
X123660000Y-104070000D02*
X120652000Y-104070000D01*
X128748000Y-104070000D02*
X125740000Y-104070000D01*
X123660000Y-104030000D02*
X120648000Y-104030000D01*
X128752000Y-104030000D02*
X125740000Y-104030000D01*
X123660000Y-103990000D02*
X120643000Y-103990000D01*
X128757000Y-103990000D02*
X125740000Y-103990000D01*
X123660000Y-103950000D02*
X120639000Y-103950000D01*
X128761000Y-103950000D02*
X125740000Y-103950000D01*
X123660000Y-103910000D02*
X120635000Y-103910000D01*
X128765000Y-103910000D02*
X125740000Y-103910000D01*
X123660000Y-103870000D02*
X120632000Y-103870000D01*
X128768000Y-103870000D02*
X125740000Y-103870000D01*
X123660000Y-103830000D02*
X120629000Y-103830000D01*
X128771000Y-103830000D02*
X125740000Y-103830000D01*
X123660000Y-103790000D02*
X120626000Y-103790000D01*
X128774000Y-103790000D02*
X125740000Y-103790000D01*
X128776000Y-103750000D02*
X120624000Y-103750000D01*
X128777000Y-103710000D02*
X120623000Y-103710000D01*
X128779000Y-103670000D02*
X120621000Y-103670000D01*
X128780000Y-103630000D02*
X120620000Y-103630000D01*
X128780000Y-103590000D02*
X120620000Y-103590000D01*
X128780000Y-103550000D02*
X120620000Y-103550000D01*
X127415000Y-99540302D02*
X126615000Y-99540302D01*
X127015000Y-99140302D02*
X127015000Y-99940302D01*
%TO.C,C11*%
X139286252Y-96835000D02*
X137863748Y-96835000D01*
X139286252Y-95015000D02*
X137863748Y-95015000D01*
%TO.C,R3*%
X130362742Y-101697500D02*
X130837258Y-101697500D01*
X130362742Y-100652500D02*
X130837258Y-100652500D01*
%TO.C,J5*%
X155580000Y-113150000D02*
G75*
G02*
X152220000Y-113150000I-1680000J0D01*
G01*
X152220000Y-113150000D02*
G75*
G02*
X155580000Y-113150000I1680000J0D01*
G01*
X152080000Y-113150000D02*
G75*
G02*
X148720000Y-113150000I-1680000J0D01*
G01*
X148720000Y-113150000D02*
G75*
G02*
X152080000Y-113150000I1680000J0D01*
G01*
X148580000Y-113150000D02*
G75*
G02*
X145220000Y-113150000I-1680000J0D01*
G01*
X145220000Y-113150000D02*
G75*
G02*
X148580000Y-113150000I1680000J0D01*
G01*
X145080000Y-113150000D02*
G75*
G02*
X141720000Y-113150000I-1680000J0D01*
G01*
X141720000Y-113150000D02*
G75*
G02*
X145080000Y-113150000I1680000J0D01*
G01*
X141580000Y-113150000D02*
G75*
G02*
X138220000Y-113150000I-1680000J0D01*
G01*
X138220000Y-113150000D02*
G75*
G02*
X141580000Y-113150000I1680000J0D01*
G01*
X138080000Y-113150000D02*
G75*
G02*
X134720000Y-113150000I-1680000J0D01*
G01*
X134720000Y-113150000D02*
G75*
G02*
X138080000Y-113150000I1680000J0D01*
G01*
X134580000Y-113150000D02*
G75*
G02*
X131220000Y-113150000I-1680000J0D01*
G01*
X131220000Y-113150000D02*
G75*
G02*
X134580000Y-113150000I1680000J0D01*
G01*
X130825504Y-112259807D02*
G75*
G02*
X130825000Y-114041000I-1425507J-890193D01*
G01*
X130290264Y-114574721D02*
G75*
G02*
X129400000Y-114830000I-890261J1424711D01*
G01*
X129428674Y-114830099D02*
G75*
G02*
X128534000Y-114590000I-28671J1680113D01*
G01*
X128510106Y-111724642D02*
G75*
G02*
X130266000Y-111710000I889894J-1425356D01*
G01*
X127974642Y-114039894D02*
G75*
G02*
X127960000Y-112284000I1425356J889894D01*
G01*
X155710000Y-109990000D02*
X155710000Y-117710000D01*
X155175000Y-112081000D02*
X155046000Y-112209000D01*
X154970000Y-111875000D02*
X154876000Y-111969000D01*
X152925000Y-114331000D02*
X152831000Y-114424000D01*
X152755000Y-114091000D02*
X152626000Y-114219000D01*
X151675000Y-112081000D02*
X151546000Y-112209000D01*
X151470000Y-111875000D02*
X151376000Y-111969000D01*
X149425000Y-114331000D02*
X149331000Y-114424000D01*
X149255000Y-114091000D02*
X149126000Y-114219000D01*
X148175000Y-112081000D02*
X148046000Y-112209000D01*
X147970000Y-111875000D02*
X147876000Y-111969000D01*
X145925000Y-114331000D02*
X145831000Y-114424000D01*
X145755000Y-114091000D02*
X145626000Y-114219000D01*
X144675000Y-112081000D02*
X144546000Y-112209000D01*
X144470000Y-111875000D02*
X144376000Y-111969000D01*
X142425000Y-114331000D02*
X142331000Y-114424000D01*
X142255000Y-114091000D02*
X142126000Y-114219000D01*
X141175000Y-112081000D02*
X141046000Y-112209000D01*
X140970000Y-111875000D02*
X140876000Y-111969000D01*
X138925000Y-114331000D02*
X138831000Y-114424000D01*
X138755000Y-114091000D02*
X138626000Y-114219000D01*
X137675000Y-112081000D02*
X137546000Y-112209000D01*
X137470000Y-111875000D02*
X137376000Y-111969000D01*
X135425000Y-114331000D02*
X135331000Y-114424000D01*
X135255000Y-114091000D02*
X135126000Y-114219000D01*
X134175000Y-112081000D02*
X134046000Y-112209000D01*
X133970000Y-111875000D02*
X133876000Y-111969000D01*
X131925000Y-114331000D02*
X131831000Y-114424000D01*
X131755000Y-114091000D02*
X131626000Y-114219000D01*
X127590000Y-117710000D02*
X155710000Y-117710000D01*
X127590000Y-117250000D02*
X155710000Y-117250000D01*
X127590000Y-116150000D02*
X155710000Y-116150000D01*
X127590000Y-109990000D02*
X155710000Y-109990000D01*
X127590000Y-109990000D02*
X127590000Y-117710000D01*
X127350000Y-117950000D02*
X127750000Y-117950000D01*
X127350000Y-117310000D02*
X127350000Y-117950000D01*
%TO.C,D9*%
X162362500Y-103140000D02*
X159677500Y-103140000D01*
X159677500Y-105060000D02*
X162362500Y-105060000D01*
X159677500Y-103140000D02*
X159677500Y-105060000D01*
%TO.C,R7*%
X145022500Y-92037742D02*
X145022500Y-92512258D01*
X143977500Y-92037742D02*
X143977500Y-92512258D01*
%TO.C,D7*%
X147360000Y-93325000D02*
X147360000Y-90640000D01*
X147360000Y-90640000D02*
X145440000Y-90640000D01*
X145440000Y-90640000D02*
X145440000Y-93325000D01*
%TO.C,U4*%
X142818000Y-83050000D02*
X142578000Y-82720000D01*
X143058000Y-82720000D01*
X142818000Y-83050000D01*
G36*
X142818000Y-83050000D02*
G01*
X142578000Y-82720000D01*
X143058000Y-82720000D01*
X142818000Y-83050000D01*
G37*
X147858000Y-89770000D02*
X147858000Y-88510000D01*
X147858000Y-82950000D02*
X147858000Y-84210000D01*
X144098000Y-89770000D02*
X147858000Y-89770000D01*
X144098000Y-82950000D02*
X147858000Y-82950000D01*
%TO.C,SW3*%
X179150000Y-107700000D02*
X179150000Y-105700000D01*
X178100000Y-109000000D02*
X177650000Y-109450000D01*
X178100000Y-104400000D02*
X177650000Y-103950000D01*
X177650000Y-109450000D02*
X175150000Y-109450000D01*
X177650000Y-103950000D02*
X175150000Y-103950000D01*
X174700000Y-109000000D02*
X175150000Y-109450000D01*
X174700000Y-104400000D02*
X175150000Y-103950000D01*
X173650000Y-107700000D02*
X173650000Y-105700000D01*
%TO.C,D6*%
X162650000Y-105890000D02*
X162650000Y-111400000D01*
X162650000Y-105890000D02*
X159350000Y-105890000D01*
X159350000Y-105890000D02*
X159350000Y-111400000D01*
%TO.C,L2*%
X140660000Y-94535000D02*
X140660000Y-93185000D01*
X140660000Y-88815000D02*
X140660000Y-90165000D01*
X134740000Y-94535000D02*
X140660000Y-94535000D01*
X134740000Y-94535000D02*
X134740000Y-93185000D01*
X134740000Y-88815000D02*
X140660000Y-88815000D01*
X134740000Y-88815000D02*
X134740000Y-90165000D01*
%TO.C,C6*%
X162560000Y-81940580D02*
X162560000Y-81659420D01*
X161540000Y-81940580D02*
X161540000Y-81659420D01*
%TO.C,R8*%
X177622500Y-83237258D02*
X177622500Y-82762742D01*
X176577500Y-83237258D02*
X176577500Y-82762742D01*
%TO.C,D2*%
X180950000Y-101900000D02*
X173650000Y-101900000D01*
X180950000Y-96400000D02*
X173650000Y-96400000D01*
X173650000Y-96400000D02*
X173650000Y-97550000D01*
%TO.C,C8*%
X137560000Y-98584420D02*
X137560000Y-98865580D01*
X136540000Y-98584420D02*
X136540000Y-98865580D01*
%TO.C,C5*%
X154760000Y-87665580D02*
X154760000Y-87384420D01*
X153740000Y-87665580D02*
X153740000Y-87384420D01*
%TO.C,R4*%
X134237258Y-101647500D02*
X133762742Y-101647500D01*
X134237258Y-100602500D02*
X133762742Y-100602500D01*
%TO.C,J3*%
X161370000Y-117950000D02*
X161370000Y-116400000D01*
X161370000Y-117950000D02*
X161670000Y-117950000D01*
X161670000Y-120750000D02*
X161670000Y-117950000D01*
X163820000Y-114700000D02*
X164620000Y-114700000D01*
X164220000Y-115150000D02*
X163820000Y-114700000D01*
X164620000Y-114700000D02*
X164220000Y-115150000D01*
X169370000Y-117950000D02*
X169670000Y-117950000D01*
X169370000Y-120750000D02*
X169370000Y-117950000D01*
X169670000Y-117950000D02*
X169670000Y-116400000D01*
%TO.C,R2*%
X124722500Y-93887742D02*
X124722500Y-94362258D01*
X123677500Y-93887742D02*
X123677500Y-94362258D01*
%TO.C,D4*%
X128250000Y-92510000D02*
X128250000Y-87000000D01*
X124950000Y-92510000D02*
X128250000Y-92510000D01*
X124950000Y-92510000D02*
X124950000Y-87000000D01*
%TO.C,U3*%
X129725000Y-95115000D02*
X129485000Y-94785000D01*
X129965000Y-94785000D01*
X129725000Y-95115000D01*
G36*
X129725000Y-95115000D02*
G01*
X129485000Y-94785000D01*
X129965000Y-94785000D01*
X129725000Y-95115000D01*
G37*
X132425000Y-100140000D02*
X134375000Y-100140000D01*
X132425000Y-100140000D02*
X130475000Y-100140000D01*
X132425000Y-95020000D02*
X134375000Y-95020000D01*
X132425000Y-95020000D02*
X130475000Y-95020000D01*
%TO.C,L1*%
X128160000Y-94522936D02*
X128160000Y-95727064D01*
X125440000Y-94522936D02*
X125440000Y-95727064D01*
%TO.C,C4*%
X156360000Y-87665580D02*
X156360000Y-87384420D01*
X155340000Y-87665580D02*
X155340000Y-87384420D01*
%TO.C,C3*%
X174010000Y-83190580D02*
X174010000Y-82909420D01*
X172990000Y-83190580D02*
X172990000Y-82909420D01*
%TO.C,C14*%
X178834420Y-103310000D02*
X179115580Y-103310000D01*
X178834420Y-102290000D02*
X179115580Y-102290000D01*
%TO.C,J1*%
X142580000Y-75300000D02*
G75*
G02*
X139220000Y-75300000I-1680000J0D01*
G01*
X139220000Y-75300000D02*
G75*
G02*
X142580000Y-75300000I1680000J0D01*
G01*
X137580000Y-75300000D02*
G75*
G02*
X134220000Y-75300000I-1680000J0D01*
G01*
X134220000Y-75300000D02*
G75*
G02*
X137580000Y-75300000I1680000J0D01*
G01*
X132580000Y-75300000D02*
G75*
G02*
X129220000Y-75300000I-1680000J0D01*
G01*
X129220000Y-75300000D02*
G75*
G02*
X132580000Y-75300000I1680000J0D01*
G01*
X147435427Y-74616958D02*
G75*
G02*
X147435000Y-75984000I-1535420J-683041D01*
G01*
X146583042Y-76835427D02*
G75*
G02*
X145216000Y-76835000I-683041J1535420D01*
G01*
X145871195Y-73619747D02*
G75*
G02*
X146584000Y-73765000I28806J-1680254D01*
G01*
X145216682Y-73765244D02*
G75*
G02*
X145900000Y-73620000I683318J-1534756D01*
G01*
X144364573Y-75983042D02*
G75*
G02*
X144365000Y-74616000I1535427J683042D01*
G01*
X148700000Y-71140000D02*
X148700000Y-70400000D01*
X148700000Y-70400000D02*
X148200000Y-70400000D01*
X148460000Y-80561000D02*
X148460000Y-70640000D01*
X148460000Y-80561000D02*
X128339000Y-80561000D01*
X148460000Y-77601000D02*
X128339000Y-77601000D01*
X148460000Y-72700000D02*
X128339000Y-72700000D01*
X148460000Y-71200000D02*
X128339000Y-71200000D01*
X148460000Y-70640000D02*
X128339000Y-70640000D01*
X142127000Y-74277000D02*
X142174000Y-74231000D01*
X141934000Y-74061000D02*
X141969000Y-74026000D01*
X139830000Y-76575000D02*
X139865000Y-76539000D01*
X139625000Y-76369000D02*
X139672000Y-76323000D01*
X137127000Y-74277000D02*
X137174000Y-74231000D01*
X136934000Y-74061000D02*
X136969000Y-74026000D01*
X134830000Y-76575000D02*
X134865000Y-76539000D01*
X134625000Y-76369000D02*
X134672000Y-76323000D01*
X132127000Y-74277000D02*
X132174000Y-74231000D01*
X131934000Y-74061000D02*
X131969000Y-74026000D01*
X129830000Y-76575000D02*
X129865000Y-76539000D01*
X129625000Y-76369000D02*
X129672000Y-76323000D01*
X128339000Y-80561000D02*
X128339000Y-70640000D01*
%TO.C,R1*%
X175672500Y-82812742D02*
X175672500Y-83287258D01*
X174627500Y-82812742D02*
X174627500Y-83287258D01*
%TO.C,C9*%
X130260000Y-93490580D02*
X130260000Y-93209420D01*
X129240000Y-93490580D02*
X129240000Y-93209420D01*
%TO.C,U2*%
X163640000Y-110637500D02*
X163310000Y-110877500D01*
X163310000Y-110397500D01*
X163640000Y-110637500D01*
G36*
X163640000Y-110637500D02*
G01*
X163310000Y-110877500D01*
X163310000Y-110397500D01*
X163640000Y-110637500D01*
G37*
X166710000Y-109337500D02*
X166710000Y-110137500D01*
X166710000Y-109337500D02*
X166710000Y-108537500D01*
X163590000Y-109337500D02*
X163590000Y-110137500D01*
X163590000Y-109337500D02*
X163590000Y-108537500D01*
%TO.C,D5*%
X134050000Y-94885000D02*
X134050000Y-89375000D01*
X130750000Y-94885000D02*
X134050000Y-94885000D01*
X130750000Y-94885000D02*
X130750000Y-89375000D01*
%TO.C,C13*%
X141010000Y-85365580D02*
X141010000Y-85084420D01*
X139990000Y-85365580D02*
X139990000Y-85084420D01*
%TO.C,D3*%
X128440000Y-87725000D02*
X136950000Y-87725000D01*
X128440000Y-87725000D02*
X128440000Y-81225000D01*
X128440000Y-81225000D02*
X136950000Y-81225000D01*
%TO.C,D8*%
X180060000Y-84000000D02*
X180060000Y-81315000D01*
X180060000Y-81315000D02*
X178140000Y-81315000D01*
X178140000Y-81315000D02*
X178140000Y-84000000D01*
%TO.C,U5*%
X154940000Y-100415000D02*
X154610000Y-100175000D01*
X154940000Y-99935000D01*
X154940000Y-100415000D01*
G36*
X154940000Y-100415000D02*
G01*
X154610000Y-100175000D01*
X154940000Y-99935000D01*
X154940000Y-100415000D01*
G37*
X154705000Y-102875000D02*
X154705000Y-104825000D01*
X154705000Y-102875000D02*
X154705000Y-100925000D01*
X149585000Y-102875000D02*
X149585000Y-104825000D01*
X149585000Y-102875000D02*
X149585000Y-100925000D01*
%TO.C,U1*%
X172550000Y-100950000D02*
X172550000Y-99900000D01*
X172550000Y-85250000D02*
X172550000Y-86300000D01*
X172400000Y-100800000D02*
X157000000Y-100800000D01*
X172400000Y-85400000D02*
X172400000Y-100800000D01*
X171500000Y-100950000D02*
X172550000Y-100950000D01*
X171500000Y-85250000D02*
X172550000Y-85250000D01*
X157900000Y-100950000D02*
X156850000Y-100950000D01*
X157900000Y-85250000D02*
X156700000Y-85250000D01*
X157000000Y-100800000D02*
X157000000Y-85400000D01*
X157000000Y-85400000D02*
X172400000Y-85400000D01*
X156850000Y-100950000D02*
X156850000Y-99900000D01*
%TO.C,SW1*%
X171200000Y-82950000D02*
X171200000Y-80950000D01*
X170150000Y-84250000D02*
X169700000Y-84700000D01*
X170150000Y-79650000D02*
X169700000Y-79200000D01*
X169700000Y-84700000D02*
X167200000Y-84700000D01*
X169700000Y-79200000D02*
X167200000Y-79200000D01*
X166750000Y-84250000D02*
X167200000Y-84700000D01*
X166750000Y-79650000D02*
X167200000Y-79200000D01*
X165700000Y-82950000D02*
X165700000Y-80950000D01*
%TO.C,C15*%
X179365580Y-96010000D02*
X179084420Y-96010000D01*
X179365580Y-94990000D02*
X179084420Y-94990000D01*
%TO.C,C7*%
X127015580Y-98735000D02*
X126734420Y-98735000D01*
X127015580Y-97715000D02*
X126734420Y-97715000D01*
%TO.C,C10*%
X137265580Y-101585000D02*
X136984420Y-101585000D01*
X137265580Y-100565000D02*
X136984420Y-100565000D01*
%TO.C,D1*%
X181000000Y-94600000D02*
X173700000Y-94600000D01*
X181000000Y-89100000D02*
X173700000Y-89100000D01*
X173700000Y-89100000D02*
X173700000Y-90250000D01*
%TO.C,C1*%
X124760000Y-97134420D02*
X124760000Y-97415580D01*
X123740000Y-97134420D02*
X123740000Y-97415580D01*
%TO.C,SW2*%
X159575000Y-82900000D02*
X159575000Y-80900000D01*
X158525000Y-84200000D02*
X158075000Y-84650000D01*
X158525000Y-79600000D02*
X158075000Y-79150000D01*
X158075000Y-84650000D02*
X155575000Y-84650000D01*
X158075000Y-79150000D02*
X155575000Y-79150000D01*
X155125000Y-84200000D02*
X155575000Y-84650000D01*
X155125000Y-79600000D02*
X155575000Y-79150000D01*
X154075000Y-82900000D02*
X154075000Y-80900000D01*
%TO.C,R9*%
X161062742Y-102722500D02*
X161537258Y-102722500D01*
X161062742Y-101677500D02*
X161537258Y-101677500D01*
%TO.C,C12*%
X143160000Y-92438748D02*
X143160000Y-93861252D01*
X141340000Y-92438748D02*
X141340000Y-93861252D01*
%TO.C,R6*%
X151882742Y-108347500D02*
X152357258Y-108347500D01*
X151882742Y-107302500D02*
X152357258Y-107302500D01*
D13*
%TO.C,G\u002A\u002A\u002A*%
G36*
X121439205Y-80569128D02*
G01*
X121454553Y-80576992D01*
X121577759Y-80633669D01*
X121692933Y-80673620D01*
X121708892Y-80677477D01*
X121849879Y-80744513D01*
X121946122Y-80863386D01*
X121980000Y-81006135D01*
X121950674Y-81127971D01*
X121861285Y-81198649D01*
X121720588Y-81220000D01*
X121642250Y-81237209D01*
X121585009Y-81301961D01*
X121552377Y-81370000D01*
X121508749Y-81503913D01*
X121485286Y-81635050D01*
X121484418Y-81650245D01*
X121486177Y-81714885D01*
X121506226Y-81762728D01*
X121558867Y-81806107D01*
X121658407Y-81857354D01*
X121795555Y-81918491D01*
X121954322Y-81993595D01*
X122095327Y-82070317D01*
X122193652Y-82134828D01*
X122209529Y-82148246D01*
X122268209Y-82213736D01*
X122292120Y-82284369D01*
X122289279Y-82391601D01*
X122283883Y-82440000D01*
X122257718Y-82590492D01*
X122215331Y-82769900D01*
X122179909Y-82893563D01*
X122134527Y-83060124D01*
X122107187Y-83207312D01*
X122099814Y-83318140D01*
X122114335Y-83375624D01*
X122124719Y-83380000D01*
X122166743Y-83355807D01*
X122245669Y-83294323D01*
X122294042Y-83253036D01*
X122486929Y-83115435D01*
X122735761Y-82984128D01*
X123016528Y-82868049D01*
X123305217Y-82776131D01*
X123577819Y-82717307D01*
X123780436Y-82699999D01*
X123901640Y-82701897D01*
X123960465Y-82714678D01*
X123974530Y-82748973D01*
X123962764Y-82810000D01*
X123935643Y-82978128D01*
X123917960Y-83205201D01*
X123909746Y-83470714D01*
X123911032Y-83754166D01*
X123921848Y-84035057D01*
X123942224Y-84292883D01*
X123960362Y-84436758D01*
X124001358Y-84780320D01*
X124009557Y-85063845D01*
X123984199Y-85300601D01*
X123924523Y-85503858D01*
X123895441Y-85569428D01*
X123719209Y-85845177D01*
X123485307Y-86071804D01*
X123200950Y-86246986D01*
X122873350Y-86368402D01*
X122509721Y-86433729D01*
X122117277Y-86440644D01*
X121703232Y-86386826D01*
X121502705Y-86339752D01*
X121148336Y-86274764D01*
X120765761Y-86256487D01*
X120386310Y-86284522D01*
X120041313Y-86358464D01*
X120041177Y-86358506D01*
X119776775Y-86456620D01*
X119542119Y-86577280D01*
X119355746Y-86709863D01*
X119264114Y-86803854D01*
X119205037Y-86871516D01*
X119168541Y-86899997D01*
X119168386Y-86900000D01*
X119132698Y-86872579D01*
X119064061Y-86802674D01*
X119018188Y-86751825D01*
X118836937Y-86488138D01*
X118701902Y-86166740D01*
X118616001Y-85797189D01*
X118610059Y-85725544D01*
X118860000Y-85725544D01*
X118879154Y-85780581D01*
X118925587Y-85873033D01*
X118982752Y-85973387D01*
X119034101Y-86052131D01*
X119058056Y-86078798D01*
X119114545Y-86076764D01*
X119211012Y-86043265D01*
X119256521Y-86021774D01*
X119415786Y-85940523D01*
X119483321Y-86054851D01*
X119535999Y-86129720D01*
X119591887Y-86149606D01*
X119685428Y-86127878D01*
X119777855Y-86088667D01*
X119814647Y-86029731D01*
X119815572Y-86017322D01*
X121393270Y-86017322D01*
X121453170Y-86061945D01*
X121584024Y-86106295D01*
X121700000Y-86131074D01*
X121870801Y-86159928D01*
X121977722Y-86171877D01*
X122035149Y-86166569D01*
X122057470Y-86143653D01*
X122060000Y-86122268D01*
X122022814Y-86041109D01*
X121919799Y-85980371D01*
X121763770Y-85945799D01*
X121653460Y-85940000D01*
X121491997Y-85950530D01*
X121405740Y-85978244D01*
X121393270Y-86017322D01*
X119815572Y-86017322D01*
X119820000Y-85957954D01*
X119839468Y-85860617D01*
X119906322Y-85804791D01*
X120033233Y-85782151D01*
X120090000Y-85780546D01*
X120158539Y-85798589D01*
X120179744Y-85868083D01*
X120180000Y-85882878D01*
X120183384Y-85940045D01*
X120206185Y-85967556D01*
X120267376Y-85971241D01*
X120385929Y-85956934D01*
X120410000Y-85953573D01*
X120560145Y-85939477D01*
X120754230Y-85930676D01*
X120956286Y-85928626D01*
X121006858Y-85929404D01*
X121373716Y-85937418D01*
X121366858Y-85689309D01*
X121360000Y-85441200D01*
X121636170Y-85410103D01*
X121776378Y-85397368D01*
X121882498Y-85393440D01*
X121932365Y-85399105D01*
X121932883Y-85399549D01*
X121947214Y-85447690D01*
X121962558Y-85550211D01*
X121971936Y-85643306D01*
X121994244Y-85791342D01*
X122029665Y-85875079D01*
X122046715Y-85888112D01*
X122113524Y-85889475D01*
X122228551Y-85870770D01*
X122334116Y-85844852D01*
X122509312Y-85799999D01*
X122621117Y-85783561D01*
X122680866Y-85795388D01*
X122699896Y-85835329D01*
X122700000Y-85840000D01*
X122721385Y-85884809D01*
X122791435Y-85896466D01*
X122918986Y-85874931D01*
X123052739Y-85838450D01*
X123192532Y-85789185D01*
X123254385Y-85749900D01*
X123240050Y-85723581D01*
X123151280Y-85713214D01*
X122989829Y-85721783D01*
X122984533Y-85722299D01*
X122709067Y-85749443D01*
X122680236Y-85462352D01*
X122668643Y-85319353D01*
X122664998Y-85210412D01*
X122669954Y-85157150D01*
X122670945Y-85155721D01*
X122719408Y-85138575D01*
X122820046Y-85117588D01*
X122947694Y-85096470D01*
X123077187Y-85078932D01*
X123183362Y-85068683D01*
X123241056Y-85069435D01*
X123244490Y-85071157D01*
X123256577Y-85116988D01*
X123272084Y-85221926D01*
X123288070Y-85365332D01*
X123291428Y-85400749D01*
X123320000Y-85711975D01*
X123455691Y-85597642D01*
X123552459Y-85493335D01*
X123643097Y-85358441D01*
X123710877Y-85221741D01*
X123739070Y-85112016D01*
X123739121Y-85110000D01*
X123706589Y-85078618D01*
X123603992Y-85062655D01*
X123502748Y-85060000D01*
X123265497Y-85060000D01*
X123237507Y-84739121D01*
X123221280Y-84587671D01*
X123203014Y-84470085D01*
X123186024Y-84406555D01*
X123182012Y-84401243D01*
X123132559Y-84402310D01*
X123027395Y-84420811D01*
X122887923Y-84452879D01*
X122867254Y-84458134D01*
X122580000Y-84532022D01*
X122580000Y-84296011D01*
X122574590Y-84170625D01*
X122560549Y-84085036D01*
X122544833Y-84060000D01*
X122492309Y-84075583D01*
X122391042Y-84116113D01*
X122283232Y-84163665D01*
X122154526Y-84214932D01*
X122048820Y-84243430D01*
X121996909Y-84244348D01*
X121930672Y-84245693D01*
X121815513Y-84270397D01*
X121675648Y-84310668D01*
X121535297Y-84358712D01*
X121418678Y-84406736D01*
X121350010Y-84446948D01*
X121343294Y-84454668D01*
X121288518Y-84480280D01*
X121173659Y-84497711D01*
X121018283Y-84506254D01*
X120841956Y-84505205D01*
X120664246Y-84493859D01*
X120570000Y-84482539D01*
X120422416Y-84467745D01*
X120348674Y-84476996D01*
X120340000Y-84489883D01*
X120376074Y-84516762D01*
X120469155Y-84543247D01*
X120560000Y-84558269D01*
X120704345Y-84585902D01*
X120773899Y-84622817D01*
X120780000Y-84639563D01*
X120817153Y-84680751D01*
X120917763Y-84720668D01*
X120981968Y-84736685D01*
X121150314Y-84769914D01*
X121255742Y-84779168D01*
X121312792Y-84760469D01*
X121336008Y-84709839D01*
X121340000Y-84638744D01*
X121352766Y-84540461D01*
X121384209Y-84484709D01*
X121390000Y-84481977D01*
X121452325Y-84462662D01*
X121565377Y-84427641D01*
X121690000Y-84389043D01*
X121940000Y-84311621D01*
X121940000Y-84525810D01*
X121944581Y-84644489D01*
X121956371Y-84722269D01*
X121967162Y-84740000D01*
X122016130Y-84728541D01*
X122119455Y-84698388D01*
X122255509Y-84655872D01*
X122266249Y-84652420D01*
X122401901Y-84611745D01*
X122504884Y-84586517D01*
X122554619Y-84581708D01*
X122555795Y-84582461D01*
X122566341Y-84628323D01*
X122577316Y-84732078D01*
X122586411Y-84871665D01*
X122586708Y-84877777D01*
X122600000Y-85155473D01*
X122332195Y-85232858D01*
X122156367Y-85278376D01*
X122042174Y-85289168D01*
X121976675Y-85259467D01*
X121946931Y-85183506D01*
X121940000Y-85058077D01*
X121940000Y-84853643D01*
X121810000Y-84882509D01*
X121716911Y-84893975D01*
X121566568Y-84902466D01*
X121381694Y-84907014D01*
X121230000Y-84907218D01*
X121036642Y-84908672D01*
X120889432Y-84916329D01*
X120800722Y-84929246D01*
X120780000Y-84941531D01*
X120744766Y-84963377D01*
X120657342Y-84976352D01*
X120545144Y-84979521D01*
X120435584Y-84971950D01*
X120363271Y-84955720D01*
X120308769Y-84899771D01*
X120300000Y-84860469D01*
X120270727Y-84804237D01*
X120175828Y-84759628D01*
X120125150Y-84745469D01*
X120002884Y-84712826D01*
X119906243Y-84683841D01*
X119885150Y-84676441D01*
X119830615Y-84674013D01*
X119820000Y-84692134D01*
X119854361Y-84742725D01*
X119946294Y-84814303D01*
X120079067Y-84898200D01*
X120235949Y-84985747D01*
X120400212Y-85068277D01*
X120555124Y-85137121D01*
X120683956Y-85183611D01*
X120769978Y-85199080D01*
X120789222Y-85194300D01*
X120815560Y-85142960D01*
X120820000Y-85102873D01*
X120846291Y-85046933D01*
X120934406Y-85012396D01*
X120970000Y-85005673D01*
X121130701Y-84981661D01*
X121228360Y-84981058D01*
X121278667Y-85013106D01*
X121297315Y-85087044D01*
X121300000Y-85200000D01*
X121300000Y-85420000D01*
X121103271Y-85420000D01*
X120930018Y-85411723D01*
X120826170Y-85384942D01*
X120782661Y-85336735D01*
X120780000Y-85315720D01*
X120747644Y-85276525D01*
X120646021Y-85255307D01*
X120590000Y-85251573D01*
X120405177Y-85248035D01*
X120209661Y-85251762D01*
X120030993Y-85261609D01*
X119896715Y-85276432D01*
X119870000Y-85281501D01*
X119806239Y-85284377D01*
X119782555Y-85239724D01*
X119780000Y-85183030D01*
X119747713Y-85058588D01*
X119655671Y-84982534D01*
X119511098Y-84959513D01*
X119442204Y-84965888D01*
X119309705Y-84993143D01*
X119247111Y-85032568D01*
X119244338Y-85097545D01*
X119280353Y-85180683D01*
X119347514Y-85310558D01*
X119240565Y-85283716D01*
X119166161Y-85271519D01*
X119149388Y-85299689D01*
X119161304Y-85348436D01*
X119193941Y-85431992D01*
X119239619Y-85470752D01*
X119317434Y-85469103D01*
X119446479Y-85431430D01*
X119477137Y-85420984D01*
X119605035Y-85382129D01*
X119703103Y-85361769D01*
X119744693Y-85362900D01*
X119764459Y-85412025D01*
X119777272Y-85514706D01*
X119780000Y-85598600D01*
X119780000Y-85812479D01*
X119602460Y-85872973D01*
X119498033Y-85903388D01*
X119426550Y-85900782D01*
X119370989Y-85853761D01*
X119314330Y-85750930D01*
X119269385Y-85650000D01*
X119224032Y-85571860D01*
X119183143Y-85540000D01*
X119129382Y-85558062D01*
X119042777Y-85601705D01*
X118950871Y-85655115D01*
X118881209Y-85702476D01*
X118860000Y-85725544D01*
X118610059Y-85725544D01*
X118582150Y-85389043D01*
X118581755Y-85321596D01*
X118596078Y-85016103D01*
X118601575Y-84985056D01*
X118780000Y-84985056D01*
X118784122Y-85086191D01*
X118804801Y-85125810D01*
X118854503Y-85122289D01*
X118870000Y-85117726D01*
X118947537Y-85089697D01*
X118978245Y-85073451D01*
X118976156Y-85029968D01*
X118941591Y-84953914D01*
X118891348Y-84872948D01*
X118842222Y-84814731D01*
X118814320Y-84803510D01*
X118792579Y-84853455D01*
X118780732Y-84951687D01*
X118780000Y-84985056D01*
X118601575Y-84985056D01*
X118637826Y-84780314D01*
X118709665Y-84607861D01*
X118814259Y-84492378D01*
X118954271Y-84427497D01*
X118956042Y-84427035D01*
X119037437Y-84394512D01*
X119081511Y-84334425D01*
X119086077Y-84315404D01*
X119183692Y-84315404D01*
X119225599Y-84409542D01*
X119228000Y-84412000D01*
X119313405Y-84450637D01*
X119434781Y-84457196D01*
X119555562Y-84433346D01*
X119626850Y-84393800D01*
X119688770Y-84321225D01*
X119690633Y-84278132D01*
X119633143Y-84276195D01*
X119620000Y-84280000D01*
X119555122Y-84282796D01*
X119540000Y-84242695D01*
X119570842Y-84187952D01*
X119600000Y-84180000D01*
X120570916Y-84180000D01*
X120726022Y-84180000D01*
X120855431Y-84165611D01*
X121011640Y-84128969D01*
X121091632Y-84103058D01*
X121273588Y-84030906D01*
X122567498Y-84030906D01*
X122827593Y-83885453D01*
X122959856Y-83814762D01*
X123067795Y-83763038D01*
X123130308Y-83740304D01*
X123133843Y-83740000D01*
X123160335Y-83777842D01*
X123175634Y-83892302D01*
X123180000Y-84061113D01*
X123180000Y-84382227D01*
X123450000Y-84355644D01*
X123586979Y-84341141D01*
X123687699Y-84328557D01*
X123730586Y-84320592D01*
X123730660Y-84320537D01*
X123730536Y-84279915D01*
X123721548Y-84177541D01*
X123705390Y-84030961D01*
X123692722Y-83927236D01*
X123669704Y-83750607D01*
X123650872Y-83639574D01*
X123630464Y-83580350D01*
X123602719Y-83559153D01*
X123561876Y-83562198D01*
X123542062Y-83566763D01*
X123436008Y-83599083D01*
X123372629Y-83625533D01*
X123278194Y-83664483D01*
X123219395Y-83658020D01*
X123189686Y-83596809D01*
X123182520Y-83471518D01*
X123186405Y-83360000D01*
X123189739Y-83216759D01*
X123184779Y-83110723D01*
X123172612Y-83061364D01*
X123169636Y-83060000D01*
X123119892Y-83076839D01*
X123021221Y-83120835D01*
X122904060Y-83177950D01*
X122786646Y-83240840D01*
X122707904Y-83300352D01*
X122657996Y-83374807D01*
X122627086Y-83482525D01*
X122605335Y-83641829D01*
X122593963Y-83755453D01*
X122567498Y-84030906D01*
X121273588Y-84030906D01*
X121296908Y-84021659D01*
X121403698Y-83965517D01*
X121867794Y-83965517D01*
X121870482Y-84006342D01*
X121915720Y-84020000D01*
X121977470Y-83987734D01*
X121994465Y-83960000D01*
X122006964Y-83909687D01*
X121974300Y-83906310D01*
X121923271Y-83924279D01*
X121867794Y-83965517D01*
X121403698Y-83965517D01*
X121435928Y-83948573D01*
X121520525Y-83874727D01*
X121562529Y-83791047D01*
X121572022Y-83734620D01*
X121561351Y-83604240D01*
X121522022Y-83541678D01*
X121465933Y-83476923D01*
X121484810Y-83436556D01*
X121579605Y-83419239D01*
X121610000Y-83418398D01*
X121705053Y-83415815D01*
X121727982Y-83405152D01*
X121686659Y-83377749D01*
X121660000Y-83363415D01*
X121540735Y-83321585D01*
X121375371Y-83289578D01*
X121197604Y-83271533D01*
X121041133Y-83271586D01*
X120980185Y-83279959D01*
X120907072Y-83308911D01*
X120844686Y-83370722D01*
X120777840Y-83482871D01*
X120742966Y-83552946D01*
X120675320Y-83714179D01*
X120621454Y-83880249D01*
X120597368Y-83990000D01*
X120570916Y-84180000D01*
X119600000Y-84180000D01*
X119653119Y-84152104D01*
X119660000Y-84128000D01*
X119624419Y-84042463D01*
X119531095Y-83989789D01*
X119454903Y-83980000D01*
X119345106Y-84012305D01*
X119255361Y-84094099D01*
X119197585Y-84202694D01*
X119183692Y-84315404D01*
X119086077Y-84315404D01*
X119107375Y-84226671D01*
X119130958Y-84119610D01*
X119172641Y-83959645D01*
X119183371Y-83921614D01*
X119716041Y-83921614D01*
X119722422Y-83975984D01*
X119746261Y-84024300D01*
X119756671Y-84040533D01*
X119811597Y-84108108D01*
X119851227Y-84129390D01*
X119851757Y-84129161D01*
X119902472Y-84103839D01*
X119994656Y-84056942D01*
X120027993Y-84039871D01*
X120125028Y-83994239D01*
X120183113Y-83986663D01*
X120233064Y-84016055D01*
X120251142Y-84031984D01*
X120336183Y-84090826D01*
X120392596Y-84079308D01*
X120429565Y-83993414D01*
X120438709Y-83950000D01*
X120473111Y-83817921D01*
X120526069Y-83667513D01*
X120545959Y-83620000D01*
X120590846Y-83504463D01*
X120605661Y-83407803D01*
X120593487Y-83291651D01*
X120578469Y-83215356D01*
X120541694Y-83052170D01*
X120505008Y-82958946D01*
X120452387Y-82927283D01*
X120367804Y-82948781D01*
X120235238Y-83015041D01*
X120215904Y-83025304D01*
X119962334Y-83160000D01*
X119826081Y-83549258D01*
X119765427Y-83725544D01*
X119729562Y-83843898D01*
X119716041Y-83921614D01*
X119183371Y-83921614D01*
X119226128Y-83770062D01*
X119257049Y-83666746D01*
X119397670Y-83666746D01*
X119411895Y-83726887D01*
X119479662Y-83762427D01*
X119559197Y-83762045D01*
X119589320Y-83722950D01*
X119635401Y-83625945D01*
X119689082Y-83489333D01*
X119707643Y-83436934D01*
X119759178Y-83274646D01*
X119798054Y-83127968D01*
X119817446Y-83023360D01*
X119818445Y-83007304D01*
X119828805Y-82929059D01*
X119867768Y-82912090D01*
X119899748Y-82919920D01*
X119956879Y-82926959D01*
X119956683Y-82885846D01*
X119955468Y-82882615D01*
X119959790Y-82829803D01*
X119997538Y-82820000D01*
X120083397Y-82785978D01*
X120186132Y-82693948D01*
X120290026Y-82558964D01*
X120319517Y-82511588D01*
X120366783Y-82424386D01*
X120372273Y-82371243D01*
X120336301Y-82318188D01*
X120321467Y-82301621D01*
X120243826Y-82240384D01*
X120182366Y-82220000D01*
X120129811Y-82249390D01*
X120043201Y-82328194D01*
X119937184Y-82442356D01*
X119880089Y-82510000D01*
X119765156Y-82656497D01*
X119684302Y-82780158D01*
X119623412Y-82908866D01*
X119568375Y-83070504D01*
X119530857Y-83200000D01*
X119481802Y-83374143D01*
X119439176Y-83524088D01*
X119408618Y-83630067D01*
X119397670Y-83666746D01*
X119257049Y-83666746D01*
X119274322Y-83609031D01*
X119336954Y-83403776D01*
X119397979Y-83200850D01*
X119449349Y-83027162D01*
X119476768Y-82932035D01*
X119517506Y-82805598D01*
X119556787Y-82712989D01*
X119580008Y-82679995D01*
X119663604Y-82598495D01*
X119751962Y-82466473D01*
X119830549Y-82311046D01*
X119884830Y-82159328D01*
X119899413Y-82084069D01*
X119914913Y-82010383D01*
X120060000Y-82010383D01*
X120091443Y-82044192D01*
X120156830Y-82037221D01*
X120268291Y-82043782D01*
X120380181Y-82106459D01*
X120512239Y-82175670D01*
X120674950Y-82199645D01*
X120703351Y-82200000D01*
X120816379Y-82202529D01*
X120887483Y-82208985D01*
X120900000Y-82213828D01*
X120881850Y-82254127D01*
X120837904Y-82332764D01*
X120835226Y-82337309D01*
X120803267Y-82401148D01*
X120790599Y-82467096D01*
X120797001Y-82558465D01*
X120822254Y-82698565D01*
X120831393Y-82743481D01*
X120861275Y-82899777D01*
X120872243Y-83000725D01*
X120864310Y-83068709D01*
X120837489Y-83126109D01*
X120831620Y-83135532D01*
X120793776Y-83201784D01*
X120810240Y-83219036D01*
X120885452Y-83204578D01*
X120987531Y-83186332D01*
X121133094Y-83166530D01*
X121251867Y-83153420D01*
X121503735Y-83128747D01*
X121478139Y-82844373D01*
X121441676Y-82550334D01*
X121390772Y-82327212D01*
X121323455Y-82166901D01*
X121306744Y-82140000D01*
X121274913Y-82082791D01*
X121502407Y-82082791D01*
X121543167Y-82186172D01*
X121552709Y-82201099D01*
X121609032Y-82310514D01*
X121673220Y-82473236D01*
X121737797Y-82665056D01*
X121795287Y-82861762D01*
X121838212Y-83039146D01*
X121859097Y-83172996D01*
X121860000Y-83196156D01*
X121867131Y-83285158D01*
X121885794Y-83303207D01*
X121911890Y-83257808D01*
X121941322Y-83156466D01*
X121969992Y-83006686D01*
X121972559Y-82990000D01*
X122008021Y-82760333D01*
X122035941Y-82597423D01*
X122059448Y-82488744D01*
X122081672Y-82421767D01*
X122105740Y-82383964D01*
X122128308Y-82366377D01*
X122161911Y-82332300D01*
X122139646Y-82283247D01*
X122112921Y-82252054D01*
X122023491Y-82178273D01*
X121894669Y-82099903D01*
X121755139Y-82031622D01*
X121633586Y-81988110D01*
X121581329Y-81980000D01*
X121515850Y-82008487D01*
X121502407Y-82082791D01*
X121274913Y-82082791D01*
X121258348Y-82053018D01*
X121239495Y-81992656D01*
X121210149Y-81943135D01*
X121138783Y-81880112D01*
X121049206Y-81819258D01*
X120965227Y-81776243D01*
X120910656Y-81766740D01*
X120904093Y-81771890D01*
X120855394Y-81791582D01*
X120747602Y-81810436D01*
X120601580Y-81825066D01*
X120560000Y-81827755D01*
X120334048Y-81852585D01*
X120172332Y-81896346D01*
X120080216Y-81957080D01*
X120060000Y-82010383D01*
X119914913Y-82010383D01*
X119930990Y-81933957D01*
X119996681Y-81828637D01*
X120108115Y-81760355D01*
X120276923Y-81721351D01*
X120466580Y-81705762D01*
X120787760Y-81691176D01*
X120759932Y-81505588D01*
X120724107Y-81332209D01*
X120676256Y-81228307D01*
X120661700Y-81218388D01*
X120800861Y-81218388D01*
X120805754Y-81329476D01*
X120842011Y-81449924D01*
X120900491Y-81553465D01*
X120972058Y-81613828D01*
X121002432Y-81620000D01*
X121040487Y-81601819D01*
X121050206Y-81535443D01*
X121043735Y-81460000D01*
X121039998Y-81360350D01*
X121053958Y-81304409D01*
X121062224Y-81300000D01*
X121087195Y-81264829D01*
X121099674Y-81178350D01*
X121099744Y-81174420D01*
X121163448Y-81174420D01*
X121163452Y-81227232D01*
X121227920Y-81257175D01*
X121266666Y-81260000D01*
X121327777Y-81233063D01*
X121340000Y-81200000D01*
X121308459Y-81155292D01*
X121240602Y-81139920D01*
X121176577Y-81159702D01*
X121163448Y-81174420D01*
X121099744Y-81174420D01*
X121100000Y-81160000D01*
X121086143Y-81062038D01*
X121052767Y-81020389D01*
X121012159Y-81044404D01*
X120994553Y-81079770D01*
X120956078Y-81119838D01*
X120934056Y-81116326D01*
X120876227Y-81119177D01*
X120836469Y-81142930D01*
X120800861Y-81218388D01*
X120661700Y-81218388D01*
X120610656Y-81183606D01*
X120578592Y-81180000D01*
X120491733Y-81152882D01*
X120422968Y-81102968D01*
X120365776Y-81002735D01*
X120373110Y-80966199D01*
X120500000Y-80966199D01*
X120507076Y-81004433D01*
X120538080Y-81013509D01*
X120607675Y-80990770D01*
X120730524Y-80933561D01*
X120760000Y-80919114D01*
X120970959Y-80838962D01*
X121145955Y-80825483D01*
X121260542Y-80860000D01*
X121362866Y-80911206D01*
X121414121Y-80936667D01*
X121498238Y-80964875D01*
X121622282Y-80992521D01*
X121674121Y-81001209D01*
X121790336Y-81013607D01*
X121846465Y-81003343D01*
X121860000Y-80971514D01*
X121833022Y-80903490D01*
X121768939Y-80829861D01*
X121693021Y-80773091D01*
X121630542Y-80755644D01*
X121621202Y-80759257D01*
X121559083Y-80759218D01*
X121476447Y-80721350D01*
X121295479Y-80646860D01*
X121087715Y-80631145D01*
X120881515Y-80675034D01*
X120819713Y-80702196D01*
X120642016Y-80802486D01*
X120537114Y-80887476D01*
X120500166Y-80961164D01*
X120500000Y-80966199D01*
X120373110Y-80966199D01*
X120387420Y-80894917D01*
X120488107Y-80779208D01*
X120668043Y-80655304D01*
X120759681Y-80604727D01*
X120995442Y-80518396D01*
X121225407Y-80506392D01*
X121439205Y-80569128D01*
G37*
G36*
X120527121Y-85334825D02*
G01*
X120664860Y-85369443D01*
X120740491Y-85397980D01*
X120769846Y-85432410D01*
X120768754Y-85484704D01*
X120763308Y-85513457D01*
X120745359Y-85645048D01*
X120740000Y-85745000D01*
X120735231Y-85812058D01*
X120710316Y-85845578D01*
X120649340Y-85848530D01*
X120536389Y-85823878D01*
X120446613Y-85799703D01*
X120331421Y-85765387D01*
X120252185Y-85736826D01*
X120233314Y-85726648D01*
X120226855Y-85679126D01*
X120231363Y-85577941D01*
X120240514Y-85489736D01*
X120267626Y-85272737D01*
X120527121Y-85334825D01*
G37*
D12*
%TO.C,R5*%
X135537742Y-103147500D02*
X136012258Y-103147500D01*
X135537742Y-102102500D02*
X136012258Y-102102500D01*
%TD*%
%LPC*%
D14*
%TO.C,C2*%
X124700000Y-104800000D03*
D15*
X124700000Y-102300000D03*
%TD*%
D16*
%TO.C,C11*%
X137100000Y-95925000D03*
X140050000Y-95925000D03*
%TD*%
D17*
%TO.C,R3*%
X131425000Y-101175000D03*
X129775000Y-101175000D03*
%TD*%
D18*
%TO.C,J5*%
X153900000Y-113150000D03*
X150400000Y-113150000D03*
X146900000Y-113150000D03*
X143400000Y-113150000D03*
X139900000Y-113150000D03*
X136400000Y-113150000D03*
X132900000Y-113150000D03*
D19*
X129400000Y-113150000D03*
%TD*%
D20*
%TO.C,D9*%
X162300000Y-104100000D03*
X160425000Y-104100000D03*
%TD*%
D21*
%TO.C,REF\u002A\u002A*%
X122000000Y-115000000D03*
%TD*%
D22*
%TO.C,R7*%
X144500000Y-93100000D03*
X144500000Y-91450000D03*
%TD*%
D23*
%TO.C,D7*%
X146400000Y-93262500D03*
X146400000Y-91387500D03*
%TD*%
D24*
%TO.C,U4*%
X142798000Y-88660000D03*
D25*
X149098000Y-86360000D03*
D24*
X142798000Y-86360000D03*
X142798000Y-84060000D03*
%TD*%
D26*
%TO.C,SW3*%
X173250000Y-104800000D03*
X179550000Y-104800000D03*
X173250000Y-108600000D03*
X179550000Y-108600000D03*
%TD*%
D27*
%TO.C,D6*%
X161000000Y-111400000D03*
X161000000Y-107400000D03*
%TD*%
D28*
%TO.C,L2*%
X139750000Y-91675000D03*
X135650000Y-91675000D03*
%TD*%
D29*
%TO.C,C6*%
X162050000Y-81025000D03*
X162050000Y-82575000D03*
%TD*%
D30*
%TO.C,R8*%
X177100000Y-82175000D03*
X177100000Y-83825000D03*
%TD*%
D31*
%TO.C,D2*%
X174850000Y-100800000D03*
X174850000Y-97500000D03*
X179750000Y-97500000D03*
X179750000Y-100800000D03*
%TD*%
D32*
%TO.C,C8*%
X137050000Y-99500000D03*
X137050000Y-97950000D03*
%TD*%
D29*
%TO.C,C5*%
X154250000Y-86750000D03*
X154250000Y-88300000D03*
%TD*%
D33*
%TO.C,R4*%
X133175000Y-101125000D03*
X134825000Y-101125000D03*
%TD*%
D34*
%TO.C,J3*%
X164220000Y-116250000D03*
X164870000Y-116250000D03*
X165520000Y-116250000D03*
X166170000Y-116250000D03*
X166820000Y-116250000D03*
D35*
X162570000Y-117450000D03*
D36*
X162670000Y-116150000D03*
D37*
X162790000Y-118200000D03*
D38*
X162790000Y-119130000D03*
D39*
X163100000Y-116130000D03*
D40*
X164560000Y-119400000D03*
X166480000Y-119400000D03*
D39*
X167940000Y-116130000D03*
D38*
X168250000Y-119130000D03*
D37*
X168270000Y-118200000D03*
D36*
X168420000Y-116130000D03*
D35*
X168520000Y-117450000D03*
%TD*%
D22*
%TO.C,R2*%
X124200000Y-94950000D03*
X124200000Y-93300000D03*
%TD*%
D41*
%TO.C,D4*%
X126600000Y-87000000D03*
X126600000Y-91000000D03*
%TD*%
D42*
%TO.C,U3*%
X132425000Y-97580000D03*
D43*
X134900000Y-95675000D03*
X134900000Y-96945000D03*
X134900000Y-98215000D03*
X134900000Y-99485000D03*
X129950000Y-99485000D03*
X129950000Y-98215000D03*
X129950000Y-96945000D03*
X129950000Y-95675000D03*
%TD*%
D44*
%TO.C,L1*%
X126800000Y-96525000D03*
X126800000Y-93725000D03*
%TD*%
D29*
%TO.C,C4*%
X155850000Y-86750000D03*
X155850000Y-88300000D03*
%TD*%
%TO.C,C3*%
X173500000Y-82275000D03*
X173500000Y-83825000D03*
%TD*%
D45*
%TO.C,C14*%
X179750000Y-102800000D03*
X178200000Y-102800000D03*
%TD*%
D46*
%TO.C,J1*%
X130900000Y-75300000D03*
X135900000Y-75300000D03*
X140900000Y-75300000D03*
D47*
X145900000Y-75300000D03*
%TD*%
D22*
%TO.C,R1*%
X175150000Y-83875000D03*
X175150000Y-82225000D03*
%TD*%
D29*
%TO.C,C9*%
X129750000Y-92575000D03*
X129750000Y-94125000D03*
%TD*%
D48*
%TO.C,U2*%
X164200000Y-108200000D03*
X165150000Y-108200000D03*
X166100000Y-108200000D03*
X166100000Y-110475000D03*
X165150000Y-110475000D03*
X164200000Y-110475000D03*
%TD*%
D41*
%TO.C,D5*%
X132400000Y-89375000D03*
X132400000Y-93375000D03*
%TD*%
D29*
%TO.C,C13*%
X140500000Y-84450000D03*
X140500000Y-86000000D03*
%TD*%
D21*
%TO.C,REF\u002A\u002A*%
X177000000Y-75000000D03*
%TD*%
%TO.C,REF\u002A\u002A*%
X177000000Y-115000000D03*
%TD*%
D49*
%TO.C,D3*%
X136750000Y-84475000D03*
X129950000Y-84475000D03*
%TD*%
D23*
%TO.C,D8*%
X179100000Y-83937500D03*
X179100000Y-82062500D03*
%TD*%
D50*
%TO.C,U5*%
X154050000Y-105350000D03*
X152780000Y-105350000D03*
X151510000Y-105350000D03*
X150240000Y-105350000D03*
X150240000Y-100400000D03*
X151510000Y-100400000D03*
X152780000Y-100400000D03*
X154050000Y-100400000D03*
%TD*%
D51*
%TO.C,U1*%
X171700000Y-86100000D03*
X171700000Y-100100000D03*
X157700000Y-100100000D03*
X157700000Y-86100000D03*
D52*
X166350000Y-94750000D03*
X166350000Y-93100000D03*
X166350000Y-91450000D03*
X164700000Y-94750000D03*
X164700000Y-93100000D03*
X164700000Y-91450000D03*
X163050000Y-94750000D03*
X163050000Y-93100000D03*
D53*
X163050000Y-91450000D03*
D54*
X158750000Y-86100000D03*
X159600000Y-86100000D03*
X160450000Y-86100000D03*
X161300000Y-86100000D03*
X162150000Y-86100000D03*
X163000000Y-86100000D03*
X163850000Y-86100000D03*
X164700000Y-86100000D03*
X165550000Y-86100000D03*
X166400000Y-86100000D03*
X167250000Y-86100000D03*
X168100000Y-86100000D03*
X168950000Y-86100000D03*
X169800000Y-86100000D03*
X170650000Y-86100000D03*
D55*
X171700000Y-87150000D03*
X171700000Y-88000000D03*
X171700000Y-88850000D03*
X171700000Y-89700000D03*
X171700000Y-90550000D03*
X171700000Y-91400000D03*
X171700000Y-92250000D03*
X171700000Y-93100000D03*
X171700000Y-93950000D03*
X171700000Y-94800000D03*
X171700000Y-95650000D03*
X171700000Y-96500000D03*
X171700000Y-97350000D03*
X171700000Y-98200000D03*
X171700000Y-99050000D03*
D54*
X170650000Y-100100000D03*
X169800000Y-100100000D03*
X168950000Y-100100000D03*
X168100000Y-100100000D03*
X167250000Y-100100000D03*
X166400000Y-100100000D03*
X165550000Y-100100000D03*
X164700000Y-100100000D03*
X163850000Y-100100000D03*
X163000000Y-100100000D03*
X162150000Y-100100000D03*
X161300000Y-100100000D03*
X160450000Y-100100000D03*
X159600000Y-100100000D03*
X158750000Y-100100000D03*
D55*
X157700000Y-99050000D03*
X157700000Y-98200000D03*
X157700000Y-97350000D03*
X157700000Y-96500000D03*
X157700000Y-95650000D03*
X157700000Y-94800000D03*
X157700000Y-93950000D03*
X157700000Y-93100000D03*
X157700000Y-92250000D03*
X157700000Y-91400000D03*
X157700000Y-90550000D03*
X157700000Y-89700000D03*
X157700000Y-88850000D03*
X157700000Y-88000000D03*
X157700000Y-87150000D03*
%TD*%
D26*
%TO.C,SW1*%
X165300000Y-80050000D03*
X171600000Y-80050000D03*
X165300000Y-83850000D03*
X171600000Y-83850000D03*
%TD*%
D56*
%TO.C,C15*%
X178450000Y-95500000D03*
X180000000Y-95500000D03*
%TD*%
%TO.C,C7*%
X126100000Y-98225000D03*
X127650000Y-98225000D03*
%TD*%
%TO.C,C10*%
X136350000Y-101075000D03*
X137900000Y-101075000D03*
%TD*%
D31*
%TO.C,D1*%
X174900000Y-93500000D03*
X174900000Y-90200000D03*
X179800000Y-90200000D03*
X179800000Y-93500000D03*
%TD*%
D32*
%TO.C,C1*%
X124250000Y-98050000D03*
X124250000Y-96500000D03*
%TD*%
D26*
%TO.C,SW2*%
X153675000Y-80000000D03*
X159975000Y-80000000D03*
X153675000Y-83800000D03*
X159975000Y-83800000D03*
%TD*%
D17*
%TO.C,R9*%
X162125000Y-102200000D03*
X160475000Y-102200000D03*
%TD*%
D57*
%TO.C,C12*%
X142250000Y-94625000D03*
X142250000Y-91675000D03*
%TD*%
D17*
%TO.C,R6*%
X152945000Y-107825000D03*
X151295000Y-107825000D03*
%TD*%
D21*
%TO.C,REF\u002A\u002A*%
X122000000Y-75000000D03*
%TD*%
D17*
%TO.C,R5*%
X136600000Y-102625000D03*
X134950000Y-102625000D03*
%TD*%
%LPD*%
M02*
