M48
; DRILL file {KiCad 8.0.5} date 2024-12-11T15:25:16-0800
; FORMAT={-:-/ absolute / inch / decimal}
; #@! TF.CreationDate,2024-12-11T15:25:16-08:00
; #@! TF.GenerationSoftware,Kicad,Pcbnew,8.0.5
; #@! TF.FileFunction,Plated,1,2,PTH
FMAT,2
INCH
; #@! TA.AperFunction,Plated,PTH,ViaDrill
T1C0.0118
; #@! TA.AperFunction,Plated,PTH,ComponentDrill
T2C0.0256
; #@! TA.AperFunction,Plated,PTH,ComponentDrill
T3C0.0276
; #@! TA.AperFunction,Plated,PTH,ComponentDrill
T4C0.0315
; #@! TA.AperFunction,Plated,PTH,ComponentDrill
T5C0.0472
; #@! TA.AperFunction,Plated,PTH,ComponentDrill
T6C0.0512
%
G90
G05
T1
X4.8268Y-3.878
X5.189Y-3.7598
X5.189Y-3.9252
X5.2047Y-4.0512
X5.2362Y-3.7598
X5.2402Y-3.9252
X5.315Y-3.4764
X5.4528Y-3.874
X5.4685Y-3.252
X5.5315Y-3.2717
X5.6024Y-3.7874
X5.622Y-3.2283
X5.8622Y-3.6024
X5.9764Y-3.1929
X5.985Y-3.515
X6.0079Y-3.7795
X6.1063Y-3.3661
X6.1142Y-4.1535
X6.1181Y-4.0276
X6.2087Y-3.9961
X6.252Y-3.4646
X6.2598Y-4.0906
X6.2982Y-3.3337
X6.2992Y-3.437
X6.3543Y-3.6614
X6.3701Y-3.1496
X6.4016Y-4.5051
X6.4173Y-3.5472
X6.4173Y-3.7913
X6.4409Y-3.1496
X6.4803Y-3.7913
X6.4843Y-3.4449
X6.4843Y-3.5512
X6.5039Y-4.4016
X6.5472Y-3.7913
X6.5492Y-3.5453
X6.6181Y-3.6654
X6.6181Y-4.5012
X6.7165Y-3.4409
X6.7598Y-4.0039
X6.8189Y-3.5079
X6.8228Y-4.3445
X6.8268Y-3.7913
X6.8307Y-3.185
X6.9685Y-4.0472
X6.9764Y-3.7559
X7.1102Y-3.1614
T4
X4.9094Y-4.0276
X4.9094Y-4.126
T5
X5.0945Y-4.4547
X5.2323Y-4.4547
X5.3701Y-4.4547
X5.5079Y-4.4547
X5.6457Y-4.4547
X5.7835Y-4.4547
X5.9213Y-4.4547
X6.0591Y-4.4547
T6
X5.1535Y-2.9646
X5.3504Y-2.9646
X5.5472Y-2.9646
X5.7441Y-2.9646
T2
G00X6.4213Y-4.5799
M15
G01X6.4213Y-4.5642
M16
G05
G00X6.6118Y-4.5799
M15
G01X6.6118Y-4.5642
M16
G05
T3
G00X6.4091Y-4.7
M15
G01X6.4091Y-4.6803
M16
G05
G00X6.624Y-4.7
M15
G01X6.624Y-4.6803
M16
G05
M30
