%TF.GenerationSoftware,KiCad,Pcbnew,8.0.5*%
%TF.CreationDate,2024-12-11T15:25:16-08:00*%
%TF.ProjectId,ESP32-Proto,45535033-322d-4507-926f-746f2e6b6963,rev?*%
%TF.SameCoordinates,Original*%
%TF.FileFunction,Soldermask,Top*%
%TF.FilePolarity,Negative*%
%FSLAX46Y46*%
G04 Gerber Fmt 4.6, Leading zero omitted, Abs format (unit mm)*
G04 Created by KiCad (PCBNEW 8.0.5) date 2024-12-11 15:25:16*
%MOMM*%
%LPD*%
G01*
G04 APERTURE LIST*
G04 Aperture macros list*
%AMRoundRect*
0 Rectangle with rounded corners*
0 $1 Rounding radius*
0 $2 $3 $4 $5 $6 $7 $8 $9 X,Y pos of 4 corners*
0 Add a 4 corners polygon primitive as box body*
4,1,4,$2,$3,$4,$5,$6,$7,$8,$9,$2,$3,0*
0 Add four circle primitives for the rounded corners*
1,1,$1+$1,$2,$3*
1,1,$1+$1,$4,$5*
1,1,$1+$1,$6,$7*
1,1,$1+$1,$8,$9*
0 Add four rect primitives between the rounded corners*
20,1,$1+$1,$2,$3,$4,$5,0*
20,1,$1+$1,$4,$5,$6,$7,0*
20,1,$1+$1,$6,$7,$8,$9,0*
20,1,$1+$1,$8,$9,$2,$3,0*%
%AMFreePoly0*
4,1,6,0.600000,-0.600000,-0.600000,-0.600000,-0.600000,0.000000,0.000000,0.600000,0.600000,0.600000,0.600000,-0.600000,0.600000,-0.600000,$1*%
G04 Aperture macros list end*
%ADD10C,1.600000*%
%ADD11R,1.600000X1.600000*%
%ADD12RoundRect,0.250000X0.325000X0.650000X-0.325000X0.650000X-0.325000X-0.650000X0.325000X-0.650000X0*%
%ADD13RoundRect,0.200000X-0.200000X-0.275000X0.200000X-0.275000X0.200000X0.275000X-0.200000X0.275000X0*%
%ADD14C,2.400000*%
%ADD15R,2.400000X2.400000*%
%ADD16RoundRect,0.243750X-0.243750X-0.456250X0.243750X-0.456250X0.243750X0.456250X-0.243750X0.456250X0*%
%ADD17C,3.500000*%
%ADD18RoundRect,0.200000X-0.275000X0.200000X-0.275000X-0.200000X0.275000X-0.200000X0.275000X0.200000X0*%
%ADD19RoundRect,0.243750X-0.456250X0.243750X-0.456250X-0.243750X0.456250X-0.243750X0.456250X0.243750X0*%
%ADD20RoundRect,0.375000X-0.625000X-0.375000X0.625000X-0.375000X0.625000X0.375000X-0.625000X0.375000X0*%
%ADD21RoundRect,0.500000X-0.500000X-1.400000X0.500000X-1.400000X0.500000X1.400000X-0.500000X1.400000X0*%
%ADD22R,1.700000X1.000000*%
%ADD23RoundRect,0.250000X-0.650000X1.000000X-0.650000X-1.000000X0.650000X-1.000000X0.650000X1.000000X0*%
%ADD24R,1.900000X2.500000*%
%ADD25RoundRect,0.225000X0.250000X-0.225000X0.250000X0.225000X-0.250000X0.225000X-0.250000X-0.225000X0*%
%ADD26RoundRect,0.200000X0.275000X-0.200000X0.275000X0.200000X-0.275000X0.200000X-0.275000X-0.200000X0*%
%ADD27R,1.500000X0.900000*%
%ADD28RoundRect,0.225000X-0.250000X0.225000X-0.250000X-0.225000X0.250000X-0.225000X0.250000X0.225000X0*%
%ADD29RoundRect,0.200000X0.200000X0.275000X-0.200000X0.275000X-0.200000X-0.275000X0.200000X-0.275000X0*%
%ADD30R,0.400000X1.650000*%
%ADD31R,1.825000X0.700000*%
%ADD32R,2.000000X1.500000*%
%ADD33R,1.350000X2.000000*%
%ADD34O,1.350000X1.700000*%
%ADD35O,1.100000X1.500000*%
%ADD36R,1.430000X2.500000*%
%ADD37RoundRect,0.250000X0.650000X-1.000000X0.650000X1.000000X-0.650000X1.000000X-0.650000X-1.000000X0*%
%ADD38R,2.290000X3.000000*%
%ADD39RoundRect,0.150000X-0.825000X-0.150000X0.825000X-0.150000X0.825000X0.150000X-0.825000X0.150000X0*%
%ADD40RoundRect,0.250000X-1.075000X0.375000X-1.075000X-0.375000X1.075000X-0.375000X1.075000X0.375000X0*%
%ADD41RoundRect,0.225000X-0.225000X-0.250000X0.225000X-0.250000X0.225000X0.250000X-0.225000X0.250000X0*%
%ADD42C,2.600000*%
%ADD43R,2.600000X2.600000*%
%ADD44RoundRect,0.150000X0.150000X-0.512500X0.150000X0.512500X-0.150000X0.512500X-0.150000X-0.512500X0*%
%ADD45RoundRect,0.250000X1.000000X-1.400000X1.000000X1.400000X-1.000000X1.400000X-1.000000X-1.400000X0*%
%ADD46RoundRect,0.150000X-0.150000X0.825000X-0.150000X-0.825000X0.150000X-0.825000X0.150000X0.825000X0*%
%ADD47R,0.800000X0.800000*%
%ADD48R,1.200000X1.200000*%
%ADD49FreePoly0,0.000000*%
%ADD50R,0.400000X0.800000*%
%ADD51R,0.800000X0.400000*%
%ADD52RoundRect,0.225000X0.225000X0.250000X-0.225000X0.250000X-0.225000X-0.250000X0.225000X-0.250000X0*%
%ADD53RoundRect,0.250000X-0.650000X0.325000X-0.650000X-0.325000X0.650000X-0.325000X0.650000X0.325000X0*%
G04 APERTURE END LIST*
D10*
%TO.C,C2*%
X124700000Y-104800000D03*
D11*
X124700000Y-102300000D03*
%TD*%
D12*
%TO.C,C11*%
X137100000Y-95925000D03*
X140050000Y-95925000D03*
%TD*%
D13*
%TO.C,R3*%
X131425000Y-101175000D03*
X129775000Y-101175000D03*
%TD*%
D14*
%TO.C,J5*%
X153900000Y-113150000D03*
X150400000Y-113150000D03*
X146900000Y-113150000D03*
X143400000Y-113150000D03*
X139900000Y-113150000D03*
X136400000Y-113150000D03*
X132900000Y-113150000D03*
D15*
X129400000Y-113150000D03*
%TD*%
D16*
%TO.C,D9*%
X162300000Y-104100000D03*
X160425000Y-104100000D03*
%TD*%
D17*
%TO.C,REF\u002A\u002A*%
X122000000Y-115000000D03*
%TD*%
D18*
%TO.C,R7*%
X144500000Y-93100000D03*
X144500000Y-91450000D03*
%TD*%
D19*
%TO.C,D7*%
X146400000Y-93262500D03*
X146400000Y-91387500D03*
%TD*%
D20*
%TO.C,U4*%
X142798000Y-88660000D03*
D21*
X149098000Y-86360000D03*
D20*
X142798000Y-86360000D03*
X142798000Y-84060000D03*
%TD*%
D22*
%TO.C,SW3*%
X173250000Y-104800000D03*
X179550000Y-104800000D03*
X173250000Y-108600000D03*
X179550000Y-108600000D03*
%TD*%
D23*
%TO.C,D6*%
X161000000Y-111400000D03*
X161000000Y-107400000D03*
%TD*%
D24*
%TO.C,L2*%
X139750000Y-91675000D03*
X135650000Y-91675000D03*
%TD*%
D25*
%TO.C,C6*%
X162050000Y-81025000D03*
X162050000Y-82575000D03*
%TD*%
D26*
%TO.C,R8*%
X177100000Y-82175000D03*
X177100000Y-83825000D03*
%TD*%
D27*
%TO.C,D2*%
X174850000Y-100800000D03*
X174850000Y-97500000D03*
X179750000Y-97500000D03*
X179750000Y-100800000D03*
%TD*%
D28*
%TO.C,C8*%
X137050000Y-99500000D03*
X137050000Y-97950000D03*
%TD*%
D25*
%TO.C,C5*%
X154250000Y-86750000D03*
X154250000Y-88300000D03*
%TD*%
D29*
%TO.C,R4*%
X133175000Y-101125000D03*
X134825000Y-101125000D03*
%TD*%
D30*
%TO.C,J3*%
X164220000Y-116250000D03*
X164870000Y-116250000D03*
X165520000Y-116250000D03*
X166170000Y-116250000D03*
X166820000Y-116250000D03*
D31*
X162570000Y-117450000D03*
D32*
X162670000Y-116150000D03*
D33*
X162790000Y-118200000D03*
D34*
X162790000Y-119130000D03*
D35*
X163100000Y-116130000D03*
D36*
X164560000Y-119400000D03*
X166480000Y-119400000D03*
D35*
X167940000Y-116130000D03*
D34*
X168250000Y-119130000D03*
D33*
X168270000Y-118200000D03*
D32*
X168420000Y-116130000D03*
D31*
X168520000Y-117450000D03*
%TD*%
D18*
%TO.C,R2*%
X124200000Y-94950000D03*
X124200000Y-93300000D03*
%TD*%
D37*
%TO.C,D4*%
X126600000Y-87000000D03*
X126600000Y-91000000D03*
%TD*%
D38*
%TO.C,U3*%
X132425000Y-97580000D03*
D39*
X134900000Y-95675000D03*
X134900000Y-96945000D03*
X134900000Y-98215000D03*
X134900000Y-99485000D03*
X129950000Y-99485000D03*
X129950000Y-98215000D03*
X129950000Y-96945000D03*
X129950000Y-95675000D03*
%TD*%
D40*
%TO.C,L1*%
X126800000Y-96525000D03*
X126800000Y-93725000D03*
%TD*%
D25*
%TO.C,C4*%
X155850000Y-86750000D03*
X155850000Y-88300000D03*
%TD*%
%TO.C,C3*%
X173500000Y-82275000D03*
X173500000Y-83825000D03*
%TD*%
D41*
%TO.C,C14*%
X179750000Y-102800000D03*
X178200000Y-102800000D03*
%TD*%
D42*
%TO.C,J1*%
X130900000Y-75300000D03*
X135900000Y-75300000D03*
X140900000Y-75300000D03*
D43*
X145900000Y-75300000D03*
%TD*%
D18*
%TO.C,R1*%
X175150000Y-83875000D03*
X175150000Y-82225000D03*
%TD*%
D25*
%TO.C,C9*%
X129750000Y-92575000D03*
X129750000Y-94125000D03*
%TD*%
D44*
%TO.C,U2*%
X164200000Y-108200000D03*
X165150000Y-108200000D03*
X166100000Y-108200000D03*
X166100000Y-110475000D03*
X165150000Y-110475000D03*
X164200000Y-110475000D03*
%TD*%
D37*
%TO.C,D5*%
X132400000Y-89375000D03*
X132400000Y-93375000D03*
%TD*%
D25*
%TO.C,C13*%
X140500000Y-84450000D03*
X140500000Y-86000000D03*
%TD*%
D17*
%TO.C,REF\u002A\u002A*%
X177000000Y-75000000D03*
%TD*%
%TO.C,REF\u002A\u002A*%
X177000000Y-115000000D03*
%TD*%
D45*
%TO.C,D3*%
X136750000Y-84475000D03*
X129950000Y-84475000D03*
%TD*%
D19*
%TO.C,D8*%
X179100000Y-83937500D03*
X179100000Y-82062500D03*
%TD*%
D46*
%TO.C,U5*%
X154050000Y-105350000D03*
X152780000Y-105350000D03*
X151510000Y-105350000D03*
X150240000Y-105350000D03*
X150240000Y-100400000D03*
X151510000Y-100400000D03*
X152780000Y-100400000D03*
X154050000Y-100400000D03*
%TD*%
D47*
%TO.C,U1*%
X171700000Y-86100000D03*
X171700000Y-100100000D03*
X157700000Y-100100000D03*
X157700000Y-86100000D03*
D48*
X166350000Y-94750000D03*
X166350000Y-93100000D03*
X166350000Y-91450000D03*
X164700000Y-94750000D03*
X164700000Y-93100000D03*
X164700000Y-91450000D03*
X163050000Y-94750000D03*
X163050000Y-93100000D03*
D49*
X163050000Y-91450000D03*
D50*
X158750000Y-86100000D03*
X159600000Y-86100000D03*
X160450000Y-86100000D03*
X161300000Y-86100000D03*
X162150000Y-86100000D03*
X163000000Y-86100000D03*
X163850000Y-86100000D03*
X164700000Y-86100000D03*
X165550000Y-86100000D03*
X166400000Y-86100000D03*
X167250000Y-86100000D03*
X168100000Y-86100000D03*
X168950000Y-86100000D03*
X169800000Y-86100000D03*
X170650000Y-86100000D03*
D51*
X171700000Y-87150000D03*
X171700000Y-88000000D03*
X171700000Y-88850000D03*
X171700000Y-89700000D03*
X171700000Y-90550000D03*
X171700000Y-91400000D03*
X171700000Y-92250000D03*
X171700000Y-93100000D03*
X171700000Y-93950000D03*
X171700000Y-94800000D03*
X171700000Y-95650000D03*
X171700000Y-96500000D03*
X171700000Y-97350000D03*
X171700000Y-98200000D03*
X171700000Y-99050000D03*
D50*
X170650000Y-100100000D03*
X169800000Y-100100000D03*
X168950000Y-100100000D03*
X168100000Y-100100000D03*
X167250000Y-100100000D03*
X166400000Y-100100000D03*
X165550000Y-100100000D03*
X164700000Y-100100000D03*
X163850000Y-100100000D03*
X163000000Y-100100000D03*
X162150000Y-100100000D03*
X161300000Y-100100000D03*
X160450000Y-100100000D03*
X159600000Y-100100000D03*
X158750000Y-100100000D03*
D51*
X157700000Y-99050000D03*
X157700000Y-98200000D03*
X157700000Y-97350000D03*
X157700000Y-96500000D03*
X157700000Y-95650000D03*
X157700000Y-94800000D03*
X157700000Y-93950000D03*
X157700000Y-93100000D03*
X157700000Y-92250000D03*
X157700000Y-91400000D03*
X157700000Y-90550000D03*
X157700000Y-89700000D03*
X157700000Y-88850000D03*
X157700000Y-88000000D03*
X157700000Y-87150000D03*
%TD*%
D22*
%TO.C,SW1*%
X165300000Y-80050000D03*
X171600000Y-80050000D03*
X165300000Y-83850000D03*
X171600000Y-83850000D03*
%TD*%
D52*
%TO.C,C15*%
X178450000Y-95500000D03*
X180000000Y-95500000D03*
%TD*%
%TO.C,C7*%
X126100000Y-98225000D03*
X127650000Y-98225000D03*
%TD*%
%TO.C,C10*%
X136350000Y-101075000D03*
X137900000Y-101075000D03*
%TD*%
D27*
%TO.C,D1*%
X174900000Y-93500000D03*
X174900000Y-90200000D03*
X179800000Y-90200000D03*
X179800000Y-93500000D03*
%TD*%
D28*
%TO.C,C1*%
X124250000Y-98050000D03*
X124250000Y-96500000D03*
%TD*%
D22*
%TO.C,SW2*%
X153675000Y-80000000D03*
X159975000Y-80000000D03*
X153675000Y-83800000D03*
X159975000Y-83800000D03*
%TD*%
D13*
%TO.C,R9*%
X162125000Y-102200000D03*
X160475000Y-102200000D03*
%TD*%
D53*
%TO.C,C12*%
X142250000Y-94625000D03*
X142250000Y-91675000D03*
%TD*%
D13*
%TO.C,R6*%
X152945000Y-107825000D03*
X151295000Y-107825000D03*
%TD*%
D17*
%TO.C,REF\u002A\u002A*%
X122000000Y-75000000D03*
%TD*%
D13*
%TO.C,R5*%
X136600000Y-102625000D03*
X134950000Y-102625000D03*
%TD*%
M02*
