%TF.GenerationSoftware,KiCad,Pcbnew,8.0.5*%
%TF.CreationDate,2024-12-11T15:25:16-08:00*%
%TF.ProjectId,ESP32-Proto,45535033-322d-4507-926f-746f2e6b6963,rev?*%
%TF.SameCoordinates,Original*%
%TF.FileFunction,Copper,L1,Top*%
%TF.FilePolarity,Positive*%
%FSLAX46Y46*%
G04 Gerber Fmt 4.6, Leading zero omitted, Abs format (unit mm)*
G04 Created by KiCad (PCBNEW 8.0.5) date 2024-12-11 15:25:16*
%MOMM*%
%LPD*%
G01*
G04 APERTURE LIST*
G04 Aperture macros list*
%AMRoundRect*
0 Rectangle with rounded corners*
0 $1 Rounding radius*
0 $2 $3 $4 $5 $6 $7 $8 $9 X,Y pos of 4 corners*
0 Add a 4 corners polygon primitive as box body*
4,1,4,$2,$3,$4,$5,$6,$7,$8,$9,$2,$3,0*
0 Add four circle primitives for the rounded corners*
1,1,$1+$1,$2,$3*
1,1,$1+$1,$4,$5*
1,1,$1+$1,$6,$7*
1,1,$1+$1,$8,$9*
0 Add four rect primitives between the rounded corners*
20,1,$1+$1,$2,$3,$4,$5,0*
20,1,$1+$1,$4,$5,$6,$7,0*
20,1,$1+$1,$6,$7,$8,$9,0*
20,1,$1+$1,$8,$9,$2,$3,0*%
%AMFreePoly0*
4,1,6,0.600000,-0.600000,-0.600000,-0.600000,-0.600000,0.000000,0.000000,0.600000,0.600000,0.600000,0.600000,-0.600000,0.600000,-0.600000,$1*%
G04 Aperture macros list end*
%TA.AperFunction,ComponentPad*%
%ADD10C,1.600000*%
%TD*%
%TA.AperFunction,ComponentPad*%
%ADD11R,1.600000X1.600000*%
%TD*%
%TA.AperFunction,SMDPad,CuDef*%
%ADD12RoundRect,0.250000X0.325000X0.650000X-0.325000X0.650000X-0.325000X-0.650000X0.325000X-0.650000X0*%
%TD*%
%TA.AperFunction,SMDPad,CuDef*%
%ADD13RoundRect,0.200000X-0.200000X-0.275000X0.200000X-0.275000X0.200000X0.275000X-0.200000X0.275000X0*%
%TD*%
%TA.AperFunction,ComponentPad*%
%ADD14C,2.400000*%
%TD*%
%TA.AperFunction,ComponentPad*%
%ADD15R,2.400000X2.400000*%
%TD*%
%TA.AperFunction,SMDPad,CuDef*%
%ADD16RoundRect,0.243750X-0.243750X-0.456250X0.243750X-0.456250X0.243750X0.456250X-0.243750X0.456250X0*%
%TD*%
%TA.AperFunction,SMDPad,CuDef*%
%ADD17RoundRect,0.200000X-0.275000X0.200000X-0.275000X-0.200000X0.275000X-0.200000X0.275000X0.200000X0*%
%TD*%
%TA.AperFunction,SMDPad,CuDef*%
%ADD18RoundRect,0.243750X-0.456250X0.243750X-0.456250X-0.243750X0.456250X-0.243750X0.456250X0.243750X0*%
%TD*%
%TA.AperFunction,SMDPad,CuDef*%
%ADD19RoundRect,0.375000X-0.625000X-0.375000X0.625000X-0.375000X0.625000X0.375000X-0.625000X0.375000X0*%
%TD*%
%TA.AperFunction,SMDPad,CuDef*%
%ADD20RoundRect,0.500000X-0.500000X-1.400000X0.500000X-1.400000X0.500000X1.400000X-0.500000X1.400000X0*%
%TD*%
%TA.AperFunction,SMDPad,CuDef*%
%ADD21R,1.700000X1.000000*%
%TD*%
%TA.AperFunction,SMDPad,CuDef*%
%ADD22RoundRect,0.250000X-0.650000X1.000000X-0.650000X-1.000000X0.650000X-1.000000X0.650000X1.000000X0*%
%TD*%
%TA.AperFunction,SMDPad,CuDef*%
%ADD23R,1.900000X2.500000*%
%TD*%
%TA.AperFunction,SMDPad,CuDef*%
%ADD24RoundRect,0.225000X0.250000X-0.225000X0.250000X0.225000X-0.250000X0.225000X-0.250000X-0.225000X0*%
%TD*%
%TA.AperFunction,SMDPad,CuDef*%
%ADD25RoundRect,0.200000X0.275000X-0.200000X0.275000X0.200000X-0.275000X0.200000X-0.275000X-0.200000X0*%
%TD*%
%TA.AperFunction,SMDPad,CuDef*%
%ADD26R,1.500000X0.900000*%
%TD*%
%TA.AperFunction,SMDPad,CuDef*%
%ADD27RoundRect,0.225000X-0.250000X0.225000X-0.250000X-0.225000X0.250000X-0.225000X0.250000X0.225000X0*%
%TD*%
%TA.AperFunction,SMDPad,CuDef*%
%ADD28RoundRect,0.200000X0.200000X0.275000X-0.200000X0.275000X-0.200000X-0.275000X0.200000X-0.275000X0*%
%TD*%
%TA.AperFunction,SMDPad,CuDef*%
%ADD29R,0.400000X1.650000*%
%TD*%
%TA.AperFunction,SMDPad,CuDef*%
%ADD30R,1.825000X0.700000*%
%TD*%
%TA.AperFunction,SMDPad,CuDef*%
%ADD31R,2.000000X1.500000*%
%TD*%
%TA.AperFunction,SMDPad,CuDef*%
%ADD32R,1.350000X2.000000*%
%TD*%
%TA.AperFunction,ComponentPad*%
%ADD33O,1.350000X1.700000*%
%TD*%
%TA.AperFunction,ComponentPad*%
%ADD34O,1.100000X1.500000*%
%TD*%
%TA.AperFunction,SMDPad,CuDef*%
%ADD35R,1.430000X2.500000*%
%TD*%
%TA.AperFunction,SMDPad,CuDef*%
%ADD36RoundRect,0.250000X0.650000X-1.000000X0.650000X1.000000X-0.650000X1.000000X-0.650000X-1.000000X0*%
%TD*%
%TA.AperFunction,HeatsinkPad*%
%ADD37R,2.290000X3.000000*%
%TD*%
%TA.AperFunction,SMDPad,CuDef*%
%ADD38RoundRect,0.150000X-0.825000X-0.150000X0.825000X-0.150000X0.825000X0.150000X-0.825000X0.150000X0*%
%TD*%
%TA.AperFunction,SMDPad,CuDef*%
%ADD39RoundRect,0.250000X-1.075000X0.375000X-1.075000X-0.375000X1.075000X-0.375000X1.075000X0.375000X0*%
%TD*%
%TA.AperFunction,SMDPad,CuDef*%
%ADD40RoundRect,0.225000X-0.225000X-0.250000X0.225000X-0.250000X0.225000X0.250000X-0.225000X0.250000X0*%
%TD*%
%TA.AperFunction,ComponentPad*%
%ADD41C,2.600000*%
%TD*%
%TA.AperFunction,ComponentPad*%
%ADD42R,2.600000X2.600000*%
%TD*%
%TA.AperFunction,SMDPad,CuDef*%
%ADD43RoundRect,0.150000X0.150000X-0.512500X0.150000X0.512500X-0.150000X0.512500X-0.150000X-0.512500X0*%
%TD*%
%TA.AperFunction,SMDPad,CuDef*%
%ADD44RoundRect,0.250000X1.000000X-1.400000X1.000000X1.400000X-1.000000X1.400000X-1.000000X-1.400000X0*%
%TD*%
%TA.AperFunction,SMDPad,CuDef*%
%ADD45RoundRect,0.150000X-0.150000X0.825000X-0.150000X-0.825000X0.150000X-0.825000X0.150000X0.825000X0*%
%TD*%
%TA.AperFunction,SMDPad,CuDef*%
%ADD46R,0.800000X0.800000*%
%TD*%
%TA.AperFunction,SMDPad,CuDef*%
%ADD47R,1.200000X1.200000*%
%TD*%
%TA.AperFunction,SMDPad,CuDef*%
%ADD48FreePoly0,0.000000*%
%TD*%
%TA.AperFunction,SMDPad,CuDef*%
%ADD49R,0.400000X0.800000*%
%TD*%
%TA.AperFunction,SMDPad,CuDef*%
%ADD50R,0.800000X0.400000*%
%TD*%
%TA.AperFunction,SMDPad,CuDef*%
%ADD51RoundRect,0.225000X0.225000X0.250000X-0.225000X0.250000X-0.225000X-0.250000X0.225000X-0.250000X0*%
%TD*%
%TA.AperFunction,SMDPad,CuDef*%
%ADD52RoundRect,0.250000X-0.650000X0.325000X-0.650000X-0.325000X0.650000X-0.325000X0.650000X0.325000X0*%
%TD*%
%TA.AperFunction,ViaPad*%
%ADD53C,0.600000*%
%TD*%
%TA.AperFunction,Conductor*%
%ADD54C,0.400000*%
%TD*%
%TA.AperFunction,Conductor*%
%ADD55C,0.500000*%
%TD*%
%TA.AperFunction,Conductor*%
%ADD56C,1.500000*%
%TD*%
%TA.AperFunction,Conductor*%
%ADD57C,1.000000*%
%TD*%
%TA.AperFunction,Conductor*%
%ADD58C,0.300000*%
%TD*%
G04 APERTURE END LIST*
D10*
%TO.P,C2,2*%
%TO.N,GND*%
X124700000Y-104800000D03*
D11*
%TO.P,C2,1*%
%TO.N,Net-(U3-EN)*%
X124700000Y-102300000D03*
%TD*%
D12*
%TO.P,C11,2*%
%TO.N,GND*%
X137100000Y-95925000D03*
%TO.P,C11,1*%
%TO.N,+5V*%
X140050000Y-95925000D03*
%TD*%
D13*
%TO.P,R3,2*%
%TO.N,GND*%
X131425000Y-101175000D03*
%TO.P,R3,1*%
%TO.N,Net-(U3-RT)*%
X129775000Y-101175000D03*
%TD*%
D14*
%TO.P,J5,8,Pin_8*%
%TO.N,CANH*%
X153900000Y-113150000D03*
%TO.P,J5,7,Pin_7*%
%TO.N,CANL*%
X150400000Y-113150000D03*
%TO.P,J5,6,Pin_6*%
%TO.N,GPIO6{slash}ADC5*%
X146900000Y-113150000D03*
%TO.P,J5,5,Pin_5*%
%TO.N,GPIO5{slash}ADC4*%
X143400000Y-113150000D03*
%TO.P,J5,4,Pin_4*%
%TO.N,GPIO4{slash}ADC3*%
X139900000Y-113150000D03*
%TO.P,J5,3,Pin_3*%
%TO.N,GPIO3{slash}ADC2*%
X136400000Y-113150000D03*
%TO.P,J5,2,Pin_2*%
%TO.N,GPIO2{slash}ADC1*%
X132900000Y-113150000D03*
D15*
%TO.P,J5,1,Pin_1*%
%TO.N,GPIO1{slash}ADC0*%
X129400000Y-113150000D03*
%TD*%
D16*
%TO.P,D9,2,A*%
%TO.N,Net-(D9-A)*%
X162300000Y-104100000D03*
%TO.P,D9,1,K*%
%TO.N,GND*%
X160425000Y-104100000D03*
%TD*%
D17*
%TO.P,R7,2*%
%TO.N,Net-(D7-A)*%
X144500000Y-93100000D03*
%TO.P,R7,1*%
%TO.N,+5V*%
X144500000Y-91450000D03*
%TD*%
D18*
%TO.P,D7,2,A*%
%TO.N,Net-(D7-A)*%
X146400000Y-93262500D03*
%TO.P,D7,1,K*%
%TO.N,GND*%
X146400000Y-91387500D03*
%TD*%
D19*
%TO.P,U4,3,VI*%
%TO.N,+5V*%
X142798000Y-88660000D03*
D20*
%TO.P,U4,2,VO*%
%TO.N,+3.3V*%
X149098000Y-86360000D03*
D19*
X142798000Y-86360000D03*
%TO.P,U4,1,GND*%
%TO.N,GND*%
X142798000Y-84060000D03*
%TD*%
D21*
%TO.P,SW3,2,2*%
%TO.N,GPIO1*%
X173250000Y-104800000D03*
X179550000Y-104800000D03*
%TO.P,SW3,1,1*%
%TO.N,GND*%
X173250000Y-108600000D03*
X179550000Y-108600000D03*
%TD*%
D22*
%TO.P,D6,2,A*%
%TO.N,VBUS*%
X161000000Y-111400000D03*
%TO.P,D6,1,K*%
%TO.N,+5V*%
X161000000Y-107400000D03*
%TD*%
D23*
%TO.P,L2,2,2*%
%TO.N,+5V*%
X139750000Y-91675000D03*
%TO.P,L2,1,1*%
%TO.N,Net-(D5-K)*%
X135650000Y-91675000D03*
%TD*%
D24*
%TO.P,C6,2*%
%TO.N,GND*%
X162050000Y-81025000D03*
%TO.P,C6,1*%
%TO.N,Net-(U1-GPIO0{slash}BOOT)*%
X162050000Y-82575000D03*
%TD*%
D25*
%TO.P,R8,2*%
%TO.N,+3.3V*%
X177100000Y-82175000D03*
%TO.P,R8,1*%
%TO.N,Net-(D8-A)*%
X177100000Y-83825000D03*
%TD*%
D26*
%TO.P,D2,4,DIN*%
%TO.N,DATA IN*%
X174850000Y-100800000D03*
%TO.P,D2,3,VSS*%
%TO.N,GND*%
X174850000Y-97500000D03*
%TO.P,D2,2,DOUT*%
%TO.N,Net-(D1-DIN)*%
X179750000Y-97500000D03*
%TO.P,D2,1,VDD*%
%TO.N,+5V*%
X179750000Y-100800000D03*
%TD*%
D27*
%TO.P,C8,2*%
%TO.N,GND*%
X137050000Y-99500000D03*
%TO.P,C8,1*%
%TO.N,Net-(U3-SS)*%
X137050000Y-97950000D03*
%TD*%
D24*
%TO.P,C5,2*%
%TO.N,GND*%
X154250000Y-86750000D03*
%TO.P,C5,1*%
%TO.N,+3.3V*%
X154250000Y-88300000D03*
%TD*%
D28*
%TO.P,R4,2*%
%TO.N,GND*%
X133175000Y-101125000D03*
%TO.P,R4,1*%
%TO.N,Net-(U3-FB)*%
X134825000Y-101125000D03*
%TD*%
D29*
%TO.P,J3,1,VBUS*%
%TO.N,VBUS*%
X164220000Y-116250000D03*
%TO.P,J3,2,D-*%
%TO.N,Net-(J3-D-)*%
X164870000Y-116250000D03*
%TO.P,J3,3,D+*%
%TO.N,Net-(J3-D+)*%
X165520000Y-116250000D03*
%TO.P,J3,4,ID*%
%TO.N,unconnected-(J3-ID-Pad4)*%
X166170000Y-116250000D03*
%TO.P,J3,5,GND*%
%TO.N,GND*%
X166820000Y-116250000D03*
D30*
%TO.P,J3,6,Shield*%
X162570000Y-117450000D03*
D31*
X162670000Y-116150000D03*
D32*
X162790000Y-118200000D03*
D33*
X162790000Y-119130000D03*
D34*
X163100000Y-116130000D03*
D35*
X164560000Y-119400000D03*
X166480000Y-119400000D03*
D34*
X167940000Y-116130000D03*
D33*
X168250000Y-119130000D03*
D32*
X168270000Y-118200000D03*
D31*
X168420000Y-116130000D03*
D30*
X168520000Y-117450000D03*
%TD*%
D17*
%TO.P,R2,2*%
%TO.N,Net-(C1-Pad1)*%
X124200000Y-94950000D03*
%TO.P,R2,1*%
%TO.N,Net-(D4-K)*%
X124200000Y-93300000D03*
%TD*%
D36*
%TO.P,D4,2,A*%
%TO.N,+12V*%
X126600000Y-87000000D03*
%TO.P,D4,1,K*%
%TO.N,Net-(D4-K)*%
X126600000Y-91000000D03*
%TD*%
D37*
%TO.P,U3,9,GND*%
%TO.N,GND*%
X132425000Y-97580000D03*
D38*
%TO.P,U3,8,SW*%
%TO.N,Net-(D5-K)*%
X134900000Y-95675000D03*
%TO.P,U3,7,GND*%
%TO.N,GND*%
X134900000Y-96945000D03*
%TO.P,U3,6,SS*%
%TO.N,Net-(U3-SS)*%
X134900000Y-98215000D03*
%TO.P,U3,5,FB*%
%TO.N,Net-(U3-FB)*%
X134900000Y-99485000D03*
%TO.P,U3,4,RT*%
%TO.N,Net-(U3-RT)*%
X129950000Y-99485000D03*
%TO.P,U3,3,EN*%
%TO.N,Net-(U3-EN)*%
X129950000Y-98215000D03*
%TO.P,U3,2,VIN*%
X129950000Y-96945000D03*
%TO.P,U3,1,BOOT*%
%TO.N,Net-(U3-BOOT)*%
X129950000Y-95675000D03*
%TD*%
D39*
%TO.P,L1,2,2*%
%TO.N,Net-(U3-EN)*%
X126800000Y-96525000D03*
%TO.P,L1,1,1*%
%TO.N,Net-(D4-K)*%
X126800000Y-93725000D03*
%TD*%
D24*
%TO.P,C4,2*%
%TO.N,GND*%
X155850000Y-86750000D03*
%TO.P,C4,1*%
%TO.N,+3.3V*%
X155850000Y-88300000D03*
%TD*%
%TO.P,C3,2*%
%TO.N,GND*%
X173500000Y-82275000D03*
%TO.P,C3,1*%
%TO.N,Net-(U1-EN)*%
X173500000Y-83825000D03*
%TD*%
D40*
%TO.P,C14,2*%
%TO.N,+5V*%
X179750000Y-102800000D03*
%TO.P,C14,1*%
%TO.N,GND*%
X178200000Y-102800000D03*
%TD*%
D41*
%TO.P,J1,4,Pin_4*%
%TO.N,+12V*%
X130900000Y-75300000D03*
%TO.P,J1,3,Pin_3*%
%TO.N,+5V*%
X135900000Y-75300000D03*
%TO.P,J1,2,Pin_2*%
%TO.N,+3.3V*%
X140900000Y-75300000D03*
D42*
%TO.P,J1,1,Pin_1*%
%TO.N,GND*%
X145900000Y-75300000D03*
%TD*%
D17*
%TO.P,R1,2*%
%TO.N,Net-(U1-EN)*%
X175150000Y-83875000D03*
%TO.P,R1,1*%
%TO.N,+3.3V*%
X175150000Y-82225000D03*
%TD*%
D24*
%TO.P,C9,2*%
%TO.N,Net-(D5-K)*%
X129750000Y-92575000D03*
%TO.P,C9,1*%
%TO.N,Net-(U3-BOOT)*%
X129750000Y-94125000D03*
%TD*%
D43*
%TO.P,U2,6,I/O1*%
%TO.N,USB_N*%
X164200000Y-108200000D03*
%TO.P,U2,5,VBUS*%
%TO.N,VBUS*%
X165150000Y-108200000D03*
%TO.P,U2,4,I/O2*%
%TO.N,USB_P*%
X166100000Y-108200000D03*
%TO.P,U2,3,I/O2*%
%TO.N,Net-(J3-D+)*%
X166100000Y-110475000D03*
%TO.P,U2,2,GND*%
%TO.N,GND*%
X165150000Y-110475000D03*
%TO.P,U2,1,I/O1*%
%TO.N,Net-(J3-D-)*%
X164200000Y-110475000D03*
%TD*%
D36*
%TO.P,D5,2,A*%
%TO.N,GND*%
X132400000Y-89375000D03*
%TO.P,D5,1,K*%
%TO.N,Net-(D5-K)*%
X132400000Y-93375000D03*
%TD*%
D24*
%TO.P,C13,2*%
%TO.N,GND*%
X140500000Y-84450000D03*
%TO.P,C13,1*%
%TO.N,+3.3V*%
X140500000Y-86000000D03*
%TD*%
D44*
%TO.P,D3,2,A2*%
%TO.N,GND*%
X136750000Y-84475000D03*
%TO.P,D3,1,A1*%
%TO.N,+12V*%
X129950000Y-84475000D03*
%TD*%
D18*
%TO.P,D8,2,A*%
%TO.N,Net-(D8-A)*%
X179100000Y-83937500D03*
%TO.P,D8,1,K*%
%TO.N,GND*%
X179100000Y-82062500D03*
%TD*%
D45*
%TO.P,U5,8,S*%
%TO.N,GND*%
X154050000Y-105350000D03*
%TO.P,U5,7,CANH*%
%TO.N,CANH*%
X152780000Y-105350000D03*
%TO.P,U5,6,CANL*%
%TO.N,CANL*%
X151510000Y-105350000D03*
%TO.P,U5,5,VIO*%
%TO.N,+3.3V*%
X150240000Y-105350000D03*
%TO.P,U5,4,RXD*%
%TO.N,RX*%
X150240000Y-100400000D03*
%TO.P,U5,3,VCC*%
%TO.N,+5V*%
X151510000Y-100400000D03*
%TO.P,U5,2,GND*%
%TO.N,GND*%
X152780000Y-100400000D03*
%TO.P,U5,1,TXD*%
%TO.N,TX*%
X154050000Y-100400000D03*
%TD*%
D46*
%TO.P,U1,65,GND*%
%TO.N,GND*%
X171700000Y-86100000D03*
%TO.P,U1,64,GND*%
X171700000Y-100100000D03*
%TO.P,U1,63,GND*%
X157700000Y-100100000D03*
%TO.P,U1,62,GND*%
X157700000Y-86100000D03*
D47*
%TO.P,U1,61,GND*%
X166350000Y-94750000D03*
X166350000Y-93100000D03*
X166350000Y-91450000D03*
X164700000Y-94750000D03*
X164700000Y-93100000D03*
X164700000Y-91450000D03*
X163050000Y-94750000D03*
X163050000Y-93100000D03*
D48*
X163050000Y-91450000D03*
D49*
%TO.P,U1,60,GND*%
X158750000Y-86100000D03*
%TO.P,U1,59,GND*%
X159600000Y-86100000D03*
%TO.P,U1,58,GND*%
X160450000Y-86100000D03*
%TO.P,U1,57,GND*%
X161300000Y-86100000D03*
%TO.P,U1,56,GND*%
X162150000Y-86100000D03*
%TO.P,U1,55,GND*%
X163000000Y-86100000D03*
%TO.P,U1,54,GND*%
X163850000Y-86100000D03*
%TO.P,U1,53,GND*%
X164700000Y-86100000D03*
%TO.P,U1,52,GND*%
X165550000Y-86100000D03*
%TO.P,U1,51,GND*%
X166400000Y-86100000D03*
%TO.P,U1,50,GND*%
X167250000Y-86100000D03*
%TO.P,U1,49,GND*%
X168100000Y-86100000D03*
%TO.P,U1,48,GND*%
X168950000Y-86100000D03*
%TO.P,U1,47,GND*%
X169800000Y-86100000D03*
%TO.P,U1,46,GND*%
X170650000Y-86100000D03*
D50*
%TO.P,U1,45,EN*%
%TO.N,Net-(U1-EN)*%
X171700000Y-87150000D03*
%TO.P,U1,44,GPIO46*%
%TO.N,unconnected-(U1-GPIO46-Pad44)*%
X171700000Y-88000000D03*
%TO.P,U1,43,GND*%
%TO.N,GND*%
X171700000Y-88850000D03*
%TO.P,U1,42,GND*%
X171700000Y-89700000D03*
%TO.P,U1,41,GPIO45*%
%TO.N,unconnected-(U1-GPIO45-Pad41)*%
X171700000Y-90550000D03*
%TO.P,U1,40,U0RXD/GPIO44/CLK_OUT2*%
%TO.N,unconnected-(U1-U0RXD{slash}GPIO44{slash}CLK_OUT2-Pad40)*%
X171700000Y-91400000D03*
%TO.P,U1,39,U0TXD/GPIO43/CLK_OUT1*%
%TO.N,unconnected-(U1-U0TXD{slash}GPIO43{slash}CLK_OUT1-Pad39)*%
X171700000Y-92250000D03*
%TO.P,U1,38,MTMS/GPIO42*%
%TO.N,unconnected-(U1-MTMS{slash}GPIO42-Pad38)*%
X171700000Y-93100000D03*
%TO.P,U1,37,MTDI/GPIO41/CLK_OUT1*%
%TO.N,unconnected-(U1-MTDI{slash}GPIO41{slash}CLK_OUT1-Pad37)*%
X171700000Y-93950000D03*
%TO.P,U1,36,MTDO/GPIO40/CLK_OUT2*%
%TO.N,unconnected-(U1-MTDO{slash}GPIO40{slash}CLK_OUT2-Pad36)*%
X171700000Y-94800000D03*
%TO.P,U1,35,MTCK/GPIO39/CLK_OUT3/SUBSPICS1*%
%TO.N,unconnected-(U1-MTCK{slash}GPIO39{slash}CLK_OUT3{slash}SUBSPICS1-Pad35)*%
X171700000Y-95650000D03*
%TO.P,U1,34,GPIO38/FSPIWP/SUBSPIWP*%
%TO.N,unconnected-(U1-GPIO38{slash}FSPIWP{slash}SUBSPIWP-Pad34)*%
X171700000Y-96500000D03*
%TO.P,U1,33,SPIDQS/GPIO37/FSPIQ/SUBSPIQ*%
%TO.N,unconnected-(U1-SPIDQS{slash}GPIO37{slash}FSPIQ{slash}SUBSPIQ-Pad33)*%
X171700000Y-97350000D03*
%TO.P,U1,32,SPIIO7/GPIO36/FSPICLK/SUBSPICLK*%
%TO.N,DATA IN*%
X171700000Y-98200000D03*
%TO.P,U1,31,SPIIO6/GPIO35/FSPID/SUBSPID*%
%TO.N,GPIO1*%
X171700000Y-99050000D03*
D49*
%TO.P,U1,30,GPIO48/SPICLK_N/SUBSPICLK_N_DIFF*%
%TO.N,unconnected-(U1-GPIO48{slash}SPICLK_N{slash}SUBSPICLK_N_DIFF-Pad30)*%
X170650000Y-100100000D03*
%TO.P,U1,29,SPIIO5/GPIO34/FSPICS0/SUBSPICS0*%
%TO.N,unconnected-(U1-SPIIO5{slash}GPIO34{slash}FSPICS0{slash}SUBSPICS0-Pad29)*%
X169800000Y-100100000D03*
%TO.P,U1,28,SPIIO4/GPIO33/FSPIHD/SUBSPIHD*%
%TO.N,unconnected-(U1-SPIIO4{slash}GPIO33{slash}FSPIHD{slash}SUBSPIHD-Pad28)*%
X168950000Y-100100000D03*
%TO.P,U1,27,GPIO47/SPICLK_P/SUBSPICLK_P_DIFF*%
%TO.N,unconnected-(U1-GPIO47{slash}SPICLK_P{slash}SUBSPICLK_P_DIFF-Pad27)*%
X168100000Y-100100000D03*
%TO.P,U1,26,GPIO26*%
%TO.N,unconnected-(U1-GPIO26-Pad26)*%
X167250000Y-100100000D03*
%TO.P,U1,25,GPIO21*%
%TO.N,unconnected-(U1-GPIO21-Pad25)*%
X166400000Y-100100000D03*
%TO.P,U1,24,GPIO20/U1CTS/ADC2_CH9/CLK_OUT1/USB_D+*%
%TO.N,USB_P*%
X165550000Y-100100000D03*
%TO.P,U1,23,GPIO19/U1RTS/ADC2_CH8/CLK_OUT2/USB_D-*%
%TO.N,USB_N*%
X164700000Y-100100000D03*
%TO.P,U1,22,GPIO18/U1RXD/ADC2_CH7/CLK_OUT3*%
%TO.N,unconnected-(U1-GPIO18{slash}U1RXD{slash}ADC2_CH7{slash}CLK_OUT3-Pad22)*%
X163850000Y-100100000D03*
%TO.P,U1,21,GPIO17/U1TXD/ADC2_CH6*%
%TO.N,unconnected-(U1-GPIO17{slash}U1TXD{slash}ADC2_CH6-Pad21)*%
X163000000Y-100100000D03*
%TO.P,U1,20,GPIO16/U0CTS/ADC2_CH5/XTAL_32K_N*%
%TO.N,unconnected-(U1-GPIO16{slash}U0CTS{slash}ADC2_CH5{slash}XTAL_32K_N-Pad20)*%
X162150000Y-100100000D03*
%TO.P,U1,19,GPIO15/U0RTS/ADC2_CH4/XTAL_32K_P*%
%TO.N,unconnected-(U1-GPIO15{slash}U0RTS{slash}ADC2_CH4{slash}XTAL_32K_P-Pad19)*%
X161300000Y-100100000D03*
%TO.P,U1,18,GPIO14/TOUCH14/ADC2_CH3/FSPIWP/FSPIDQS/SUBSPIWP*%
%TO.N,Net-(U1-GPIO14{slash}TOUCH14{slash}ADC2_CH3{slash}FSPIWP{slash}FSPIDQS{slash}SUBSPIWP)*%
X160450000Y-100100000D03*
%TO.P,U1,17,GPIO13/TOUCH13/ADC2_CH2/FSPIQ/FSPIIO7/SUBSPIQ*%
%TO.N,unconnected-(U1-GPIO13{slash}TOUCH13{slash}ADC2_CH2{slash}FSPIQ{slash}FSPIIO7{slash}SUBSPIQ-Pad17)*%
X159600000Y-100100000D03*
%TO.P,U1,16,GPIO12/TOUCH12/ADC2_CH1/FSPICLK/FSPIIO6/SUBSPICLK*%
%TO.N,unconnected-(U1-GPIO12{slash}TOUCH12{slash}ADC2_CH1{slash}FSPICLK{slash}FSPIIO6{slash}SUBSPICLK-Pad16)*%
X158750000Y-100100000D03*
D50*
%TO.P,U1,15,GPIO11/TOUCH11/ADC2_CH0/FSPID/FSPIIO5/SUBSPID*%
%TO.N,TX*%
X157700000Y-99050000D03*
%TO.P,U1,14,GPIO10/TOUCH10/ADC1_CH9/FSPICS0/FSPIIO4/SUBSPICS0*%
%TO.N,RX*%
X157700000Y-98200000D03*
%TO.P,U1,13,GPIO9/TOUCH9/ADC1_CH8/FSPIHD/SUBSPIHD*%
%TO.N,unconnected-(U1-GPIO9{slash}TOUCH9{slash}ADC1_CH8{slash}FSPIHD{slash}SUBSPIHD-Pad13)*%
X157700000Y-97350000D03*
%TO.P,U1,12,GPIO8/TOUCH8/ADC1_CH7/SUBSPICS1*%
%TO.N,unconnected-(U1-GPIO8{slash}TOUCH8{slash}ADC1_CH7{slash}SUBSPICS1-Pad12)*%
X157700000Y-96500000D03*
%TO.P,U1,11,GPIO7/TOUCH7/ADC1_CH6*%
%TO.N,unconnected-(U1-GPIO7{slash}TOUCH7{slash}ADC1_CH6-Pad11)*%
X157700000Y-95650000D03*
%TO.P,U1,10,GPIO6/TOUCH6/ADC1_CH5*%
%TO.N,GPIO6{slash}ADC5*%
X157700000Y-94800000D03*
%TO.P,U1,9,GPIO5/TOUCH5/ADC1_CH4*%
%TO.N,GPIO5{slash}ADC4*%
X157700000Y-93950000D03*
%TO.P,U1,8,GPIO4/TOUCH4/ADC1_CH3*%
%TO.N,GPIO4{slash}ADC3*%
X157700000Y-93100000D03*
%TO.P,U1,7,GPIO3/TOUCH3/ADC1_CH2*%
%TO.N,GPIO3{slash}ADC2*%
X157700000Y-92250000D03*
%TO.P,U1,6,GPIO2/TOUCH2/ADC1_CH1*%
%TO.N,GPIO2{slash}ADC1*%
X157700000Y-91400000D03*
%TO.P,U1,5,GPIO1/TOUCH1/ADC1_CH0*%
%TO.N,GPIO1{slash}ADC0*%
X157700000Y-90550000D03*
%TO.P,U1,4,GPIO0/BOOT*%
%TO.N,Net-(U1-GPIO0{slash}BOOT)*%
X157700000Y-89700000D03*
%TO.P,U1,3,3V3*%
%TO.N,+3.3V*%
X157700000Y-88850000D03*
%TO.P,U1,2,GND*%
%TO.N,GND*%
X157700000Y-88000000D03*
%TO.P,U1,1,GND*%
X157700000Y-87150000D03*
%TD*%
D21*
%TO.P,SW1,2,2*%
%TO.N,GND*%
X165300000Y-80050000D03*
X171600000Y-80050000D03*
%TO.P,SW1,1,1*%
%TO.N,Net-(U1-EN)*%
X165300000Y-83850000D03*
X171600000Y-83850000D03*
%TD*%
D51*
%TO.P,C15,2*%
%TO.N,GND*%
X178450000Y-95500000D03*
%TO.P,C15,1*%
%TO.N,+5V*%
X180000000Y-95500000D03*
%TD*%
%TO.P,C7,2*%
%TO.N,GND*%
X126100000Y-98225000D03*
%TO.P,C7,1*%
%TO.N,Net-(U3-EN)*%
X127650000Y-98225000D03*
%TD*%
%TO.P,C10,2*%
%TO.N,Net-(U3-FB)*%
X136350000Y-101075000D03*
%TO.P,C10,1*%
%TO.N,+5V*%
X137900000Y-101075000D03*
%TD*%
D26*
%TO.P,D1,4,DIN*%
%TO.N,Net-(D1-DIN)*%
X174900000Y-93500000D03*
%TO.P,D1,3,VSS*%
%TO.N,GND*%
X174900000Y-90200000D03*
%TO.P,D1,2,DOUT*%
%TO.N,unconnected-(D1-DOUT-Pad2)*%
X179800000Y-90200000D03*
%TO.P,D1,1,VDD*%
%TO.N,+5V*%
X179800000Y-93500000D03*
%TD*%
D27*
%TO.P,C1,2*%
%TO.N,GND*%
X124250000Y-98050000D03*
%TO.P,C1,1*%
%TO.N,Net-(C1-Pad1)*%
X124250000Y-96500000D03*
%TD*%
D21*
%TO.P,SW2,2,2*%
%TO.N,GND*%
X153675000Y-80000000D03*
X159975000Y-80000000D03*
%TO.P,SW2,1,1*%
%TO.N,Net-(U1-GPIO0{slash}BOOT)*%
X153675000Y-83800000D03*
X159975000Y-83800000D03*
%TD*%
D13*
%TO.P,R9,2*%
%TO.N,Net-(D9-A)*%
X162125000Y-102200000D03*
%TO.P,R9,1*%
%TO.N,Net-(U1-GPIO14{slash}TOUCH14{slash}ADC2_CH3{slash}FSPIWP{slash}FSPIDQS{slash}SUBSPIWP)*%
X160475000Y-102200000D03*
%TD*%
D52*
%TO.P,C12,2*%
%TO.N,GND*%
X142250000Y-94625000D03*
%TO.P,C12,1*%
%TO.N,+5V*%
X142250000Y-91675000D03*
%TD*%
D13*
%TO.P,R6,2*%
%TO.N,CANH*%
X152945000Y-107825000D03*
%TO.P,R6,1*%
%TO.N,CANL*%
X151295000Y-107825000D03*
%TD*%
%TO.P,R5,2*%
%TO.N,+5V*%
X136600000Y-102625000D03*
%TO.P,R5,1*%
%TO.N,Net-(U3-FB)*%
X134950000Y-102625000D03*
%TD*%
D53*
%TO.N,GND*%
X168100000Y-114330000D03*
X164600000Y-96300000D03*
X173500000Y-80900000D03*
X173400000Y-96300000D03*
X131800000Y-95500000D03*
X140500000Y-83100000D03*
X161800000Y-80000000D03*
X155400000Y-102300000D03*
X161400000Y-93000000D03*
X155100000Y-85500000D03*
X142300000Y-96200000D03*
X142800000Y-82000000D03*
X163000000Y-96300000D03*
X133000000Y-95500000D03*
X138500000Y-98400000D03*
X158800000Y-88000000D03*
X168100000Y-93100000D03*
X148900000Y-91500000D03*
X180600000Y-80300000D03*
X166300000Y-96300000D03*
X132200000Y-102900000D03*
X163000000Y-90100000D03*
X122600000Y-98500000D03*
X155300000Y-105500000D03*
X157700000Y-101500000D03*
X164700000Y-87500000D03*
X151800000Y-81100000D03*
X135000000Y-88300000D03*
X177000000Y-102800000D03*
X159000000Y-103900000D03*
X138900000Y-82600000D03*
X173300000Y-110350000D03*
X163600000Y-80000000D03*
X177200000Y-95400000D03*
X171700000Y-101700000D03*
X173200000Y-89100000D03*
X133100000Y-99700000D03*
X162600000Y-114430000D03*
X165200000Y-111800000D03*
X164700000Y-90200000D03*
X170600000Y-87400000D03*
X166350000Y-90050000D03*
X131800000Y-99700000D03*
%TO.N,+3.3V*%
X152019000Y-89281000D03*
X152600000Y-96000000D03*
%TO.N,Net-(U1-GPIO0{slash}BOOT)*%
X159975000Y-84675000D03*
X160000000Y-87300000D03*
%TD*%
D54*
%TO.N,GND*%
X170650000Y-87350000D02*
X170600000Y-87400000D01*
X172650000Y-80050000D02*
X173500000Y-80900000D01*
X153675000Y-80000000D02*
X152900000Y-80000000D01*
X133060000Y-96945000D02*
X134900000Y-96945000D01*
X140500000Y-83100000D02*
X140500000Y-84450000D01*
X160225000Y-103900000D02*
X160425000Y-104100000D01*
D55*
X164700000Y-91450000D02*
X166350000Y-91450000D01*
D54*
X124425000Y-98225000D02*
X124250000Y-98050000D01*
D55*
X174600000Y-97500000D02*
X174850000Y-97500000D01*
X173250000Y-108600000D02*
X173250000Y-110300000D01*
D54*
X157700000Y-86100000D02*
X157700000Y-88000000D01*
D55*
X164700000Y-94750000D02*
X164700000Y-96200000D01*
D54*
X157700000Y-88000000D02*
X158800000Y-88000000D01*
D55*
X165150000Y-110475000D02*
X165150000Y-111750000D01*
D54*
X134900000Y-96945000D02*
X136080000Y-96945000D01*
D55*
X163050000Y-91450000D02*
X163050000Y-90150000D01*
X166350000Y-94750000D02*
X166350000Y-93100000D01*
D54*
X142250000Y-96150000D02*
X142300000Y-96200000D01*
X137025000Y-84475000D02*
X138900000Y-82600000D01*
X142250000Y-94625000D02*
X142250000Y-96150000D01*
X133000000Y-97005000D02*
X132425000Y-97580000D01*
X137400000Y-99500000D02*
X138500000Y-98400000D01*
D55*
X164700000Y-91450000D02*
X164700000Y-90200000D01*
D54*
X178525000Y-95500000D02*
X177300000Y-95500000D01*
X157700000Y-86100000D02*
X171700000Y-86100000D01*
X163060000Y-119400000D02*
X162790000Y-119130000D01*
X124250000Y-98050000D02*
X123050000Y-98050000D01*
D55*
X164700000Y-93100000D02*
X163050000Y-93100000D01*
D54*
X163650000Y-80050000D02*
X163600000Y-80000000D01*
X179100000Y-81800000D02*
X180600000Y-80300000D01*
X170650000Y-86100000D02*
X170650000Y-87350000D01*
D55*
X166350000Y-94750000D02*
X166350000Y-96250000D01*
D54*
X132200000Y-102900000D02*
X133175000Y-101925000D01*
D55*
X153705001Y-102300000D02*
X155400000Y-102300000D01*
D54*
X136080000Y-96945000D02*
X137100000Y-95925000D01*
X131800000Y-99700000D02*
X131800000Y-98205000D01*
X171700000Y-88850000D02*
X171700000Y-89700000D01*
X174600000Y-90500000D02*
X173200000Y-89100000D01*
X173500000Y-82275000D02*
X173500000Y-80900000D01*
X159000000Y-103900000D02*
X160225000Y-103900000D01*
X178250000Y-102800000D02*
X177000000Y-102800000D01*
X165300000Y-80050000D02*
X163650000Y-80050000D01*
X162050000Y-80250000D02*
X162050000Y-81025000D01*
D55*
X163050000Y-94750000D02*
X163050000Y-96250000D01*
D54*
X131425000Y-102125000D02*
X131425000Y-101175000D01*
X179100000Y-82062500D02*
X179100000Y-81800000D01*
D55*
X166350000Y-93100000D02*
X164700000Y-93100000D01*
D54*
X136750000Y-84475000D02*
X137025000Y-84475000D01*
X162570000Y-117450000D02*
X162570000Y-116250000D01*
X154250000Y-86350000D02*
X155100000Y-85500000D01*
D55*
X164700000Y-93100000D02*
X164700000Y-91450000D01*
D54*
X137100000Y-95925000D02*
X138500000Y-97325000D01*
X138500000Y-97325000D02*
X138500000Y-98400000D01*
D55*
X166350000Y-96250000D02*
X166300000Y-96300000D01*
D54*
X137050000Y-99500000D02*
X137400000Y-99500000D01*
X133175000Y-101925000D02*
X133175000Y-101125000D01*
X133225000Y-89375000D02*
X134300000Y-88300000D01*
D55*
X171700000Y-100100000D02*
X171700000Y-101700000D01*
X152780000Y-101374999D02*
X153705001Y-102300000D01*
D54*
X172950000Y-88850000D02*
X173200000Y-89100000D01*
X132425000Y-97580000D02*
X133060000Y-96945000D01*
X161800000Y-80000000D02*
X159975000Y-80000000D01*
D55*
X163050000Y-93100000D02*
X163050000Y-94750000D01*
X164700000Y-94750000D02*
X166350000Y-94750000D01*
X168100000Y-115810000D02*
X168420000Y-116130000D01*
X164700000Y-96200000D02*
X164600000Y-96300000D01*
D54*
X164700000Y-86100000D02*
X164700000Y-87500000D01*
X177300000Y-95500000D02*
X177200000Y-95400000D01*
X131800000Y-98205000D02*
X132425000Y-97580000D01*
D55*
X157700000Y-101500000D02*
X157700000Y-100100000D01*
X168100000Y-114330000D02*
X168100000Y-115810000D01*
D54*
X148862500Y-91537500D02*
X146300000Y-91537500D01*
D55*
X165150000Y-111750000D02*
X165200000Y-111800000D01*
D54*
X155850000Y-86750000D02*
X155850000Y-86250000D01*
X131800000Y-96955000D02*
X132425000Y-97580000D01*
D55*
X163050000Y-96250000D02*
X163000000Y-96300000D01*
D54*
X174600000Y-90600000D02*
X174600000Y-90500000D01*
X168520000Y-116710000D02*
X167940000Y-116130000D01*
X166940000Y-116130000D02*
X166820000Y-116250000D01*
X171700000Y-88850000D02*
X172950000Y-88850000D01*
D55*
X173400000Y-96300000D02*
X174600000Y-97500000D01*
D54*
X162570000Y-116250000D02*
X162670000Y-116150000D01*
D55*
X155150000Y-105350000D02*
X155300000Y-105500000D01*
D54*
X132400000Y-89375000D02*
X133225000Y-89375000D01*
X164560000Y-119400000D02*
X163060000Y-119400000D01*
D55*
X154050000Y-105350000D02*
X155150000Y-105350000D01*
X173250000Y-108600000D02*
X179550000Y-108600000D01*
X152780000Y-100400000D02*
X152780000Y-101374999D01*
D54*
X155850000Y-86250000D02*
X155100000Y-85500000D01*
D55*
X166350000Y-90050000D02*
X166350000Y-91450000D01*
D54*
X167940000Y-116130000D02*
X166940000Y-116130000D01*
X161800000Y-80000000D02*
X162050000Y-80250000D01*
X171600000Y-80050000D02*
X172650000Y-80050000D01*
X154250000Y-86750000D02*
X154250000Y-86350000D01*
D55*
X166350000Y-93100000D02*
X168100000Y-93100000D01*
D54*
X133100000Y-99700000D02*
X133100000Y-98255000D01*
X152900000Y-80000000D02*
X151800000Y-81100000D01*
D55*
X163050000Y-90150000D02*
X163000000Y-90100000D01*
D54*
X132200000Y-102900000D02*
X131425000Y-102125000D01*
D55*
X163050000Y-94750000D02*
X164700000Y-94750000D01*
D54*
X133000000Y-95500000D02*
X133000000Y-97005000D01*
X167680000Y-118200000D02*
X166480000Y-119400000D01*
X168520000Y-117450000D02*
X168520000Y-116710000D01*
X134300000Y-88300000D02*
X135000000Y-88300000D01*
X168270000Y-118200000D02*
X167680000Y-118200000D01*
X133100000Y-98255000D02*
X132425000Y-97580000D01*
X131800000Y-95500000D02*
X131800000Y-96955000D01*
D55*
X163050000Y-91450000D02*
X164700000Y-91450000D01*
D54*
X126100000Y-98225000D02*
X124425000Y-98225000D01*
D55*
X163050000Y-91450000D02*
X163050000Y-93100000D01*
D54*
X123050000Y-98050000D02*
X122600000Y-98500000D01*
X142798000Y-84060000D02*
X142798000Y-82002000D01*
D55*
X161500000Y-93100000D02*
X161400000Y-93000000D01*
D54*
X142798000Y-82002000D02*
X142800000Y-82000000D01*
D55*
X166350000Y-91450000D02*
X166350000Y-93100000D01*
X163050000Y-93100000D02*
X161500000Y-93100000D01*
D54*
X148900000Y-91500000D02*
X148862500Y-91537500D01*
%TO.N,+3.3V*%
X177100000Y-82175000D02*
X175200000Y-82175000D01*
D56*
X148950000Y-86300000D02*
X142650000Y-86300000D01*
D54*
X155850000Y-88300000D02*
X154250000Y-88300000D01*
D56*
X149098000Y-83148000D02*
X149098000Y-86360000D01*
D54*
X156400000Y-88850000D02*
X157700000Y-88850000D01*
D56*
X141250000Y-75300000D02*
X149098000Y-83148000D01*
D54*
X155850000Y-88300000D02*
X156400000Y-88850000D01*
D56*
X140900000Y-75300000D02*
X141250000Y-75300000D01*
D55*
X149098000Y-86360000D02*
X149098000Y-82327000D01*
X149098000Y-82327000D02*
X153225000Y-78200000D01*
X149100000Y-99400000D02*
X149100000Y-104210000D01*
X172800000Y-78200000D02*
X175150000Y-80550000D01*
X150300000Y-105290000D02*
X150240000Y-105350000D01*
X152500000Y-96000000D02*
X149100000Y-99400000D01*
D54*
X175200000Y-82175000D02*
X175150000Y-82225000D01*
D55*
X153225000Y-78200000D02*
X172800000Y-78200000D01*
X175150000Y-80550000D02*
X175150000Y-82225000D01*
D54*
X142650000Y-86300000D02*
X140800000Y-86300000D01*
X154250000Y-88300000D02*
X150950000Y-88300000D01*
D55*
X149100000Y-104210000D02*
X150240000Y-105350000D01*
D54*
X150950000Y-88300000D02*
X148950000Y-86300000D01*
D55*
X152019000Y-89281000D02*
X149098000Y-86360000D01*
X152600000Y-96000000D02*
X152500000Y-96000000D01*
D54*
X140800000Y-86300000D02*
X140500000Y-86000000D01*
D56*
%TO.N,+12V*%
X130900000Y-83525000D02*
X129950000Y-84475000D01*
X130900000Y-75300000D02*
X130900000Y-83525000D01*
X129300000Y-84475000D02*
X126600000Y-87175000D01*
X129950000Y-84475000D02*
X129300000Y-84475000D01*
D54*
%TO.N,VBUS*%
X164220000Y-112570000D02*
X163200000Y-111550000D01*
X165150000Y-108862499D02*
X165150000Y-108200000D01*
X163200000Y-109850000D02*
X163787500Y-109262500D01*
X163200000Y-111550000D02*
X163200000Y-110550000D01*
X164749999Y-109262500D02*
X165150000Y-108862499D01*
X161000000Y-110500000D02*
X163150000Y-110500000D01*
X163150000Y-110500000D02*
X163200000Y-110550000D01*
X163787500Y-109262500D02*
X164749999Y-109262500D01*
X164220000Y-116250000D02*
X164220000Y-112570000D01*
X163200000Y-110550000D02*
X163200000Y-109850000D01*
%TO.N,Net-(C1-Pad1)*%
X124250000Y-94910000D02*
X124250000Y-96500000D01*
D57*
%TO.N,Net-(U3-EN)*%
X127650000Y-97375000D02*
X127220000Y-96945000D01*
X124750000Y-101922349D02*
X127650000Y-99022349D01*
X127650000Y-99022349D02*
X127650000Y-98225000D01*
X126800000Y-96525000D02*
X127220000Y-96945000D01*
X127220000Y-96945000D02*
X129950000Y-96945000D01*
X127650000Y-98225000D02*
X127650000Y-97375000D01*
D55*
X129950000Y-98215000D02*
X127660000Y-98215000D01*
X127660000Y-98215000D02*
X127650000Y-98225000D01*
%TO.N,Net-(U3-SS)*%
X136785000Y-98215000D02*
X137050000Y-97950000D01*
X134900000Y-98215000D02*
X136785000Y-98215000D01*
D54*
%TO.N,Net-(J3-D+)*%
X165520000Y-116250000D02*
X165520000Y-112480000D01*
X166100000Y-111900000D02*
X166100000Y-110475000D01*
X165520000Y-112480000D02*
X166100000Y-111900000D01*
%TO.N,Net-(J3-D-)*%
X164870000Y-112474710D02*
X164200000Y-111804710D01*
X164870000Y-116250000D02*
X164870000Y-112474710D01*
X164200000Y-111804710D02*
X164200000Y-110475000D01*
D58*
%TO.N,USB_N*%
X164162500Y-104212500D02*
X164162500Y-108137500D01*
X164700000Y-100800000D02*
X164150000Y-101350000D01*
X164150000Y-104200000D02*
X164162500Y-104212500D01*
X164150000Y-101350000D02*
X164150000Y-104200000D01*
X164700000Y-100100000D02*
X164700000Y-100800000D01*
D55*
%TO.N,Net-(U3-BOOT)*%
X129750000Y-95475000D02*
X129950000Y-95675000D01*
X129750000Y-94125000D02*
X129750000Y-95475000D01*
D58*
%TO.N,USB_P*%
X166062500Y-104212500D02*
X166062500Y-108137500D01*
X165550000Y-100800000D02*
X166050000Y-101300000D01*
X166050000Y-104200000D02*
X166062500Y-104212500D01*
X165550000Y-100100000D02*
X165550000Y-100800000D01*
X166050000Y-101300000D02*
X166050000Y-104200000D01*
D54*
%TO.N,GPIO1*%
X172500000Y-99050000D02*
X171700000Y-99050000D01*
X173250000Y-103450000D02*
X173200000Y-103400000D01*
X173200000Y-99750000D02*
X172500000Y-99050000D01*
X173200000Y-103400000D02*
X173200000Y-99750000D01*
X173250000Y-104800000D02*
X173250000Y-103450000D01*
X173250000Y-104800000D02*
X179550000Y-104800000D01*
D55*
%TO.N,Net-(D5-K)*%
X131600000Y-92575000D02*
X132400000Y-93375000D01*
X129750000Y-92575000D02*
X131600000Y-92575000D01*
D56*
X134800000Y-94775000D02*
X133400000Y-93375000D01*
X134100000Y-91675000D02*
X132400000Y-93375000D01*
X135650000Y-91675000D02*
X134100000Y-91675000D01*
X133400000Y-93375000D02*
X132400000Y-93375000D01*
X134800000Y-95325000D02*
X134800000Y-94775000D01*
D54*
%TO.N,Net-(U1-GPIO0{slash}BOOT)*%
X160000000Y-87300000D02*
X160000000Y-88800000D01*
X162050000Y-82575000D02*
X161200000Y-82575000D01*
X160000000Y-88800000D02*
X159100000Y-89700000D01*
X159100000Y-89700000D02*
X157700000Y-89700000D01*
X159975000Y-84675000D02*
X159950000Y-84700000D01*
X159975000Y-83800000D02*
X159975000Y-84675000D01*
X153675000Y-83800000D02*
X159975000Y-83800000D01*
X161200000Y-82575000D02*
X159975000Y-83800000D01*
%TO.N,Net-(U1-EN)*%
X171600000Y-83850000D02*
X165300000Y-83850000D01*
X173500000Y-83825000D02*
X171625000Y-83825000D01*
X173250000Y-87150000D02*
X171700000Y-87150000D01*
X175150000Y-85250000D02*
X173250000Y-87150000D01*
X171625000Y-83825000D02*
X171600000Y-83850000D01*
X173550000Y-83875000D02*
X173500000Y-83825000D01*
X175150000Y-83875000D02*
X175150000Y-85250000D01*
X175150000Y-83875000D02*
X173550000Y-83875000D01*
%TO.N,+5V*%
X142475000Y-91450000D02*
X142250000Y-91675000D01*
X152800000Y-103500000D02*
X151510000Y-102210000D01*
X159000000Y-107400000D02*
X155100000Y-103500000D01*
X151510000Y-102210000D02*
X151510000Y-100400000D01*
X161000000Y-107400000D02*
X159000000Y-107400000D01*
X180075000Y-95500000D02*
X180075000Y-93775000D01*
X155100000Y-103500000D02*
X152800000Y-103500000D01*
X144500000Y-91450000D02*
X142475000Y-91450000D01*
X180075000Y-93775000D02*
X179800000Y-93500000D01*
%TO.N,Net-(D1-DIN)*%
X177500000Y-97500000D02*
X174600000Y-94600000D01*
X179750000Y-97500000D02*
X177500000Y-97500000D01*
X174600000Y-94600000D02*
X174600000Y-93900000D01*
%TO.N,DATA IN*%
X174850000Y-100800000D02*
X174850000Y-99850000D01*
X174850000Y-99850000D02*
X173200000Y-98200000D01*
X173200000Y-98200000D02*
X171700000Y-98200000D01*
D55*
%TO.N,Net-(U3-FB)*%
X134825000Y-102500000D02*
X134950000Y-102625000D01*
X134900000Y-101050000D02*
X134825000Y-101125000D01*
X136300000Y-101125000D02*
X136350000Y-101075000D01*
X134900000Y-99485000D02*
X134900000Y-101050000D01*
X134825000Y-101125000D02*
X134825000Y-102500000D01*
X134825000Y-101125000D02*
X136300000Y-101125000D01*
%TO.N,Net-(D4-K)*%
X126750000Y-93675000D02*
X126800000Y-93725000D01*
D54*
X124200000Y-93425000D02*
X126500000Y-93425000D01*
X124200000Y-93840000D02*
X124200000Y-93425000D01*
D56*
X126800000Y-93725000D02*
X126800000Y-91375000D01*
D54*
X126500000Y-93425000D02*
X126800000Y-93725000D01*
D56*
X126800000Y-91375000D02*
X126600000Y-91175000D01*
D55*
%TO.N,Net-(U3-RT)*%
X129775000Y-99660000D02*
X129950000Y-99485000D01*
X129775000Y-101175000D02*
X129775000Y-99660000D01*
D54*
%TO.N,CANL*%
X151295000Y-107825000D02*
X151295000Y-112255000D01*
X151295000Y-105565000D02*
X151510000Y-105350000D01*
X151295000Y-112255000D02*
X150400000Y-113150000D01*
X151295000Y-107825000D02*
X151295000Y-105565000D01*
%TO.N,CANH*%
X152945000Y-112195000D02*
X153900000Y-113150000D01*
X152945000Y-107825000D02*
X152945000Y-112195000D01*
X152945000Y-105515000D02*
X152780000Y-105350000D01*
X152945000Y-107825000D02*
X152945000Y-105515000D01*
%TO.N,RX*%
X150240000Y-100400000D02*
X150240000Y-99425001D01*
X151465001Y-98200000D02*
X157700000Y-98200000D01*
X150240000Y-99425001D02*
X151465001Y-98200000D01*
%TO.N,TX*%
X155400000Y-99050000D02*
X157700000Y-99050000D01*
X154050000Y-100400000D02*
X155400000Y-99050000D01*
%TO.N,Net-(D7-A)*%
X146300000Y-93112500D02*
X144512500Y-93112500D01*
X144512500Y-93112500D02*
X144500000Y-93100000D01*
%TO.N,Net-(D8-A)*%
X177100000Y-83825000D02*
X178987500Y-83825000D01*
X178987500Y-83825000D02*
X179100000Y-83937500D01*
%TO.N,Net-(D9-A)*%
X162300000Y-102375000D02*
X162125000Y-102200000D01*
X162300000Y-104100000D02*
X162300000Y-102375000D01*
%TO.N,GPIO2{slash}ADC1*%
X157700000Y-91400000D02*
X151500000Y-91400000D01*
X151500000Y-91400000D02*
X132900000Y-110000000D01*
X132900000Y-110000000D02*
X132900000Y-113150000D01*
%TO.N,GPIO1{slash}ADC0*%
X129400000Y-112300000D02*
X129400000Y-113150000D01*
X151150000Y-90550000D02*
X129400000Y-112300000D01*
X157700000Y-90550000D02*
X151150000Y-90550000D01*
%TO.N,GPIO5{slash}ADC4*%
X143400000Y-113150000D02*
X143400000Y-103000000D01*
X152450000Y-93950000D02*
X157700000Y-93950000D01*
X143400000Y-103000000D02*
X152450000Y-93950000D01*
%TO.N,GPIO3{slash}ADC2*%
X151850000Y-92250000D02*
X157700000Y-92250000D01*
X136400000Y-113150000D02*
X136400000Y-107700000D01*
X136400000Y-107700000D02*
X151850000Y-92250000D01*
%TO.N,GPIO4{slash}ADC3*%
X152200000Y-93100000D02*
X157700000Y-93100000D01*
X139900000Y-113150000D02*
X139900000Y-105400000D01*
X139900000Y-105400000D02*
X152200000Y-93100000D01*
%TO.N,GPIO6{slash}ADC5*%
X146900000Y-100600000D02*
X146900000Y-113150000D01*
X157700000Y-94800000D02*
X152700000Y-94800000D01*
X152700000Y-94800000D02*
X146900000Y-100600000D01*
%TO.N,Net-(U1-GPIO14{slash}TOUCH14{slash}ADC2_CH3{slash}FSPIWP{slash}FSPIDQS{slash}SUBSPIWP)*%
X160475000Y-102200000D02*
X160475000Y-100125000D01*
X160475000Y-100125000D02*
X160450000Y-100100000D01*
D55*
%TO.N,GND*%
X162600000Y-116080000D02*
X162670000Y-116150000D01*
X162600000Y-114430000D02*
X162600000Y-116080000D01*
%TD*%
%TA.AperFunction,Conductor*%
%TO.N,+5V*%
G36*
X176938716Y-69736957D02*
G01*
X176940474Y-69737075D01*
X176947531Y-69737075D01*
X177010874Y-69737075D01*
X177015998Y-69737180D01*
X177450074Y-69755136D01*
X177460243Y-69755979D01*
X177888850Y-69809406D01*
X177898927Y-69811088D01*
X178321641Y-69899723D01*
X178331549Y-69902232D01*
X178745501Y-70025472D01*
X178755168Y-70028791D01*
X179062775Y-70148821D01*
X179157510Y-70185787D01*
X179166895Y-70189904D01*
X179554885Y-70379581D01*
X179563894Y-70384455D01*
X179934921Y-70605540D01*
X179943489Y-70611138D01*
X180294985Y-70862102D01*
X180303067Y-70868393D01*
X180632622Y-71147512D01*
X180640162Y-71154453D01*
X180945546Y-71459837D01*
X180952487Y-71467377D01*
X181231606Y-71796932D01*
X181237901Y-71805019D01*
X181488857Y-72156504D01*
X181494463Y-72165084D01*
X181715541Y-72536100D01*
X181720418Y-72545114D01*
X181910095Y-72933104D01*
X181914212Y-72942489D01*
X182071203Y-73344818D01*
X182074531Y-73354511D01*
X182197763Y-73768437D01*
X182200279Y-73778372D01*
X182288908Y-74201058D01*
X182290595Y-74211166D01*
X182344018Y-74639732D01*
X182344864Y-74649946D01*
X182362817Y-75083987D01*
X182362923Y-75089154D01*
X182349524Y-114926006D01*
X182349500Y-114926390D01*
X182349500Y-114997438D01*
X182349394Y-115002562D01*
X182331441Y-115436629D01*
X182330595Y-115446843D01*
X182277174Y-115875410D01*
X182275487Y-115885519D01*
X182186859Y-116308206D01*
X182184343Y-116318141D01*
X182061111Y-116732068D01*
X182057783Y-116741761D01*
X181900795Y-117144085D01*
X181896679Y-117153470D01*
X181706998Y-117541471D01*
X181702120Y-117550485D01*
X181481045Y-117921496D01*
X181475439Y-117930075D01*
X181224483Y-118281561D01*
X181218188Y-118289649D01*
X180939069Y-118619204D01*
X180932128Y-118626744D01*
X180626744Y-118932128D01*
X180619204Y-118939069D01*
X180289649Y-119218188D01*
X180281561Y-119224483D01*
X179930075Y-119475439D01*
X179921496Y-119481045D01*
X179550485Y-119702120D01*
X179541471Y-119706998D01*
X179153470Y-119896679D01*
X179144085Y-119900795D01*
X178741761Y-120057783D01*
X178732068Y-120061111D01*
X178318141Y-120184343D01*
X178308206Y-120186859D01*
X177885519Y-120275487D01*
X177875410Y-120277174D01*
X177446843Y-120330595D01*
X177436629Y-120331441D01*
X177002563Y-120349394D01*
X176997439Y-120349500D01*
X169167270Y-120349500D01*
X169100231Y-120329815D01*
X169054476Y-120277011D01*
X169044532Y-120207853D01*
X169073557Y-120144297D01*
X169079589Y-120137819D01*
X169104234Y-120113174D01*
X169146621Y-120070787D01*
X169255378Y-119921096D01*
X169339379Y-119756235D01*
X169396555Y-119580264D01*
X169425500Y-119397514D01*
X169425500Y-119366294D01*
X169433319Y-119322958D01*
X169439090Y-119307485D01*
X169439091Y-119307483D01*
X169445500Y-119247873D01*
X169445499Y-118414530D01*
X169465183Y-118347492D01*
X169517987Y-118301737D01*
X169536455Y-118295406D01*
X169539979Y-118294091D01*
X169539983Y-118294091D01*
X169674831Y-118243796D01*
X169790046Y-118157546D01*
X169876296Y-118042331D01*
X169926591Y-117907483D01*
X169933000Y-117847873D01*
X169932999Y-117052128D01*
X169926591Y-116992517D01*
X169926591Y-116992516D01*
X169924808Y-116984972D01*
X169925695Y-116984762D01*
X169919600Y-116936237D01*
X169920500Y-116927873D01*
X169920499Y-115332128D01*
X169914091Y-115272517D01*
X169871256Y-115157671D01*
X169863797Y-115137671D01*
X169863793Y-115137664D01*
X169777547Y-115022455D01*
X169777544Y-115022452D01*
X169662335Y-114936206D01*
X169662328Y-114936202D01*
X169527482Y-114885908D01*
X169527483Y-114885908D01*
X169467883Y-114879501D01*
X169467881Y-114879500D01*
X169467873Y-114879500D01*
X169467865Y-114879500D01*
X168974500Y-114879500D01*
X168938305Y-114868872D01*
X174999500Y-114868872D01*
X174999500Y-115131127D01*
X175020749Y-115292517D01*
X175033730Y-115391116D01*
X175048662Y-115446843D01*
X175101602Y-115644418D01*
X175101605Y-115644428D01*
X175201953Y-115886690D01*
X175201958Y-115886700D01*
X175333075Y-116113803D01*
X175492718Y-116321851D01*
X175492726Y-116321860D01*
X175678140Y-116507274D01*
X175678148Y-116507281D01*
X175886196Y-116666924D01*
X176113299Y-116798041D01*
X176113309Y-116798046D01*
X176355571Y-116898394D01*
X176355581Y-116898398D01*
X176608884Y-116966270D01*
X176868880Y-117000500D01*
X176868887Y-117000500D01*
X177131113Y-117000500D01*
X177131120Y-117000500D01*
X177391116Y-116966270D01*
X177644419Y-116898398D01*
X177886697Y-116798043D01*
X178113803Y-116666924D01*
X178321851Y-116507282D01*
X178321855Y-116507277D01*
X178321860Y-116507274D01*
X178507274Y-116321860D01*
X178507277Y-116321855D01*
X178507282Y-116321851D01*
X178666924Y-116113803D01*
X178798043Y-115886697D01*
X178898398Y-115644419D01*
X178966270Y-115391116D01*
X179000500Y-115131120D01*
X179000500Y-114868880D01*
X178966270Y-114608884D01*
X178898398Y-114355581D01*
X178887802Y-114330000D01*
X178798046Y-114113309D01*
X178798041Y-114113299D01*
X178666924Y-113886196D01*
X178507281Y-113678148D01*
X178507274Y-113678140D01*
X178321860Y-113492726D01*
X178321851Y-113492718D01*
X178113803Y-113333075D01*
X177886700Y-113201958D01*
X177886690Y-113201953D01*
X177644428Y-113101605D01*
X177644421Y-113101603D01*
X177644419Y-113101602D01*
X177391116Y-113033730D01*
X177333339Y-113026123D01*
X177131127Y-112999500D01*
X177131120Y-112999500D01*
X176868880Y-112999500D01*
X176868872Y-112999500D01*
X176637772Y-113029926D01*
X176608884Y-113033730D01*
X176418235Y-113084814D01*
X176355581Y-113101602D01*
X176355571Y-113101605D01*
X176113309Y-113201953D01*
X176113299Y-113201958D01*
X175886196Y-113333075D01*
X175678148Y-113492718D01*
X175492718Y-113678148D01*
X175333075Y-113886196D01*
X175201958Y-114113299D01*
X175201953Y-114113309D01*
X175101605Y-114355571D01*
X175101602Y-114355581D01*
X175038165Y-114592335D01*
X175033730Y-114608885D01*
X174999500Y-114868872D01*
X168938305Y-114868872D01*
X168907461Y-114859815D01*
X168861706Y-114807011D01*
X168850500Y-114755500D01*
X168850500Y-114629972D01*
X168857458Y-114589017D01*
X168885368Y-114509254D01*
X168885369Y-114509249D01*
X168905565Y-114330003D01*
X168905565Y-114329996D01*
X168885369Y-114150750D01*
X168885368Y-114150745D01*
X168871325Y-114110612D01*
X168825789Y-113980478D01*
X168729816Y-113827738D01*
X168602262Y-113700184D01*
X168567179Y-113678140D01*
X168449523Y-113604211D01*
X168279254Y-113544631D01*
X168279249Y-113544630D01*
X168100004Y-113524435D01*
X168099996Y-113524435D01*
X167920750Y-113544630D01*
X167920745Y-113544631D01*
X167750476Y-113604211D01*
X167597737Y-113700184D01*
X167470184Y-113827737D01*
X167374211Y-113980476D01*
X167314631Y-114150745D01*
X167314630Y-114150750D01*
X167294435Y-114329996D01*
X167294435Y-114330003D01*
X167314630Y-114509249D01*
X167314631Y-114509254D01*
X167342542Y-114589017D01*
X167349500Y-114629972D01*
X167349500Y-114786020D01*
X167329815Y-114853059D01*
X167277011Y-114898814D01*
X167268832Y-114902202D01*
X167202137Y-114927077D01*
X167132445Y-114932061D01*
X167130296Y-114931573D01*
X167127493Y-114930910D01*
X167123597Y-114930491D01*
X167067873Y-114924500D01*
X167067863Y-114924500D01*
X166572129Y-114924500D01*
X166572120Y-114924501D01*
X166508248Y-114931367D01*
X166481742Y-114931367D01*
X166477483Y-114930909D01*
X166417873Y-114924500D01*
X166417867Y-114924500D01*
X166344500Y-114924500D01*
X166277461Y-114904815D01*
X166231706Y-114852011D01*
X166220500Y-114800500D01*
X166220500Y-112821519D01*
X166240185Y-112754480D01*
X166256819Y-112733838D01*
X166644112Y-112346545D01*
X166644114Y-112346543D01*
X166720775Y-112231811D01*
X166773580Y-112104328D01*
X166789737Y-112023103D01*
X166800500Y-111968996D01*
X166800500Y-111368469D01*
X166817768Y-111305348D01*
X166851744Y-111247898D01*
X166897598Y-111090069D01*
X166900500Y-111053194D01*
X166900500Y-109896806D01*
X166897598Y-109859931D01*
X166851744Y-109702102D01*
X166768081Y-109560635D01*
X166768079Y-109560633D01*
X166768076Y-109560629D01*
X166651870Y-109444423D01*
X166651867Y-109444421D01*
X166651865Y-109444419D01*
X166651549Y-109444232D01*
X166651353Y-109444022D01*
X166645702Y-109439639D01*
X166646409Y-109438727D01*
X166603866Y-109393164D01*
X166591362Y-109324423D01*
X166618006Y-109259833D01*
X166645921Y-109235644D01*
X166645702Y-109235361D01*
X166650911Y-109231320D01*
X166651550Y-109230767D01*
X166651865Y-109230581D01*
X166768081Y-109114365D01*
X166851744Y-108972898D01*
X166897598Y-108815069D01*
X166900500Y-108778194D01*
X166900500Y-108052135D01*
X171899500Y-108052135D01*
X171899500Y-109147870D01*
X171899501Y-109147876D01*
X171905908Y-109207483D01*
X171956202Y-109342328D01*
X171956206Y-109342335D01*
X172042452Y-109457544D01*
X172042455Y-109457547D01*
X172157664Y-109543793D01*
X172157671Y-109543797D01*
X172202618Y-109560561D01*
X172292517Y-109594091D01*
X172352127Y-109600500D01*
X172375497Y-109600499D01*
X172442536Y-109620181D01*
X172488292Y-109672983D01*
X172499500Y-109724499D01*
X172499500Y-110298085D01*
X172498720Y-110311969D01*
X172494435Y-110349998D01*
X172494435Y-110350003D01*
X172514630Y-110529249D01*
X172514631Y-110529254D01*
X172574211Y-110699523D01*
X172670184Y-110852262D01*
X172797738Y-110979816D01*
X172888080Y-111036582D01*
X172914505Y-111053186D01*
X172950478Y-111075789D01*
X173120745Y-111135368D01*
X173120750Y-111135369D01*
X173299996Y-111155565D01*
X173300000Y-111155565D01*
X173300004Y-111155565D01*
X173479249Y-111135369D01*
X173479252Y-111135368D01*
X173479255Y-111135368D01*
X173649522Y-111075789D01*
X173802262Y-110979816D01*
X173929816Y-110852262D01*
X174025789Y-110699522D01*
X174085368Y-110529255D01*
X174105565Y-110350000D01*
X174105563Y-110349983D01*
X174085369Y-110170750D01*
X174085366Y-110170737D01*
X174025790Y-110000479D01*
X174019506Y-109990478D01*
X174000500Y-109924507D01*
X174000500Y-109724499D01*
X174020185Y-109657460D01*
X174072989Y-109611705D01*
X174124500Y-109600499D01*
X174147871Y-109600499D01*
X174147872Y-109600499D01*
X174207483Y-109594091D01*
X174342331Y-109543796D01*
X174457546Y-109457546D01*
X174484227Y-109421903D01*
X174500485Y-109400188D01*
X174556419Y-109358318D01*
X174599751Y-109350500D01*
X178200249Y-109350500D01*
X178267288Y-109370185D01*
X178299515Y-109400188D01*
X178328366Y-109438727D01*
X178342454Y-109457546D01*
X178342457Y-109457548D01*
X178457664Y-109543793D01*
X178457671Y-109543797D01*
X178592517Y-109594091D01*
X178592516Y-109594091D01*
X178599444Y-109594835D01*
X178652127Y-109600500D01*
X180447872Y-109600499D01*
X180507483Y-109594091D01*
X180642331Y-109543796D01*
X180757546Y-109457546D01*
X180843796Y-109342331D01*
X180894091Y-109207483D01*
X180900500Y-109147873D01*
X180900499Y-108052128D01*
X180894091Y-107992517D01*
X180859584Y-107900000D01*
X180843797Y-107857671D01*
X180843793Y-107857664D01*
X180757547Y-107742455D01*
X180757544Y-107742452D01*
X180642335Y-107656206D01*
X180642328Y-107656202D01*
X180507482Y-107605908D01*
X180507483Y-107605908D01*
X180447883Y-107599501D01*
X180447881Y-107599500D01*
X180447873Y-107599500D01*
X180447864Y-107599500D01*
X178652129Y-107599500D01*
X178652123Y-107599501D01*
X178592516Y-107605908D01*
X178457671Y-107656202D01*
X178457664Y-107656206D01*
X178342457Y-107742451D01*
X178342451Y-107742457D01*
X178299515Y-107799812D01*
X178243581Y-107841682D01*
X178200249Y-107849500D01*
X174599751Y-107849500D01*
X174532712Y-107829815D01*
X174500485Y-107799812D01*
X174457548Y-107742457D01*
X174457546Y-107742454D01*
X174457542Y-107742451D01*
X174342335Y-107656206D01*
X174342328Y-107656202D01*
X174207482Y-107605908D01*
X174207483Y-107605908D01*
X174147883Y-107599501D01*
X174147881Y-107599500D01*
X174147873Y-107599500D01*
X174147864Y-107599500D01*
X172352129Y-107599500D01*
X172352123Y-107599501D01*
X172292516Y-107605908D01*
X172157671Y-107656202D01*
X172157664Y-107656206D01*
X172042455Y-107742452D01*
X172042452Y-107742455D01*
X171956206Y-107857664D01*
X171956202Y-107857671D01*
X171905908Y-107992517D01*
X171899501Y-108052116D01*
X171899501Y-108052123D01*
X171899500Y-108052135D01*
X166900500Y-108052135D01*
X166900500Y-107621806D01*
X166897598Y-107584931D01*
X166871001Y-107493386D01*
X166851745Y-107427106D01*
X166851744Y-107427103D01*
X166851744Y-107427102D01*
X166768081Y-107285635D01*
X166768079Y-107285633D01*
X166768076Y-107285629D01*
X166749319Y-107266872D01*
X166715834Y-107205549D01*
X166713000Y-107179191D01*
X166713000Y-104148428D01*
X166702883Y-104097570D01*
X166700500Y-104073378D01*
X166700500Y-101235928D01*
X166676786Y-101116716D01*
X166683013Y-101047125D01*
X166725875Y-100991947D01*
X166755068Y-100976342D01*
X166781667Y-100966421D01*
X166851359Y-100961438D01*
X166868327Y-100966420D01*
X166929010Y-100989053D01*
X166936768Y-100991947D01*
X166942517Y-100994091D01*
X167002127Y-101000500D01*
X167497872Y-101000499D01*
X167557483Y-100994091D01*
X167631667Y-100966421D01*
X167701358Y-100961438D01*
X167718327Y-100966420D01*
X167779010Y-100989053D01*
X167786768Y-100991947D01*
X167792517Y-100994091D01*
X167852127Y-101000500D01*
X168347872Y-101000499D01*
X168407483Y-100994091D01*
X168481667Y-100966421D01*
X168551358Y-100961438D01*
X168568327Y-100966420D01*
X168629010Y-100989053D01*
X168636768Y-100991947D01*
X168642517Y-100994091D01*
X168702127Y-101000500D01*
X169197872Y-101000499D01*
X169257483Y-100994091D01*
X169331667Y-100966421D01*
X169401358Y-100961438D01*
X169418327Y-100966420D01*
X169479010Y-100989053D01*
X169486768Y-100991947D01*
X169492517Y-100994091D01*
X169552127Y-101000500D01*
X170047872Y-101000499D01*
X170107483Y-100994091D01*
X170181667Y-100966421D01*
X170251358Y-100961438D01*
X170268327Y-100966420D01*
X170329010Y-100989053D01*
X170336768Y-100991947D01*
X170342517Y-100994091D01*
X170402127Y-101000500D01*
X170825500Y-101000499D01*
X170892539Y-101020183D01*
X170938294Y-101072987D01*
X170949500Y-101124499D01*
X170949500Y-101400028D01*
X170942542Y-101440982D01*
X170914631Y-101520747D01*
X170894435Y-101699996D01*
X170894435Y-101700003D01*
X170914630Y-101879249D01*
X170914631Y-101879254D01*
X170974211Y-102049523D01*
X171037660Y-102150500D01*
X171070184Y-102202262D01*
X171197738Y-102329816D01*
X171350478Y-102425789D01*
X171439134Y-102456811D01*
X171520745Y-102485368D01*
X171520750Y-102485369D01*
X171699996Y-102505565D01*
X171700000Y-102505565D01*
X171700004Y-102505565D01*
X171879249Y-102485369D01*
X171879252Y-102485368D01*
X171879255Y-102485368D01*
X172049522Y-102425789D01*
X172202262Y-102329816D01*
X172287819Y-102244259D01*
X172349142Y-102210774D01*
X172418834Y-102215758D01*
X172474767Y-102257630D01*
X172499184Y-102323094D01*
X172499500Y-102331940D01*
X172499500Y-103331006D01*
X172499500Y-103468994D01*
X172499500Y-103468996D01*
X172499499Y-103468996D01*
X172526418Y-103604322D01*
X172526420Y-103604328D01*
X172535309Y-103625789D01*
X172536245Y-103628047D01*
X172543714Y-103697516D01*
X172512439Y-103759996D01*
X172452350Y-103795648D01*
X172421686Y-103799500D01*
X172352130Y-103799500D01*
X172352123Y-103799501D01*
X172292516Y-103805908D01*
X172157671Y-103856202D01*
X172157664Y-103856206D01*
X172042455Y-103942452D01*
X172042452Y-103942455D01*
X171956206Y-104057664D01*
X171956202Y-104057671D01*
X171905908Y-104192517D01*
X171899780Y-104249522D01*
X171899501Y-104252123D01*
X171899500Y-104252135D01*
X171899500Y-105347870D01*
X171899501Y-105347876D01*
X171905908Y-105407483D01*
X171956202Y-105542328D01*
X171956206Y-105542335D01*
X172042452Y-105657544D01*
X172042455Y-105657547D01*
X172157664Y-105743793D01*
X172157671Y-105743797D01*
X172292517Y-105794091D01*
X172292516Y-105794091D01*
X172299444Y-105794835D01*
X172352127Y-105800500D01*
X174147872Y-105800499D01*
X174207483Y-105794091D01*
X174342331Y-105743796D01*
X174457546Y-105657546D01*
X174537914Y-105550188D01*
X174593847Y-105508318D01*
X174637180Y-105500500D01*
X178162820Y-105500500D01*
X178229859Y-105520185D01*
X178262085Y-105550187D01*
X178342454Y-105657546D01*
X178386017Y-105690157D01*
X178457664Y-105743793D01*
X178457671Y-105743797D01*
X178592517Y-105794091D01*
X178592516Y-105794091D01*
X178599444Y-105794835D01*
X178652127Y-105800500D01*
X180447872Y-105800499D01*
X180507483Y-105794091D01*
X180642331Y-105743796D01*
X180757546Y-105657546D01*
X180843796Y-105542331D01*
X180894091Y-105407483D01*
X180900500Y-105347873D01*
X180900499Y-104252128D01*
X180894091Y-104192517D01*
X180877213Y-104147266D01*
X180843797Y-104057671D01*
X180843793Y-104057664D01*
X180757547Y-103942455D01*
X180757544Y-103942452D01*
X180642335Y-103856206D01*
X180642328Y-103856202D01*
X180500215Y-103803198D01*
X180501022Y-103801033D01*
X180450359Y-103772187D01*
X180417970Y-103710278D01*
X180424194Y-103640686D01*
X180451905Y-103598398D01*
X180547576Y-103502727D01*
X180636542Y-103358492D01*
X180636547Y-103358481D01*
X180672495Y-103250000D01*
X179424000Y-103250000D01*
X179356961Y-103230315D01*
X179311206Y-103177511D01*
X179300000Y-103126000D01*
X179300000Y-102350000D01*
X180200000Y-102350000D01*
X180672494Y-102350000D01*
X180636547Y-102241518D01*
X180636542Y-102241507D01*
X180547575Y-102097271D01*
X180547572Y-102097267D01*
X180427732Y-101977427D01*
X180422065Y-101972946D01*
X180423544Y-101971075D01*
X180384433Y-101927596D01*
X180373208Y-101858634D01*
X180401048Y-101794551D01*
X180459115Y-101755692D01*
X180496252Y-101750000D01*
X180547828Y-101750000D01*
X180547844Y-101749999D01*
X180607372Y-101743598D01*
X180607379Y-101743596D01*
X180742086Y-101693354D01*
X180742093Y-101693350D01*
X180857187Y-101607190D01*
X180857190Y-101607187D01*
X180943350Y-101492093D01*
X180943354Y-101492086D01*
X180993596Y-101357379D01*
X180993598Y-101357372D01*
X180999999Y-101297844D01*
X181000000Y-101297827D01*
X181000000Y-101250000D01*
X180200000Y-101250000D01*
X180200000Y-102350000D01*
X179300000Y-102350000D01*
X179300000Y-101250000D01*
X178500000Y-101250000D01*
X178500000Y-101297844D01*
X178506401Y-101357372D01*
X178506403Y-101357379D01*
X178556645Y-101492086D01*
X178556649Y-101492093D01*
X178642808Y-101607186D01*
X178647637Y-101610801D01*
X178689508Y-101666735D01*
X178694492Y-101736426D01*
X178661007Y-101797750D01*
X178599684Y-101831234D01*
X178560724Y-101833426D01*
X178473347Y-101824500D01*
X177926662Y-101824500D01*
X177926644Y-101824501D01*
X177827292Y-101834650D01*
X177827289Y-101834651D01*
X177666305Y-101887996D01*
X177666294Y-101888001D01*
X177521959Y-101977029D01*
X177460364Y-102038624D01*
X177399040Y-102072108D01*
X177331729Y-102067984D01*
X177179257Y-102014632D01*
X177179249Y-102014630D01*
X177000004Y-101994435D01*
X176999996Y-101994435D01*
X176820750Y-102014630D01*
X176820745Y-102014631D01*
X176650476Y-102074211D01*
X176497737Y-102170184D01*
X176370184Y-102297737D01*
X176274211Y-102450476D01*
X176214631Y-102620745D01*
X176214630Y-102620750D01*
X176194435Y-102799996D01*
X176194435Y-102800003D01*
X176214630Y-102979249D01*
X176214631Y-102979254D01*
X176274211Y-103149523D01*
X176339757Y-103253838D01*
X176370184Y-103302262D01*
X176497738Y-103429816D01*
X176560093Y-103468996D01*
X176614279Y-103503044D01*
X176650478Y-103525789D01*
X176752180Y-103561376D01*
X176820745Y-103585368D01*
X176820750Y-103585369D01*
X176999996Y-103605565D01*
X177000000Y-103605565D01*
X177000004Y-103605565D01*
X177179249Y-103585369D01*
X177179251Y-103585368D01*
X177179255Y-103585368D01*
X177179258Y-103585366D01*
X177179262Y-103585366D01*
X177331728Y-103532016D01*
X177401507Y-103528454D01*
X177460364Y-103561376D01*
X177521955Y-103622967D01*
X177521959Y-103622970D01*
X177666294Y-103711998D01*
X177666297Y-103711999D01*
X177666303Y-103712003D01*
X177827292Y-103765349D01*
X177926655Y-103775500D01*
X178219715Y-103775499D01*
X178286753Y-103795183D01*
X178332508Y-103847987D01*
X178342452Y-103917146D01*
X178318981Y-103973809D01*
X178272533Y-104035857D01*
X178262087Y-104049811D01*
X178206153Y-104091682D01*
X178162820Y-104099500D01*
X174637180Y-104099500D01*
X174570141Y-104079815D01*
X174537913Y-104049811D01*
X174457546Y-103942454D01*
X174431901Y-103923256D01*
X174342335Y-103856206D01*
X174342328Y-103856202D01*
X174207482Y-103805908D01*
X174207483Y-103805908D01*
X174147883Y-103799501D01*
X174147881Y-103799500D01*
X174147873Y-103799500D01*
X174147865Y-103799500D01*
X174074500Y-103799500D01*
X174007461Y-103779815D01*
X173961706Y-103727011D01*
X173950500Y-103675500D01*
X173950500Y-103381006D01*
X173943161Y-103344115D01*
X173943161Y-103344112D01*
X173929310Y-103274480D01*
X173923580Y-103245672D01*
X173909937Y-103212734D01*
X173900500Y-103165287D01*
X173900500Y-101872243D01*
X173920185Y-101805204D01*
X173972989Y-101759449D01*
X174037756Y-101748954D01*
X174052127Y-101750500D01*
X175647872Y-101750499D01*
X175707483Y-101744091D01*
X175842331Y-101693796D01*
X175957546Y-101607546D01*
X176043796Y-101492331D01*
X176094091Y-101357483D01*
X176100500Y-101297873D01*
X176100499Y-100302155D01*
X178500000Y-100302155D01*
X178500000Y-100350000D01*
X179300000Y-100350000D01*
X180200000Y-100350000D01*
X181000000Y-100350000D01*
X181000000Y-100302172D01*
X180999999Y-100302155D01*
X180993598Y-100242627D01*
X180993596Y-100242620D01*
X180943354Y-100107913D01*
X180943350Y-100107906D01*
X180857190Y-99992812D01*
X180857187Y-99992809D01*
X180742093Y-99906649D01*
X180742086Y-99906645D01*
X180607379Y-99856403D01*
X180607372Y-99856401D01*
X180547844Y-99850000D01*
X180200000Y-99850000D01*
X180200000Y-100350000D01*
X179300000Y-100350000D01*
X179300000Y-99850000D01*
X178952155Y-99850000D01*
X178892627Y-99856401D01*
X178892620Y-99856403D01*
X178757913Y-99906645D01*
X178757906Y-99906649D01*
X178642812Y-99992809D01*
X178642809Y-99992812D01*
X178556649Y-100107906D01*
X178556645Y-100107913D01*
X178506403Y-100242620D01*
X178506401Y-100242627D01*
X178500000Y-100302155D01*
X176100499Y-100302155D01*
X176100499Y-100302128D01*
X176094091Y-100242517D01*
X176091937Y-100236743D01*
X176043797Y-100107671D01*
X176043793Y-100107664D01*
X175957547Y-99992455D01*
X175957544Y-99992452D01*
X175842335Y-99906206D01*
X175842328Y-99906202D01*
X175707482Y-99855908D01*
X175707484Y-99855908D01*
X175652880Y-99850038D01*
X175588329Y-99823300D01*
X175548481Y-99765907D01*
X175544519Y-99750940D01*
X175544431Y-99750500D01*
X175524864Y-99652127D01*
X175523580Y-99645671D01*
X175501563Y-99592517D01*
X175470775Y-99518189D01*
X175464840Y-99509306D01*
X175394117Y-99403462D01*
X175394116Y-99403461D01*
X175394114Y-99403458D01*
X175296542Y-99305886D01*
X174981004Y-98990348D01*
X174652837Y-98662180D01*
X174619352Y-98600857D01*
X174624336Y-98531165D01*
X174666208Y-98475232D01*
X174731672Y-98450815D01*
X174740518Y-98450499D01*
X175647871Y-98450499D01*
X175647872Y-98450499D01*
X175707483Y-98444091D01*
X175842331Y-98393796D01*
X175957546Y-98307546D01*
X176043796Y-98192331D01*
X176094091Y-98057483D01*
X176100500Y-97997873D01*
X176100499Y-97390515D01*
X176120183Y-97323478D01*
X176172987Y-97277723D01*
X176242146Y-97267779D01*
X176305702Y-97296804D01*
X176312180Y-97302836D01*
X176955886Y-97946542D01*
X177007081Y-97997737D01*
X177053459Y-98044115D01*
X177168182Y-98120771D01*
X177168189Y-98120775D01*
X177239897Y-98150477D01*
X177239898Y-98150478D01*
X177263000Y-98160046D01*
X177295671Y-98173580D01*
X177295680Y-98173581D01*
X177295681Y-98173582D01*
X177322545Y-98178925D01*
X177322551Y-98178926D01*
X177322591Y-98178934D01*
X177412937Y-98196905D01*
X177431006Y-98200500D01*
X177431007Y-98200500D01*
X178500249Y-98200500D01*
X178567288Y-98220185D01*
X178599515Y-98250188D01*
X178642451Y-98307542D01*
X178642454Y-98307546D01*
X178642457Y-98307548D01*
X178757664Y-98393793D01*
X178757671Y-98393797D01*
X178892517Y-98444091D01*
X178892516Y-98444091D01*
X178899444Y-98444835D01*
X178952127Y-98450500D01*
X180547872Y-98450499D01*
X180607483Y-98444091D01*
X180742331Y-98393796D01*
X180857546Y-98307546D01*
X180943796Y-98192331D01*
X180994091Y-98057483D01*
X181000500Y-97997873D01*
X181000499Y-97002128D01*
X180994091Y-96942517D01*
X180989353Y-96929815D01*
X180943797Y-96807671D01*
X180943793Y-96807664D01*
X180857547Y-96692455D01*
X180857544Y-96692452D01*
X180742335Y-96606206D01*
X180742328Y-96606202D01*
X180653088Y-96572918D01*
X180597154Y-96531047D01*
X180572737Y-96465582D01*
X180587589Y-96397310D01*
X180631324Y-96351197D01*
X180677733Y-96322571D01*
X180797572Y-96202732D01*
X180797575Y-96202728D01*
X180886542Y-96058492D01*
X180886547Y-96058481D01*
X180922495Y-95950000D01*
X179674000Y-95950000D01*
X179606961Y-95930315D01*
X179561206Y-95877511D01*
X179550000Y-95826000D01*
X179550000Y-94560789D01*
X179549999Y-94560788D01*
X179513004Y-94573048D01*
X179443175Y-94575450D01*
X179383133Y-94539718D01*
X179351941Y-94477197D01*
X179350000Y-94455342D01*
X179350000Y-94450000D01*
X180250000Y-94450000D01*
X180326000Y-94450000D01*
X180393039Y-94469685D01*
X180438794Y-94522489D01*
X180450000Y-94574000D01*
X180450000Y-95050000D01*
X180922494Y-95050000D01*
X180886547Y-94941518D01*
X180886542Y-94941507D01*
X180797575Y-94797271D01*
X180797572Y-94797267D01*
X180677732Y-94677427D01*
X180677728Y-94677424D01*
X180649625Y-94660089D01*
X180602901Y-94608140D01*
X180591681Y-94539177D01*
X180619526Y-94475096D01*
X180671392Y-94438370D01*
X180792084Y-94393355D01*
X180792093Y-94393350D01*
X180907187Y-94307190D01*
X180907190Y-94307187D01*
X180993350Y-94192093D01*
X180993354Y-94192086D01*
X181043596Y-94057379D01*
X181043598Y-94057372D01*
X181049999Y-93997844D01*
X181050000Y-93997827D01*
X181050000Y-93950000D01*
X180250000Y-93950000D01*
X180250000Y-94450000D01*
X179350000Y-94450000D01*
X179350000Y-93950000D01*
X178550000Y-93950000D01*
X178550000Y-93997844D01*
X178556401Y-94057372D01*
X178556403Y-94057379D01*
X178606645Y-94192086D01*
X178606649Y-94192093D01*
X178692809Y-94307187D01*
X178698441Y-94312819D01*
X178731926Y-94374142D01*
X178726942Y-94443834D01*
X178685070Y-94499767D01*
X178619606Y-94524184D01*
X178610760Y-94524500D01*
X178176662Y-94524500D01*
X178176644Y-94524501D01*
X178077292Y-94534650D01*
X178077289Y-94534651D01*
X177916305Y-94587996D01*
X177916294Y-94588001D01*
X177771959Y-94677029D01*
X177757777Y-94691211D01*
X177696453Y-94724694D01*
X177626761Y-94719708D01*
X177604126Y-94708521D01*
X177549522Y-94674211D01*
X177379254Y-94614631D01*
X177379249Y-94614630D01*
X177200004Y-94594435D01*
X177199996Y-94594435D01*
X177020750Y-94614630D01*
X177020745Y-94614631D01*
X176850476Y-94674211D01*
X176697737Y-94770184D01*
X176570184Y-94897737D01*
X176474209Y-95050480D01*
X176427129Y-95185025D01*
X176386407Y-95241801D01*
X176321454Y-95267548D01*
X176252893Y-95254091D01*
X176222407Y-95231751D01*
X175919036Y-94928380D01*
X175649341Y-94658684D01*
X175615857Y-94597363D01*
X175620841Y-94527671D01*
X175662713Y-94471738D01*
X175723770Y-94447715D01*
X175757483Y-94444091D01*
X175826549Y-94418331D01*
X175892331Y-94393796D01*
X176007546Y-94307546D01*
X176093796Y-94192331D01*
X176144091Y-94057483D01*
X176150500Y-93997873D01*
X176150499Y-93002155D01*
X178550000Y-93002155D01*
X178550000Y-93050000D01*
X179350000Y-93050000D01*
X180250000Y-93050000D01*
X181050000Y-93050000D01*
X181050000Y-93002172D01*
X181049999Y-93002155D01*
X181043598Y-92942627D01*
X181043596Y-92942620D01*
X180993354Y-92807913D01*
X180993350Y-92807906D01*
X180907190Y-92692812D01*
X180907187Y-92692809D01*
X180792093Y-92606649D01*
X180792086Y-92606645D01*
X180657379Y-92556403D01*
X180657372Y-92556401D01*
X180597844Y-92550000D01*
X180250000Y-92550000D01*
X180250000Y-93050000D01*
X179350000Y-93050000D01*
X179350000Y-92550000D01*
X179002155Y-92550000D01*
X178942627Y-92556401D01*
X178942620Y-92556403D01*
X178807913Y-92606645D01*
X178807906Y-92606649D01*
X178692812Y-92692809D01*
X178692809Y-92692812D01*
X178606649Y-92807906D01*
X178606645Y-92807913D01*
X178556403Y-92942620D01*
X178556401Y-92942627D01*
X178550000Y-93002155D01*
X176150499Y-93002155D01*
X176150499Y-93002128D01*
X176144479Y-92946124D01*
X176144091Y-92942516D01*
X176093797Y-92807671D01*
X176093793Y-92807664D01*
X176007547Y-92692455D01*
X176007544Y-92692452D01*
X175892335Y-92606206D01*
X175892328Y-92606202D01*
X175757482Y-92555908D01*
X175757483Y-92555908D01*
X175697883Y-92549501D01*
X175697881Y-92549500D01*
X175697873Y-92549500D01*
X175697864Y-92549500D01*
X174102129Y-92549500D01*
X174102123Y-92549501D01*
X174042516Y-92555908D01*
X173907671Y-92606202D01*
X173907664Y-92606206D01*
X173792455Y-92692452D01*
X173792452Y-92692455D01*
X173706206Y-92807664D01*
X173706202Y-92807671D01*
X173655908Y-92942517D01*
X173649728Y-93000003D01*
X173649501Y-93002123D01*
X173649500Y-93002135D01*
X173649500Y-93997870D01*
X173649501Y-93997876D01*
X173655908Y-94057483D01*
X173706202Y-94192328D01*
X173706203Y-94192329D01*
X173706204Y-94192331D01*
X173792452Y-94307543D01*
X173792455Y-94307547D01*
X173802159Y-94314811D01*
X173824674Y-94331666D01*
X173849810Y-94350482D01*
X173891682Y-94406415D01*
X173899500Y-94449749D01*
X173899500Y-94531006D01*
X173899500Y-94668994D01*
X173899500Y-94668996D01*
X173899499Y-94668996D01*
X173926418Y-94804322D01*
X173926421Y-94804332D01*
X173979222Y-94931807D01*
X174055887Y-95046545D01*
X174055888Y-95046546D01*
X175347162Y-96337819D01*
X175380647Y-96399142D01*
X175375663Y-96468834D01*
X175333791Y-96524767D01*
X175268327Y-96549184D01*
X175259481Y-96549500D01*
X174762229Y-96549500D01*
X174695190Y-96529815D01*
X174674548Y-96513181D01*
X174416413Y-96255046D01*
X174153308Y-95991940D01*
X174130643Y-95955870D01*
X174128812Y-95956753D01*
X174125792Y-95950483D01*
X174125489Y-95950000D01*
X174029816Y-95797738D01*
X173902262Y-95670184D01*
X173845968Y-95634812D01*
X173749523Y-95574211D01*
X173579254Y-95514631D01*
X173579249Y-95514630D01*
X173400004Y-95494435D01*
X173399996Y-95494435D01*
X173220750Y-95514630D01*
X173220745Y-95514631D01*
X173050476Y-95574211D01*
X172897739Y-95670183D01*
X172812180Y-95755742D01*
X172750856Y-95789226D01*
X172681165Y-95784242D01*
X172625231Y-95742370D01*
X172600815Y-95676905D01*
X172600499Y-95668075D01*
X172600499Y-95402128D01*
X172594091Y-95342517D01*
X172566421Y-95268332D01*
X172561438Y-95198642D01*
X172566422Y-95181667D01*
X172594091Y-95107483D01*
X172600500Y-95047873D01*
X172600499Y-94552128D01*
X172594091Y-94492517D01*
X172566421Y-94418332D01*
X172561438Y-94348642D01*
X172566422Y-94331667D01*
X172594091Y-94257483D01*
X172600500Y-94197873D01*
X172600499Y-93702128D01*
X172594091Y-93642517D01*
X172566421Y-93568332D01*
X172561438Y-93498642D01*
X172566422Y-93481667D01*
X172594091Y-93407483D01*
X172600500Y-93347873D01*
X172600499Y-92852128D01*
X172594091Y-92792517D01*
X172566421Y-92718332D01*
X172561438Y-92648642D01*
X172566422Y-92631667D01*
X172594091Y-92557483D01*
X172600500Y-92497873D01*
X172600499Y-92002128D01*
X172594091Y-91942517D01*
X172566421Y-91868332D01*
X172561438Y-91798642D01*
X172566422Y-91781667D01*
X172594091Y-91707483D01*
X172600500Y-91647873D01*
X172600499Y-91152128D01*
X172594091Y-91092517D01*
X172566421Y-91018332D01*
X172561438Y-90948642D01*
X172566422Y-90931667D01*
X172594091Y-90857483D01*
X172600500Y-90797873D01*
X172600499Y-90302128D01*
X172594091Y-90242517D01*
X172566421Y-90168332D01*
X172561438Y-90098642D01*
X172566422Y-90081667D01*
X172594091Y-90007483D01*
X172600500Y-89947873D01*
X172600499Y-89893077D01*
X172620182Y-89826040D01*
X172672986Y-89780285D01*
X172742144Y-89770340D01*
X172790471Y-89788084D01*
X172850307Y-89825682D01*
X172850478Y-89825789D01*
X172953984Y-89862007D01*
X173000710Y-89891367D01*
X173613181Y-90503838D01*
X173646666Y-90565161D01*
X173649500Y-90591518D01*
X173649500Y-90697869D01*
X173649501Y-90697876D01*
X173655908Y-90757483D01*
X173706202Y-90892328D01*
X173706206Y-90892335D01*
X173792452Y-91007544D01*
X173792455Y-91007547D01*
X173907664Y-91093793D01*
X173907671Y-91093797D01*
X174042516Y-91144091D01*
X174068419Y-91146875D01*
X174102127Y-91150500D01*
X174125397Y-91150499D01*
X174192436Y-91170181D01*
X174194271Y-91171384D01*
X174268189Y-91220775D01*
X174268192Y-91220776D01*
X174268193Y-91220777D01*
X174380139Y-91267146D01*
X174395672Y-91273580D01*
X174395676Y-91273580D01*
X174395677Y-91273581D01*
X174531004Y-91300500D01*
X174531007Y-91300500D01*
X174668995Y-91300500D01*
X174760041Y-91282389D01*
X174804328Y-91273580D01*
X174931811Y-91220775D01*
X175005709Y-91171396D01*
X175072386Y-91150519D01*
X175074600Y-91150499D01*
X175697871Y-91150499D01*
X175697872Y-91150499D01*
X175757483Y-91144091D01*
X175892331Y-91093796D01*
X176007546Y-91007546D01*
X176093796Y-90892331D01*
X176144091Y-90757483D01*
X176150500Y-90697873D01*
X176150499Y-89702135D01*
X178549500Y-89702135D01*
X178549500Y-90697870D01*
X178549501Y-90697876D01*
X178555908Y-90757483D01*
X178606202Y-90892328D01*
X178606206Y-90892335D01*
X178692452Y-91007544D01*
X178692455Y-91007547D01*
X178807664Y-91093793D01*
X178807671Y-91093797D01*
X178942517Y-91144091D01*
X178942516Y-91144091D01*
X178949444Y-91144835D01*
X179002127Y-91150500D01*
X180597872Y-91150499D01*
X180657483Y-91144091D01*
X180792331Y-91093796D01*
X180907546Y-91007546D01*
X180993796Y-90892331D01*
X181044091Y-90757483D01*
X181050500Y-90697873D01*
X181050499Y-89702128D01*
X181044091Y-89642517D01*
X181039617Y-89630522D01*
X180993797Y-89507671D01*
X180993793Y-89507664D01*
X180907547Y-89392455D01*
X180907544Y-89392452D01*
X180792335Y-89306206D01*
X180792328Y-89306202D01*
X180657482Y-89255908D01*
X180657483Y-89255908D01*
X180597883Y-89249501D01*
X180597881Y-89249500D01*
X180597873Y-89249500D01*
X180597864Y-89249500D01*
X179002129Y-89249500D01*
X179002123Y-89249501D01*
X178942516Y-89255908D01*
X178807671Y-89306202D01*
X178807664Y-89306206D01*
X178692455Y-89392452D01*
X178692452Y-89392455D01*
X178606206Y-89507664D01*
X178606202Y-89507671D01*
X178555908Y-89642517D01*
X178549677Y-89700478D01*
X178549501Y-89702123D01*
X178549500Y-89702135D01*
X176150499Y-89702135D01*
X176150499Y-89702128D01*
X176144091Y-89642517D01*
X176139617Y-89630522D01*
X176093797Y-89507671D01*
X176093793Y-89507664D01*
X176007547Y-89392455D01*
X176007544Y-89392452D01*
X175892335Y-89306206D01*
X175892328Y-89306202D01*
X175757482Y-89255908D01*
X175757483Y-89255908D01*
X175697883Y-89249501D01*
X175697881Y-89249500D01*
X175697873Y-89249500D01*
X175697865Y-89249500D01*
X174391519Y-89249500D01*
X174324480Y-89229815D01*
X174303838Y-89213181D01*
X173991367Y-88900710D01*
X173962006Y-88853983D01*
X173958552Y-88844112D01*
X173925789Y-88750478D01*
X173925416Y-88749885D01*
X173834331Y-88604924D01*
X173829816Y-88597738D01*
X173702262Y-88470184D01*
X173672301Y-88451358D01*
X173549522Y-88374210D01*
X173549518Y-88374209D01*
X173446014Y-88337991D01*
X173399288Y-88308631D01*
X173396543Y-88305886D01*
X173281807Y-88229222D01*
X173154332Y-88176421D01*
X173154322Y-88176418D01*
X173018996Y-88149500D01*
X173018994Y-88149500D01*
X173018993Y-88149500D01*
X172724500Y-88149500D01*
X172657461Y-88129815D01*
X172611706Y-88077011D01*
X172600500Y-88025502D01*
X172600499Y-87974502D01*
X172620182Y-87907463D01*
X172672985Y-87861707D01*
X172724499Y-87850500D01*
X173318996Y-87850500D01*
X173410040Y-87832389D01*
X173454328Y-87823580D01*
X173554014Y-87782289D01*
X173581807Y-87770777D01*
X173581808Y-87770776D01*
X173581811Y-87770775D01*
X173696543Y-87694114D01*
X175694114Y-85696543D01*
X175770775Y-85581811D01*
X175823580Y-85454328D01*
X175841890Y-85362278D01*
X175850500Y-85318996D01*
X175850500Y-84691519D01*
X175870185Y-84624480D01*
X175886814Y-84603842D01*
X175980472Y-84510185D01*
X176033998Y-84421641D01*
X176085524Y-84374457D01*
X176154383Y-84362618D01*
X176218712Y-84389887D01*
X176246230Y-84421645D01*
X176269528Y-84460185D01*
X176269531Y-84460189D01*
X176389811Y-84580469D01*
X176389813Y-84580470D01*
X176389815Y-84580472D01*
X176535394Y-84668478D01*
X176697804Y-84719086D01*
X176768384Y-84725500D01*
X176768387Y-84725500D01*
X177431613Y-84725500D01*
X177431616Y-84725500D01*
X177502196Y-84719086D01*
X177664606Y-84668478D01*
X177810185Y-84580472D01*
X177826313Y-84564344D01*
X177887635Y-84530857D01*
X177957327Y-84535840D01*
X178013261Y-84577710D01*
X178019534Y-84586926D01*
X178055971Y-84645999D01*
X178055974Y-84646003D01*
X178178996Y-84769025D01*
X178179000Y-84769028D01*
X178327066Y-84860357D01*
X178327069Y-84860358D01*
X178327075Y-84860362D01*
X178492225Y-84915087D01*
X178594152Y-84925500D01*
X178594157Y-84925500D01*
X179605843Y-84925500D01*
X179605848Y-84925500D01*
X179707775Y-84915087D01*
X179872925Y-84860362D01*
X180021003Y-84769026D01*
X180144026Y-84646003D01*
X180235362Y-84497925D01*
X180290087Y-84332775D01*
X180300500Y-84230848D01*
X180300500Y-83644152D01*
X180290087Y-83542225D01*
X180235362Y-83377075D01*
X180235358Y-83377069D01*
X180235357Y-83377066D01*
X180144028Y-83229000D01*
X180144025Y-83228996D01*
X180021004Y-83105975D01*
X180021003Y-83105974D01*
X180020301Y-83105541D01*
X180019921Y-83105118D01*
X180015336Y-83101493D01*
X180015955Y-83100709D01*
X179973575Y-83053598D01*
X179962349Y-82984636D01*
X179990188Y-82920552D01*
X180015455Y-82898657D01*
X180015336Y-82898507D01*
X180018687Y-82895856D01*
X180020299Y-82894459D01*
X180021003Y-82894026D01*
X180144026Y-82771003D01*
X180235362Y-82622925D01*
X180290087Y-82457775D01*
X180300500Y-82355848D01*
X180300500Y-81769152D01*
X180290087Y-81667225D01*
X180289897Y-81665365D01*
X180302666Y-81596672D01*
X180325571Y-81565084D01*
X180799288Y-81091366D01*
X180846012Y-81062008D01*
X180949522Y-81025789D01*
X181102262Y-80929816D01*
X181229816Y-80802262D01*
X181325789Y-80649522D01*
X181385368Y-80479255D01*
X181385726Y-80476079D01*
X181405565Y-80300003D01*
X181405565Y-80299996D01*
X181385369Y-80120750D01*
X181385368Y-80120745D01*
X181325788Y-79950476D01*
X181244272Y-79820745D01*
X181229816Y-79797738D01*
X181102262Y-79670184D01*
X180949523Y-79574211D01*
X180779254Y-79514631D01*
X180779249Y-79514630D01*
X180600004Y-79494435D01*
X180599996Y-79494435D01*
X180420750Y-79514630D01*
X180420745Y-79514631D01*
X180250476Y-79574211D01*
X180097737Y-79670184D01*
X179970184Y-79797737D01*
X179874212Y-79950475D01*
X179874211Y-79950476D01*
X179837991Y-80053986D01*
X179808631Y-80100711D01*
X178871162Y-81038181D01*
X178809839Y-81071666D01*
X178783481Y-81074500D01*
X178594144Y-81074500D01*
X178492223Y-81084913D01*
X178327077Y-81139637D01*
X178327066Y-81139642D01*
X178179000Y-81230971D01*
X178178996Y-81230974D01*
X178055973Y-81353997D01*
X178019534Y-81413074D01*
X177967585Y-81459798D01*
X177898623Y-81471019D01*
X177834541Y-81443175D01*
X177826315Y-81435657D01*
X177810188Y-81419530D01*
X177664606Y-81331522D01*
X177558167Y-81298355D01*
X177502196Y-81280914D01*
X177502194Y-81280913D01*
X177502192Y-81280913D01*
X177452778Y-81276423D01*
X177431616Y-81274500D01*
X176768384Y-81274500D01*
X176749145Y-81276248D01*
X176697807Y-81280913D01*
X176535393Y-81331522D01*
X176389811Y-81419530D01*
X176389810Y-81419531D01*
X176371161Y-81438181D01*
X176309838Y-81471666D01*
X176283480Y-81474500D01*
X176024500Y-81474500D01*
X175957461Y-81454815D01*
X175911706Y-81402011D01*
X175900500Y-81350500D01*
X175900500Y-80476079D01*
X175871659Y-80331092D01*
X175871658Y-80331091D01*
X175871658Y-80331087D01*
X175815084Y-80194505D01*
X175777327Y-80137997D01*
X175777327Y-80137996D01*
X175732950Y-80071581D01*
X173278421Y-77617052D01*
X173278414Y-77617046D01*
X173204729Y-77567812D01*
X173204729Y-77567813D01*
X173155491Y-77534913D01*
X173018917Y-77478343D01*
X173018907Y-77478340D01*
X172873920Y-77449500D01*
X172873918Y-77449500D01*
X153298917Y-77449500D01*
X153151082Y-77449500D01*
X153151080Y-77449500D01*
X153006092Y-77478340D01*
X153006082Y-77478343D01*
X152869511Y-77534912D01*
X152869498Y-77534919D01*
X152746584Y-77617048D01*
X152746580Y-77617051D01*
X149128734Y-81234898D01*
X149067411Y-81268383D01*
X148997719Y-81263399D01*
X148953372Y-81234898D01*
X145030654Y-77312180D01*
X144997169Y-77250857D01*
X145002153Y-77181165D01*
X145044025Y-77125232D01*
X145109489Y-77100815D01*
X145118335Y-77100499D01*
X147247871Y-77100499D01*
X147247872Y-77100499D01*
X147307483Y-77094091D01*
X147442331Y-77043796D01*
X147557546Y-76957546D01*
X147643796Y-76842331D01*
X147694091Y-76707483D01*
X147700500Y-76647873D01*
X147700499Y-74868872D01*
X174999500Y-74868872D01*
X174999500Y-75131127D01*
X175026123Y-75333339D01*
X175033730Y-75391116D01*
X175091814Y-75607890D01*
X175101602Y-75644418D01*
X175101605Y-75644428D01*
X175201953Y-75886690D01*
X175201958Y-75886700D01*
X175333075Y-76113803D01*
X175492718Y-76321851D01*
X175492726Y-76321860D01*
X175678140Y-76507274D01*
X175678148Y-76507281D01*
X175886196Y-76666924D01*
X176113299Y-76798041D01*
X176113309Y-76798046D01*
X176271694Y-76863651D01*
X176355581Y-76898398D01*
X176608884Y-76966270D01*
X176868880Y-77000500D01*
X176868887Y-77000500D01*
X177131113Y-77000500D01*
X177131120Y-77000500D01*
X177391116Y-76966270D01*
X177644419Y-76898398D01*
X177886697Y-76798043D01*
X178113803Y-76666924D01*
X178321851Y-76507282D01*
X178321855Y-76507277D01*
X178321860Y-76507274D01*
X178507274Y-76321860D01*
X178507277Y-76321855D01*
X178507282Y-76321851D01*
X178666924Y-76113803D01*
X178798043Y-75886697D01*
X178898398Y-75644419D01*
X178966270Y-75391116D01*
X179000500Y-75131120D01*
X179000500Y-74868880D01*
X178966270Y-74608884D01*
X178898398Y-74355581D01*
X178898394Y-74355571D01*
X178798046Y-74113309D01*
X178798041Y-74113299D01*
X178666924Y-73886196D01*
X178507281Y-73678148D01*
X178507274Y-73678140D01*
X178321860Y-73492726D01*
X178321851Y-73492718D01*
X178113803Y-73333075D01*
X177886700Y-73201958D01*
X177886690Y-73201953D01*
X177644428Y-73101605D01*
X177644421Y-73101603D01*
X177644419Y-73101602D01*
X177391116Y-73033730D01*
X177333339Y-73026123D01*
X177131127Y-72999500D01*
X177131120Y-72999500D01*
X176868880Y-72999500D01*
X176868872Y-72999500D01*
X176637772Y-73029926D01*
X176608884Y-73033730D01*
X176355581Y-73101602D01*
X176355571Y-73101605D01*
X176113309Y-73201953D01*
X176113299Y-73201958D01*
X175886196Y-73333075D01*
X175678148Y-73492718D01*
X175492718Y-73678148D01*
X175333075Y-73886196D01*
X175201958Y-74113299D01*
X175201953Y-74113309D01*
X175101605Y-74355571D01*
X175101602Y-74355581D01*
X175045926Y-74563370D01*
X175033730Y-74608885D01*
X174999500Y-74868872D01*
X147700499Y-74868872D01*
X147700499Y-73952128D01*
X147694091Y-73892517D01*
X147692542Y-73888365D01*
X147643797Y-73757671D01*
X147643793Y-73757664D01*
X147557547Y-73642455D01*
X147557544Y-73642452D01*
X147442335Y-73556206D01*
X147442328Y-73556202D01*
X147307482Y-73505908D01*
X147307483Y-73505908D01*
X147247883Y-73499501D01*
X147247881Y-73499500D01*
X147247873Y-73499500D01*
X147247864Y-73499500D01*
X144552129Y-73499500D01*
X144552123Y-73499501D01*
X144492516Y-73505908D01*
X144357671Y-73556202D01*
X144357664Y-73556206D01*
X144242455Y-73642452D01*
X144242452Y-73642455D01*
X144156206Y-73757664D01*
X144156202Y-73757671D01*
X144105908Y-73892517D01*
X144099501Y-73952116D01*
X144099501Y-73952123D01*
X144099500Y-73952135D01*
X144099500Y-76081664D01*
X144079815Y-76148703D01*
X144027011Y-76194458D01*
X143957853Y-76204402D01*
X143894297Y-76175377D01*
X143887819Y-76169345D01*
X142691718Y-74973244D01*
X142658508Y-74913154D01*
X142652230Y-74885649D01*
X142625371Y-74767966D01*
X142625338Y-74767821D01*
X142625335Y-74767811D01*
X142625334Y-74767805D01*
X142526743Y-74516602D01*
X142391815Y-74282898D01*
X142223561Y-74071915D01*
X142223560Y-74071914D01*
X142223557Y-74071910D01*
X142025741Y-73888365D01*
X142022560Y-73886196D01*
X141802775Y-73736349D01*
X141802769Y-73736346D01*
X141802768Y-73736345D01*
X141802767Y-73736344D01*
X141559643Y-73619263D01*
X141559645Y-73619263D01*
X141301773Y-73539720D01*
X141301767Y-73539718D01*
X141034936Y-73499500D01*
X141034929Y-73499500D01*
X140765071Y-73499500D01*
X140765063Y-73499500D01*
X140498232Y-73539718D01*
X140498226Y-73539720D01*
X140240358Y-73619262D01*
X139997230Y-73736346D01*
X139774258Y-73888365D01*
X139576442Y-74071910D01*
X139408185Y-74282898D01*
X139273258Y-74516599D01*
X139273256Y-74516603D01*
X139174666Y-74767804D01*
X139174664Y-74767811D01*
X139114616Y-75030898D01*
X139094451Y-75299995D01*
X139094451Y-75300004D01*
X139114616Y-75569101D01*
X139174664Y-75832188D01*
X139174666Y-75832195D01*
X139220901Y-75950000D01*
X139273257Y-76083398D01*
X139408185Y-76317102D01*
X139459163Y-76381026D01*
X139576442Y-76528089D01*
X139707806Y-76649976D01*
X139774259Y-76711635D01*
X139997226Y-76863651D01*
X140240359Y-76980738D01*
X140498228Y-77060280D01*
X140498229Y-77060280D01*
X140498232Y-77060281D01*
X140765063Y-77100499D01*
X140765068Y-77100499D01*
X140765071Y-77100500D01*
X140765072Y-77100500D01*
X141034929Y-77100500D01*
X141150269Y-77083114D01*
X141187761Y-77077464D01*
X141256986Y-77086937D01*
X141293924Y-77112398D01*
X147811181Y-83629655D01*
X147844666Y-83690978D01*
X147847500Y-83717336D01*
X147847500Y-84253053D01*
X147827815Y-84320092D01*
X147819602Y-84331413D01*
X147758305Y-84406587D01*
X147664089Y-84586954D01*
X147628310Y-84712001D01*
X147610141Y-84775500D01*
X147608114Y-84782583D01*
X147608113Y-84782586D01*
X147597500Y-84901966D01*
X147597500Y-84925500D01*
X147577815Y-84992539D01*
X147525011Y-85038294D01*
X147473500Y-85049500D01*
X144295406Y-85049500D01*
X144228367Y-85029815D01*
X144182612Y-84977011D01*
X144172668Y-84907853D01*
X144184318Y-84870406D01*
X144249639Y-84738697D01*
X144249638Y-84738697D01*
X144249641Y-84738693D01*
X144295600Y-84553889D01*
X144298500Y-84511123D01*
X144298499Y-83608878D01*
X144295600Y-83566111D01*
X144249641Y-83381307D01*
X144214332Y-83310112D01*
X144165032Y-83210707D01*
X144165030Y-83210704D01*
X144045722Y-83062278D01*
X144045721Y-83062277D01*
X143897295Y-82942969D01*
X143897292Y-82942967D01*
X143726696Y-82858360D01*
X143726689Y-82858357D01*
X143592573Y-82825003D01*
X143532266Y-82789721D01*
X143500608Y-82727435D01*
X143498500Y-82704669D01*
X143498500Y-82428676D01*
X143517507Y-82362702D01*
X143521508Y-82356335D01*
X143525789Y-82349522D01*
X143585368Y-82179255D01*
X143600911Y-82041305D01*
X143605565Y-82000003D01*
X143605565Y-81999996D01*
X143585369Y-81820750D01*
X143585368Y-81820745D01*
X143576162Y-81794435D01*
X143525789Y-81650478D01*
X143429816Y-81497738D01*
X143302262Y-81370184D01*
X143231137Y-81325493D01*
X143149523Y-81274211D01*
X142979254Y-81214631D01*
X142979249Y-81214630D01*
X142800004Y-81194435D01*
X142799996Y-81194435D01*
X142620750Y-81214630D01*
X142620745Y-81214631D01*
X142450476Y-81274211D01*
X142297737Y-81370184D01*
X142170184Y-81497737D01*
X142074211Y-81650476D01*
X142014631Y-81820745D01*
X142014630Y-81820750D01*
X141994435Y-81999996D01*
X141994435Y-82000003D01*
X142014630Y-82179249D01*
X142014631Y-82179254D01*
X142074211Y-82349522D01*
X142078492Y-82356335D01*
X142097500Y-82422310D01*
X142097500Y-82704670D01*
X142077815Y-82771709D01*
X142025011Y-82817464D01*
X142003427Y-82825004D01*
X141909574Y-82848345D01*
X141869303Y-82858360D01*
X141698707Y-82942967D01*
X141698704Y-82942969D01*
X141556009Y-83057671D01*
X141550278Y-83062278D01*
X141520358Y-83099500D01*
X141518454Y-83101869D01*
X141461110Y-83141787D01*
X141391288Y-83144367D01*
X141331155Y-83108788D01*
X141299804Y-83046347D01*
X141298587Y-83038064D01*
X141285369Y-82920750D01*
X141285368Y-82920745D01*
X141277587Y-82898507D01*
X141225789Y-82750478D01*
X141129816Y-82597738D01*
X141002262Y-82470184D01*
X140982513Y-82457775D01*
X140849523Y-82374211D01*
X140679254Y-82314631D01*
X140679249Y-82314630D01*
X140500004Y-82294435D01*
X140499996Y-82294435D01*
X140320750Y-82314630D01*
X140320745Y-82314631D01*
X140150476Y-82374211D01*
X139997739Y-82470183D01*
X139904077Y-82563845D01*
X139842753Y-82597329D01*
X139773062Y-82592345D01*
X139717129Y-82550473D01*
X139693176Y-82490049D01*
X139685368Y-82420745D01*
X139625789Y-82250478D01*
X139529816Y-82097738D01*
X139402262Y-81970184D01*
X139249523Y-81874211D01*
X139079254Y-81814631D01*
X139079249Y-81814630D01*
X138900004Y-81794435D01*
X138899996Y-81794435D01*
X138720750Y-81814630D01*
X138720745Y-81814631D01*
X138550476Y-81874211D01*
X138397737Y-81970184D01*
X138270184Y-82097737D01*
X138174212Y-82250475D01*
X138174211Y-82250476D01*
X138159786Y-82291701D01*
X138119063Y-82348477D01*
X138054110Y-82374223D01*
X138003742Y-82368451D01*
X137902797Y-82335001D01*
X137902795Y-82335000D01*
X137800010Y-82324500D01*
X135699998Y-82324500D01*
X135699981Y-82324501D01*
X135597203Y-82335000D01*
X135597200Y-82335001D01*
X135430668Y-82390185D01*
X135430663Y-82390187D01*
X135281342Y-82482289D01*
X135157289Y-82606342D01*
X135065187Y-82755663D01*
X135065185Y-82755668D01*
X135060105Y-82770999D01*
X135010001Y-82922203D01*
X135010001Y-82922204D01*
X135010000Y-82922204D01*
X134999500Y-83024983D01*
X134999500Y-85925001D01*
X134999501Y-85925018D01*
X135010000Y-86027796D01*
X135010001Y-86027799D01*
X135065185Y-86194331D01*
X135065187Y-86194336D01*
X135078738Y-86216305D01*
X135157288Y-86343656D01*
X135281344Y-86467712D01*
X135430666Y-86559814D01*
X135597203Y-86614999D01*
X135699991Y-86625500D01*
X137800008Y-86625499D01*
X137902797Y-86614999D01*
X138069334Y-86559814D01*
X138218656Y-86467712D01*
X138342712Y-86343656D01*
X138434814Y-86194334D01*
X138489999Y-86027797D01*
X138500500Y-85925009D01*
X138500499Y-84041517D01*
X138520184Y-83974479D01*
X138536814Y-83953841D01*
X139099288Y-83391366D01*
X139146012Y-83362008D01*
X139249522Y-83325789D01*
X139402262Y-83229816D01*
X139495925Y-83136152D01*
X139557244Y-83102670D01*
X139626936Y-83107654D01*
X139682870Y-83149525D01*
X139706823Y-83209953D01*
X139714630Y-83279249D01*
X139714631Y-83279254D01*
X139774212Y-83449525D01*
X139780492Y-83459519D01*
X139799500Y-83525493D01*
X139799500Y-83598125D01*
X139779815Y-83665164D01*
X139763182Y-83685806D01*
X139677029Y-83771959D01*
X139588001Y-83916294D01*
X139587996Y-83916305D01*
X139534651Y-84077290D01*
X139524500Y-84176647D01*
X139524500Y-84723337D01*
X139524501Y-84723355D01*
X139534650Y-84822707D01*
X139534651Y-84822710D01*
X139587996Y-84983694D01*
X139588001Y-84983705D01*
X139677029Y-85128040D01*
X139677032Y-85128044D01*
X139686307Y-85137319D01*
X139719792Y-85198642D01*
X139714808Y-85268334D01*
X139686307Y-85312681D01*
X139677032Y-85321955D01*
X139677029Y-85321959D01*
X139588001Y-85466294D01*
X139587996Y-85466305D01*
X139534651Y-85627290D01*
X139524500Y-85726647D01*
X139524500Y-86273337D01*
X139524501Y-86273355D01*
X139534650Y-86372707D01*
X139534651Y-86372710D01*
X139587996Y-86533694D01*
X139588001Y-86533705D01*
X139677029Y-86678040D01*
X139677032Y-86678044D01*
X139796955Y-86797967D01*
X139796959Y-86797970D01*
X139941294Y-86886998D01*
X139941297Y-86886999D01*
X139941303Y-86887003D01*
X140102292Y-86940349D01*
X140201655Y-86950500D01*
X140515284Y-86950499D01*
X140562736Y-86959938D01*
X140595667Y-86973578D01*
X140595672Y-86973580D01*
X140595676Y-86973580D01*
X140595677Y-86973581D01*
X140731003Y-87000500D01*
X140731006Y-87000500D01*
X140731007Y-87000500D01*
X141250503Y-87000500D01*
X141317542Y-87020185D01*
X141361591Y-87069406D01*
X141430967Y-87209292D01*
X141430969Y-87209295D01*
X141550277Y-87357721D01*
X141550278Y-87357722D01*
X141619884Y-87413673D01*
X141659803Y-87471016D01*
X141662383Y-87540838D01*
X141626804Y-87600971D01*
X141619885Y-87606967D01*
X141550631Y-87662635D01*
X141431392Y-87810974D01*
X141431390Y-87810977D01*
X141346831Y-87981476D01*
X141302433Y-88160000D01*
X144293566Y-88160000D01*
X144249168Y-87981476D01*
X144164610Y-87810979D01*
X144117352Y-87752187D01*
X144090694Y-87687603D01*
X144103185Y-87618859D01*
X144150858Y-87567780D01*
X144214000Y-87550500D01*
X147473501Y-87550500D01*
X147540540Y-87570185D01*
X147586295Y-87622989D01*
X147597501Y-87674500D01*
X147597501Y-87818034D01*
X147608113Y-87937415D01*
X147664089Y-88133045D01*
X147664090Y-88133048D01*
X147664091Y-88133049D01*
X147758302Y-88313407D01*
X147767741Y-88324983D01*
X147886890Y-88471109D01*
X147974459Y-88542511D01*
X148044593Y-88599698D01*
X148224951Y-88693909D01*
X148420582Y-88749886D01*
X148539963Y-88760500D01*
X149656036Y-88760499D01*
X149775418Y-88749886D01*
X149971049Y-88693909D01*
X150141403Y-88604923D01*
X150209936Y-88591332D01*
X150274939Y-88616951D01*
X150286494Y-88627151D01*
X150503451Y-88844109D01*
X150503454Y-88844112D01*
X150545406Y-88872143D01*
X150564196Y-88887564D01*
X151265692Y-89589060D01*
X151288356Y-89625129D01*
X151290188Y-89624247D01*
X151293208Y-89630518D01*
X151311436Y-89659527D01*
X151330437Y-89726763D01*
X151310070Y-89793599D01*
X151256803Y-89838813D01*
X151206443Y-89849500D01*
X151081004Y-89849500D01*
X150945677Y-89876418D01*
X150945667Y-89876421D01*
X150818192Y-89929222D01*
X150703454Y-90005887D01*
X150703453Y-90005888D01*
X149708391Y-91000951D01*
X149647068Y-91034436D01*
X149577376Y-91029452D01*
X149533029Y-91000951D01*
X149402262Y-90870184D01*
X149249523Y-90774211D01*
X149079254Y-90714631D01*
X149079249Y-90714630D01*
X148900004Y-90694435D01*
X148899996Y-90694435D01*
X148720750Y-90714630D01*
X148720745Y-90714631D01*
X148550477Y-90774211D01*
X148512820Y-90797873D01*
X148481879Y-90817315D01*
X148480798Y-90817994D01*
X148414826Y-90837000D01*
X147610691Y-90837000D01*
X147543652Y-90817315D01*
X147505153Y-90778098D01*
X147444026Y-90678997D01*
X147321003Y-90555974D01*
X147320999Y-90555971D01*
X147172933Y-90464642D01*
X147172927Y-90464639D01*
X147172925Y-90464638D01*
X147151266Y-90457461D01*
X147007776Y-90409913D01*
X146905855Y-90399500D01*
X146905848Y-90399500D01*
X145894152Y-90399500D01*
X145894144Y-90399500D01*
X145792223Y-90409913D01*
X145627077Y-90464637D01*
X145627066Y-90464642D01*
X145479000Y-90555971D01*
X145359695Y-90675275D01*
X145298371Y-90708759D01*
X145228680Y-90703774D01*
X145207864Y-90693710D01*
X145064395Y-90606980D01*
X145064396Y-90606980D01*
X144902105Y-90556409D01*
X144902106Y-90556409D01*
X144900000Y-90556217D01*
X144900000Y-91726000D01*
X144880315Y-91793039D01*
X144827511Y-91838794D01*
X144776000Y-91850000D01*
X143693000Y-91850000D01*
X143693000Y-92051000D01*
X143673315Y-92118039D01*
X143620511Y-92163794D01*
X143569000Y-92175000D01*
X142750000Y-92175000D01*
X142750000Y-92749999D01*
X142949972Y-92749999D01*
X142949986Y-92749998D01*
X143052697Y-92739505D01*
X143219119Y-92684358D01*
X143219130Y-92684353D01*
X143357137Y-92599229D01*
X143424529Y-92580788D01*
X143491193Y-92601710D01*
X143535962Y-92655352D01*
X143544624Y-92724683D01*
X143540620Y-92741655D01*
X143535749Y-92757289D01*
X143530914Y-92772804D01*
X143524500Y-92843384D01*
X143524500Y-93356616D01*
X143530914Y-93427196D01*
X143564727Y-93535708D01*
X143581482Y-93589477D01*
X143582632Y-93659337D01*
X143545831Y-93718729D01*
X143482762Y-93748797D01*
X143413449Y-93739993D01*
X143375415Y-93714047D01*
X143368657Y-93707289D01*
X143368656Y-93707288D01*
X143275888Y-93650069D01*
X143219336Y-93615187D01*
X143219331Y-93615185D01*
X143180332Y-93602262D01*
X143052797Y-93560001D01*
X143052795Y-93560000D01*
X142950010Y-93549500D01*
X141549998Y-93549500D01*
X141549981Y-93549501D01*
X141447203Y-93560000D01*
X141447200Y-93560001D01*
X141280668Y-93615185D01*
X141280663Y-93615187D01*
X141131342Y-93707289D01*
X141007289Y-93831342D01*
X140915187Y-93980663D01*
X140915185Y-93980668D01*
X140890398Y-94055472D01*
X140860001Y-94147203D01*
X140860001Y-94147204D01*
X140860000Y-94147204D01*
X140849500Y-94249983D01*
X140849500Y-94470409D01*
X140829815Y-94537448D01*
X140777011Y-94583203D01*
X140707853Y-94593147D01*
X140686496Y-94588115D01*
X140550000Y-94542884D01*
X140550000Y-95425000D01*
X140962270Y-95425000D01*
X141029309Y-95444685D01*
X141049951Y-95461319D01*
X141131344Y-95542712D01*
X141280666Y-95634814D01*
X141447203Y-95689999D01*
X141447209Y-95689999D01*
X141451448Y-95690907D01*
X141512884Y-95724185D01*
X141546576Y-95785394D01*
X141549500Y-95812162D01*
X141549500Y-95900028D01*
X141542542Y-95940982D01*
X141514631Y-96020747D01*
X141494435Y-96199996D01*
X141494435Y-96200003D01*
X141514630Y-96379249D01*
X141514631Y-96379254D01*
X141574211Y-96549523D01*
X141637045Y-96649522D01*
X141670184Y-96702262D01*
X141797738Y-96829816D01*
X141839739Y-96856207D01*
X141900075Y-96894119D01*
X141950478Y-96925789D01*
X141998284Y-96942517D01*
X142120745Y-96985368D01*
X142120750Y-96985369D01*
X142299996Y-97005565D01*
X142300000Y-97005565D01*
X142300004Y-97005565D01*
X142479249Y-96985369D01*
X142479252Y-96985368D01*
X142479255Y-96985368D01*
X142649522Y-96925789D01*
X142802262Y-96829816D01*
X142929816Y-96702262D01*
X143025789Y-96549522D01*
X143085368Y-96379255D01*
X143088234Y-96353821D01*
X143105565Y-96200003D01*
X143105565Y-96199996D01*
X143085369Y-96020750D01*
X143085366Y-96020737D01*
X143025791Y-95850482D01*
X143024079Y-95846927D01*
X143023662Y-95844400D01*
X143023490Y-95843906D01*
X143023576Y-95843875D01*
X143012727Y-95777986D01*
X143040449Y-95713851D01*
X143096793Y-95675419D01*
X143219334Y-95634814D01*
X143368656Y-95542712D01*
X143492712Y-95418656D01*
X143584814Y-95269334D01*
X143639999Y-95102797D01*
X143650500Y-95000009D01*
X143650499Y-94249992D01*
X143643896Y-94185357D01*
X143639999Y-94147203D01*
X143639998Y-94147200D01*
X143625063Y-94102129D01*
X143585743Y-93983472D01*
X143583342Y-93913646D01*
X143619074Y-93853604D01*
X143681594Y-93822411D01*
X143751053Y-93829971D01*
X143783334Y-93851572D01*
X143783906Y-93850843D01*
X143789811Y-93855469D01*
X143789813Y-93855470D01*
X143789815Y-93855472D01*
X143935394Y-93943478D01*
X144097804Y-93994086D01*
X144168384Y-94000500D01*
X144168387Y-94000500D01*
X144831613Y-94000500D01*
X144831616Y-94000500D01*
X144902196Y-93994086D01*
X145064606Y-93943478D01*
X145159302Y-93886231D01*
X145226852Y-93868396D01*
X145293326Y-93889913D01*
X145328987Y-93927251D01*
X145355973Y-93971002D01*
X145478996Y-94094025D01*
X145479000Y-94094028D01*
X145627066Y-94185357D01*
X145627069Y-94185358D01*
X145627075Y-94185362D01*
X145792225Y-94240087D01*
X145894152Y-94250500D01*
X146159481Y-94250500D01*
X146226520Y-94270185D01*
X146272275Y-94322989D01*
X146282219Y-94392147D01*
X146253194Y-94455703D01*
X146247162Y-94462181D01*
X139013125Y-101696217D01*
X138951802Y-101729702D01*
X138882110Y-101724718D01*
X138826177Y-101682846D01*
X138801760Y-101617382D01*
X138807738Y-101569532D01*
X138822495Y-101525000D01*
X138350000Y-101525000D01*
X138350000Y-102014210D01*
X138369533Y-102007738D01*
X138439361Y-102005337D01*
X138499403Y-102041069D01*
X138530595Y-102103589D01*
X138523034Y-102173049D01*
X138496217Y-102213125D01*
X137676489Y-103032853D01*
X137615166Y-103066338D01*
X137545474Y-103061354D01*
X137497250Y-103028797D01*
X137493782Y-103025000D01*
X137000000Y-103025000D01*
X137000000Y-103591921D01*
X137005875Y-103599636D01*
X137011433Y-103669284D01*
X136978455Y-103730881D01*
X136977735Y-103731607D01*
X129296160Y-111413181D01*
X129234837Y-111446666D01*
X129208479Y-111449500D01*
X128152129Y-111449500D01*
X128152123Y-111449501D01*
X128092516Y-111455908D01*
X127957671Y-111506202D01*
X127957664Y-111506206D01*
X127842455Y-111592452D01*
X127842452Y-111592455D01*
X127756206Y-111707664D01*
X127756202Y-111707671D01*
X127705908Y-111842517D01*
X127701684Y-111881811D01*
X127699501Y-111902123D01*
X127699500Y-111902135D01*
X127699500Y-114397870D01*
X127699501Y-114397876D01*
X127705908Y-114457483D01*
X127756202Y-114592328D01*
X127756206Y-114592335D01*
X127842452Y-114707544D01*
X127842455Y-114707547D01*
X127957664Y-114793793D01*
X127957671Y-114793797D01*
X128092517Y-114844091D01*
X128092516Y-114844091D01*
X128099444Y-114844835D01*
X128152127Y-114850500D01*
X130647872Y-114850499D01*
X130707483Y-114844091D01*
X130842331Y-114793796D01*
X130957546Y-114707546D01*
X131043796Y-114592331D01*
X131094091Y-114457483D01*
X131100500Y-114397873D01*
X131100499Y-113874854D01*
X131120183Y-113807818D01*
X131172987Y-113762063D01*
X131242146Y-113752119D01*
X131305702Y-113781144D01*
X131339927Y-113829553D01*
X131362158Y-113886197D01*
X131363609Y-113889892D01*
X131385462Y-113927743D01*
X131491041Y-114110612D01*
X131649950Y-114309877D01*
X131836783Y-114483232D01*
X132047366Y-114626805D01*
X132047371Y-114626807D01*
X132047372Y-114626808D01*
X132047373Y-114626809D01*
X132169328Y-114685538D01*
X132276992Y-114737387D01*
X132276993Y-114737387D01*
X132276996Y-114737389D01*
X132520542Y-114812513D01*
X132772565Y-114850500D01*
X133027435Y-114850500D01*
X133279458Y-114812513D01*
X133523004Y-114737389D01*
X133752634Y-114626805D01*
X133963217Y-114483232D01*
X134150050Y-114309877D01*
X134308959Y-114110612D01*
X134436393Y-113889888D01*
X134529508Y-113652637D01*
X134529510Y-113652624D01*
X134530878Y-113648196D01*
X134532324Y-113648642D01*
X134563213Y-113593412D01*
X134624873Y-113560552D01*
X134694510Y-113566243D01*
X134750016Y-113608680D01*
X134768192Y-113648482D01*
X134769122Y-113648196D01*
X134770490Y-113652630D01*
X134770492Y-113652637D01*
X134862158Y-113886197D01*
X134863608Y-113889890D01*
X134885462Y-113927743D01*
X134991041Y-114110612D01*
X135149950Y-114309877D01*
X135336783Y-114483232D01*
X135547366Y-114626805D01*
X135547371Y-114626807D01*
X135547372Y-114626808D01*
X135547373Y-114626809D01*
X135669328Y-114685538D01*
X135776992Y-114737387D01*
X135776993Y-114737387D01*
X135776996Y-114737389D01*
X136020542Y-114812513D01*
X136272565Y-114850500D01*
X136527435Y-114850500D01*
X136779458Y-114812513D01*
X137023004Y-114737389D01*
X137252634Y-114626805D01*
X137463217Y-114483232D01*
X137650050Y-114309877D01*
X137808959Y-114110612D01*
X137936393Y-113889888D01*
X138029508Y-113652637D01*
X138029510Y-113652624D01*
X138030878Y-113648196D01*
X138032324Y-113648642D01*
X138063213Y-113593412D01*
X138124873Y-113560552D01*
X138194510Y-113566243D01*
X138250016Y-113608680D01*
X138268192Y-113648482D01*
X138269122Y-113648196D01*
X138270490Y-113652630D01*
X138270492Y-113652637D01*
X138362158Y-113886197D01*
X138363608Y-113889890D01*
X138385462Y-113927743D01*
X138491041Y-114110612D01*
X138649950Y-114309877D01*
X138836783Y-114483232D01*
X139047366Y-114626805D01*
X139047371Y-114626807D01*
X139047372Y-114626808D01*
X139047373Y-114626809D01*
X139169328Y-114685538D01*
X139276992Y-114737387D01*
X139276993Y-114737387D01*
X139276996Y-114737389D01*
X139520542Y-114812513D01*
X139772565Y-114850500D01*
X140027435Y-114850500D01*
X140279458Y-114812513D01*
X140523004Y-114737389D01*
X140752634Y-114626805D01*
X140963217Y-114483232D01*
X141150050Y-114309877D01*
X141308959Y-114110612D01*
X141436393Y-113889888D01*
X141529508Y-113652637D01*
X141529510Y-113652624D01*
X141530878Y-113648196D01*
X141532324Y-113648642D01*
X141563213Y-113593412D01*
X141624873Y-113560552D01*
X141694510Y-113566243D01*
X141750016Y-113608680D01*
X141768192Y-113648482D01*
X141769122Y-113648196D01*
X141770490Y-113652630D01*
X141770492Y-113652637D01*
X141862158Y-113886197D01*
X141863608Y-113889890D01*
X141885462Y-113927743D01*
X141991041Y-114110612D01*
X142149950Y-114309877D01*
X142336783Y-114483232D01*
X142547366Y-114626805D01*
X142547371Y-114626807D01*
X142547372Y-114626808D01*
X142547373Y-114626809D01*
X142669328Y-114685538D01*
X142776992Y-114737387D01*
X142776993Y-114737387D01*
X142776996Y-114737389D01*
X143020542Y-114812513D01*
X143272565Y-114850500D01*
X143527435Y-114850500D01*
X143779458Y-114812513D01*
X144023004Y-114737389D01*
X144252634Y-114626805D01*
X144463217Y-114483232D01*
X144650050Y-114309877D01*
X144808959Y-114110612D01*
X144936393Y-113889888D01*
X145029508Y-113652637D01*
X145029510Y-113652624D01*
X145030878Y-113648196D01*
X145032324Y-113648642D01*
X145063213Y-113593412D01*
X145124873Y-113560552D01*
X145194510Y-113566243D01*
X145250016Y-113608680D01*
X145268192Y-113648482D01*
X145269122Y-113648196D01*
X145270490Y-113652630D01*
X145270492Y-113652637D01*
X145362158Y-113886197D01*
X145363608Y-113889890D01*
X145385462Y-113927743D01*
X145491041Y-114110612D01*
X145649950Y-114309877D01*
X145836783Y-114483232D01*
X146047366Y-114626805D01*
X146047371Y-114626807D01*
X146047372Y-114626808D01*
X146047373Y-114626809D01*
X146169328Y-114685538D01*
X146276992Y-114737387D01*
X146276993Y-114737387D01*
X146276996Y-114737389D01*
X146520542Y-114812513D01*
X146772565Y-114850500D01*
X147027435Y-114850500D01*
X147279458Y-114812513D01*
X147523004Y-114737389D01*
X147752634Y-114626805D01*
X147963217Y-114483232D01*
X148150050Y-114309877D01*
X148308959Y-114110612D01*
X148436393Y-113889888D01*
X148529508Y-113652637D01*
X148529510Y-113652624D01*
X148530878Y-113648196D01*
X148532324Y-113648642D01*
X148563213Y-113593412D01*
X148624873Y-113560552D01*
X148694510Y-113566243D01*
X148750016Y-113608680D01*
X148768192Y-113648482D01*
X148769122Y-113648196D01*
X148770490Y-113652630D01*
X148770492Y-113652637D01*
X148862158Y-113886197D01*
X148863608Y-113889890D01*
X148885462Y-113927743D01*
X148991041Y-114110612D01*
X149149950Y-114309877D01*
X149336783Y-114483232D01*
X149547366Y-114626805D01*
X149547371Y-114626807D01*
X149547372Y-114626808D01*
X149547373Y-114626809D01*
X149669328Y-114685538D01*
X149776992Y-114737387D01*
X149776993Y-114737387D01*
X149776996Y-114737389D01*
X150020542Y-114812513D01*
X150272565Y-114850500D01*
X150527435Y-114850500D01*
X150779458Y-114812513D01*
X151023004Y-114737389D01*
X151252634Y-114626805D01*
X151463217Y-114483232D01*
X151650050Y-114309877D01*
X151808959Y-114110612D01*
X151936393Y-113889888D01*
X152029508Y-113652637D01*
X152029510Y-113652624D01*
X152030878Y-113648196D01*
X152032324Y-113648642D01*
X152063213Y-113593412D01*
X152124873Y-113560552D01*
X152194510Y-113566243D01*
X152250016Y-113608680D01*
X152268192Y-113648482D01*
X152269122Y-113648196D01*
X152270490Y-113652630D01*
X152270492Y-113652637D01*
X152362158Y-113886197D01*
X152363608Y-113889890D01*
X152385462Y-113927743D01*
X152491041Y-114110612D01*
X152649950Y-114309877D01*
X152836783Y-114483232D01*
X153047366Y-114626805D01*
X153047371Y-114626807D01*
X153047372Y-114626808D01*
X153047373Y-114626809D01*
X153169328Y-114685538D01*
X153276992Y-114737387D01*
X153276993Y-114737387D01*
X153276996Y-114737389D01*
X153520542Y-114812513D01*
X153772565Y-114850500D01*
X154027435Y-114850500D01*
X154279458Y-114812513D01*
X154523004Y-114737389D01*
X154752634Y-114626805D01*
X154963217Y-114483232D01*
X155150050Y-114309877D01*
X155308959Y-114110612D01*
X155436393Y-113889888D01*
X155529508Y-113652637D01*
X155586222Y-113404157D01*
X155594384Y-113295232D01*
X155605268Y-113150004D01*
X155605268Y-113149995D01*
X155586222Y-112895845D01*
X155583783Y-112885161D01*
X155529508Y-112647363D01*
X155436393Y-112410112D01*
X155308959Y-112189388D01*
X155150050Y-111990123D01*
X154963217Y-111816768D01*
X154752634Y-111673195D01*
X154752628Y-111673192D01*
X154752627Y-111673191D01*
X154752626Y-111673190D01*
X154523006Y-111562612D01*
X154523008Y-111562612D01*
X154279466Y-111487489D01*
X154279462Y-111487488D01*
X154279458Y-111487487D01*
X154154498Y-111468652D01*
X154027440Y-111449500D01*
X154027435Y-111449500D01*
X153772565Y-111449500D01*
X153769500Y-111449500D01*
X153702461Y-111429815D01*
X153656706Y-111377011D01*
X153645500Y-111325500D01*
X153645500Y-108641519D01*
X153665185Y-108574480D01*
X153681821Y-108553836D01*
X153700469Y-108535188D01*
X153700472Y-108535185D01*
X153751977Y-108449986D01*
X159600001Y-108449986D01*
X159610494Y-108552697D01*
X159665641Y-108719119D01*
X159665643Y-108719124D01*
X159757684Y-108868345D01*
X159881654Y-108992315D01*
X160030875Y-109084356D01*
X160030880Y-109084358D01*
X160197302Y-109139505D01*
X160197309Y-109139506D01*
X160300019Y-109149999D01*
X160499999Y-109149999D01*
X161500000Y-109149999D01*
X161699972Y-109149999D01*
X161699986Y-109149998D01*
X161802697Y-109139505D01*
X161969119Y-109084358D01*
X161969124Y-109084356D01*
X162118345Y-108992315D01*
X162242315Y-108868345D01*
X162334356Y-108719124D01*
X162334358Y-108719119D01*
X162389505Y-108552697D01*
X162389506Y-108552690D01*
X162399999Y-108449986D01*
X162400000Y-108449973D01*
X162400000Y-107900000D01*
X161500000Y-107900000D01*
X161500000Y-109149999D01*
X160499999Y-109149999D01*
X160500000Y-109149998D01*
X160500000Y-107900000D01*
X159600001Y-107900000D01*
X159600001Y-108449986D01*
X153751977Y-108449986D01*
X153788478Y-108389606D01*
X153839086Y-108227196D01*
X153845500Y-108156616D01*
X153845500Y-107493384D01*
X153839086Y-107422804D01*
X153788478Y-107260394D01*
X153700472Y-107114815D01*
X153700470Y-107114813D01*
X153700469Y-107114811D01*
X153681819Y-107096161D01*
X153648334Y-107034838D01*
X153645500Y-107008480D01*
X153645500Y-106943547D01*
X153665185Y-106876508D01*
X153717989Y-106830753D01*
X153787147Y-106820809D01*
X153791790Y-106821567D01*
X153797427Y-106822597D01*
X153797431Y-106822598D01*
X153834306Y-106825500D01*
X153834314Y-106825500D01*
X154265686Y-106825500D01*
X154265694Y-106825500D01*
X154302569Y-106822598D01*
X154302571Y-106822597D01*
X154302573Y-106822597D01*
X154344191Y-106810505D01*
X154460398Y-106776744D01*
X154601865Y-106693081D01*
X154718081Y-106576865D01*
X154801744Y-106435398D01*
X154826551Y-106350013D01*
X159600000Y-106350013D01*
X159600000Y-106900000D01*
X160500000Y-106900000D01*
X161500000Y-106900000D01*
X162399999Y-106900000D01*
X162399999Y-106350028D01*
X162399998Y-106350013D01*
X162389505Y-106247302D01*
X162334358Y-106080880D01*
X162334356Y-106080875D01*
X162242315Y-105931654D01*
X162118345Y-105807684D01*
X161969124Y-105715643D01*
X161969119Y-105715641D01*
X161802697Y-105660494D01*
X161802690Y-105660493D01*
X161699986Y-105650000D01*
X161500000Y-105650000D01*
X161500000Y-106900000D01*
X160500000Y-106900000D01*
X160500000Y-105650000D01*
X160300029Y-105650000D01*
X160300012Y-105650001D01*
X160197302Y-105660494D01*
X160030880Y-105715641D01*
X160030875Y-105715643D01*
X159881654Y-105807684D01*
X159757684Y-105931654D01*
X159665643Y-106080875D01*
X159665641Y-106080880D01*
X159610494Y-106247302D01*
X159610493Y-106247309D01*
X159600000Y-106350013D01*
X154826551Y-106350013D01*
X154834237Y-106323558D01*
X154871843Y-106264672D01*
X154935315Y-106235466D01*
X154994268Y-106241112D01*
X155120737Y-106285366D01*
X155120743Y-106285367D01*
X155120745Y-106285368D01*
X155120746Y-106285368D01*
X155120750Y-106285369D01*
X155299996Y-106305565D01*
X155300000Y-106305565D01*
X155300004Y-106305565D01*
X155479249Y-106285369D01*
X155479252Y-106285368D01*
X155479255Y-106285368D01*
X155649522Y-106225789D01*
X155802262Y-106129816D01*
X155929816Y-106002262D01*
X156025789Y-105849522D01*
X156085368Y-105679255D01*
X156085906Y-105674480D01*
X156105565Y-105500003D01*
X156105565Y-105499996D01*
X156085369Y-105320750D01*
X156085368Y-105320745D01*
X156074640Y-105290086D01*
X156025789Y-105150478D01*
X156021734Y-105144025D01*
X155944432Y-105020999D01*
X155929816Y-104997738D01*
X155802262Y-104870184D01*
X155649522Y-104774211D01*
X155649520Y-104774210D01*
X155642567Y-104771777D01*
X155614635Y-104757840D01*
X155535966Y-104705276D01*
X155505495Y-104684916D01*
X155505492Y-104684914D01*
X155505491Y-104684914D01*
X155368917Y-104628343D01*
X155368907Y-104628340D01*
X155223920Y-104599500D01*
X155223918Y-104599500D01*
X154974500Y-104599500D01*
X154907461Y-104579815D01*
X154861706Y-104527011D01*
X154850500Y-104475500D01*
X154850500Y-104459313D01*
X154850499Y-104459298D01*
X154847598Y-104422432D01*
X154847597Y-104422426D01*
X154801745Y-104264606D01*
X154801744Y-104264603D01*
X154801744Y-104264602D01*
X154718081Y-104123135D01*
X154718079Y-104123133D01*
X154718076Y-104123129D01*
X154601870Y-104006923D01*
X154601862Y-104006917D01*
X154460396Y-103923255D01*
X154460393Y-103923254D01*
X154302573Y-103877402D01*
X154302567Y-103877401D01*
X154265701Y-103874500D01*
X154265694Y-103874500D01*
X153834306Y-103874500D01*
X153834298Y-103874500D01*
X153797432Y-103877401D01*
X153797426Y-103877402D01*
X153639606Y-103923254D01*
X153639603Y-103923255D01*
X153498137Y-104006917D01*
X153491969Y-104011702D01*
X153490072Y-104009256D01*
X153441358Y-104035857D01*
X153371666Y-104030873D01*
X153339296Y-104010069D01*
X153338031Y-104011702D01*
X153331862Y-104006917D01*
X153190396Y-103923255D01*
X153190393Y-103923254D01*
X153032573Y-103877402D01*
X153032567Y-103877401D01*
X152995701Y-103874500D01*
X152995694Y-103874500D01*
X152564306Y-103874500D01*
X152564298Y-103874500D01*
X152527432Y-103877401D01*
X152527426Y-103877402D01*
X152369606Y-103923254D01*
X152369603Y-103923255D01*
X152228137Y-104006917D01*
X152221969Y-104011702D01*
X152220072Y-104009256D01*
X152171358Y-104035857D01*
X152101666Y-104030873D01*
X152069296Y-104010069D01*
X152068031Y-104011702D01*
X152061862Y-104006917D01*
X151920396Y-103923255D01*
X151920393Y-103923254D01*
X151762573Y-103877402D01*
X151762567Y-103877401D01*
X151725701Y-103874500D01*
X151725694Y-103874500D01*
X151294306Y-103874500D01*
X151294298Y-103874500D01*
X151257432Y-103877401D01*
X151257426Y-103877402D01*
X151099606Y-103923254D01*
X151099603Y-103923255D01*
X150958137Y-104006917D01*
X150951969Y-104011702D01*
X150950072Y-104009256D01*
X150901358Y-104035857D01*
X150831666Y-104030873D01*
X150799296Y-104010069D01*
X150798031Y-104011702D01*
X150791862Y-104006917D01*
X150650396Y-103923255D01*
X150650393Y-103923254D01*
X150492573Y-103877402D01*
X150492567Y-103877401D01*
X150455701Y-103874500D01*
X150455694Y-103874500D01*
X150024306Y-103874500D01*
X150024290Y-103874500D01*
X149984225Y-103877653D01*
X149915849Y-103863287D01*
X149866093Y-103814234D01*
X149850500Y-103754035D01*
X149850500Y-101995964D01*
X149870185Y-101928925D01*
X149922989Y-101883170D01*
X149984228Y-101872346D01*
X149987431Y-101872598D01*
X150024306Y-101875500D01*
X150024314Y-101875500D01*
X150455686Y-101875500D01*
X150455694Y-101875500D01*
X150492569Y-101872598D01*
X150492571Y-101872597D01*
X150492573Y-101872597D01*
X150558579Y-101853420D01*
X150650398Y-101826744D01*
X150791865Y-101743081D01*
X150791868Y-101743077D01*
X150798026Y-101738301D01*
X150799839Y-101740638D01*
X150848949Y-101713798D01*
X150918643Y-101718756D01*
X150950996Y-101739551D01*
X150952278Y-101737900D01*
X150958447Y-101742685D01*
X151099801Y-101826281D01*
X151210000Y-101858296D01*
X151210000Y-100224000D01*
X151229685Y-100156961D01*
X151282489Y-100111206D01*
X151334000Y-100100000D01*
X151686000Y-100100000D01*
X151753039Y-100119685D01*
X151798794Y-100172489D01*
X151810000Y-100224000D01*
X151810000Y-101858295D01*
X151920198Y-101826281D01*
X152004620Y-101776355D01*
X152072344Y-101759172D01*
X152138607Y-101781332D01*
X152170843Y-101814196D01*
X152197049Y-101853417D01*
X152197052Y-101853420D01*
X153226585Y-102882952D01*
X153226587Y-102882954D01*
X153254640Y-102901697D01*
X153296724Y-102929816D01*
X153349506Y-102965084D01*
X153349508Y-102965085D01*
X153349512Y-102965087D01*
X153486083Y-103021656D01*
X153486088Y-103021658D01*
X153486092Y-103021658D01*
X153486093Y-103021659D01*
X153631080Y-103050500D01*
X153631083Y-103050500D01*
X153631084Y-103050500D01*
X153778918Y-103050500D01*
X155100028Y-103050500D01*
X155140982Y-103057457D01*
X155170679Y-103067849D01*
X155220745Y-103085368D01*
X155220750Y-103085369D01*
X155399996Y-103105565D01*
X155400000Y-103105565D01*
X155400004Y-103105565D01*
X155579249Y-103085369D01*
X155579252Y-103085368D01*
X155579255Y-103085368D01*
X155749522Y-103025789D01*
X155902262Y-102929816D01*
X156029816Y-102802262D01*
X156125789Y-102649522D01*
X156185368Y-102479255D01*
X156187897Y-102456811D01*
X156205565Y-102300003D01*
X156205565Y-102299996D01*
X156185369Y-102120750D01*
X156185368Y-102120745D01*
X156175827Y-102093478D01*
X156125789Y-101950478D01*
X156112246Y-101928925D01*
X156078677Y-101875500D01*
X156029816Y-101797738D01*
X155902262Y-101670184D01*
X155846894Y-101635394D01*
X155749523Y-101574211D01*
X155579254Y-101514631D01*
X155579249Y-101514630D01*
X155400004Y-101494435D01*
X155399996Y-101494435D01*
X155220750Y-101514630D01*
X155220745Y-101514631D01*
X155140983Y-101542542D01*
X155100028Y-101549500D01*
X154948274Y-101549500D01*
X154881235Y-101529815D01*
X154835480Y-101477011D01*
X154825536Y-101407853D01*
X154829197Y-101390906D01*
X154835408Y-101369528D01*
X154847598Y-101327569D01*
X154850500Y-101290694D01*
X154850500Y-100641518D01*
X154870185Y-100574479D01*
X154886819Y-100553837D01*
X155653837Y-99786819D01*
X155715160Y-99753334D01*
X155741518Y-99750500D01*
X156675500Y-99750500D01*
X156742539Y-99770185D01*
X156788294Y-99822989D01*
X156799500Y-99874500D01*
X156799500Y-100547870D01*
X156799501Y-100547876D01*
X156805908Y-100607483D01*
X156856202Y-100742328D01*
X156856203Y-100742330D01*
X156924767Y-100833919D01*
X156949184Y-100899383D01*
X156949500Y-100908230D01*
X156949500Y-101200028D01*
X156942542Y-101240982D01*
X156914631Y-101320747D01*
X156894435Y-101499996D01*
X156894435Y-101500003D01*
X156914630Y-101679249D01*
X156914631Y-101679254D01*
X156974211Y-101849523D01*
X157054329Y-101977029D01*
X157070184Y-102002262D01*
X157197738Y-102129816D01*
X157261983Y-102170184D01*
X157334513Y-102215758D01*
X157350478Y-102225789D01*
X157511008Y-102281961D01*
X157520745Y-102285368D01*
X157520750Y-102285369D01*
X157699996Y-102305565D01*
X157700000Y-102305565D01*
X157700004Y-102305565D01*
X157879249Y-102285369D01*
X157879252Y-102285368D01*
X157879255Y-102285368D01*
X158049522Y-102225789D01*
X158202262Y-102129816D01*
X158329816Y-102002262D01*
X158425789Y-101849522D01*
X158485368Y-101679255D01*
X158491271Y-101626865D01*
X158505565Y-101500003D01*
X158505565Y-101499996D01*
X158489129Y-101354126D01*
X158485368Y-101320745D01*
X158457458Y-101240982D01*
X158450500Y-101200028D01*
X158450500Y-101124499D01*
X158470185Y-101057460D01*
X158522989Y-101011705D01*
X158574496Y-101000499D01*
X158997872Y-101000499D01*
X159057483Y-100994091D01*
X159131667Y-100966421D01*
X159201358Y-100961438D01*
X159218327Y-100966420D01*
X159279010Y-100989053D01*
X159286768Y-100991947D01*
X159292517Y-100994091D01*
X159352127Y-101000500D01*
X159650500Y-101000499D01*
X159717539Y-101020183D01*
X159763294Y-101072987D01*
X159774500Y-101124499D01*
X159774500Y-101383480D01*
X159754815Y-101450519D01*
X159738181Y-101471161D01*
X159719531Y-101489810D01*
X159719530Y-101489811D01*
X159631522Y-101635393D01*
X159580913Y-101797807D01*
X159574500Y-101868386D01*
X159574500Y-102531613D01*
X159580913Y-102602192D01*
X159580913Y-102602194D01*
X159580914Y-102602196D01*
X159599500Y-102661841D01*
X159631522Y-102764606D01*
X159723055Y-102916019D01*
X159740891Y-102983574D01*
X159719373Y-103050047D01*
X159704620Y-103067849D01*
X159609291Y-103163180D01*
X159547968Y-103196666D01*
X159521609Y-103199500D01*
X159425494Y-103199500D01*
X159359523Y-103180494D01*
X159349525Y-103174212D01*
X159179254Y-103114631D01*
X159179249Y-103114630D01*
X159000004Y-103094435D01*
X158999996Y-103094435D01*
X158820750Y-103114630D01*
X158820745Y-103114631D01*
X158650476Y-103174211D01*
X158497737Y-103270184D01*
X158370184Y-103397737D01*
X158274211Y-103550476D01*
X158214631Y-103720745D01*
X158214630Y-103720750D01*
X158194435Y-103899996D01*
X158194435Y-103900003D01*
X158214630Y-104079249D01*
X158214631Y-104079254D01*
X158274211Y-104249523D01*
X158370184Y-104402262D01*
X158497738Y-104529816D01*
X158650478Y-104625789D01*
X158706109Y-104645255D01*
X158820745Y-104685368D01*
X158820750Y-104685369D01*
X158999996Y-104705565D01*
X159000000Y-104705565D01*
X159000004Y-104705565D01*
X159179249Y-104685369D01*
X159179251Y-104685368D01*
X159179255Y-104685368D01*
X159179258Y-104685366D01*
X159179262Y-104685366D01*
X159293893Y-104645255D01*
X159363672Y-104641693D01*
X159424299Y-104676421D01*
X159452554Y-104723291D01*
X159502138Y-104872924D01*
X159502142Y-104872933D01*
X159593471Y-105020999D01*
X159593474Y-105021003D01*
X159716496Y-105144025D01*
X159716500Y-105144028D01*
X159864566Y-105235357D01*
X159864569Y-105235358D01*
X159864575Y-105235362D01*
X160029725Y-105290087D01*
X160131652Y-105300500D01*
X160131657Y-105300500D01*
X160718343Y-105300500D01*
X160718348Y-105300500D01*
X160820275Y-105290087D01*
X160985425Y-105235362D01*
X161133503Y-105144026D01*
X161256526Y-105021003D01*
X161256958Y-105020301D01*
X161257381Y-105019921D01*
X161261007Y-105015336D01*
X161261790Y-105015955D01*
X161308902Y-104973575D01*
X161377864Y-104962349D01*
X161441948Y-104990188D01*
X161463842Y-105015455D01*
X161463993Y-105015336D01*
X161466643Y-105018687D01*
X161468040Y-105020299D01*
X161468472Y-105020999D01*
X161468475Y-105021004D01*
X161591496Y-105144025D01*
X161591500Y-105144028D01*
X161739566Y-105235357D01*
X161739569Y-105235358D01*
X161739575Y-105235362D01*
X161904725Y-105290087D01*
X162006652Y-105300500D01*
X162006657Y-105300500D01*
X162593343Y-105300500D01*
X162593348Y-105300500D01*
X162695275Y-105290087D01*
X162860425Y-105235362D01*
X163008503Y-105144026D01*
X163131526Y-105021003D01*
X163222862Y-104872925D01*
X163270294Y-104729784D01*
X163310067Y-104672339D01*
X163374583Y-104645516D01*
X163443358Y-104657831D01*
X163494558Y-104705374D01*
X163512000Y-104768788D01*
X163512000Y-107285393D01*
X163494733Y-107348513D01*
X163448254Y-107427105D01*
X163448254Y-107427106D01*
X163402402Y-107584926D01*
X163402401Y-107584932D01*
X163399500Y-107621798D01*
X163399500Y-108612990D01*
X163379815Y-108680029D01*
X163344392Y-108716091D01*
X163340959Y-108718384D01*
X163340953Y-108718389D01*
X162655888Y-109403453D01*
X162655887Y-109403454D01*
X162579223Y-109518192D01*
X162526421Y-109645668D01*
X162526421Y-109645669D01*
X162526420Y-109645672D01*
X162515674Y-109699693D01*
X162483291Y-109761602D01*
X162422575Y-109796176D01*
X162394058Y-109799500D01*
X162141196Y-109799500D01*
X162076100Y-109781039D01*
X161969340Y-109715189D01*
X161969335Y-109715187D01*
X161969334Y-109715186D01*
X161802797Y-109660001D01*
X161802795Y-109660000D01*
X161700010Y-109649500D01*
X160299998Y-109649500D01*
X160299981Y-109649501D01*
X160197203Y-109660000D01*
X160197200Y-109660001D01*
X160030668Y-109715185D01*
X160030663Y-109715187D01*
X159881342Y-109807289D01*
X159757289Y-109931342D01*
X159665187Y-110080663D01*
X159665186Y-110080666D01*
X159610001Y-110247203D01*
X159610001Y-110247204D01*
X159610000Y-110247204D01*
X159599500Y-110349983D01*
X159599500Y-112450001D01*
X159599501Y-112450018D01*
X159610000Y-112552796D01*
X159610001Y-112552799D01*
X159655900Y-112691311D01*
X159665186Y-112719334D01*
X159757288Y-112868656D01*
X159881344Y-112992712D01*
X160030666Y-113084814D01*
X160197203Y-113139999D01*
X160299991Y-113150500D01*
X161700008Y-113150499D01*
X161802797Y-113139999D01*
X161969334Y-113084814D01*
X162118656Y-112992712D01*
X162242712Y-112868656D01*
X162334814Y-112719334D01*
X162389999Y-112552797D01*
X162400500Y-112450009D01*
X162400499Y-112023100D01*
X162420183Y-111956064D01*
X162472987Y-111910309D01*
X162542146Y-111900365D01*
X162605702Y-111929390D01*
X162627601Y-111954212D01*
X162655885Y-111996542D01*
X162655888Y-111996546D01*
X163483181Y-112823838D01*
X163516666Y-112885161D01*
X163519500Y-112911519D01*
X163519500Y-113958353D01*
X163499815Y-114025392D01*
X163447011Y-114071147D01*
X163377853Y-114081091D01*
X163314297Y-114052066D01*
X163290507Y-114024325D01*
X163229820Y-113927743D01*
X163229815Y-113927737D01*
X163102262Y-113800184D01*
X162949523Y-113704211D01*
X162779254Y-113644631D01*
X162779249Y-113644630D01*
X162600004Y-113624435D01*
X162599996Y-113624435D01*
X162420750Y-113644630D01*
X162420745Y-113644631D01*
X162250476Y-113704211D01*
X162097737Y-113800184D01*
X161970184Y-113927737D01*
X161874211Y-114080476D01*
X161814631Y-114250745D01*
X161814630Y-114250750D01*
X161794435Y-114429996D01*
X161794435Y-114430003D01*
X161814630Y-114609249D01*
X161814631Y-114609254D01*
X161842542Y-114689017D01*
X161849500Y-114729972D01*
X161849500Y-114775500D01*
X161829815Y-114842539D01*
X161777011Y-114888294D01*
X161725501Y-114899500D01*
X161622130Y-114899500D01*
X161622123Y-114899501D01*
X161562516Y-114905908D01*
X161427671Y-114956202D01*
X161427664Y-114956206D01*
X161312455Y-115042452D01*
X161312452Y-115042455D01*
X161226206Y-115157664D01*
X161226202Y-115157671D01*
X161175908Y-115292517D01*
X161169501Y-115352116D01*
X161169500Y-115352135D01*
X161169501Y-116951192D01*
X161168790Y-116951192D01*
X161163679Y-116984610D01*
X161165193Y-116984968D01*
X161163408Y-116992520D01*
X161157001Y-117052116D01*
X161157001Y-117052123D01*
X161157000Y-117052135D01*
X161157000Y-117847870D01*
X161157001Y-117847876D01*
X161163408Y-117907483D01*
X161213702Y-118042328D01*
X161213706Y-118042335D01*
X161299952Y-118157544D01*
X161299955Y-118157547D01*
X161415164Y-118243793D01*
X161415171Y-118243797D01*
X161533833Y-118288055D01*
X161589767Y-118329926D01*
X161614184Y-118395390D01*
X161614500Y-118404237D01*
X161614500Y-119397513D01*
X161643445Y-119580265D01*
X161700619Y-119756232D01*
X161700620Y-119756235D01*
X161772181Y-119896679D01*
X161784622Y-119921096D01*
X161893379Y-120070787D01*
X161893381Y-120070789D01*
X161960411Y-120137819D01*
X161993896Y-120199142D01*
X161988912Y-120268834D01*
X161947040Y-120324767D01*
X161881576Y-120349184D01*
X161872730Y-120349500D01*
X122002561Y-120349500D01*
X121997437Y-120349394D01*
X121563370Y-120331441D01*
X121553156Y-120330595D01*
X121124589Y-120277174D01*
X121114480Y-120275487D01*
X120691793Y-120186859D01*
X120681858Y-120184343D01*
X120267931Y-120061111D01*
X120258238Y-120057783D01*
X119855914Y-119900795D01*
X119846529Y-119896679D01*
X119458528Y-119706998D01*
X119449514Y-119702120D01*
X119078503Y-119481045D01*
X119069924Y-119475439D01*
X118718438Y-119224483D01*
X118710350Y-119218188D01*
X118380795Y-118939069D01*
X118373255Y-118932128D01*
X118067871Y-118626744D01*
X118060930Y-118619204D01*
X117792049Y-118301737D01*
X117781806Y-118289643D01*
X117775516Y-118281561D01*
X117524560Y-117930075D01*
X117518954Y-117921496D01*
X117510603Y-117907482D01*
X117297876Y-117550480D01*
X117293001Y-117541471D01*
X117103320Y-117153470D01*
X117099204Y-117144085D01*
X117037036Y-116984762D01*
X116942211Y-116741749D01*
X116938892Y-116732081D01*
X116815652Y-116318128D01*
X116813143Y-116308220D01*
X116724509Y-115885505D01*
X116722827Y-115875425D01*
X116669402Y-115446822D01*
X116668559Y-115436649D01*
X116650606Y-115002562D01*
X116650500Y-114997438D01*
X116650500Y-114868872D01*
X119999500Y-114868872D01*
X119999500Y-115131127D01*
X120020749Y-115292517D01*
X120033730Y-115391116D01*
X120048662Y-115446843D01*
X120101602Y-115644418D01*
X120101605Y-115644428D01*
X120201953Y-115886690D01*
X120201958Y-115886700D01*
X120333075Y-116113803D01*
X120492718Y-116321851D01*
X120492726Y-116321860D01*
X120678140Y-116507274D01*
X120678148Y-116507281D01*
X120886196Y-116666924D01*
X121113299Y-116798041D01*
X121113309Y-116798046D01*
X121355571Y-116898394D01*
X121355581Y-116898398D01*
X121608884Y-116966270D01*
X121868880Y-117000500D01*
X121868887Y-117000500D01*
X122131113Y-117000500D01*
X122131120Y-117000500D01*
X122391116Y-116966270D01*
X122644419Y-116898398D01*
X122886697Y-116798043D01*
X123113803Y-116666924D01*
X123321851Y-116507282D01*
X123321855Y-116507277D01*
X123321860Y-116507274D01*
X123507274Y-116321860D01*
X123507277Y-116321855D01*
X123507282Y-116321851D01*
X123666924Y-116113803D01*
X123798043Y-115886697D01*
X123898398Y-115644419D01*
X123966270Y-115391116D01*
X124000500Y-115131120D01*
X124000500Y-114868880D01*
X123966270Y-114608884D01*
X123898398Y-114355581D01*
X123887802Y-114330000D01*
X123798046Y-114113309D01*
X123798041Y-114113299D01*
X123666924Y-113886196D01*
X123507281Y-113678148D01*
X123507274Y-113678140D01*
X123321860Y-113492726D01*
X123321851Y-113492718D01*
X123113803Y-113333075D01*
X122886700Y-113201958D01*
X122886690Y-113201953D01*
X122644428Y-113101605D01*
X122644421Y-113101603D01*
X122644419Y-113101602D01*
X122391116Y-113033730D01*
X122333339Y-113026123D01*
X122131127Y-112999500D01*
X122131120Y-112999500D01*
X121868880Y-112999500D01*
X121868872Y-112999500D01*
X121637772Y-113029926D01*
X121608884Y-113033730D01*
X121418235Y-113084814D01*
X121355581Y-113101602D01*
X121355571Y-113101605D01*
X121113309Y-113201953D01*
X121113299Y-113201958D01*
X120886196Y-113333075D01*
X120678148Y-113492718D01*
X120492718Y-113678148D01*
X120333075Y-113886196D01*
X120201958Y-114113299D01*
X120201953Y-114113309D01*
X120101605Y-114355571D01*
X120101602Y-114355581D01*
X120038165Y-114592335D01*
X120033730Y-114608885D01*
X119999500Y-114868872D01*
X116650500Y-114868872D01*
X116650500Y-98499996D01*
X121794435Y-98499996D01*
X121794435Y-98500003D01*
X121814630Y-98679249D01*
X121814631Y-98679254D01*
X121874211Y-98849523D01*
X121927751Y-98934731D01*
X121970184Y-99002262D01*
X122097738Y-99129816D01*
X122114032Y-99140054D01*
X122218837Y-99205908D01*
X122250478Y-99225789D01*
X122402258Y-99278899D01*
X122420745Y-99285368D01*
X122420750Y-99285369D01*
X122599996Y-99305565D01*
X122600000Y-99305565D01*
X122600004Y-99305565D01*
X122779249Y-99285369D01*
X122779252Y-99285368D01*
X122779255Y-99285368D01*
X122949522Y-99225789D01*
X123102262Y-99129816D01*
X123229816Y-99002262D01*
X123325789Y-98849522D01*
X123325789Y-98849521D01*
X123329006Y-98844402D01*
X123381341Y-98798111D01*
X123450394Y-98787463D01*
X123514243Y-98815838D01*
X123521681Y-98822693D01*
X123546955Y-98847967D01*
X123546959Y-98847970D01*
X123691294Y-98936998D01*
X123691297Y-98936999D01*
X123691303Y-98937003D01*
X123852292Y-98990349D01*
X123951655Y-99000500D01*
X124548344Y-99000499D01*
X124548352Y-99000498D01*
X124548355Y-99000498D01*
X124602760Y-98994940D01*
X124647708Y-98990349D01*
X124808697Y-98937003D01*
X124808698Y-98937001D01*
X124815552Y-98934731D01*
X124815802Y-98935487D01*
X124860855Y-98925500D01*
X125248126Y-98925500D01*
X125315165Y-98945185D01*
X125335807Y-98961819D01*
X125421955Y-99047967D01*
X125421959Y-99047970D01*
X125566294Y-99136998D01*
X125566297Y-99136999D01*
X125566303Y-99137003D01*
X125727292Y-99190349D01*
X125775985Y-99195323D01*
X125840676Y-99221718D01*
X125880828Y-99278899D01*
X125883692Y-99348710D01*
X125851064Y-99406362D01*
X124294246Y-100963181D01*
X124232923Y-100996666D01*
X124206565Y-100999500D01*
X123852130Y-100999500D01*
X123852123Y-100999501D01*
X123792516Y-101005908D01*
X123657671Y-101056202D01*
X123657664Y-101056206D01*
X123542455Y-101142452D01*
X123542452Y-101142455D01*
X123456206Y-101257664D01*
X123456202Y-101257671D01*
X123405908Y-101392517D01*
X123399501Y-101452116D01*
X123399500Y-101452135D01*
X123399500Y-103147870D01*
X123399501Y-103147876D01*
X123405908Y-103207483D01*
X123456202Y-103342328D01*
X123456206Y-103342335D01*
X123542452Y-103457544D01*
X123542455Y-103457547D01*
X123657664Y-103543793D01*
X123657671Y-103543797D01*
X123675579Y-103550476D01*
X123792517Y-103594091D01*
X123792527Y-103594092D01*
X123797913Y-103595365D01*
X123858631Y-103629935D01*
X123891021Y-103691843D01*
X123884799Y-103761435D01*
X123857088Y-103803725D01*
X123699951Y-103960862D01*
X123569432Y-104147265D01*
X123569431Y-104147267D01*
X123473261Y-104353502D01*
X123473258Y-104353511D01*
X123414366Y-104573302D01*
X123414364Y-104573313D01*
X123394532Y-104799998D01*
X123394532Y-104800001D01*
X123414364Y-105026686D01*
X123414366Y-105026697D01*
X123473258Y-105246488D01*
X123473261Y-105246497D01*
X123569431Y-105452732D01*
X123569432Y-105452734D01*
X123699954Y-105639141D01*
X123860858Y-105800045D01*
X123861508Y-105800500D01*
X124047266Y-105930568D01*
X124253504Y-106026739D01*
X124473308Y-106085635D01*
X124635230Y-106099801D01*
X124699998Y-106105468D01*
X124700000Y-106105468D01*
X124700002Y-106105468D01*
X124756673Y-106100509D01*
X124926692Y-106085635D01*
X125146496Y-106026739D01*
X125352734Y-105930568D01*
X125539139Y-105800047D01*
X125700047Y-105639139D01*
X125830568Y-105452734D01*
X125926739Y-105246496D01*
X125985635Y-105026692D01*
X126005468Y-104800000D01*
X126001779Y-104757840D01*
X125991952Y-104645516D01*
X125985635Y-104573308D01*
X125926739Y-104353504D01*
X125830568Y-104147266D01*
X125700047Y-103960861D01*
X125700045Y-103960858D01*
X125542913Y-103803726D01*
X125509428Y-103742403D01*
X125514412Y-103672711D01*
X125556284Y-103616778D01*
X125602078Y-103595368D01*
X125607480Y-103594091D01*
X125607483Y-103594091D01*
X125607497Y-103594086D01*
X125674907Y-103568943D01*
X125742331Y-103543796D01*
X125857546Y-103457546D01*
X125943796Y-103342331D01*
X125994091Y-103207483D01*
X126000500Y-103147873D01*
X126000499Y-102138129D01*
X126020183Y-102071091D01*
X126036813Y-102050454D01*
X128300393Y-99786877D01*
X128361716Y-99753392D01*
X128431408Y-99758376D01*
X128487341Y-99800248D01*
X128507150Y-99839963D01*
X128523254Y-99895393D01*
X128523255Y-99895396D01*
X128523256Y-99895398D01*
X128529910Y-99906649D01*
X128606917Y-100036862D01*
X128606923Y-100036870D01*
X128723129Y-100153076D01*
X128723133Y-100153079D01*
X128723135Y-100153081D01*
X128864602Y-100236744D01*
X128935096Y-100257224D01*
X128993980Y-100294829D01*
X129023187Y-100358301D01*
X129024500Y-100376300D01*
X129024500Y-100422023D01*
X129006617Y-100486173D01*
X128931522Y-100610393D01*
X128880913Y-100772807D01*
X128878306Y-100801502D01*
X128874500Y-100843384D01*
X128874500Y-101506616D01*
X128875784Y-101520745D01*
X128880913Y-101577192D01*
X128880913Y-101577194D01*
X128880914Y-101577196D01*
X128931522Y-101739606D01*
X129013272Y-101874837D01*
X129019530Y-101885188D01*
X129139811Y-102005469D01*
X129139813Y-102005470D01*
X129139815Y-102005472D01*
X129285394Y-102093478D01*
X129447804Y-102144086D01*
X129518384Y-102150500D01*
X129518387Y-102150500D01*
X130031613Y-102150500D01*
X130031616Y-102150500D01*
X130102196Y-102144086D01*
X130264606Y-102093478D01*
X130410185Y-102005472D01*
X130512320Y-101903336D01*
X130573641Y-101869853D01*
X130643333Y-101874837D01*
X130687681Y-101903338D01*
X130688181Y-101903838D01*
X130721666Y-101965161D01*
X130724500Y-101991519D01*
X130724500Y-102056006D01*
X130724500Y-102193994D01*
X130724500Y-102193996D01*
X130724499Y-102193996D01*
X130751418Y-102329322D01*
X130751421Y-102329332D01*
X130804222Y-102456807D01*
X130880887Y-102571545D01*
X130880888Y-102571546D01*
X131408630Y-103099287D01*
X131437990Y-103146013D01*
X131474209Y-103249519D01*
X131521312Y-103324483D01*
X131570184Y-103402262D01*
X131697738Y-103529816D01*
X131786145Y-103585366D01*
X131845991Y-103622970D01*
X131850478Y-103625789D01*
X131992544Y-103675500D01*
X132020745Y-103685368D01*
X132020750Y-103685369D01*
X132199996Y-103705565D01*
X132200000Y-103705565D01*
X132200004Y-103705565D01*
X132379249Y-103685369D01*
X132379252Y-103685368D01*
X132379255Y-103685368D01*
X132549522Y-103625789D01*
X132702262Y-103529816D01*
X132829816Y-103402262D01*
X132925789Y-103249522D01*
X132962007Y-103146013D01*
X132991365Y-103099290D01*
X133719114Y-102371543D01*
X133795775Y-102256811D01*
X133808952Y-102225000D01*
X133813280Y-102214551D01*
X133857120Y-102160147D01*
X133923415Y-102138082D01*
X133991114Y-102155361D01*
X134038725Y-102206498D01*
X134051332Y-102273224D01*
X134049500Y-102293384D01*
X134049500Y-102956616D01*
X134050270Y-102965084D01*
X134055913Y-103027192D01*
X134055913Y-103027194D01*
X134055914Y-103027196D01*
X134106522Y-103189606D01*
X134188058Y-103324483D01*
X134194530Y-103335188D01*
X134314811Y-103455469D01*
X134314813Y-103455470D01*
X134314815Y-103455472D01*
X134460394Y-103543478D01*
X134622804Y-103594086D01*
X134693384Y-103600500D01*
X134693387Y-103600500D01*
X135206613Y-103600500D01*
X135206616Y-103600500D01*
X135277196Y-103594086D01*
X135439606Y-103543478D01*
X135585185Y-103455472D01*
X135687673Y-103352983D01*
X135748994Y-103319499D01*
X135818685Y-103324483D01*
X135863034Y-103352984D01*
X135965122Y-103455072D01*
X136110600Y-103543017D01*
X136199999Y-103570874D01*
X136200000Y-103570874D01*
X136200000Y-102349000D01*
X136219685Y-102281961D01*
X136272489Y-102236206D01*
X136324000Y-102225000D01*
X137493781Y-102225000D01*
X137493589Y-102222888D01*
X137455615Y-102101023D01*
X137450000Y-102064133D01*
X137450000Y-100749000D01*
X137469685Y-100681961D01*
X137522489Y-100636206D01*
X137574000Y-100625000D01*
X138822494Y-100625000D01*
X138786547Y-100516518D01*
X138786542Y-100516507D01*
X138697575Y-100372271D01*
X138697572Y-100372267D01*
X138577732Y-100252427D01*
X138577728Y-100252424D01*
X138433492Y-100163457D01*
X138433481Y-100163452D01*
X138272606Y-100110144D01*
X138173322Y-100100000D01*
X138111751Y-100100000D01*
X138044712Y-100080315D01*
X137998957Y-100027511D01*
X137989013Y-99958353D01*
X137994042Y-99937004D01*
X138004817Y-99904488D01*
X138034839Y-99855816D01*
X138699290Y-99191365D01*
X138746013Y-99162007D01*
X138849522Y-99125789D01*
X139002262Y-99029816D01*
X139129816Y-98902262D01*
X139225789Y-98749522D01*
X139285368Y-98579255D01*
X139285369Y-98579249D01*
X139305565Y-98400003D01*
X139305565Y-98399996D01*
X139285369Y-98220750D01*
X139285366Y-98220737D01*
X139225790Y-98050479D01*
X139219506Y-98040478D01*
X139200500Y-97974507D01*
X139200500Y-97354854D01*
X139220185Y-97287815D01*
X139272989Y-97242060D01*
X139342147Y-97232116D01*
X139389598Y-97249316D01*
X139405873Y-97259355D01*
X139405880Y-97259358D01*
X139550000Y-97307114D01*
X140550000Y-97307114D01*
X140694119Y-97259358D01*
X140694124Y-97259356D01*
X140843345Y-97167315D01*
X140967315Y-97043345D01*
X141059356Y-96894124D01*
X141059358Y-96894119D01*
X141114505Y-96727697D01*
X141114506Y-96727690D01*
X141124999Y-96624986D01*
X141125000Y-96624973D01*
X141125000Y-96425000D01*
X140550000Y-96425000D01*
X140550000Y-97307114D01*
X139550000Y-97307114D01*
X139550000Y-96425000D01*
X138975001Y-96425000D01*
X138975001Y-96509982D01*
X138955316Y-96577021D01*
X138902512Y-96622776D01*
X138833354Y-96632720D01*
X138769798Y-96603695D01*
X138763320Y-96597663D01*
X138211818Y-96046161D01*
X138178333Y-95984838D01*
X138175499Y-95958480D01*
X138175499Y-95225013D01*
X138975000Y-95225013D01*
X138975000Y-95425000D01*
X139550000Y-95425000D01*
X139550000Y-94542884D01*
X139405879Y-94590641D01*
X139256654Y-94682684D01*
X139132684Y-94806654D01*
X139040643Y-94955875D01*
X139040641Y-94955880D01*
X138985494Y-95122302D01*
X138985493Y-95122309D01*
X138975000Y-95225013D01*
X138175499Y-95225013D01*
X138175499Y-95224998D01*
X138175498Y-95224981D01*
X138164999Y-95122203D01*
X138164998Y-95122200D01*
X138141232Y-95050480D01*
X138109814Y-94955666D01*
X138017712Y-94806344D01*
X137893656Y-94682288D01*
X137744334Y-94590186D01*
X137577797Y-94535001D01*
X137577795Y-94535000D01*
X137475010Y-94524500D01*
X136724998Y-94524500D01*
X136724980Y-94524501D01*
X136622203Y-94535000D01*
X136622200Y-94535001D01*
X136455668Y-94590185D01*
X136455663Y-94590187D01*
X136306342Y-94682289D01*
X136258344Y-94730287D01*
X136197021Y-94763771D01*
X136127329Y-94758786D01*
X136071396Y-94716914D01*
X136048191Y-94662003D01*
X136036470Y-94588001D01*
X136019709Y-94482174D01*
X135991603Y-94395672D01*
X135958884Y-94294974D01*
X135958882Y-94294971D01*
X135958882Y-94294969D01*
X135906583Y-94192328D01*
X135869524Y-94119595D01*
X135753828Y-93960354D01*
X135430654Y-93637180D01*
X135397169Y-93575857D01*
X135402153Y-93506165D01*
X135444025Y-93450232D01*
X135509489Y-93425815D01*
X135518335Y-93425499D01*
X136647871Y-93425499D01*
X136647872Y-93425499D01*
X136707483Y-93419091D01*
X136842331Y-93368796D01*
X136957546Y-93282546D01*
X137043796Y-93167331D01*
X137094091Y-93032483D01*
X137100500Y-92972873D01*
X137100500Y-92972844D01*
X138300000Y-92972844D01*
X138306401Y-93032372D01*
X138306403Y-93032379D01*
X138356645Y-93167086D01*
X138356649Y-93167093D01*
X138442809Y-93282187D01*
X138442812Y-93282190D01*
X138557906Y-93368350D01*
X138557913Y-93368354D01*
X138692620Y-93418596D01*
X138692627Y-93418598D01*
X138752155Y-93424999D01*
X138752172Y-93425000D01*
X139250000Y-93425000D01*
X140250000Y-93425000D01*
X140747828Y-93425000D01*
X140747844Y-93424999D01*
X140807372Y-93418598D01*
X140807379Y-93418596D01*
X140942086Y-93368354D01*
X140942093Y-93368350D01*
X141057187Y-93282190D01*
X141057190Y-93282187D01*
X141143350Y-93167093D01*
X141143354Y-93167086D01*
X141193596Y-93032379D01*
X141193598Y-93032372D01*
X141199999Y-92972844D01*
X141200000Y-92972827D01*
X141200000Y-92829277D01*
X141219685Y-92762238D01*
X141272489Y-92716483D01*
X141341647Y-92706539D01*
X141363004Y-92711571D01*
X141447302Y-92739505D01*
X141447309Y-92739506D01*
X141550019Y-92749999D01*
X141749999Y-92749999D01*
X141750000Y-92749998D01*
X141750000Y-92175000D01*
X140250000Y-92175000D01*
X140250000Y-93425000D01*
X139250000Y-93425000D01*
X139250000Y-92175000D01*
X138300000Y-92175000D01*
X138300000Y-92972844D01*
X137100500Y-92972844D01*
X137100499Y-90377155D01*
X138300000Y-90377155D01*
X138300000Y-91175000D01*
X139250000Y-91175000D01*
X140250000Y-91175000D01*
X141750000Y-91175000D01*
X141750000Y-90600000D01*
X142750000Y-90600000D01*
X142750000Y-91175000D01*
X143482000Y-91175000D01*
X143482000Y-91174000D01*
X143501685Y-91106961D01*
X143554489Y-91061206D01*
X143606000Y-91050000D01*
X144100000Y-91050000D01*
X144100000Y-90556217D01*
X144097893Y-90556409D01*
X143935604Y-90606980D01*
X143790122Y-90694927D01*
X143669928Y-90815121D01*
X143669923Y-90815127D01*
X143659821Y-90831838D01*
X143608292Y-90879024D01*
X143539432Y-90890860D01*
X143475104Y-90863588D01*
X143466026Y-90855365D01*
X143368345Y-90757684D01*
X143219124Y-90665643D01*
X143219119Y-90665641D01*
X143052697Y-90610494D01*
X143052690Y-90610493D01*
X142949986Y-90600000D01*
X142750000Y-90600000D01*
X141750000Y-90600000D01*
X141550029Y-90600000D01*
X141550012Y-90600001D01*
X141447302Y-90610494D01*
X141363004Y-90638428D01*
X141293176Y-90640830D01*
X141233134Y-90605098D01*
X141201941Y-90542578D01*
X141200000Y-90520722D01*
X141200000Y-90377172D01*
X141199999Y-90377155D01*
X141193598Y-90317627D01*
X141193596Y-90317620D01*
X141143354Y-90182913D01*
X141143350Y-90182906D01*
X141057190Y-90067812D01*
X141057187Y-90067809D01*
X140942093Y-89981649D01*
X140942086Y-89981645D01*
X140807379Y-89931403D01*
X140807372Y-89931401D01*
X140747844Y-89925000D01*
X140250000Y-89925000D01*
X140250000Y-91175000D01*
X139250000Y-91175000D01*
X139250000Y-89925000D01*
X138752155Y-89925000D01*
X138692627Y-89931401D01*
X138692620Y-89931403D01*
X138557913Y-89981645D01*
X138557906Y-89981649D01*
X138442812Y-90067809D01*
X138442809Y-90067812D01*
X138356649Y-90182906D01*
X138356645Y-90182913D01*
X138306403Y-90317620D01*
X138306401Y-90317627D01*
X138300000Y-90377155D01*
X137100499Y-90377155D01*
X137100499Y-90377128D01*
X137094844Y-90324525D01*
X137094091Y-90317516D01*
X137043797Y-90182671D01*
X137043793Y-90182664D01*
X136957547Y-90067455D01*
X136957544Y-90067452D01*
X136842335Y-89981206D01*
X136842328Y-89981202D01*
X136707482Y-89930908D01*
X136707483Y-89930908D01*
X136647883Y-89924501D01*
X136647881Y-89924500D01*
X136647873Y-89924500D01*
X136647864Y-89924500D01*
X134652129Y-89924500D01*
X134652123Y-89924501D01*
X134592516Y-89930908D01*
X134457671Y-89981202D01*
X134457664Y-89981206D01*
X134342455Y-90067452D01*
X134342452Y-90067455D01*
X134256206Y-90182664D01*
X134256202Y-90182671D01*
X134205908Y-90317517D01*
X134204126Y-90325062D01*
X134201853Y-90324525D01*
X134179571Y-90378312D01*
X134122177Y-90418157D01*
X134083024Y-90424500D01*
X134001583Y-90424500D01*
X133943896Y-90433636D01*
X133874602Y-90424680D01*
X133821151Y-90379683D01*
X133800512Y-90312931D01*
X133800499Y-90311273D01*
X133800499Y-89841517D01*
X133820184Y-89774479D01*
X133836813Y-89753842D01*
X134430656Y-89160000D01*
X141302434Y-89160000D01*
X141346831Y-89338523D01*
X141431390Y-89509022D01*
X141431392Y-89509025D01*
X141550632Y-89657366D01*
X141550633Y-89657367D01*
X141698974Y-89776607D01*
X141698977Y-89776609D01*
X141869476Y-89861168D01*
X142054175Y-89907102D01*
X142096903Y-89910000D01*
X142298000Y-89910000D01*
X143298000Y-89910000D01*
X143499097Y-89910000D01*
X143541824Y-89907102D01*
X143726523Y-89861168D01*
X143897022Y-89776609D01*
X143897025Y-89776607D01*
X144045366Y-89657367D01*
X144045367Y-89657366D01*
X144164607Y-89509025D01*
X144164609Y-89509022D01*
X144249168Y-89338523D01*
X144293566Y-89160000D01*
X143298000Y-89160000D01*
X143298000Y-89910000D01*
X142298000Y-89910000D01*
X142298000Y-89160000D01*
X141302434Y-89160000D01*
X134430656Y-89160000D01*
X134531966Y-89058690D01*
X134593287Y-89025207D01*
X134660600Y-89029331D01*
X134820745Y-89085368D01*
X134820750Y-89085369D01*
X134999996Y-89105565D01*
X135000000Y-89105565D01*
X135000004Y-89105565D01*
X135179249Y-89085369D01*
X135179252Y-89085368D01*
X135179255Y-89085368D01*
X135349522Y-89025789D01*
X135502262Y-88929816D01*
X135629816Y-88802262D01*
X135725789Y-88649522D01*
X135785368Y-88479255D01*
X135786562Y-88468657D01*
X135805565Y-88300003D01*
X135805565Y-88299996D01*
X135785369Y-88120750D01*
X135785368Y-88120745D01*
X135770065Y-88077011D01*
X135725789Y-87950478D01*
X135698056Y-87906342D01*
X135670010Y-87861707D01*
X135629816Y-87797738D01*
X135502262Y-87670184D01*
X135485289Y-87659519D01*
X135349523Y-87574211D01*
X135179254Y-87514631D01*
X135179249Y-87514630D01*
X135000004Y-87494435D01*
X134999996Y-87494435D01*
X134820750Y-87514630D01*
X134820745Y-87514631D01*
X134650474Y-87574212D01*
X134640477Y-87580494D01*
X134574506Y-87599500D01*
X134231004Y-87599500D01*
X134095677Y-87626418D01*
X134095667Y-87626421D01*
X133968192Y-87679222D01*
X133853459Y-87755884D01*
X133760536Y-87848807D01*
X133699212Y-87882291D01*
X133629521Y-87877307D01*
X133585174Y-87848806D01*
X133518657Y-87782289D01*
X133518656Y-87782288D01*
X133425888Y-87725069D01*
X133369336Y-87690187D01*
X133369331Y-87690185D01*
X133336247Y-87679222D01*
X133202797Y-87635001D01*
X133202795Y-87635000D01*
X133100010Y-87624500D01*
X131699998Y-87624500D01*
X131699981Y-87624501D01*
X131597203Y-87635000D01*
X131597200Y-87635001D01*
X131430668Y-87690185D01*
X131430663Y-87690187D01*
X131281342Y-87782289D01*
X131157289Y-87906342D01*
X131065187Y-88055663D01*
X131065186Y-88055666D01*
X131010001Y-88222203D01*
X131010001Y-88222204D01*
X131010000Y-88222204D01*
X130999500Y-88324983D01*
X130999500Y-90425001D01*
X130999501Y-90425018D01*
X131010000Y-90527796D01*
X131010001Y-90527799D01*
X131065185Y-90694331D01*
X131065187Y-90694336D01*
X131077705Y-90714631D01*
X131157288Y-90843656D01*
X131281344Y-90967712D01*
X131430666Y-91059814D01*
X131597203Y-91114999D01*
X131699991Y-91125500D01*
X132581663Y-91125499D01*
X132648702Y-91145183D01*
X132694457Y-91197987D01*
X132704401Y-91267146D01*
X132675376Y-91330702D01*
X132669344Y-91337180D01*
X132418343Y-91588181D01*
X132357020Y-91621666D01*
X132330662Y-91624500D01*
X131699998Y-91624500D01*
X131699980Y-91624501D01*
X131597203Y-91635000D01*
X131597200Y-91635001D01*
X131430668Y-91690185D01*
X131430663Y-91690187D01*
X131281342Y-91782289D01*
X131275451Y-91788181D01*
X131214128Y-91821666D01*
X131187770Y-91824500D01*
X130551874Y-91824500D01*
X130484835Y-91804815D01*
X130464193Y-91788181D01*
X130453044Y-91777032D01*
X130453040Y-91777029D01*
X130308705Y-91688001D01*
X130308699Y-91687998D01*
X130308697Y-91687997D01*
X130287123Y-91680848D01*
X130147709Y-91634651D01*
X130048346Y-91624500D01*
X129451662Y-91624500D01*
X129451644Y-91624501D01*
X129352292Y-91634650D01*
X129352289Y-91634651D01*
X129191305Y-91687996D01*
X129191294Y-91688001D01*
X129046959Y-91777029D01*
X129046955Y-91777032D01*
X128927032Y-91896955D01*
X128927029Y-91896959D01*
X128838001Y-92041294D01*
X128837996Y-92041305D01*
X128784651Y-92202290D01*
X128774500Y-92301647D01*
X128774500Y-92848337D01*
X128774501Y-92848355D01*
X128784489Y-92946124D01*
X128771719Y-93014817D01*
X128725847Y-93063565D01*
X128743286Y-93059213D01*
X128809462Y-93081629D01*
X128843742Y-93118012D01*
X128927029Y-93253040D01*
X128927032Y-93253044D01*
X128936307Y-93262319D01*
X128969792Y-93323642D01*
X128964808Y-93393334D01*
X128936307Y-93437681D01*
X128927032Y-93446955D01*
X128927031Y-93446956D01*
X128855037Y-93563676D01*
X128803089Y-93610400D01*
X128734126Y-93621621D01*
X128670044Y-93593777D01*
X128631189Y-93535708D01*
X128625499Y-93498578D01*
X128625499Y-93299998D01*
X128625498Y-93299982D01*
X128623717Y-93282544D01*
X128614999Y-93197203D01*
X128614998Y-93197200D01*
X128614846Y-93195711D01*
X128627616Y-93127018D01*
X128673487Y-93078268D01*
X128656048Y-93082621D01*
X128589872Y-93060205D01*
X128555592Y-93023821D01*
X128467712Y-92881344D01*
X128343657Y-92757289D01*
X128343656Y-92757288D01*
X128238543Y-92692454D01*
X128194336Y-92665187D01*
X128194335Y-92665186D01*
X128194334Y-92665186D01*
X128135493Y-92645688D01*
X128078051Y-92605916D01*
X128051228Y-92541400D01*
X128050500Y-92527983D01*
X128050500Y-91276577D01*
X128033648Y-91170181D01*
X128019709Y-91082174D01*
X128008131Y-91046542D01*
X128008131Y-91046541D01*
X128008131Y-91046540D01*
X128006569Y-91041734D01*
X128000499Y-91003413D01*
X128000499Y-89949998D01*
X128000498Y-89949981D01*
X127989999Y-89847203D01*
X127989998Y-89847200D01*
X127987219Y-89838813D01*
X127934814Y-89680666D01*
X127842712Y-89531344D01*
X127718656Y-89407288D01*
X127569334Y-89315186D01*
X127402797Y-89260001D01*
X127402795Y-89260000D01*
X127300010Y-89249500D01*
X125899998Y-89249500D01*
X125899981Y-89249501D01*
X125797203Y-89260000D01*
X125797200Y-89260001D01*
X125630668Y-89315185D01*
X125630663Y-89315187D01*
X125481342Y-89407289D01*
X125357289Y-89531342D01*
X125265187Y-89680663D01*
X125265185Y-89680668D01*
X125240939Y-89753837D01*
X125210001Y-89847203D01*
X125210001Y-89847204D01*
X125210000Y-89847204D01*
X125199500Y-89949983D01*
X125199500Y-92050001D01*
X125199501Y-92050018D01*
X125210000Y-92152796D01*
X125210001Y-92152799D01*
X125265185Y-92319331D01*
X125265187Y-92319336D01*
X125279501Y-92342542D01*
X125345584Y-92449681D01*
X125357289Y-92468657D01*
X125386407Y-92497775D01*
X125419892Y-92559098D01*
X125414908Y-92628790D01*
X125373036Y-92684723D01*
X125363823Y-92690994D01*
X125339433Y-92706038D01*
X125274336Y-92724500D01*
X125136489Y-92724500D01*
X125069450Y-92704815D01*
X125035762Y-92670191D01*
X125035094Y-92670715D01*
X125030468Y-92664810D01*
X124910188Y-92544530D01*
X124905010Y-92541400D01*
X124764606Y-92456522D01*
X124602196Y-92405914D01*
X124602194Y-92405913D01*
X124602192Y-92405913D01*
X124552778Y-92401423D01*
X124531616Y-92399500D01*
X123868384Y-92399500D01*
X123849145Y-92401248D01*
X123797807Y-92405913D01*
X123635393Y-92456522D01*
X123489811Y-92544530D01*
X123369530Y-92664811D01*
X123281522Y-92810393D01*
X123230913Y-92972807D01*
X123224500Y-93043386D01*
X123224500Y-93556613D01*
X123230913Y-93627192D01*
X123230913Y-93627194D01*
X123230914Y-93627196D01*
X123281522Y-93789606D01*
X123339412Y-93885368D01*
X123369530Y-93935188D01*
X123471661Y-94037319D01*
X123505146Y-94098642D01*
X123500162Y-94168334D01*
X123471661Y-94212681D01*
X123369531Y-94314810D01*
X123369530Y-94314811D01*
X123281522Y-94460393D01*
X123230913Y-94622807D01*
X123227352Y-94662003D01*
X123224500Y-94693384D01*
X123224500Y-95206616D01*
X123226171Y-95225000D01*
X123230913Y-95277192D01*
X123230913Y-95277194D01*
X123230914Y-95277196D01*
X123281522Y-95439606D01*
X123369528Y-95585185D01*
X123428985Y-95644642D01*
X123462469Y-95705963D01*
X123457485Y-95775655D01*
X123431417Y-95816219D01*
X123431510Y-95816293D01*
X123430763Y-95817236D01*
X123428990Y-95819997D01*
X123427035Y-95821952D01*
X123427029Y-95821959D01*
X123338001Y-95966294D01*
X123337996Y-95966305D01*
X123284651Y-96127290D01*
X123274500Y-96226647D01*
X123274500Y-96773337D01*
X123274501Y-96773355D01*
X123284650Y-96872707D01*
X123284651Y-96872710D01*
X123337996Y-97033694D01*
X123338001Y-97033705D01*
X123416150Y-97160403D01*
X123434591Y-97227795D01*
X123413669Y-97294459D01*
X123360027Y-97339229D01*
X123310612Y-97349500D01*
X122981004Y-97349500D01*
X122845677Y-97376418D01*
X122845667Y-97376421D01*
X122718192Y-97429222D01*
X122603454Y-97505887D01*
X122400709Y-97708632D01*
X122353984Y-97737992D01*
X122250476Y-97774211D01*
X122250475Y-97774212D01*
X122097737Y-97870184D01*
X121970184Y-97997737D01*
X121874211Y-98150476D01*
X121814631Y-98320745D01*
X121814630Y-98320750D01*
X121794435Y-98499996D01*
X116650500Y-98499996D01*
X116650500Y-85949983D01*
X125199500Y-85949983D01*
X125199500Y-88050001D01*
X125199501Y-88050018D01*
X125210000Y-88152796D01*
X125210001Y-88152799D01*
X125241506Y-88247872D01*
X125265186Y-88319334D01*
X125357288Y-88468656D01*
X125481344Y-88592712D01*
X125630666Y-88684814D01*
X125797203Y-88739999D01*
X125899991Y-88750500D01*
X127300008Y-88750499D01*
X127402797Y-88739999D01*
X127569334Y-88684814D01*
X127718656Y-88592712D01*
X127842712Y-88468656D01*
X127934814Y-88319334D01*
X127989999Y-88152797D01*
X128000500Y-88050009D01*
X128000499Y-87594334D01*
X128020183Y-87527296D01*
X128036813Y-87506659D01*
X128881655Y-86661818D01*
X128942978Y-86628333D01*
X128969336Y-86625499D01*
X131000002Y-86625499D01*
X131000008Y-86625499D01*
X131102797Y-86614999D01*
X131269334Y-86559814D01*
X131418656Y-86467712D01*
X131542712Y-86343656D01*
X131634814Y-86194334D01*
X131689999Y-86027797D01*
X131700500Y-85925009D01*
X131700499Y-84544336D01*
X131720184Y-84477298D01*
X131736818Y-84456655D01*
X131771829Y-84421644D01*
X131853828Y-84339646D01*
X131969524Y-84180405D01*
X132058884Y-84005026D01*
X132119709Y-83817826D01*
X132121420Y-83807025D01*
X132150500Y-83623421D01*
X132150500Y-76878303D01*
X135028802Y-76878303D01*
X135240539Y-76980269D01*
X135240537Y-76980269D01*
X135498337Y-77059790D01*
X135498343Y-77059792D01*
X135765101Y-77099999D01*
X135765110Y-77100000D01*
X136034890Y-77100000D01*
X136034898Y-77099999D01*
X136301656Y-77059792D01*
X136301662Y-77059790D01*
X136559458Y-76980270D01*
X136771195Y-76878302D01*
X135900000Y-76007107D01*
X135028802Y-76878303D01*
X132150500Y-76878303D01*
X132150500Y-76649976D01*
X132170185Y-76582937D01*
X132190159Y-76559077D01*
X132223561Y-76528085D01*
X132391815Y-76317102D01*
X132526743Y-76083398D01*
X132625334Y-75832195D01*
X132685383Y-75569103D01*
X132705549Y-75300000D01*
X132705549Y-75299995D01*
X134094953Y-75299995D01*
X134094953Y-75300004D01*
X134115113Y-75569026D01*
X134115113Y-75569028D01*
X134175142Y-75832033D01*
X134175148Y-75832052D01*
X134273709Y-76083181D01*
X134323489Y-76169402D01*
X134323490Y-76169403D01*
X135192893Y-75300000D01*
X135128874Y-75235981D01*
X135250000Y-75235981D01*
X135250000Y-75364019D01*
X135274979Y-75489598D01*
X135323978Y-75607890D01*
X135395112Y-75714351D01*
X135485649Y-75804888D01*
X135592110Y-75876022D01*
X135710402Y-75925021D01*
X135835981Y-75950000D01*
X135964019Y-75950000D01*
X136089598Y-75925021D01*
X136207890Y-75876022D01*
X136314351Y-75804888D01*
X136404888Y-75714351D01*
X136476022Y-75607890D01*
X136525021Y-75489598D01*
X136550000Y-75364019D01*
X136550000Y-75299999D01*
X136607107Y-75299999D01*
X136607107Y-75300001D01*
X137476509Y-76169403D01*
X137476510Y-76169403D01*
X137526290Y-76083182D01*
X137526293Y-76083175D01*
X137624851Y-75832052D01*
X137624857Y-75832033D01*
X137684886Y-75569028D01*
X137684886Y-75569026D01*
X137705047Y-75300004D01*
X137705047Y-75299995D01*
X137684886Y-75030973D01*
X137684886Y-75030971D01*
X137624857Y-74767966D01*
X137624851Y-74767947D01*
X137526290Y-74516818D01*
X137476509Y-74430595D01*
X136607107Y-75299999D01*
X136550000Y-75299999D01*
X136550000Y-75235981D01*
X136525021Y-75110402D01*
X136476022Y-74992110D01*
X136404888Y-74885649D01*
X136314351Y-74795112D01*
X136207890Y-74723978D01*
X136089598Y-74674979D01*
X135964019Y-74650000D01*
X135835981Y-74650000D01*
X135710402Y-74674979D01*
X135592110Y-74723978D01*
X135485649Y-74795112D01*
X135395112Y-74885649D01*
X135323978Y-74992110D01*
X135274979Y-75110402D01*
X135250000Y-75235981D01*
X135128874Y-75235981D01*
X134323489Y-74430596D01*
X134273708Y-74516821D01*
X134273706Y-74516825D01*
X134175148Y-74767947D01*
X134175142Y-74767966D01*
X134115113Y-75030971D01*
X134115113Y-75030973D01*
X134094953Y-75299995D01*
X132705549Y-75299995D01*
X132692893Y-75131120D01*
X132685389Y-75030973D01*
X132685383Y-75030897D01*
X132625334Y-74767805D01*
X132526743Y-74516602D01*
X132391815Y-74282898D01*
X132223561Y-74071915D01*
X132223560Y-74071914D01*
X132223557Y-74071910D01*
X132025741Y-73888365D01*
X132022560Y-73886196D01*
X131802775Y-73736349D01*
X131802769Y-73736346D01*
X131802768Y-73736345D01*
X131802767Y-73736344D01*
X131772348Y-73721695D01*
X135028803Y-73721695D01*
X135028803Y-73721696D01*
X135900000Y-74592893D01*
X135900001Y-74592893D01*
X136771196Y-73721697D01*
X136771195Y-73721695D01*
X136559460Y-73619730D01*
X136559462Y-73619730D01*
X136301662Y-73540209D01*
X136301656Y-73540207D01*
X136034898Y-73500000D01*
X135765101Y-73500000D01*
X135498343Y-73540207D01*
X135498337Y-73540209D01*
X135240538Y-73619730D01*
X135028803Y-73721695D01*
X131772348Y-73721695D01*
X131559643Y-73619263D01*
X131559645Y-73619263D01*
X131301773Y-73539720D01*
X131301767Y-73539718D01*
X131034936Y-73499500D01*
X131034929Y-73499500D01*
X130765071Y-73499500D01*
X130765063Y-73499500D01*
X130498232Y-73539718D01*
X130498226Y-73539720D01*
X130240358Y-73619262D01*
X129997230Y-73736346D01*
X129774258Y-73888365D01*
X129576442Y-74071910D01*
X129408185Y-74282898D01*
X129273258Y-74516599D01*
X129273256Y-74516603D01*
X129174666Y-74767804D01*
X129174664Y-74767811D01*
X129114616Y-75030898D01*
X129094451Y-75299995D01*
X129094451Y-75300004D01*
X129114616Y-75569101D01*
X129174664Y-75832188D01*
X129174666Y-75832195D01*
X129220901Y-75950000D01*
X129273257Y-76083398D01*
X129408185Y-76317102D01*
X129576439Y-76528085D01*
X129609841Y-76559077D01*
X129645596Y-76619105D01*
X129649500Y-76649976D01*
X129649500Y-82200500D01*
X129629815Y-82267539D01*
X129577011Y-82313294D01*
X129525500Y-82324500D01*
X128899998Y-82324500D01*
X128899980Y-82324501D01*
X128797203Y-82335000D01*
X128797200Y-82335001D01*
X128630668Y-82390185D01*
X128630663Y-82390187D01*
X128481342Y-82482289D01*
X128357289Y-82606342D01*
X128265187Y-82755663D01*
X128265185Y-82755668D01*
X128260105Y-82770999D01*
X128210001Y-82922203D01*
X128210001Y-82922204D01*
X128210000Y-82922204D01*
X128199500Y-83024983D01*
X128199500Y-83755663D01*
X128179815Y-83822702D01*
X128163181Y-83843344D01*
X126793343Y-85213181D01*
X126732020Y-85246666D01*
X126705662Y-85249500D01*
X125899998Y-85249500D01*
X125899980Y-85249501D01*
X125797203Y-85260000D01*
X125797200Y-85260001D01*
X125630668Y-85315185D01*
X125630663Y-85315187D01*
X125481342Y-85407289D01*
X125357289Y-85531342D01*
X125265187Y-85680663D01*
X125265186Y-85680666D01*
X125210001Y-85847203D01*
X125210001Y-85847204D01*
X125210000Y-85847204D01*
X125199500Y-85949983D01*
X116650500Y-85949983D01*
X116650500Y-75002561D01*
X116650606Y-74997437D01*
X116654092Y-74913154D01*
X116655923Y-74868872D01*
X119999500Y-74868872D01*
X119999500Y-75131127D01*
X120026123Y-75333339D01*
X120033730Y-75391116D01*
X120091814Y-75607890D01*
X120101602Y-75644418D01*
X120101605Y-75644428D01*
X120201953Y-75886690D01*
X120201958Y-75886700D01*
X120333075Y-76113803D01*
X120492718Y-76321851D01*
X120492726Y-76321860D01*
X120678140Y-76507274D01*
X120678148Y-76507281D01*
X120886196Y-76666924D01*
X121113299Y-76798041D01*
X121113309Y-76798046D01*
X121271694Y-76863651D01*
X121355581Y-76898398D01*
X121608884Y-76966270D01*
X121868880Y-77000500D01*
X121868887Y-77000500D01*
X122131113Y-77000500D01*
X122131120Y-77000500D01*
X122391116Y-76966270D01*
X122644419Y-76898398D01*
X122886697Y-76798043D01*
X123113803Y-76666924D01*
X123321851Y-76507282D01*
X123321855Y-76507277D01*
X123321860Y-76507274D01*
X123507274Y-76321860D01*
X123507277Y-76321855D01*
X123507282Y-76321851D01*
X123666924Y-76113803D01*
X123798043Y-75886697D01*
X123898398Y-75644419D01*
X123966270Y-75391116D01*
X124000500Y-75131120D01*
X124000500Y-74868880D01*
X123966270Y-74608884D01*
X123898398Y-74355581D01*
X123898394Y-74355571D01*
X123798046Y-74113309D01*
X123798041Y-74113299D01*
X123666924Y-73886196D01*
X123507281Y-73678148D01*
X123507274Y-73678140D01*
X123321860Y-73492726D01*
X123321851Y-73492718D01*
X123113803Y-73333075D01*
X122886700Y-73201958D01*
X122886690Y-73201953D01*
X122644428Y-73101605D01*
X122644421Y-73101603D01*
X122644419Y-73101602D01*
X122391116Y-73033730D01*
X122333339Y-73026123D01*
X122131127Y-72999500D01*
X122131120Y-72999500D01*
X121868880Y-72999500D01*
X121868872Y-72999500D01*
X121637772Y-73029926D01*
X121608884Y-73033730D01*
X121355581Y-73101602D01*
X121355571Y-73101605D01*
X121113309Y-73201953D01*
X121113299Y-73201958D01*
X120886196Y-73333075D01*
X120678148Y-73492718D01*
X120492718Y-73678148D01*
X120333075Y-73886196D01*
X120201958Y-74113299D01*
X120201953Y-74113309D01*
X120101605Y-74355571D01*
X120101602Y-74355581D01*
X120045926Y-74563370D01*
X120033730Y-74608885D01*
X119999500Y-74868872D01*
X116655923Y-74868872D01*
X116668559Y-74563348D01*
X116669402Y-74553179D01*
X116722828Y-74124570D01*
X116724508Y-74114498D01*
X116813144Y-73691773D01*
X116815651Y-73681877D01*
X116938894Y-73267910D01*
X116942209Y-73258258D01*
X117099206Y-72855908D01*
X117103320Y-72846529D01*
X117293009Y-72458512D01*
X117297870Y-72449528D01*
X117518965Y-72078486D01*
X117524560Y-72069924D01*
X117552684Y-72030534D01*
X117775520Y-71718431D01*
X117781797Y-71710367D01*
X118060940Y-71380783D01*
X118067859Y-71373267D01*
X118373267Y-71067859D01*
X118380783Y-71060940D01*
X118710367Y-70781797D01*
X118718431Y-70775520D01*
X119069929Y-70524556D01*
X119078486Y-70518965D01*
X119449528Y-70297870D01*
X119458512Y-70293009D01*
X119846534Y-70103317D01*
X119855908Y-70099206D01*
X120258258Y-69942209D01*
X120267910Y-69938894D01*
X120681877Y-69815651D01*
X120691773Y-69813144D01*
X121114498Y-69724508D01*
X121124570Y-69722828D01*
X121553179Y-69669402D01*
X121563348Y-69668559D01*
X121997322Y-69650609D01*
X122002624Y-69650504D01*
X176938716Y-69736957D01*
G37*
%TD.AperFunction*%
%TD*%
M02*
