%TF.GenerationSoftware,KiCad,Pcbnew,8.0.5*%
%TF.CreationDate,2024-12-11T15:25:16-08:00*%
%TF.ProjectId,ESP32-Proto,45535033-322d-4507-926f-746f2e6b6963,rev?*%
%TF.SameCoordinates,Original*%
%TF.FileFunction,Legend,Bot*%
%TF.FilePolarity,Positive*%
%FSLAX46Y46*%
G04 Gerber Fmt 4.6, Leading zero omitted, Abs format (unit mm)*
G04 Created by KiCad (PCBNEW 8.0.5) date 2024-12-11 15:25:16*
%MOMM*%
%LPD*%
G01*
G04 APERTURE LIST*
%ADD10C,0.300000*%
%ADD11C,0.187500*%
%ADD12C,1.600000*%
%ADD13R,1.600000X1.600000*%
%ADD14C,2.400000*%
%ADD15R,2.400000X2.400000*%
%ADD16C,3.500000*%
%ADD17O,1.350000X1.700000*%
%ADD18O,1.100000X1.500000*%
%ADD19C,2.600000*%
%ADD20R,2.600000X2.600000*%
G04 APERTURE END LIST*
D10*
X129959052Y-108450251D02*
X130018576Y-108569298D01*
X130018576Y-108569298D02*
X130018576Y-108747870D01*
X130018576Y-108747870D02*
X129959052Y-108926441D01*
X129959052Y-108926441D02*
X129840004Y-109045489D01*
X129840004Y-109045489D02*
X129720957Y-109105012D01*
X129720957Y-109105012D02*
X129482861Y-109164536D01*
X129482861Y-109164536D02*
X129304290Y-109164536D01*
X129304290Y-109164536D02*
X129066195Y-109105012D01*
X129066195Y-109105012D02*
X128947147Y-109045489D01*
X128947147Y-109045489D02*
X128828100Y-108926441D01*
X128828100Y-108926441D02*
X128768576Y-108747870D01*
X128768576Y-108747870D02*
X128768576Y-108628822D01*
X128768576Y-108628822D02*
X128828100Y-108450251D01*
X128828100Y-108450251D02*
X128887623Y-108390727D01*
X128887623Y-108390727D02*
X129304290Y-108390727D01*
X129304290Y-108390727D02*
X129304290Y-108628822D01*
X128768576Y-107855012D02*
X130018576Y-107855012D01*
X130018576Y-107855012D02*
X130018576Y-107378822D01*
X130018576Y-107378822D02*
X129959052Y-107259774D01*
X129959052Y-107259774D02*
X129899528Y-107200251D01*
X129899528Y-107200251D02*
X129780480Y-107140727D01*
X129780480Y-107140727D02*
X129601909Y-107140727D01*
X129601909Y-107140727D02*
X129482861Y-107200251D01*
X129482861Y-107200251D02*
X129423338Y-107259774D01*
X129423338Y-107259774D02*
X129363814Y-107378822D01*
X129363814Y-107378822D02*
X129363814Y-107855012D01*
X128768576Y-106605012D02*
X130018576Y-106605012D01*
X130018576Y-105771679D02*
X130018576Y-105533584D01*
X130018576Y-105533584D02*
X129959052Y-105414536D01*
X129959052Y-105414536D02*
X129840004Y-105295489D01*
X129840004Y-105295489D02*
X129601909Y-105235965D01*
X129601909Y-105235965D02*
X129185242Y-105235965D01*
X129185242Y-105235965D02*
X128947147Y-105295489D01*
X128947147Y-105295489D02*
X128828100Y-105414536D01*
X128828100Y-105414536D02*
X128768576Y-105533584D01*
X128768576Y-105533584D02*
X128768576Y-105771679D01*
X128768576Y-105771679D02*
X128828100Y-105890727D01*
X128828100Y-105890727D02*
X128947147Y-106009774D01*
X128947147Y-106009774D02*
X129185242Y-106069298D01*
X129185242Y-106069298D02*
X129601909Y-106069298D01*
X129601909Y-106069298D02*
X129840004Y-106009774D01*
X129840004Y-106009774D02*
X129959052Y-105890727D01*
X129959052Y-105890727D02*
X130018576Y-105771679D01*
X128768576Y-104045489D02*
X128768576Y-104759774D01*
X128768576Y-104402631D02*
X130018576Y-104402631D01*
X130018576Y-104402631D02*
X129840004Y-104521679D01*
X129840004Y-104521679D02*
X129720957Y-104640727D01*
X129720957Y-104640727D02*
X129661433Y-104759774D01*
X130078100Y-102616917D02*
X128470957Y-103688346D01*
X129125719Y-102259774D02*
X129125719Y-101664536D01*
X128768576Y-102378822D02*
X130018576Y-101962155D01*
X130018576Y-101962155D02*
X128768576Y-101545489D01*
X128768576Y-101128821D02*
X130018576Y-101128821D01*
X130018576Y-101128821D02*
X130018576Y-100831202D01*
X130018576Y-100831202D02*
X129959052Y-100652631D01*
X129959052Y-100652631D02*
X129840004Y-100533583D01*
X129840004Y-100533583D02*
X129720957Y-100474060D01*
X129720957Y-100474060D02*
X129482861Y-100414536D01*
X129482861Y-100414536D02*
X129304290Y-100414536D01*
X129304290Y-100414536D02*
X129066195Y-100474060D01*
X129066195Y-100474060D02*
X128947147Y-100533583D01*
X128947147Y-100533583D02*
X128828100Y-100652631D01*
X128828100Y-100652631D02*
X128768576Y-100831202D01*
X128768576Y-100831202D02*
X128768576Y-101128821D01*
X128887623Y-99164536D02*
X128828100Y-99224060D01*
X128828100Y-99224060D02*
X128768576Y-99402631D01*
X128768576Y-99402631D02*
X128768576Y-99521679D01*
X128768576Y-99521679D02*
X128828100Y-99700250D01*
X128828100Y-99700250D02*
X128947147Y-99819298D01*
X128947147Y-99819298D02*
X129066195Y-99878821D01*
X129066195Y-99878821D02*
X129304290Y-99938345D01*
X129304290Y-99938345D02*
X129482861Y-99938345D01*
X129482861Y-99938345D02*
X129720957Y-99878821D01*
X129720957Y-99878821D02*
X129840004Y-99819298D01*
X129840004Y-99819298D02*
X129959052Y-99700250D01*
X129959052Y-99700250D02*
X130018576Y-99521679D01*
X130018576Y-99521679D02*
X130018576Y-99402631D01*
X130018576Y-99402631D02*
X129959052Y-99224060D01*
X129959052Y-99224060D02*
X129899528Y-99164536D01*
X130018576Y-98390726D02*
X130018576Y-98271679D01*
X130018576Y-98271679D02*
X129959052Y-98152631D01*
X129959052Y-98152631D02*
X129899528Y-98093107D01*
X129899528Y-98093107D02*
X129780480Y-98033583D01*
X129780480Y-98033583D02*
X129542385Y-97974060D01*
X129542385Y-97974060D02*
X129244766Y-97974060D01*
X129244766Y-97974060D02*
X129006671Y-98033583D01*
X129006671Y-98033583D02*
X128887623Y-98093107D01*
X128887623Y-98093107D02*
X128828100Y-98152631D01*
X128828100Y-98152631D02*
X128768576Y-98271679D01*
X128768576Y-98271679D02*
X128768576Y-98390726D01*
X128768576Y-98390726D02*
X128828100Y-98509774D01*
X128828100Y-98509774D02*
X128887623Y-98569298D01*
X128887623Y-98569298D02*
X129006671Y-98628821D01*
X129006671Y-98628821D02*
X129244766Y-98688345D01*
X129244766Y-98688345D02*
X129542385Y-98688345D01*
X129542385Y-98688345D02*
X129780480Y-98628821D01*
X129780480Y-98628821D02*
X129899528Y-98569298D01*
X129899528Y-98569298D02*
X129959052Y-98509774D01*
X129959052Y-98509774D02*
X130018576Y-98390726D01*
X143959052Y-108450251D02*
X144018576Y-108569298D01*
X144018576Y-108569298D02*
X144018576Y-108747870D01*
X144018576Y-108747870D02*
X143959052Y-108926441D01*
X143959052Y-108926441D02*
X143840004Y-109045489D01*
X143840004Y-109045489D02*
X143720957Y-109105012D01*
X143720957Y-109105012D02*
X143482861Y-109164536D01*
X143482861Y-109164536D02*
X143304290Y-109164536D01*
X143304290Y-109164536D02*
X143066195Y-109105012D01*
X143066195Y-109105012D02*
X142947147Y-109045489D01*
X142947147Y-109045489D02*
X142828100Y-108926441D01*
X142828100Y-108926441D02*
X142768576Y-108747870D01*
X142768576Y-108747870D02*
X142768576Y-108628822D01*
X142768576Y-108628822D02*
X142828100Y-108450251D01*
X142828100Y-108450251D02*
X142887623Y-108390727D01*
X142887623Y-108390727D02*
X143304290Y-108390727D01*
X143304290Y-108390727D02*
X143304290Y-108628822D01*
X142768576Y-107855012D02*
X144018576Y-107855012D01*
X144018576Y-107855012D02*
X144018576Y-107378822D01*
X144018576Y-107378822D02*
X143959052Y-107259774D01*
X143959052Y-107259774D02*
X143899528Y-107200251D01*
X143899528Y-107200251D02*
X143780480Y-107140727D01*
X143780480Y-107140727D02*
X143601909Y-107140727D01*
X143601909Y-107140727D02*
X143482861Y-107200251D01*
X143482861Y-107200251D02*
X143423338Y-107259774D01*
X143423338Y-107259774D02*
X143363814Y-107378822D01*
X143363814Y-107378822D02*
X143363814Y-107855012D01*
X142768576Y-106605012D02*
X144018576Y-106605012D01*
X144018576Y-105771679D02*
X144018576Y-105533584D01*
X144018576Y-105533584D02*
X143959052Y-105414536D01*
X143959052Y-105414536D02*
X143840004Y-105295489D01*
X143840004Y-105295489D02*
X143601909Y-105235965D01*
X143601909Y-105235965D02*
X143185242Y-105235965D01*
X143185242Y-105235965D02*
X142947147Y-105295489D01*
X142947147Y-105295489D02*
X142828100Y-105414536D01*
X142828100Y-105414536D02*
X142768576Y-105533584D01*
X142768576Y-105533584D02*
X142768576Y-105771679D01*
X142768576Y-105771679D02*
X142828100Y-105890727D01*
X142828100Y-105890727D02*
X142947147Y-106009774D01*
X142947147Y-106009774D02*
X143185242Y-106069298D01*
X143185242Y-106069298D02*
X143601909Y-106069298D01*
X143601909Y-106069298D02*
X143840004Y-106009774D01*
X143840004Y-106009774D02*
X143959052Y-105890727D01*
X143959052Y-105890727D02*
X144018576Y-105771679D01*
X144018576Y-104105012D02*
X144018576Y-104700250D01*
X144018576Y-104700250D02*
X143423338Y-104759774D01*
X143423338Y-104759774D02*
X143482861Y-104700250D01*
X143482861Y-104700250D02*
X143542385Y-104581203D01*
X143542385Y-104581203D02*
X143542385Y-104283584D01*
X143542385Y-104283584D02*
X143482861Y-104164536D01*
X143482861Y-104164536D02*
X143423338Y-104105012D01*
X143423338Y-104105012D02*
X143304290Y-104045489D01*
X143304290Y-104045489D02*
X143006671Y-104045489D01*
X143006671Y-104045489D02*
X142887623Y-104105012D01*
X142887623Y-104105012D02*
X142828100Y-104164536D01*
X142828100Y-104164536D02*
X142768576Y-104283584D01*
X142768576Y-104283584D02*
X142768576Y-104581203D01*
X142768576Y-104581203D02*
X142828100Y-104700250D01*
X142828100Y-104700250D02*
X142887623Y-104759774D01*
X144078100Y-102616917D02*
X142470957Y-103688346D01*
X143125719Y-102259774D02*
X143125719Y-101664536D01*
X142768576Y-102378822D02*
X144018576Y-101962155D01*
X144018576Y-101962155D02*
X142768576Y-101545489D01*
X142768576Y-101128821D02*
X144018576Y-101128821D01*
X144018576Y-101128821D02*
X144018576Y-100831202D01*
X144018576Y-100831202D02*
X143959052Y-100652631D01*
X143959052Y-100652631D02*
X143840004Y-100533583D01*
X143840004Y-100533583D02*
X143720957Y-100474060D01*
X143720957Y-100474060D02*
X143482861Y-100414536D01*
X143482861Y-100414536D02*
X143304290Y-100414536D01*
X143304290Y-100414536D02*
X143066195Y-100474060D01*
X143066195Y-100474060D02*
X142947147Y-100533583D01*
X142947147Y-100533583D02*
X142828100Y-100652631D01*
X142828100Y-100652631D02*
X142768576Y-100831202D01*
X142768576Y-100831202D02*
X142768576Y-101128821D01*
X142887623Y-99164536D02*
X142828100Y-99224060D01*
X142828100Y-99224060D02*
X142768576Y-99402631D01*
X142768576Y-99402631D02*
X142768576Y-99521679D01*
X142768576Y-99521679D02*
X142828100Y-99700250D01*
X142828100Y-99700250D02*
X142947147Y-99819298D01*
X142947147Y-99819298D02*
X143066195Y-99878821D01*
X143066195Y-99878821D02*
X143304290Y-99938345D01*
X143304290Y-99938345D02*
X143482861Y-99938345D01*
X143482861Y-99938345D02*
X143720957Y-99878821D01*
X143720957Y-99878821D02*
X143840004Y-99819298D01*
X143840004Y-99819298D02*
X143959052Y-99700250D01*
X143959052Y-99700250D02*
X144018576Y-99521679D01*
X144018576Y-99521679D02*
X144018576Y-99402631D01*
X144018576Y-99402631D02*
X143959052Y-99224060D01*
X143959052Y-99224060D02*
X143899528Y-99164536D01*
X143601909Y-98093107D02*
X142768576Y-98093107D01*
X144078100Y-98390726D02*
X143185242Y-98688345D01*
X143185242Y-98688345D02*
X143185242Y-97914536D01*
X136959052Y-108450251D02*
X137018576Y-108569298D01*
X137018576Y-108569298D02*
X137018576Y-108747870D01*
X137018576Y-108747870D02*
X136959052Y-108926441D01*
X136959052Y-108926441D02*
X136840004Y-109045489D01*
X136840004Y-109045489D02*
X136720957Y-109105012D01*
X136720957Y-109105012D02*
X136482861Y-109164536D01*
X136482861Y-109164536D02*
X136304290Y-109164536D01*
X136304290Y-109164536D02*
X136066195Y-109105012D01*
X136066195Y-109105012D02*
X135947147Y-109045489D01*
X135947147Y-109045489D02*
X135828100Y-108926441D01*
X135828100Y-108926441D02*
X135768576Y-108747870D01*
X135768576Y-108747870D02*
X135768576Y-108628822D01*
X135768576Y-108628822D02*
X135828100Y-108450251D01*
X135828100Y-108450251D02*
X135887623Y-108390727D01*
X135887623Y-108390727D02*
X136304290Y-108390727D01*
X136304290Y-108390727D02*
X136304290Y-108628822D01*
X135768576Y-107855012D02*
X137018576Y-107855012D01*
X137018576Y-107855012D02*
X137018576Y-107378822D01*
X137018576Y-107378822D02*
X136959052Y-107259774D01*
X136959052Y-107259774D02*
X136899528Y-107200251D01*
X136899528Y-107200251D02*
X136780480Y-107140727D01*
X136780480Y-107140727D02*
X136601909Y-107140727D01*
X136601909Y-107140727D02*
X136482861Y-107200251D01*
X136482861Y-107200251D02*
X136423338Y-107259774D01*
X136423338Y-107259774D02*
X136363814Y-107378822D01*
X136363814Y-107378822D02*
X136363814Y-107855012D01*
X135768576Y-106605012D02*
X137018576Y-106605012D01*
X137018576Y-105771679D02*
X137018576Y-105533584D01*
X137018576Y-105533584D02*
X136959052Y-105414536D01*
X136959052Y-105414536D02*
X136840004Y-105295489D01*
X136840004Y-105295489D02*
X136601909Y-105235965D01*
X136601909Y-105235965D02*
X136185242Y-105235965D01*
X136185242Y-105235965D02*
X135947147Y-105295489D01*
X135947147Y-105295489D02*
X135828100Y-105414536D01*
X135828100Y-105414536D02*
X135768576Y-105533584D01*
X135768576Y-105533584D02*
X135768576Y-105771679D01*
X135768576Y-105771679D02*
X135828100Y-105890727D01*
X135828100Y-105890727D02*
X135947147Y-106009774D01*
X135947147Y-106009774D02*
X136185242Y-106069298D01*
X136185242Y-106069298D02*
X136601909Y-106069298D01*
X136601909Y-106069298D02*
X136840004Y-106009774D01*
X136840004Y-106009774D02*
X136959052Y-105890727D01*
X136959052Y-105890727D02*
X137018576Y-105771679D01*
X137018576Y-104819298D02*
X137018576Y-104045489D01*
X137018576Y-104045489D02*
X136542385Y-104462155D01*
X136542385Y-104462155D02*
X136542385Y-104283584D01*
X136542385Y-104283584D02*
X136482861Y-104164536D01*
X136482861Y-104164536D02*
X136423338Y-104105012D01*
X136423338Y-104105012D02*
X136304290Y-104045489D01*
X136304290Y-104045489D02*
X136006671Y-104045489D01*
X136006671Y-104045489D02*
X135887623Y-104105012D01*
X135887623Y-104105012D02*
X135828100Y-104164536D01*
X135828100Y-104164536D02*
X135768576Y-104283584D01*
X135768576Y-104283584D02*
X135768576Y-104640727D01*
X135768576Y-104640727D02*
X135828100Y-104759774D01*
X135828100Y-104759774D02*
X135887623Y-104819298D01*
X137078100Y-102616917D02*
X135470957Y-103688346D01*
X136125719Y-102259774D02*
X136125719Y-101664536D01*
X135768576Y-102378822D02*
X137018576Y-101962155D01*
X137018576Y-101962155D02*
X135768576Y-101545489D01*
X135768576Y-101128821D02*
X137018576Y-101128821D01*
X137018576Y-101128821D02*
X137018576Y-100831202D01*
X137018576Y-100831202D02*
X136959052Y-100652631D01*
X136959052Y-100652631D02*
X136840004Y-100533583D01*
X136840004Y-100533583D02*
X136720957Y-100474060D01*
X136720957Y-100474060D02*
X136482861Y-100414536D01*
X136482861Y-100414536D02*
X136304290Y-100414536D01*
X136304290Y-100414536D02*
X136066195Y-100474060D01*
X136066195Y-100474060D02*
X135947147Y-100533583D01*
X135947147Y-100533583D02*
X135828100Y-100652631D01*
X135828100Y-100652631D02*
X135768576Y-100831202D01*
X135768576Y-100831202D02*
X135768576Y-101128821D01*
X135887623Y-99164536D02*
X135828100Y-99224060D01*
X135828100Y-99224060D02*
X135768576Y-99402631D01*
X135768576Y-99402631D02*
X135768576Y-99521679D01*
X135768576Y-99521679D02*
X135828100Y-99700250D01*
X135828100Y-99700250D02*
X135947147Y-99819298D01*
X135947147Y-99819298D02*
X136066195Y-99878821D01*
X136066195Y-99878821D02*
X136304290Y-99938345D01*
X136304290Y-99938345D02*
X136482861Y-99938345D01*
X136482861Y-99938345D02*
X136720957Y-99878821D01*
X136720957Y-99878821D02*
X136840004Y-99819298D01*
X136840004Y-99819298D02*
X136959052Y-99700250D01*
X136959052Y-99700250D02*
X137018576Y-99521679D01*
X137018576Y-99521679D02*
X137018576Y-99402631D01*
X137018576Y-99402631D02*
X136959052Y-99224060D01*
X136959052Y-99224060D02*
X136899528Y-99164536D01*
X136899528Y-98688345D02*
X136959052Y-98628821D01*
X136959052Y-98628821D02*
X137018576Y-98509774D01*
X137018576Y-98509774D02*
X137018576Y-98212155D01*
X137018576Y-98212155D02*
X136959052Y-98093107D01*
X136959052Y-98093107D02*
X136899528Y-98033583D01*
X136899528Y-98033583D02*
X136780480Y-97974060D01*
X136780480Y-97974060D02*
X136661433Y-97974060D01*
X136661433Y-97974060D02*
X136482861Y-98033583D01*
X136482861Y-98033583D02*
X135768576Y-98747869D01*
X135768576Y-98747869D02*
X135768576Y-97974060D01*
X146459052Y-80450251D02*
X146518576Y-80569298D01*
X146518576Y-80569298D02*
X146518576Y-80747870D01*
X146518576Y-80747870D02*
X146459052Y-80926441D01*
X146459052Y-80926441D02*
X146340004Y-81045489D01*
X146340004Y-81045489D02*
X146220957Y-81105012D01*
X146220957Y-81105012D02*
X145982861Y-81164536D01*
X145982861Y-81164536D02*
X145804290Y-81164536D01*
X145804290Y-81164536D02*
X145566195Y-81105012D01*
X145566195Y-81105012D02*
X145447147Y-81045489D01*
X145447147Y-81045489D02*
X145328100Y-80926441D01*
X145328100Y-80926441D02*
X145268576Y-80747870D01*
X145268576Y-80747870D02*
X145268576Y-80628822D01*
X145268576Y-80628822D02*
X145328100Y-80450251D01*
X145328100Y-80450251D02*
X145387623Y-80390727D01*
X145387623Y-80390727D02*
X145804290Y-80390727D01*
X145804290Y-80390727D02*
X145804290Y-80628822D01*
X145268576Y-79855012D02*
X146518576Y-79855012D01*
X146518576Y-79855012D02*
X145268576Y-79140727D01*
X145268576Y-79140727D02*
X146518576Y-79140727D01*
X145268576Y-78545488D02*
X146518576Y-78545488D01*
X146518576Y-78545488D02*
X146518576Y-78247869D01*
X146518576Y-78247869D02*
X146459052Y-78069298D01*
X146459052Y-78069298D02*
X146340004Y-77950250D01*
X146340004Y-77950250D02*
X146220957Y-77890727D01*
X146220957Y-77890727D02*
X145982861Y-77831203D01*
X145982861Y-77831203D02*
X145804290Y-77831203D01*
X145804290Y-77831203D02*
X145566195Y-77890727D01*
X145566195Y-77890727D02*
X145447147Y-77950250D01*
X145447147Y-77950250D02*
X145328100Y-78069298D01*
X145328100Y-78069298D02*
X145268576Y-78247869D01*
X145268576Y-78247869D02*
X145268576Y-78545488D01*
X153387623Y-108390727D02*
X153328100Y-108450251D01*
X153328100Y-108450251D02*
X153268576Y-108628822D01*
X153268576Y-108628822D02*
X153268576Y-108747870D01*
X153268576Y-108747870D02*
X153328100Y-108926441D01*
X153328100Y-108926441D02*
X153447147Y-109045489D01*
X153447147Y-109045489D02*
X153566195Y-109105012D01*
X153566195Y-109105012D02*
X153804290Y-109164536D01*
X153804290Y-109164536D02*
X153982861Y-109164536D01*
X153982861Y-109164536D02*
X154220957Y-109105012D01*
X154220957Y-109105012D02*
X154340004Y-109045489D01*
X154340004Y-109045489D02*
X154459052Y-108926441D01*
X154459052Y-108926441D02*
X154518576Y-108747870D01*
X154518576Y-108747870D02*
X154518576Y-108628822D01*
X154518576Y-108628822D02*
X154459052Y-108450251D01*
X154459052Y-108450251D02*
X154399528Y-108390727D01*
X153625719Y-107914536D02*
X153625719Y-107319298D01*
X153268576Y-108033584D02*
X154518576Y-107616917D01*
X154518576Y-107616917D02*
X153268576Y-107200251D01*
X153268576Y-106783583D02*
X154518576Y-106783583D01*
X154518576Y-106783583D02*
X153268576Y-106069298D01*
X153268576Y-106069298D02*
X154518576Y-106069298D01*
X153268576Y-105474059D02*
X154518576Y-105474059D01*
X153923338Y-105474059D02*
X153923338Y-104759774D01*
X153268576Y-104759774D02*
X154518576Y-104759774D01*
X150087623Y-108390727D02*
X150028100Y-108450251D01*
X150028100Y-108450251D02*
X149968576Y-108628822D01*
X149968576Y-108628822D02*
X149968576Y-108747870D01*
X149968576Y-108747870D02*
X150028100Y-108926441D01*
X150028100Y-108926441D02*
X150147147Y-109045489D01*
X150147147Y-109045489D02*
X150266195Y-109105012D01*
X150266195Y-109105012D02*
X150504290Y-109164536D01*
X150504290Y-109164536D02*
X150682861Y-109164536D01*
X150682861Y-109164536D02*
X150920957Y-109105012D01*
X150920957Y-109105012D02*
X151040004Y-109045489D01*
X151040004Y-109045489D02*
X151159052Y-108926441D01*
X151159052Y-108926441D02*
X151218576Y-108747870D01*
X151218576Y-108747870D02*
X151218576Y-108628822D01*
X151218576Y-108628822D02*
X151159052Y-108450251D01*
X151159052Y-108450251D02*
X151099528Y-108390727D01*
X150325719Y-107914536D02*
X150325719Y-107319298D01*
X149968576Y-108033584D02*
X151218576Y-107616917D01*
X151218576Y-107616917D02*
X149968576Y-107200251D01*
X149968576Y-106783583D02*
X151218576Y-106783583D01*
X151218576Y-106783583D02*
X149968576Y-106069298D01*
X149968576Y-106069298D02*
X151218576Y-106069298D01*
X149968576Y-104878821D02*
X149968576Y-105474059D01*
X149968576Y-105474059D02*
X151218576Y-105474059D01*
X130268576Y-80250251D02*
X130268576Y-80964536D01*
X130268576Y-80607393D02*
X131518576Y-80607393D01*
X131518576Y-80607393D02*
X131340004Y-80726441D01*
X131340004Y-80726441D02*
X131220957Y-80845489D01*
X131220957Y-80845489D02*
X131161433Y-80964536D01*
X131399528Y-79774060D02*
X131459052Y-79714536D01*
X131459052Y-79714536D02*
X131518576Y-79595489D01*
X131518576Y-79595489D02*
X131518576Y-79297870D01*
X131518576Y-79297870D02*
X131459052Y-79178822D01*
X131459052Y-79178822D02*
X131399528Y-79119298D01*
X131399528Y-79119298D02*
X131280480Y-79059775D01*
X131280480Y-79059775D02*
X131161433Y-79059775D01*
X131161433Y-79059775D02*
X130982861Y-79119298D01*
X130982861Y-79119298D02*
X130268576Y-79833584D01*
X130268576Y-79833584D02*
X130268576Y-79059775D01*
X131518576Y-78702632D02*
X130268576Y-78285965D01*
X130268576Y-78285965D02*
X131518576Y-77869299D01*
D11*
X175544369Y-105123351D02*
X175334845Y-105123351D01*
X175544369Y-104704303D02*
X175334845Y-104704303D01*
X175020559Y-103866208D02*
X174968178Y-103709065D01*
X174968178Y-103709065D02*
X174915797Y-103656684D01*
X174915797Y-103656684D02*
X174811035Y-103604303D01*
X174811035Y-103604303D02*
X174653892Y-103604303D01*
X174653892Y-103604303D02*
X174549130Y-103656684D01*
X174549130Y-103656684D02*
X174496750Y-103709065D01*
X174496750Y-103709065D02*
X174444369Y-103813827D01*
X174444369Y-103813827D02*
X174444369Y-104232875D01*
X174444369Y-104232875D02*
X175544369Y-104232875D01*
X175544369Y-104232875D02*
X175544369Y-103866208D01*
X175544369Y-103866208D02*
X175491988Y-103761446D01*
X175491988Y-103761446D02*
X175439607Y-103709065D01*
X175439607Y-103709065D02*
X175334845Y-103656684D01*
X175334845Y-103656684D02*
X175230083Y-103656684D01*
X175230083Y-103656684D02*
X175125321Y-103709065D01*
X175125321Y-103709065D02*
X175072940Y-103761446D01*
X175072940Y-103761446D02*
X175020559Y-103866208D01*
X175020559Y-103866208D02*
X175020559Y-104232875D01*
X174496750Y-102713827D02*
X174444369Y-102818589D01*
X174444369Y-102818589D02*
X174444369Y-103028113D01*
X174444369Y-103028113D02*
X174496750Y-103132875D01*
X174496750Y-103132875D02*
X174601511Y-103185256D01*
X174601511Y-103185256D02*
X175020559Y-103185256D01*
X175020559Y-103185256D02*
X175125321Y-103132875D01*
X175125321Y-103132875D02*
X175177702Y-103028113D01*
X175177702Y-103028113D02*
X175177702Y-102818589D01*
X175177702Y-102818589D02*
X175125321Y-102713827D01*
X175125321Y-102713827D02*
X175020559Y-102661446D01*
X175020559Y-102661446D02*
X174915797Y-102661446D01*
X174915797Y-102661446D02*
X174811035Y-103185256D01*
X174496750Y-101718589D02*
X174444369Y-101823351D01*
X174444369Y-101823351D02*
X174444369Y-102032875D01*
X174444369Y-102032875D02*
X174496750Y-102137637D01*
X174496750Y-102137637D02*
X174549130Y-102190018D01*
X174549130Y-102190018D02*
X174653892Y-102242399D01*
X174653892Y-102242399D02*
X174968178Y-102242399D01*
X174968178Y-102242399D02*
X175072940Y-102190018D01*
X175072940Y-102190018D02*
X175125321Y-102137637D01*
X175125321Y-102137637D02*
X175177702Y-102032875D01*
X175177702Y-102032875D02*
X175177702Y-101823351D01*
X175177702Y-101823351D02*
X175125321Y-101718589D01*
X174444369Y-100775732D02*
X175020559Y-100775732D01*
X175020559Y-100775732D02*
X175125321Y-100828113D01*
X175125321Y-100828113D02*
X175177702Y-100932875D01*
X175177702Y-100932875D02*
X175177702Y-101142399D01*
X175177702Y-101142399D02*
X175125321Y-101247161D01*
X174496750Y-100775732D02*
X174444369Y-100880494D01*
X174444369Y-100880494D02*
X174444369Y-101142399D01*
X174444369Y-101142399D02*
X174496750Y-101247161D01*
X174496750Y-101247161D02*
X174601511Y-101299542D01*
X174601511Y-101299542D02*
X174706273Y-101299542D01*
X174706273Y-101299542D02*
X174811035Y-101247161D01*
X174811035Y-101247161D02*
X174863416Y-101142399D01*
X174863416Y-101142399D02*
X174863416Y-100880494D01*
X174863416Y-100880494D02*
X174915797Y-100775732D01*
X175177702Y-99780494D02*
X174444369Y-99780494D01*
X175177702Y-100251923D02*
X174601511Y-100251923D01*
X174601511Y-100251923D02*
X174496750Y-100199542D01*
X174496750Y-100199542D02*
X174444369Y-100094780D01*
X174444369Y-100094780D02*
X174444369Y-99937637D01*
X174444369Y-99937637D02*
X174496750Y-99832875D01*
X174496750Y-99832875D02*
X174549130Y-99780494D01*
X174496750Y-99309066D02*
X174444369Y-99204304D01*
X174444369Y-99204304D02*
X174444369Y-98994780D01*
X174444369Y-98994780D02*
X174496750Y-98890018D01*
X174496750Y-98890018D02*
X174601511Y-98837637D01*
X174601511Y-98837637D02*
X174653892Y-98837637D01*
X174653892Y-98837637D02*
X174758654Y-98890018D01*
X174758654Y-98890018D02*
X174811035Y-98994780D01*
X174811035Y-98994780D02*
X174811035Y-99151923D01*
X174811035Y-99151923D02*
X174863416Y-99256685D01*
X174863416Y-99256685D02*
X174968178Y-99309066D01*
X174968178Y-99309066D02*
X175020559Y-99309066D01*
X175020559Y-99309066D02*
X175125321Y-99256685D01*
X175125321Y-99256685D02*
X175177702Y-99151923D01*
X175177702Y-99151923D02*
X175177702Y-98994780D01*
X175177702Y-98994780D02*
X175125321Y-98890018D01*
X174496750Y-97947161D02*
X174444369Y-98051923D01*
X174444369Y-98051923D02*
X174444369Y-98261447D01*
X174444369Y-98261447D02*
X174496750Y-98366209D01*
X174496750Y-98366209D02*
X174601511Y-98418590D01*
X174601511Y-98418590D02*
X175020559Y-98418590D01*
X175020559Y-98418590D02*
X175125321Y-98366209D01*
X175125321Y-98366209D02*
X175177702Y-98261447D01*
X175177702Y-98261447D02*
X175177702Y-98051923D01*
X175177702Y-98051923D02*
X175125321Y-97947161D01*
X175125321Y-97947161D02*
X175020559Y-97894780D01*
X175020559Y-97894780D02*
X174915797Y-97894780D01*
X174915797Y-97894780D02*
X174811035Y-98418590D01*
X174444369Y-96585257D02*
X175177702Y-96585257D01*
X175544369Y-96585257D02*
X175491988Y-96637638D01*
X175491988Y-96637638D02*
X175439607Y-96585257D01*
X175439607Y-96585257D02*
X175491988Y-96532876D01*
X175491988Y-96532876D02*
X175544369Y-96585257D01*
X175544369Y-96585257D02*
X175439607Y-96585257D01*
X175177702Y-96218590D02*
X175177702Y-95799542D01*
X175544369Y-96061447D02*
X174601511Y-96061447D01*
X174601511Y-96061447D02*
X174496750Y-96009066D01*
X174496750Y-96009066D02*
X174444369Y-95904304D01*
X174444369Y-95904304D02*
X174444369Y-95799542D01*
X174444369Y-94437638D02*
X174496750Y-94542400D01*
X174496750Y-94542400D02*
X174601511Y-94594781D01*
X174601511Y-94594781D02*
X175544369Y-94594781D01*
X174444369Y-93861448D02*
X174496750Y-93966210D01*
X174496750Y-93966210D02*
X174549130Y-94018591D01*
X174549130Y-94018591D02*
X174653892Y-94070972D01*
X174653892Y-94070972D02*
X174968178Y-94070972D01*
X174968178Y-94070972D02*
X175072940Y-94018591D01*
X175072940Y-94018591D02*
X175125321Y-93966210D01*
X175125321Y-93966210D02*
X175177702Y-93861448D01*
X175177702Y-93861448D02*
X175177702Y-93704305D01*
X175177702Y-93704305D02*
X175125321Y-93599543D01*
X175125321Y-93599543D02*
X175072940Y-93547162D01*
X175072940Y-93547162D02*
X174968178Y-93494781D01*
X174968178Y-93494781D02*
X174653892Y-93494781D01*
X174653892Y-93494781D02*
X174549130Y-93547162D01*
X174549130Y-93547162D02*
X174496750Y-93599543D01*
X174496750Y-93599543D02*
X174444369Y-93704305D01*
X174444369Y-93704305D02*
X174444369Y-93861448D01*
X174444369Y-92866210D02*
X174496750Y-92970972D01*
X174496750Y-92970972D02*
X174549130Y-93023353D01*
X174549130Y-93023353D02*
X174653892Y-93075734D01*
X174653892Y-93075734D02*
X174968178Y-93075734D01*
X174968178Y-93075734D02*
X175072940Y-93023353D01*
X175072940Y-93023353D02*
X175125321Y-92970972D01*
X175125321Y-92970972D02*
X175177702Y-92866210D01*
X175177702Y-92866210D02*
X175177702Y-92709067D01*
X175177702Y-92709067D02*
X175125321Y-92604305D01*
X175125321Y-92604305D02*
X175072940Y-92551924D01*
X175072940Y-92551924D02*
X174968178Y-92499543D01*
X174968178Y-92499543D02*
X174653892Y-92499543D01*
X174653892Y-92499543D02*
X174549130Y-92551924D01*
X174549130Y-92551924D02*
X174496750Y-92604305D01*
X174496750Y-92604305D02*
X174444369Y-92709067D01*
X174444369Y-92709067D02*
X174444369Y-92866210D01*
X174444369Y-92028115D02*
X175544369Y-92028115D01*
X174863416Y-91923353D02*
X174444369Y-91609067D01*
X175177702Y-91609067D02*
X174758654Y-92028115D01*
X174496750Y-91190020D02*
X174444369Y-91085258D01*
X174444369Y-91085258D02*
X174444369Y-90875734D01*
X174444369Y-90875734D02*
X174496750Y-90770972D01*
X174496750Y-90770972D02*
X174601511Y-90718591D01*
X174601511Y-90718591D02*
X174653892Y-90718591D01*
X174653892Y-90718591D02*
X174758654Y-90770972D01*
X174758654Y-90770972D02*
X174811035Y-90875734D01*
X174811035Y-90875734D02*
X174811035Y-91032877D01*
X174811035Y-91032877D02*
X174863416Y-91137639D01*
X174863416Y-91137639D02*
X174968178Y-91190020D01*
X174968178Y-91190020D02*
X175020559Y-91190020D01*
X175020559Y-91190020D02*
X175125321Y-91137639D01*
X175125321Y-91137639D02*
X175177702Y-91032877D01*
X175177702Y-91032877D02*
X175177702Y-90875734D01*
X175177702Y-90875734D02*
X175125321Y-90770972D01*
X174496750Y-88937639D02*
X174444369Y-89042401D01*
X174444369Y-89042401D02*
X174444369Y-89251925D01*
X174444369Y-89251925D02*
X174496750Y-89356687D01*
X174496750Y-89356687D02*
X174549130Y-89409068D01*
X174549130Y-89409068D02*
X174653892Y-89461449D01*
X174653892Y-89461449D02*
X174968178Y-89461449D01*
X174968178Y-89461449D02*
X175072940Y-89409068D01*
X175072940Y-89409068D02*
X175125321Y-89356687D01*
X175125321Y-89356687D02*
X175177702Y-89251925D01*
X175177702Y-89251925D02*
X175177702Y-89042401D01*
X175177702Y-89042401D02*
X175125321Y-88937639D01*
X174444369Y-88309068D02*
X174496750Y-88413830D01*
X174496750Y-88413830D02*
X174549130Y-88466211D01*
X174549130Y-88466211D02*
X174653892Y-88518592D01*
X174653892Y-88518592D02*
X174968178Y-88518592D01*
X174968178Y-88518592D02*
X175072940Y-88466211D01*
X175072940Y-88466211D02*
X175125321Y-88413830D01*
X175125321Y-88413830D02*
X175177702Y-88309068D01*
X175177702Y-88309068D02*
X175177702Y-88151925D01*
X175177702Y-88151925D02*
X175125321Y-88047163D01*
X175125321Y-88047163D02*
X175072940Y-87994782D01*
X175072940Y-87994782D02*
X174968178Y-87942401D01*
X174968178Y-87942401D02*
X174653892Y-87942401D01*
X174653892Y-87942401D02*
X174549130Y-87994782D01*
X174549130Y-87994782D02*
X174496750Y-88047163D01*
X174496750Y-88047163D02*
X174444369Y-88151925D01*
X174444369Y-88151925D02*
X174444369Y-88309068D01*
X174444369Y-87313830D02*
X174496750Y-87418592D01*
X174496750Y-87418592D02*
X174549130Y-87470973D01*
X174549130Y-87470973D02*
X174653892Y-87523354D01*
X174653892Y-87523354D02*
X174968178Y-87523354D01*
X174968178Y-87523354D02*
X175072940Y-87470973D01*
X175072940Y-87470973D02*
X175125321Y-87418592D01*
X175125321Y-87418592D02*
X175177702Y-87313830D01*
X175177702Y-87313830D02*
X175177702Y-87156687D01*
X175177702Y-87156687D02*
X175125321Y-87051925D01*
X175125321Y-87051925D02*
X175072940Y-86999544D01*
X175072940Y-86999544D02*
X174968178Y-86947163D01*
X174968178Y-86947163D02*
X174653892Y-86947163D01*
X174653892Y-86947163D02*
X174549130Y-86999544D01*
X174549130Y-86999544D02*
X174496750Y-87051925D01*
X174496750Y-87051925D02*
X174444369Y-87156687D01*
X174444369Y-87156687D02*
X174444369Y-87313830D01*
X174444369Y-86318592D02*
X174496750Y-86423354D01*
X174496750Y-86423354D02*
X174601511Y-86475735D01*
X174601511Y-86475735D02*
X175544369Y-86475735D01*
X175544369Y-85951926D02*
X175334845Y-85951926D01*
X175544369Y-85532878D02*
X175334845Y-85532878D01*
D10*
X147459052Y-108450251D02*
X147518576Y-108569298D01*
X147518576Y-108569298D02*
X147518576Y-108747870D01*
X147518576Y-108747870D02*
X147459052Y-108926441D01*
X147459052Y-108926441D02*
X147340004Y-109045489D01*
X147340004Y-109045489D02*
X147220957Y-109105012D01*
X147220957Y-109105012D02*
X146982861Y-109164536D01*
X146982861Y-109164536D02*
X146804290Y-109164536D01*
X146804290Y-109164536D02*
X146566195Y-109105012D01*
X146566195Y-109105012D02*
X146447147Y-109045489D01*
X146447147Y-109045489D02*
X146328100Y-108926441D01*
X146328100Y-108926441D02*
X146268576Y-108747870D01*
X146268576Y-108747870D02*
X146268576Y-108628822D01*
X146268576Y-108628822D02*
X146328100Y-108450251D01*
X146328100Y-108450251D02*
X146387623Y-108390727D01*
X146387623Y-108390727D02*
X146804290Y-108390727D01*
X146804290Y-108390727D02*
X146804290Y-108628822D01*
X146268576Y-107855012D02*
X147518576Y-107855012D01*
X147518576Y-107855012D02*
X147518576Y-107378822D01*
X147518576Y-107378822D02*
X147459052Y-107259774D01*
X147459052Y-107259774D02*
X147399528Y-107200251D01*
X147399528Y-107200251D02*
X147280480Y-107140727D01*
X147280480Y-107140727D02*
X147101909Y-107140727D01*
X147101909Y-107140727D02*
X146982861Y-107200251D01*
X146982861Y-107200251D02*
X146923338Y-107259774D01*
X146923338Y-107259774D02*
X146863814Y-107378822D01*
X146863814Y-107378822D02*
X146863814Y-107855012D01*
X146268576Y-106605012D02*
X147518576Y-106605012D01*
X147518576Y-105771679D02*
X147518576Y-105533584D01*
X147518576Y-105533584D02*
X147459052Y-105414536D01*
X147459052Y-105414536D02*
X147340004Y-105295489D01*
X147340004Y-105295489D02*
X147101909Y-105235965D01*
X147101909Y-105235965D02*
X146685242Y-105235965D01*
X146685242Y-105235965D02*
X146447147Y-105295489D01*
X146447147Y-105295489D02*
X146328100Y-105414536D01*
X146328100Y-105414536D02*
X146268576Y-105533584D01*
X146268576Y-105533584D02*
X146268576Y-105771679D01*
X146268576Y-105771679D02*
X146328100Y-105890727D01*
X146328100Y-105890727D02*
X146447147Y-106009774D01*
X146447147Y-106009774D02*
X146685242Y-106069298D01*
X146685242Y-106069298D02*
X147101909Y-106069298D01*
X147101909Y-106069298D02*
X147340004Y-106009774D01*
X147340004Y-106009774D02*
X147459052Y-105890727D01*
X147459052Y-105890727D02*
X147518576Y-105771679D01*
X147518576Y-104164536D02*
X147518576Y-104402631D01*
X147518576Y-104402631D02*
X147459052Y-104521679D01*
X147459052Y-104521679D02*
X147399528Y-104581203D01*
X147399528Y-104581203D02*
X147220957Y-104700250D01*
X147220957Y-104700250D02*
X146982861Y-104759774D01*
X146982861Y-104759774D02*
X146506671Y-104759774D01*
X146506671Y-104759774D02*
X146387623Y-104700250D01*
X146387623Y-104700250D02*
X146328100Y-104640727D01*
X146328100Y-104640727D02*
X146268576Y-104521679D01*
X146268576Y-104521679D02*
X146268576Y-104283584D01*
X146268576Y-104283584D02*
X146328100Y-104164536D01*
X146328100Y-104164536D02*
X146387623Y-104105012D01*
X146387623Y-104105012D02*
X146506671Y-104045489D01*
X146506671Y-104045489D02*
X146804290Y-104045489D01*
X146804290Y-104045489D02*
X146923338Y-104105012D01*
X146923338Y-104105012D02*
X146982861Y-104164536D01*
X146982861Y-104164536D02*
X147042385Y-104283584D01*
X147042385Y-104283584D02*
X147042385Y-104521679D01*
X147042385Y-104521679D02*
X146982861Y-104640727D01*
X146982861Y-104640727D02*
X146923338Y-104700250D01*
X146923338Y-104700250D02*
X146804290Y-104759774D01*
X147578100Y-102616917D02*
X145970957Y-103688346D01*
X146625719Y-102259774D02*
X146625719Y-101664536D01*
X146268576Y-102378822D02*
X147518576Y-101962155D01*
X147518576Y-101962155D02*
X146268576Y-101545489D01*
X146268576Y-101128821D02*
X147518576Y-101128821D01*
X147518576Y-101128821D02*
X147518576Y-100831202D01*
X147518576Y-100831202D02*
X147459052Y-100652631D01*
X147459052Y-100652631D02*
X147340004Y-100533583D01*
X147340004Y-100533583D02*
X147220957Y-100474060D01*
X147220957Y-100474060D02*
X146982861Y-100414536D01*
X146982861Y-100414536D02*
X146804290Y-100414536D01*
X146804290Y-100414536D02*
X146566195Y-100474060D01*
X146566195Y-100474060D02*
X146447147Y-100533583D01*
X146447147Y-100533583D02*
X146328100Y-100652631D01*
X146328100Y-100652631D02*
X146268576Y-100831202D01*
X146268576Y-100831202D02*
X146268576Y-101128821D01*
X146387623Y-99164536D02*
X146328100Y-99224060D01*
X146328100Y-99224060D02*
X146268576Y-99402631D01*
X146268576Y-99402631D02*
X146268576Y-99521679D01*
X146268576Y-99521679D02*
X146328100Y-99700250D01*
X146328100Y-99700250D02*
X146447147Y-99819298D01*
X146447147Y-99819298D02*
X146566195Y-99878821D01*
X146566195Y-99878821D02*
X146804290Y-99938345D01*
X146804290Y-99938345D02*
X146982861Y-99938345D01*
X146982861Y-99938345D02*
X147220957Y-99878821D01*
X147220957Y-99878821D02*
X147340004Y-99819298D01*
X147340004Y-99819298D02*
X147459052Y-99700250D01*
X147459052Y-99700250D02*
X147518576Y-99521679D01*
X147518576Y-99521679D02*
X147518576Y-99402631D01*
X147518576Y-99402631D02*
X147459052Y-99224060D01*
X147459052Y-99224060D02*
X147399528Y-99164536D01*
X147518576Y-98033583D02*
X147518576Y-98628821D01*
X147518576Y-98628821D02*
X146923338Y-98688345D01*
X146923338Y-98688345D02*
X146982861Y-98628821D01*
X146982861Y-98628821D02*
X147042385Y-98509774D01*
X147042385Y-98509774D02*
X147042385Y-98212155D01*
X147042385Y-98212155D02*
X146982861Y-98093107D01*
X146982861Y-98093107D02*
X146923338Y-98033583D01*
X146923338Y-98033583D02*
X146804290Y-97974060D01*
X146804290Y-97974060D02*
X146506671Y-97974060D01*
X146506671Y-97974060D02*
X146387623Y-98033583D01*
X146387623Y-98033583D02*
X146328100Y-98093107D01*
X146328100Y-98093107D02*
X146268576Y-98212155D01*
X146268576Y-98212155D02*
X146268576Y-98509774D01*
X146268576Y-98509774D02*
X146328100Y-98628821D01*
X146328100Y-98628821D02*
X146387623Y-98688345D01*
X141218576Y-81624060D02*
X141218576Y-80850251D01*
X141218576Y-80850251D02*
X140742385Y-81266917D01*
X140742385Y-81266917D02*
X140742385Y-81088346D01*
X140742385Y-81088346D02*
X140682861Y-80969298D01*
X140682861Y-80969298D02*
X140623338Y-80909774D01*
X140623338Y-80909774D02*
X140504290Y-80850251D01*
X140504290Y-80850251D02*
X140206671Y-80850251D01*
X140206671Y-80850251D02*
X140087623Y-80909774D01*
X140087623Y-80909774D02*
X140028100Y-80969298D01*
X140028100Y-80969298D02*
X139968576Y-81088346D01*
X139968576Y-81088346D02*
X139968576Y-81445489D01*
X139968576Y-81445489D02*
X140028100Y-81564536D01*
X140028100Y-81564536D02*
X140087623Y-81624060D01*
X140087623Y-80314536D02*
X140028100Y-80255013D01*
X140028100Y-80255013D02*
X139968576Y-80314536D01*
X139968576Y-80314536D02*
X140028100Y-80374060D01*
X140028100Y-80374060D02*
X140087623Y-80314536D01*
X140087623Y-80314536D02*
X139968576Y-80314536D01*
X141218576Y-79838346D02*
X141218576Y-79064537D01*
X141218576Y-79064537D02*
X140742385Y-79481203D01*
X140742385Y-79481203D02*
X140742385Y-79302632D01*
X140742385Y-79302632D02*
X140682861Y-79183584D01*
X140682861Y-79183584D02*
X140623338Y-79124060D01*
X140623338Y-79124060D02*
X140504290Y-79064537D01*
X140504290Y-79064537D02*
X140206671Y-79064537D01*
X140206671Y-79064537D02*
X140087623Y-79124060D01*
X140087623Y-79124060D02*
X140028100Y-79183584D01*
X140028100Y-79183584D02*
X139968576Y-79302632D01*
X139968576Y-79302632D02*
X139968576Y-79659775D01*
X139968576Y-79659775D02*
X140028100Y-79778822D01*
X140028100Y-79778822D02*
X140087623Y-79838346D01*
X141218576Y-78707394D02*
X139968576Y-78290727D01*
X139968576Y-78290727D02*
X141218576Y-77874061D01*
X136418576Y-79109774D02*
X136418576Y-79705012D01*
X136418576Y-79705012D02*
X135823338Y-79764536D01*
X135823338Y-79764536D02*
X135882861Y-79705012D01*
X135882861Y-79705012D02*
X135942385Y-79585965D01*
X135942385Y-79585965D02*
X135942385Y-79288346D01*
X135942385Y-79288346D02*
X135882861Y-79169298D01*
X135882861Y-79169298D02*
X135823338Y-79109774D01*
X135823338Y-79109774D02*
X135704290Y-79050251D01*
X135704290Y-79050251D02*
X135406671Y-79050251D01*
X135406671Y-79050251D02*
X135287623Y-79109774D01*
X135287623Y-79109774D02*
X135228100Y-79169298D01*
X135228100Y-79169298D02*
X135168576Y-79288346D01*
X135168576Y-79288346D02*
X135168576Y-79585965D01*
X135168576Y-79585965D02*
X135228100Y-79705012D01*
X135228100Y-79705012D02*
X135287623Y-79764536D01*
X136418576Y-78693108D02*
X135168576Y-78276441D01*
X135168576Y-78276441D02*
X136418576Y-77859775D01*
X140459052Y-108450251D02*
X140518576Y-108569298D01*
X140518576Y-108569298D02*
X140518576Y-108747870D01*
X140518576Y-108747870D02*
X140459052Y-108926441D01*
X140459052Y-108926441D02*
X140340004Y-109045489D01*
X140340004Y-109045489D02*
X140220957Y-109105012D01*
X140220957Y-109105012D02*
X139982861Y-109164536D01*
X139982861Y-109164536D02*
X139804290Y-109164536D01*
X139804290Y-109164536D02*
X139566195Y-109105012D01*
X139566195Y-109105012D02*
X139447147Y-109045489D01*
X139447147Y-109045489D02*
X139328100Y-108926441D01*
X139328100Y-108926441D02*
X139268576Y-108747870D01*
X139268576Y-108747870D02*
X139268576Y-108628822D01*
X139268576Y-108628822D02*
X139328100Y-108450251D01*
X139328100Y-108450251D02*
X139387623Y-108390727D01*
X139387623Y-108390727D02*
X139804290Y-108390727D01*
X139804290Y-108390727D02*
X139804290Y-108628822D01*
X139268576Y-107855012D02*
X140518576Y-107855012D01*
X140518576Y-107855012D02*
X140518576Y-107378822D01*
X140518576Y-107378822D02*
X140459052Y-107259774D01*
X140459052Y-107259774D02*
X140399528Y-107200251D01*
X140399528Y-107200251D02*
X140280480Y-107140727D01*
X140280480Y-107140727D02*
X140101909Y-107140727D01*
X140101909Y-107140727D02*
X139982861Y-107200251D01*
X139982861Y-107200251D02*
X139923338Y-107259774D01*
X139923338Y-107259774D02*
X139863814Y-107378822D01*
X139863814Y-107378822D02*
X139863814Y-107855012D01*
X139268576Y-106605012D02*
X140518576Y-106605012D01*
X140518576Y-105771679D02*
X140518576Y-105533584D01*
X140518576Y-105533584D02*
X140459052Y-105414536D01*
X140459052Y-105414536D02*
X140340004Y-105295489D01*
X140340004Y-105295489D02*
X140101909Y-105235965D01*
X140101909Y-105235965D02*
X139685242Y-105235965D01*
X139685242Y-105235965D02*
X139447147Y-105295489D01*
X139447147Y-105295489D02*
X139328100Y-105414536D01*
X139328100Y-105414536D02*
X139268576Y-105533584D01*
X139268576Y-105533584D02*
X139268576Y-105771679D01*
X139268576Y-105771679D02*
X139328100Y-105890727D01*
X139328100Y-105890727D02*
X139447147Y-106009774D01*
X139447147Y-106009774D02*
X139685242Y-106069298D01*
X139685242Y-106069298D02*
X140101909Y-106069298D01*
X140101909Y-106069298D02*
X140340004Y-106009774D01*
X140340004Y-106009774D02*
X140459052Y-105890727D01*
X140459052Y-105890727D02*
X140518576Y-105771679D01*
X140101909Y-104164536D02*
X139268576Y-104164536D01*
X140578100Y-104462155D02*
X139685242Y-104759774D01*
X139685242Y-104759774D02*
X139685242Y-103985965D01*
X140578100Y-102616917D02*
X138970957Y-103688346D01*
X139625719Y-102259774D02*
X139625719Y-101664536D01*
X139268576Y-102378822D02*
X140518576Y-101962155D01*
X140518576Y-101962155D02*
X139268576Y-101545489D01*
X139268576Y-101128821D02*
X140518576Y-101128821D01*
X140518576Y-101128821D02*
X140518576Y-100831202D01*
X140518576Y-100831202D02*
X140459052Y-100652631D01*
X140459052Y-100652631D02*
X140340004Y-100533583D01*
X140340004Y-100533583D02*
X140220957Y-100474060D01*
X140220957Y-100474060D02*
X139982861Y-100414536D01*
X139982861Y-100414536D02*
X139804290Y-100414536D01*
X139804290Y-100414536D02*
X139566195Y-100474060D01*
X139566195Y-100474060D02*
X139447147Y-100533583D01*
X139447147Y-100533583D02*
X139328100Y-100652631D01*
X139328100Y-100652631D02*
X139268576Y-100831202D01*
X139268576Y-100831202D02*
X139268576Y-101128821D01*
X139387623Y-99164536D02*
X139328100Y-99224060D01*
X139328100Y-99224060D02*
X139268576Y-99402631D01*
X139268576Y-99402631D02*
X139268576Y-99521679D01*
X139268576Y-99521679D02*
X139328100Y-99700250D01*
X139328100Y-99700250D02*
X139447147Y-99819298D01*
X139447147Y-99819298D02*
X139566195Y-99878821D01*
X139566195Y-99878821D02*
X139804290Y-99938345D01*
X139804290Y-99938345D02*
X139982861Y-99938345D01*
X139982861Y-99938345D02*
X140220957Y-99878821D01*
X140220957Y-99878821D02*
X140340004Y-99819298D01*
X140340004Y-99819298D02*
X140459052Y-99700250D01*
X140459052Y-99700250D02*
X140518576Y-99521679D01*
X140518576Y-99521679D02*
X140518576Y-99402631D01*
X140518576Y-99402631D02*
X140459052Y-99224060D01*
X140459052Y-99224060D02*
X140399528Y-99164536D01*
X140518576Y-98747869D02*
X140518576Y-97974060D01*
X140518576Y-97974060D02*
X140042385Y-98390726D01*
X140042385Y-98390726D02*
X140042385Y-98212155D01*
X140042385Y-98212155D02*
X139982861Y-98093107D01*
X139982861Y-98093107D02*
X139923338Y-98033583D01*
X139923338Y-98033583D02*
X139804290Y-97974060D01*
X139804290Y-97974060D02*
X139506671Y-97974060D01*
X139506671Y-97974060D02*
X139387623Y-98033583D01*
X139387623Y-98033583D02*
X139328100Y-98093107D01*
X139328100Y-98093107D02*
X139268576Y-98212155D01*
X139268576Y-98212155D02*
X139268576Y-98569298D01*
X139268576Y-98569298D02*
X139328100Y-98688345D01*
X139328100Y-98688345D02*
X139387623Y-98747869D01*
X133659052Y-108450251D02*
X133718576Y-108569298D01*
X133718576Y-108569298D02*
X133718576Y-108747870D01*
X133718576Y-108747870D02*
X133659052Y-108926441D01*
X133659052Y-108926441D02*
X133540004Y-109045489D01*
X133540004Y-109045489D02*
X133420957Y-109105012D01*
X133420957Y-109105012D02*
X133182861Y-109164536D01*
X133182861Y-109164536D02*
X133004290Y-109164536D01*
X133004290Y-109164536D02*
X132766195Y-109105012D01*
X132766195Y-109105012D02*
X132647147Y-109045489D01*
X132647147Y-109045489D02*
X132528100Y-108926441D01*
X132528100Y-108926441D02*
X132468576Y-108747870D01*
X132468576Y-108747870D02*
X132468576Y-108628822D01*
X132468576Y-108628822D02*
X132528100Y-108450251D01*
X132528100Y-108450251D02*
X132587623Y-108390727D01*
X132587623Y-108390727D02*
X133004290Y-108390727D01*
X133004290Y-108390727D02*
X133004290Y-108628822D01*
X132468576Y-107855012D02*
X133718576Y-107855012D01*
X133718576Y-107855012D02*
X133718576Y-107378822D01*
X133718576Y-107378822D02*
X133659052Y-107259774D01*
X133659052Y-107259774D02*
X133599528Y-107200251D01*
X133599528Y-107200251D02*
X133480480Y-107140727D01*
X133480480Y-107140727D02*
X133301909Y-107140727D01*
X133301909Y-107140727D02*
X133182861Y-107200251D01*
X133182861Y-107200251D02*
X133123338Y-107259774D01*
X133123338Y-107259774D02*
X133063814Y-107378822D01*
X133063814Y-107378822D02*
X133063814Y-107855012D01*
X132468576Y-106605012D02*
X133718576Y-106605012D01*
X133718576Y-105771679D02*
X133718576Y-105533584D01*
X133718576Y-105533584D02*
X133659052Y-105414536D01*
X133659052Y-105414536D02*
X133540004Y-105295489D01*
X133540004Y-105295489D02*
X133301909Y-105235965D01*
X133301909Y-105235965D02*
X132885242Y-105235965D01*
X132885242Y-105235965D02*
X132647147Y-105295489D01*
X132647147Y-105295489D02*
X132528100Y-105414536D01*
X132528100Y-105414536D02*
X132468576Y-105533584D01*
X132468576Y-105533584D02*
X132468576Y-105771679D01*
X132468576Y-105771679D02*
X132528100Y-105890727D01*
X132528100Y-105890727D02*
X132647147Y-106009774D01*
X132647147Y-106009774D02*
X132885242Y-106069298D01*
X132885242Y-106069298D02*
X133301909Y-106069298D01*
X133301909Y-106069298D02*
X133540004Y-106009774D01*
X133540004Y-106009774D02*
X133659052Y-105890727D01*
X133659052Y-105890727D02*
X133718576Y-105771679D01*
X133599528Y-104759774D02*
X133659052Y-104700250D01*
X133659052Y-104700250D02*
X133718576Y-104581203D01*
X133718576Y-104581203D02*
X133718576Y-104283584D01*
X133718576Y-104283584D02*
X133659052Y-104164536D01*
X133659052Y-104164536D02*
X133599528Y-104105012D01*
X133599528Y-104105012D02*
X133480480Y-104045489D01*
X133480480Y-104045489D02*
X133361433Y-104045489D01*
X133361433Y-104045489D02*
X133182861Y-104105012D01*
X133182861Y-104105012D02*
X132468576Y-104819298D01*
X132468576Y-104819298D02*
X132468576Y-104045489D01*
X133778100Y-102616917D02*
X132170957Y-103688346D01*
X132825719Y-102259774D02*
X132825719Y-101664536D01*
X132468576Y-102378822D02*
X133718576Y-101962155D01*
X133718576Y-101962155D02*
X132468576Y-101545489D01*
X132468576Y-101128821D02*
X133718576Y-101128821D01*
X133718576Y-101128821D02*
X133718576Y-100831202D01*
X133718576Y-100831202D02*
X133659052Y-100652631D01*
X133659052Y-100652631D02*
X133540004Y-100533583D01*
X133540004Y-100533583D02*
X133420957Y-100474060D01*
X133420957Y-100474060D02*
X133182861Y-100414536D01*
X133182861Y-100414536D02*
X133004290Y-100414536D01*
X133004290Y-100414536D02*
X132766195Y-100474060D01*
X132766195Y-100474060D02*
X132647147Y-100533583D01*
X132647147Y-100533583D02*
X132528100Y-100652631D01*
X132528100Y-100652631D02*
X132468576Y-100831202D01*
X132468576Y-100831202D02*
X132468576Y-101128821D01*
X132587623Y-99164536D02*
X132528100Y-99224060D01*
X132528100Y-99224060D02*
X132468576Y-99402631D01*
X132468576Y-99402631D02*
X132468576Y-99521679D01*
X132468576Y-99521679D02*
X132528100Y-99700250D01*
X132528100Y-99700250D02*
X132647147Y-99819298D01*
X132647147Y-99819298D02*
X132766195Y-99878821D01*
X132766195Y-99878821D02*
X133004290Y-99938345D01*
X133004290Y-99938345D02*
X133182861Y-99938345D01*
X133182861Y-99938345D02*
X133420957Y-99878821D01*
X133420957Y-99878821D02*
X133540004Y-99819298D01*
X133540004Y-99819298D02*
X133659052Y-99700250D01*
X133659052Y-99700250D02*
X133718576Y-99521679D01*
X133718576Y-99521679D02*
X133718576Y-99402631D01*
X133718576Y-99402631D02*
X133659052Y-99224060D01*
X133659052Y-99224060D02*
X133599528Y-99164536D01*
X132468576Y-97974060D02*
X132468576Y-98688345D01*
X132468576Y-98331202D02*
X133718576Y-98331202D01*
X133718576Y-98331202D02*
X133540004Y-98450250D01*
X133540004Y-98450250D02*
X133420957Y-98569298D01*
X133420957Y-98569298D02*
X133361433Y-98688345D01*
%LPC*%
D12*
%TO.C,C2*%
X124700000Y-104800000D03*
D13*
X124700000Y-102300000D03*
%TD*%
D14*
%TO.C,J5*%
X153900000Y-113150000D03*
X150400000Y-113150000D03*
X146900000Y-113150000D03*
X143400000Y-113150000D03*
X139900000Y-113150000D03*
X136400000Y-113150000D03*
X132900000Y-113150000D03*
D15*
X129400000Y-113150000D03*
%TD*%
D16*
%TO.C,REF\u002A\u002A*%
X122000000Y-115000000D03*
%TD*%
D17*
%TO.C,J3*%
X162790000Y-119130000D03*
D18*
X163100000Y-116130000D03*
X167940000Y-116130000D03*
D17*
X168250000Y-119130000D03*
%TD*%
D19*
%TO.C,J1*%
X130900000Y-75300000D03*
X135900000Y-75300000D03*
X140900000Y-75300000D03*
D20*
X145900000Y-75300000D03*
%TD*%
D16*
%TO.C,REF\u002A\u002A*%
X177000000Y-75000000D03*
%TD*%
%TO.C,REF\u002A\u002A*%
X177000000Y-115000000D03*
%TD*%
%TO.C,REF\u002A\u002A*%
X122000000Y-75000000D03*
%TD*%
%LPD*%
M02*
